<svg width="25" height="24" viewBox="0 0 25 24" fill="none" xmlns="http://www.w3.org/2000/svg">
<path d="M20.5 8H4.5V6H20.5V8ZM18.5 2H6.5V4H18.5V2ZM22.5 12V20C22.5 20.5304 22.2893 21.0391 21.9142 21.4142C21.5391 21.7893 21.0304 22 20.5 22H4.5C3.97005 21.9984 3.46227 21.7872 3.08753 21.4125C2.7128 21.0377 2.50158 20.5299 2.5 20V12C2.50158 11.4701 2.7128 10.9623 3.08753 10.5875C3.46227 10.2128 3.97005 10.0016 4.5 10H20.5C21.0299 10.0016 21.5377 10.2128 21.9125 10.5875C22.2872 10.9623 22.4984 11.4701 22.5 12ZM14.427 17.042L16.75 15.056L13.691 14.8L12.5 12L11.309 14.8L8.25 15.056L10.573 17.042L9.873 20L12.5 18.428L15.127 20L14.427 17.042Z" fill="#068F36"/>
</svg>
