<svg width="25" height="25" viewBox="0 0 25 25" fill="none" xmlns="http://www.w3.org/2000/svg">
<path d="M5.40039 18.8003H20.1504C20.1504 18.8003 19.9004 19.1003 19.9004 20.3003C19.9004 21.5003 20.1504 21.8003 20.1504 21.8003H7.90039C7.23735 21.8003 6.60146 21.5369 6.13262 21.0681C5.66378 20.5992 5.40039 19.9633 5.40039 19.3003V18.8003Z" fill="url(#paint0_linear_1073_16305)"/>
<path d="M7.52539 2.30029C6.69659 2.30029 5.90173 2.62953 5.31568 3.21558C4.72963 3.80164 4.40039 4.59649 4.40039 5.42529V19.1753C4.40039 20.0041 4.72963 20.799 5.31568 21.385C5.90173 21.9711 6.69659 22.3003 7.52539 22.3003H19.7754C19.9412 22.3003 20.1001 22.2344 20.2173 22.1172C20.3345 22 20.4004 21.8411 20.4004 21.6753C20.4004 21.5095 20.3345 21.3506 20.2173 21.2334C20.1001 21.1161 19.9412 21.0503 19.7754 21.0503H7.52539C7.09315 21.0504 6.67415 20.9011 6.3393 20.6278C6.00446 20.3544 5.77434 19.9738 5.68789 19.5503H19.2754C19.5738 19.5503 19.8599 19.4318 20.0709 19.2208C20.2819 19.0098 20.4004 18.7237 20.4004 18.4253V5.42529C20.4004 4.59649 20.0712 3.80164 19.4851 3.21558C18.899 2.62953 18.1042 2.30029 17.2754 2.30029H7.52539Z" fill="url(#paint1_linear_1073_16305)"/>
<path d="M8.52539 5.30029C8.22702 5.30029 7.94087 5.41882 7.7299 5.6298C7.51892 5.84078 7.40039 6.12692 7.40039 6.42529V8.67529C7.40039 8.82303 7.42949 8.96932 7.48603 9.10581C7.54256 9.2423 7.62543 9.36632 7.7299 9.47079C7.83436 9.57525 7.95838 9.65812 8.09487 9.71466C8.23136 9.77119 8.37765 9.80029 8.52539 9.80029H16.2754C16.4231 9.80029 16.5694 9.77119 16.7059 9.71466C16.8424 9.65812 16.9664 9.57525 17.0709 9.47079C17.1754 9.36632 17.2582 9.2423 17.3148 9.10581C17.3713 8.96932 17.4004 8.82303 17.4004 8.67529V6.42529C17.4004 6.12692 17.2819 5.84078 17.0709 5.6298C16.8599 5.41882 16.5738 5.30029 16.2754 5.30029H8.52539Z" fill="url(#paint2_linear_1073_16305)"/>
<defs>
<linearGradient id="paint0_linear_1073_16305" x1="12.3354" y1="21.2003" x2="12.3354" y2="18.8003" gradientUnits="userSpaceOnUse">
<stop stop-color="#9DEAFF"/>
<stop offset="0.716" stop-color="#58AAFE"/>
</linearGradient>
<linearGradient id="paint1_linear_1073_16305" x1="9.92089" y1="6.04229" x2="12.9979" y2="27.5828" gradientUnits="userSpaceOnUse">
<stop stop-color="#20AC9D"/>
<stop offset="1" stop-color="#2052CB"/>
</linearGradient>
<linearGradient id="paint2_linear_1073_16305" x1="10.8494" y1="4.52829" x2="16.2569" y2="12.0068" gradientUnits="userSpaceOnUse">
<stop stop-color="#9FF0F9"/>
<stop offset="1" stop-color="#6CE0FF"/>
</linearGradient>
</defs>
</svg>
