<svg width="25" height="25" viewBox="0 0 25 25" fill="none" xmlns="http://www.w3.org/2000/svg">
<g clip-path="url(#clip0_1073_16196)">
<path d="M18.3519 0.899902H6.44602C5.94084 0.899902 5.45636 1.10056 5.09911 1.45773C4.74186 1.81491 4.54112 2.29935 4.54102 2.80453V22.9964C4.54151 23.5015 4.74239 23.9857 5.09955 24.3428C5.45671 24.6999 5.94097 24.9006 6.44602 24.901H18.3519C18.857 24.9003 19.3412 24.6995 19.6984 24.3425C20.0557 23.9855 20.2569 23.5015 20.258 22.9964V2.80753C20.2574 2.30231 20.0564 1.81798 19.699 1.46088C19.3416 1.10378 18.8571 0.903101 18.3519 0.902902" fill="#405866"/>
<path d="M17.1181 2.35355H7.68313C7.28297 2.35355 6.89914 2.51226 6.61583 2.79486C6.33253 3.07746 6.17287 3.46089 6.17188 3.86105V19.8612C6.17287 20.2613 6.33253 20.6448 6.61583 20.9274C6.89914 21.21 7.28297 21.3687 7.68313 21.3687H17.1181C17.9506 21.3687 18.6256 20.6899 18.6256 19.8612V3.85955C18.6256 3.02705 17.9487 2.35205 17.1181 2.35205" fill="#85CFEA"/>
<path d="M12.1382 2.35329H7.68508C7.28492 2.35329 6.90109 2.51199 6.61779 2.7946C6.33448 3.0772 6.17482 3.46063 6.17383 3.86079V19.8609C6.17482 20.2611 6.33448 20.6445 6.61779 20.9271C6.90109 21.2097 7.28492 21.3684 7.68508 21.3684H17.1201C17.425 21.3684 17.7066 21.275 17.9436 21.1213C13.9322 15.896 11.785 8.87191 12.1393 2.35254" fill="#28A6DE"/>
<path d="M13.6376 23.1713C13.6376 23.8527 13.0841 24.4081 12.4013 24.4081C11.7184 24.4081 11.1649 23.8531 11.1649 23.1713C11.1649 22.4896 11.7184 21.9346 12.4013 21.9346C13.0841 21.9346 13.6376 22.4896 13.6376 23.1713ZM8.87325 23.1713C8.87578 23.2916 8.85427 23.4112 8.81 23.5231C8.76572 23.635 8.69956 23.7369 8.6154 23.8229C8.53124 23.9089 8.43076 23.9773 8.31986 24.0239C8.20895 24.0706 8.08985 24.0947 7.96952 24.0948C7.84919 24.0949 7.73005 24.0709 7.61909 24.0244C7.50812 23.9778 7.40756 23.9096 7.32329 23.8237C7.23903 23.7378 7.17274 23.636 7.12833 23.5242C7.08391 23.4123 7.06226 23.2928 7.06463 23.1724C7.0693 22.9358 7.16655 22.7104 7.33552 22.5446C7.50448 22.3789 7.73169 22.2859 7.96839 22.2858C8.20509 22.2856 8.43242 22.3783 8.60159 22.5438C8.77076 22.7094 8.86829 22.9347 8.87325 23.1713ZM15.9289 23.1713C15.9254 23.2922 15.9462 23.4126 15.9901 23.5254C16.0339 23.6381 16.1 23.7409 16.1843 23.8277C16.2686 23.9144 16.3694 23.9834 16.4809 24.0305C16.5923 24.0776 16.712 24.1019 16.833 24.1019C16.954 24.1019 17.0737 24.0776 17.1851 24.0305C17.2966 23.9834 17.3974 23.9144 17.4817 23.8277C17.566 23.7409 17.6321 23.6381 17.6759 23.5254C17.7198 23.4126 17.7406 23.2922 17.7371 23.1713C17.7371 22.9315 17.6419 22.7016 17.4723 22.532C17.3028 22.3625 17.0728 22.2672 16.833 22.2672C16.5932 22.2672 16.3632 22.3625 16.1937 22.532C16.0241 22.7016 15.9289 22.9315 15.9289 23.1713Z" fill="#CBD5DC"/>
</g>
<defs>
<clipPath id="clip0_1073_16196">
<rect width="24" height="24" fill="white" transform="translate(0.400391 0.899902)"/>
</clipPath>
</defs>
</svg>
