<svg width="27" height="27" viewBox="0 0 27 27" fill="none" xmlns="http://www.w3.org/2000/svg">
<path d="M20.0996 14.1128V19.8003C20.0996 20.6622 19.7572 21.4889 19.1477 22.0984C18.5382 22.7079 17.7116 23.0503 16.8496 23.0503H8.72461C7.86266 23.0503 7.03601 22.7079 6.42651 22.0984C5.81702 21.4889 5.47461 20.6622 5.47461 19.8003V14.1128H20.0996Z" fill="url(#paint0_linear_1073_16175)"/>
<path d="M20.0996 8.42529C20.5306 8.42529 20.9439 8.5965 21.2487 8.90124C21.5534 9.20599 21.7246 9.61932 21.7246 10.0503V13.3003C21.7246 13.7313 21.5534 14.1446 21.2487 14.4493C20.9439 14.7541 20.5306 14.9253 20.0996 14.9253H5.47461C5.04363 14.9253 4.63031 14.7541 4.32556 14.4493C4.02081 14.1446 3.84961 13.7313 3.84961 13.3003V10.0503C3.84961 9.61932 4.02081 9.20599 4.32556 8.90124C4.63031 8.5965 5.04363 8.42529 5.47461 8.42529H20.0996Z" fill="url(#paint1_radial_1073_16175)"/>
<path d="M13.5996 14.1128V23.0503H11.9746V14.1128H13.5996Z" fill="url(#paint2_linear_1073_16175)"/>
<path d="M13.5996 8.42529V14.9253H11.9746V8.42529H13.5996Z" fill="url(#paint3_linear_1073_16175)"/>
<path fill-rule="evenodd" clip-rule="evenodd" d="M10.3494 10.0503C9.80637 10.0503 9.27197 9.91415 8.79506 9.65439C8.31815 9.39463 7.91393 9.01951 7.61934 8.56329C7.32475 8.10707 7.14918 7.5843 7.10867 7.04275C7.06815 6.5012 7.16399 5.95813 7.38742 5.46316C7.61085 4.96819 7.95475 4.5371 8.3877 4.20927C8.82065 3.88144 9.32885 3.66733 9.86586 3.5865C10.4029 3.50566 10.9516 3.56069 11.4619 3.74654C11.9721 3.93239 12.4277 4.24315 12.7869 4.65042C13.1462 4.24315 13.6017 3.93239 14.112 3.74654C14.6223 3.56069 15.171 3.50566 15.708 3.5865C16.245 3.66733 16.7532 3.88144 17.1862 4.20927C17.6191 4.5371 17.963 4.96819 18.1864 5.46316C18.4099 5.95813 18.5057 6.5012 18.4652 7.04275C18.4247 7.5843 18.2491 8.10707 17.9545 8.56329C17.6599 9.01951 17.2557 9.39463 16.7788 9.65439C16.3019 9.91415 15.7675 10.0503 15.2244 10.0503H10.3494ZM8.72443 6.80029C8.72443 6.36932 8.89564 5.95599 9.20038 5.65125C9.50513 5.3465 9.91846 5.17529 10.3494 5.17529C10.7804 5.17529 11.1937 5.3465 11.4985 5.65125C11.8032 5.95599 11.9744 6.36932 11.9744 6.80029V8.42529H10.3494C9.91846 8.42529 9.50513 8.25409 9.20038 7.94934C8.89564 7.6446 8.72443 7.23127 8.72443 6.80029ZM13.5994 8.42529H15.2244C15.5458 8.42529 15.86 8.32999 16.1272 8.15143C16.3945 7.97287 16.6027 7.71908 16.7257 7.42215C16.8487 7.12522 16.8809 6.79849 16.8182 6.48327C16.7555 6.16805 16.6007 5.87851 16.3735 5.65125C16.1462 5.42398 15.8567 5.26922 15.5415 5.20652C15.2262 5.14382 14.8995 5.176 14.6026 5.29899C14.3056 5.42198 14.0519 5.63026 13.8733 5.89749C13.6947 6.16472 13.5994 6.4789 13.5994 6.80029V8.42529Z" fill="black"/>
<path fill-rule="evenodd" clip-rule="evenodd" d="M10.3494 10.0503C9.80637 10.0503 9.27197 9.91415 8.79506 9.65439C8.31815 9.39463 7.91393 9.01951 7.61934 8.56329C7.32475 8.10707 7.14918 7.5843 7.10867 7.04275C7.06815 6.5012 7.16399 5.95813 7.38742 5.46316C7.61085 4.96819 7.95475 4.5371 8.3877 4.20927C8.82065 3.88144 9.32885 3.66733 9.86586 3.5865C10.4029 3.50566 10.9516 3.56069 11.4619 3.74654C11.9721 3.93239 12.4277 4.24315 12.7869 4.65042C13.1462 4.24315 13.6017 3.93239 14.112 3.74654C14.6223 3.56069 15.171 3.50566 15.708 3.5865C16.245 3.66733 16.7532 3.88144 17.1862 4.20927C17.6191 4.5371 17.963 4.96819 18.1864 5.46316C18.4099 5.95813 18.5057 6.5012 18.4652 7.04275C18.4247 7.5843 18.2491 8.10707 17.9545 8.56329C17.6599 9.01951 17.2557 9.39463 16.7788 9.65439C16.3019 9.91415 15.7675 10.0503 15.2244 10.0503H10.3494ZM8.72443 6.80029C8.72443 6.36932 8.89564 5.95599 9.20038 5.65125C9.50513 5.3465 9.91846 5.17529 10.3494 5.17529C10.7804 5.17529 11.1937 5.3465 11.4985 5.65125C11.8032 5.95599 11.9744 6.36932 11.9744 6.80029V8.42529H10.3494C9.91846 8.42529 9.50513 8.25409 9.20038 7.94934C8.89564 7.6446 8.72443 7.23127 8.72443 6.80029ZM13.5994 8.42529H15.2244C15.5458 8.42529 15.86 8.32999 16.1272 8.15143C16.3945 7.97287 16.6027 7.71908 16.7257 7.42215C16.8487 7.12522 16.8809 6.79849 16.8182 6.48327C16.7555 6.16805 16.6007 5.87851 16.3735 5.65125C16.1462 5.42398 15.8567 5.26922 15.5415 5.20652C15.2262 5.14382 14.8995 5.176 14.6026 5.29899C14.3056 5.42198 14.0519 5.63026 13.8733 5.89749C13.6947 6.16472 13.5994 6.4789 13.5994 6.80029V8.42529Z" fill="url(#paint4_linear_1073_16175)"/>
<defs>
<linearGradient id="paint0_linear_1073_16175" x1="11.8544" y1="26.5619" x2="11.8544" y2="10.632" gradientUnits="userSpaceOnUse">
<stop stop-color="#BB45EA"/>
<stop offset="0.348" stop-color="#8B57ED"/>
<stop offset="1" stop-color="#5B2AB5"/>
</linearGradient>
<radialGradient id="paint1_radial_1073_16175" cx="0" cy="0" r="1" gradientUnits="userSpaceOnUse" gradientTransform="translate(12.7871 5.98779) scale(23.022 10.1563)">
<stop offset="0.196" stop-color="#5B2AB5"/>
<stop offset="0.763" stop-color="#8B57ED"/>
<stop offset="1" stop-color="#BB45EA"/>
</radialGradient>
<linearGradient id="paint2_linear_1073_16175" x1="11.9746" y1="9.08504" x2="11.9746" y2="21.4952" gradientUnits="userSpaceOnUse">
<stop stop-color="#FB5937"/>
<stop offset="1" stop-color="#FFCD0F"/>
</linearGradient>
<linearGradient id="paint3_linear_1073_16175" x1="11.9746" y1="-19.4321" x2="11.9746" y2="26.0679" gradientUnits="userSpaceOnUse">
<stop stop-color="#FB5937"/>
<stop offset="1" stop-color="#FFCD0F"/>
</linearGradient>
<linearGradient id="paint4_linear_1073_16175" x1="15.9459" y1="10.0487" x2="12.6261" y2="-3.33321" gradientUnits="userSpaceOnUse">
<stop stop-color="#FF6F47"/>
<stop offset="1" stop-color="#FFCD0F"/>
</linearGradient>
</defs>
</svg>
