<svg width="25" height="25" viewBox="0 0 25 25" fill="none" xmlns="http://www.w3.org/2000/svg">
<g clip-path="url(#clip0_1073_16155)">
<path d="M17.1102 23.3206C17.1102 24.0566 15.0166 24.6532 12.434 24.6532C9.85144 24.6532 7.75781 24.0566 7.75781 23.3206C7.75781 22.7253 10.0191 20.9843 11.529 20.3404V12.7056H13.339V20.3404C14.8489 20.9843 17.1102 22.7253 17.1102 23.3206Z" fill="#D1CFC3"/>
<path d="M22.73 9.77952C22.73 9.77952 22.5897 18.5521 12.3258 18.5521C2.06181 18.5521 2.13869 9.77952 2.13869 9.77952C2.13869 9.76302 2.14094 9.74727 2.14188 9.7311C2.20741 11.1864 6.78911 12.3611 12.4343 12.3611C18.0798 12.3611 22.6615 11.1864 22.7268 9.73096C22.7278 9.74718 22.73 9.76302 22.73 9.77952Z" fill="#E5E4DF"/>
<path d="M12.4343 7.03809C6.74831 7.03809 2.13867 8.22965 2.13867 9.6996C2.13867 9.7101 2.14134 9.7206 2.14186 9.7311C2.20739 11.1864 6.78909 12.3611 12.4343 12.3611C18.0797 12.3611 22.6615 11.1864 22.7268 9.73096C22.7274 9.72046 22.7299 9.7101 22.7299 9.6996C22.7299 8.22965 18.1205 7.03809 12.4343 7.03809Z" fill="#D1CFC3"/>
<path d="M12.1495 10.2725C12.1495 11.0227 11.9672 11.7303 11.6447 12.3536C7.86092 12.2795 4.64994 11.6765 3.11225 10.83C3.08958 10.645 3.07818 10.4589 3.07813 10.2725C3.07812 7.76749 5.1088 5.73682 7.6138 5.73682C10.1188 5.73682 12.1495 7.76749 12.1495 10.2725Z" fill="#77431D"/>
<path d="M21.0711 10.8363C21.0711 10.9426 21.0674 11.048 21.0608 11.1527C19.224 11.8804 16.0474 12.3613 12.435 12.3613C12.0327 12.3613 11.6359 12.3552 11.2456 12.3436C11.0927 11.8558 11.0152 11.3475 11.0156 10.8363C11.0156 8.05958 13.2666 5.80859 16.0433 5.80859C18.8201 5.80855 21.0711 8.05953 21.0711 10.8363Z" fill="#FFE1AB"/>
<path d="M19.7027 7.37429C19.7027 8.15691 19.0683 8.79136 18.2857 8.79136C18.1485 8.79136 18.016 8.77149 17.8905 8.73511C17.9124 9.2925 17.6022 9.834 17.0634 10.0802C16.5202 10.3285 15.9021 10.2045 15.495 9.81549C15.3146 10.3906 14.7775 10.8077 14.1428 10.8077C13.4719 10.8077 12.9103 10.3413 12.7635 9.71508C12.5037 10.017 12.119 10.2084 11.6894 10.2084C10.9068 10.2084 10.2723 9.57399 10.2723 8.79136C10.2723 8.77257 10.273 8.75396 10.2737 8.73535C9.66717 8.91207 8.99503 8.66457 8.65856 8.09574C8.26012 7.42214 8.48315 6.55308 9.15679 6.15464C9.31167 6.06287 9.48269 6.00158 9.66061 5.97408C9.62499 5.74323 9.60713 5.50998 9.60717 5.27639C9.60717 2.77139 11.6378 0.740723 14.1428 0.740723C16.6478 0.740723 18.6785 2.77139 18.6785 5.27639C18.6785 5.52188 18.6587 5.76268 18.6212 5.99761C19.2419 6.14832 19.7027 6.70735 19.7027 7.37429Z" fill="#FFA9BA"/>
</g>
<defs>
<clipPath id="clip0_1073_16155">
<rect width="24" height="24" fill="white" transform="translate(0.400391 0.700195)"/>
</clipPath>
</defs>
</svg>
