<svg width="26" height="25" viewBox="0 0 26 25" fill="none" xmlns="http://www.w3.org/2000/svg">
<g clip-path="url(#clip0_1073_16214)">
<path d="M9.10039 11.6002C11.9052 11.6002 14.1754 9.33004 14.1754 6.5252C14.1754 3.72035 11.9052 1.4502 9.10039 1.4502C6.29555 1.4502 4.02539 3.72035 4.02539 6.5252C4.02539 9.33004 6.29555 11.6002 9.10039 11.6002ZM12.5804 13.0502H12.2043C11.2618 13.5033 10.2151 13.7752 9.10039 13.7752C7.9857 13.7752 6.94352 13.5033 5.99648 13.0502H5.62039C2.73852 13.0502 0.400391 15.3883 0.400391 18.2702V19.5752C0.400391 20.776 1.37461 21.7502 2.57539 21.7502H15.6254C16.8262 21.7502 17.8004 20.776 17.8004 19.5752V18.2702C17.8004 15.3883 15.4623 13.0502 12.5804 13.0502ZM22.1504 11.6002C24.552 11.6002 26.5004 9.65176 26.5004 7.2502C26.5004 4.84863 24.552 2.9002 22.1504 2.9002C19.7488 2.9002 17.8004 4.84863 17.8004 7.2502C17.8004 9.65176 19.7488 11.6002 22.1504 11.6002ZM24.3254 13.0502H24.1532C23.5234 13.2677 22.8573 13.4127 22.1504 13.4127C21.4435 13.4127 20.7774 13.2677 20.1476 13.0502H19.9754C19.051 13.0502 18.1991 13.3175 17.4515 13.748C18.5571 14.9397 19.2504 16.5211 19.2504 18.2702V20.0102C19.2504 20.1099 19.2277 20.205 19.2232 20.3002H27.2254C28.4262 20.3002 29.4004 19.326 29.4004 18.1252C29.4004 15.3204 27.1302 13.0502 24.3254 13.0502Z" fill="#A5ED6E"/>
<path d="M21.9578 14.0625C22.2047 14.0624 22.4492 14.1109 22.6774 14.2054C22.9055 14.2998 23.1128 14.4382 23.2875 14.6128C23.4621 14.7873 23.6006 14.9946 23.6951 15.2227C23.7896 15.4508 23.8383 15.6953 23.8383 15.9422C23.8383 15.9422 23.8383 19.5312 18.3695 19.5312H18.3711C12.9023 19.5312 12.9023 15.9422 12.9023 15.9422C12.9023 15.6953 12.951 15.4509 13.0454 15.2229C13.1399 14.9948 13.2783 14.7876 13.4529 14.613C13.6274 14.4385 13.8347 14.3 14.0627 14.2056C14.2908 14.1111 14.5352 14.0625 14.782 14.0625H21.9578Z" fill="url(#paint0_linear_1073_16214)"/>
<path d="M21.9578 14.0625C22.2047 14.0624 22.4492 14.1109 22.6774 14.2054C22.9055 14.2998 23.1128 14.4382 23.2875 14.6128C23.4621 14.7873 23.6006 14.9946 23.6951 15.2227C23.7896 15.4508 23.8383 15.6953 23.8383 15.9422C23.8383 15.9422 23.8383 19.5312 18.3695 19.5312H18.3711C12.9023 19.5312 12.9023 15.9422 12.9023 15.9422C12.9023 15.6953 12.951 15.4509 13.0454 15.2229C13.1399 14.9948 13.2783 14.7876 13.4529 14.613C13.6274 14.4385 13.8347 14.3 14.0627 14.2056C14.2908 14.1111 14.5352 14.0625 14.782 14.0625H21.9578Z" fill="url(#paint1_radial_1073_16214)" fill-opacity="0.5"/>
<path d="M4.30664 14.0625C3.68504 14.0625 3.0889 14.3094 2.64936 14.749C2.20982 15.1885 1.96289 15.7846 1.96289 16.4062V16.5234C1.96289 16.5234 1.96289 21.0938 8.60352 21.0938C15.2441 21.0938 15.2441 16.5234 15.2441 16.5234V16.4062C15.2441 15.7846 14.9972 15.1885 14.5577 14.749C14.1181 14.3094 13.522 14.0625 12.9004 14.0625H4.30664Z" fill="url(#paint2_linear_1073_16214)"/>
<path d="M4.30664 14.0625C3.68504 14.0625 3.0889 14.3094 2.64936 14.749C2.20982 15.1885 1.96289 15.7846 1.96289 16.4062V16.5234C1.96289 16.5234 1.96289 21.0938 8.60352 21.0938C15.2441 21.0938 15.2441 16.5234 15.2441 16.5234V16.4062C15.2441 15.7846 14.9972 15.1885 14.5577 14.749C14.1181 14.3094 13.522 14.0625 12.9004 14.0625H4.30664Z" fill="url(#paint3_linear_1073_16214)"/>
<path d="M18.3691 12.5C19.1979 12.5 19.9928 12.1708 20.5788 11.5847C21.1649 10.9987 21.4941 10.2038 21.4941 9.375C21.4941 8.5462 21.1649 7.75134 20.5788 7.16529C19.9928 6.57924 19.1979 6.25 18.3691 6.25C17.5403 6.25 16.7455 6.57924 16.1594 7.16529C15.5734 7.75134 15.2441 8.5462 15.2441 9.375C15.2441 10.2038 15.5734 10.9987 16.1594 11.5847C16.7455 12.1708 17.5403 12.5 18.3691 12.5Z" fill="url(#paint4_linear_1073_16214)"/>
<path d="M8.60352 12.5C9.74312 12.5 10.836 12.0473 11.6419 11.2415C12.4477 10.4357 12.9004 9.34273 12.9004 8.20312C12.9004 7.06352 12.4477 5.9706 11.6419 5.16478C10.836 4.35896 9.74312 3.90625 8.60352 3.90625C7.46391 3.90625 6.37099 4.35896 5.56517 5.16478C4.75935 5.9706 4.30664 7.06352 4.30664 8.20312C4.30664 9.34273 4.75935 10.4357 5.56517 11.2415C6.37099 12.0473 7.46391 12.5 8.60352 12.5Z" fill="url(#paint5_linear_1073_16214)"/>
</g>
<defs>
<linearGradient id="paint0_linear_1073_16214" x1="15.5031" y1="14.7891" x2="17.2703" y2="20.432" gradientUnits="userSpaceOnUse">
<stop offset="0.125" stop-color="#9C6CFE"/>
<stop offset="1" stop-color="#7A41DC"/>
</linearGradient>
<radialGradient id="paint1_radial_1073_16214" cx="0" cy="0" r="1" gradientUnits="userSpaceOnUse" gradientTransform="translate(11.5156 16.7969) rotate(-6.32375) scale(7.24058 6.45808)">
<stop offset="0.392" stop-color="#3B148A"/>
<stop offset="1" stop-color="#3B148A" stop-opacity="0"/>
</radialGradient>
<linearGradient id="paint2_linear_1073_16214" x1="5.12148" y1="14.9969" x2="7.50039" y2="22.1742" gradientUnits="userSpaceOnUse">
<stop offset="0.125" stop-color="#BD96FF"/>
<stop offset="1" stop-color="#9C6CFE"/>
</linearGradient>
<linearGradient id="paint3_linear_1073_16214" x1="8.60351" y1="13.2258" x2="11.9441" y2="25.0164" gradientUnits="userSpaceOnUse">
<stop stop-color="#885EDB" stop-opacity="0"/>
<stop offset="1" stop-color="#E362F8"/>
</linearGradient>
<linearGradient id="paint4_linear_1073_16214" x1="16.7301" y1="7.08047" x2="19.916" y2="12.1672" gradientUnits="userSpaceOnUse">
<stop offset="0.125" stop-color="#9C6CFE"/>
<stop offset="1" stop-color="#7A41DC"/>
</linearGradient>
<linearGradient id="paint5_linear_1073_16214" x1="6.35039" y1="5.04844" x2="10.7301" y2="12.0422" gradientUnits="userSpaceOnUse">
<stop offset="0.125" stop-color="#BD96FF"/>
<stop offset="1" stop-color="#9C6CFE"/>
</linearGradient>
<clipPath id="clip0_1073_16214">
<rect width="25" height="25" fill="white" transform="translate(0.400391)"/>
</clipPath>
</defs>
</svg>
