<svg width="25" height="25" viewBox="0 0 25 25" fill="none" xmlns="http://www.w3.org/2000/svg">
<path d="M14.8503 5.9502H9.95725C9.13797 5.9501 8.3267 6.11139 7.56976 6.42487C6.81283 6.73835 6.12506 7.19787 5.54574 7.77719C4.96643 8.35651 4.50691 9.04427 4.19343 9.80121C3.87995 10.5581 3.71865 11.3694 3.71875 12.1887V13.1809H21.0963V12.1887C21.0888 8.7462 18.2928 5.9502 14.8503 5.9502Z" fill="#D99A64"/>
<path d="M14.8503 5.9502H9.95725C9.13797 5.9501 8.3267 6.11139 7.56976 6.42487C6.81283 6.73835 6.12506 7.19787 5.54574 7.77719C4.96643 8.35651 4.50691 9.04427 4.19343 9.80121C3.87995 10.5581 3.71865 11.3694 3.71875 12.1887V13.1809H21.0963V12.1887C21.0888 8.7462 18.2928 5.9502 14.8503 5.9502Z" fill="url(#paint0_radial_1073_16251)"/>
<g filter="url(#filter0_f_1073_16251)">
<path d="M12.2281 10.8036C12.3058 10.8064 12.3833 10.7935 12.456 10.7657C12.5286 10.7379 12.5949 10.6957 12.6509 10.6417C12.7069 10.5877 12.7514 10.523 12.7818 10.4514C12.8122 10.3798 12.8279 10.3028 12.8279 10.225C12.8279 10.1472 12.8122 10.0702 12.7818 9.99862C12.7514 9.92702 12.7069 9.86229 12.6509 9.80828C12.5949 9.75427 12.5286 9.7121 12.456 9.68428C12.3833 9.65647 12.3058 9.64357 12.2281 9.64637C12.0782 9.65177 11.9363 9.71509 11.8322 9.82301C11.7281 9.93094 11.6699 10.075 11.6699 10.225C11.6699 10.3749 11.7281 10.5191 11.8322 10.627C11.9363 10.7349 12.0782 10.7982 12.2281 10.8036Z" fill="#E5A671"/>
</g>
<path d="M12.4 10.6474C12.4777 10.6502 12.5552 10.6373 12.6279 10.6095C12.7005 10.5816 12.7668 10.5395 12.8228 10.4855C12.8788 10.4315 12.9233 10.3667 12.9537 10.2951C12.9841 10.2235 12.9998 10.1465 12.9998 10.0687C12.9998 9.99096 12.9841 9.91397 12.9537 9.84237C12.9233 9.77077 12.8788 9.70604 12.8228 9.65203C12.7668 9.59802 12.7005 9.55585 12.6279 9.52803C12.5552 9.50022 12.4777 9.48732 12.4 9.49012C12.2501 9.49552 12.1082 9.55884 12.0041 9.66676C11.9 9.77469 11.8418 9.91879 11.8418 10.0687C11.8418 10.2187 11.9 10.3628 12.0041 10.4707C12.1082 10.5787 12.2501 10.642 12.4 10.6474Z" fill="url(#paint1_radial_1073_16251)"/>
<g filter="url(#filter1_f_1073_16251)">
<path d="M8.17672 10.2252C8.52547 10.2252 8.80897 9.9402 8.80897 9.5877C8.80897 9.2352 8.52547 8.9502 8.17597 8.9502C8.09255 8.95049 8.01 8.96721 7.93304 8.99941C7.85608 9.03161 7.78622 9.07865 7.72744 9.13785C7.66866 9.19704 7.62212 9.26724 7.59047 9.34442C7.55882 9.42161 7.54268 9.50427 7.54297 9.5877C7.54297 9.9402 7.82722 10.2252 8.17672 10.2252Z" fill="#DE9B64"/>
</g>
<path d="M8.56022 9.98661C8.71378 9.98651 8.86101 9.92542 8.96952 9.81676C9.07804 9.70811 9.13894 9.5608 9.13884 9.40724C9.13874 9.25368 9.07765 9.10645 8.96899 8.99793C8.86034 8.88942 8.71303 8.82851 8.55947 8.82861C8.40591 8.82861 8.25864 8.88961 8.15005 8.9982C8.04147 9.10678 7.98047 9.25405 7.98047 9.40761C7.98047 9.56117 8.04147 9.70844 8.15005 9.81703C8.25864 9.92561 8.40591 9.98661 8.55947 9.98661" fill="url(#paint2_radial_1073_16251)"/>
<g filter="url(#filter2_f_1073_16251)">
<path d="M16.0679 10.0683C16.1457 10.0711 16.2232 10.0582 16.2958 10.0304C16.3685 10.0025 16.4348 9.96037 16.4907 9.90636C16.5467 9.85235 16.5913 9.78762 16.6217 9.71602C16.6521 9.64443 16.6678 9.56743 16.6678 9.48964C16.6678 9.41186 16.6521 9.33486 16.6217 9.26327C16.5913 9.19167 16.5467 9.12693 16.4907 9.07293C16.4348 9.01892 16.3685 8.97675 16.2958 8.94893C16.2232 8.92111 16.1457 8.90822 16.0679 8.91102C15.9181 8.91642 15.7762 8.97974 15.672 9.08766C15.5679 9.19559 15.5098 9.33969 15.5098 9.48964C15.5098 9.6396 15.5679 9.7837 15.672 9.89163C15.7762 9.99955 15.9181 10.0629 16.0679 10.0683Z" fill="#F4B982"/>
</g>
<path d="M16.2411 9.98661C16.3947 9.98661 16.5419 9.92561 16.6505 9.81703C16.7591 9.70844 16.8201 9.56117 16.8201 9.40761C16.8201 9.25405 16.7591 9.10678 16.6505 8.9982C16.5419 8.88961 16.3947 8.82861 16.2411 8.82861C16.0875 8.82861 15.9403 8.88961 15.8317 8.9982C15.7231 9.10678 15.6621 9.25405 15.6621 9.40761C15.6621 9.56117 15.7231 9.70844 15.8317 9.81703C15.9403 9.92561 16.0875 9.98661 16.2411 9.98661Z" fill="url(#paint3_radial_1073_16251)"/>
<g filter="url(#filter3_f_1073_16251)">
<path d="M10.2658 8.48008C10.6153 8.48008 10.8988 8.19508 10.8988 7.84258C10.8991 7.75916 10.883 7.67649 10.8513 7.59931C10.8197 7.52212 10.7731 7.45193 10.7143 7.39273C10.6556 7.33353 10.5857 7.28649 10.5087 7.25429C10.4318 7.2221 10.3492 7.20537 10.2658 7.20508C10.1824 7.20537 10.0998 7.2221 10.0229 7.25429C9.94593 7.28649 9.87606 7.33353 9.81728 7.39273C9.7585 7.45193 9.71196 7.52212 9.68031 7.59931C9.64866 7.67649 9.63252 7.75916 9.63282 7.84258C9.63282 8.19508 9.91632 8.48008 10.2658 8.48008Z" fill="#DE9D64"/>
</g>
<path d="M10.5738 8.3627C10.6515 8.3655 10.729 8.35261 10.8017 8.32479C10.8743 8.29697 10.9406 8.2548 10.9966 8.20079C11.0526 8.14679 11.0971 8.08205 11.1275 8.01046C11.1579 7.93886 11.1736 7.86187 11.1736 7.78408C11.1736 7.70629 11.1579 7.6293 11.1275 7.5577C11.0971 7.4861 11.0526 7.42137 10.9966 7.36736C10.9406 7.31336 10.8743 7.27118 10.8017 7.24337C10.729 7.21555 10.6515 7.20265 10.5738 7.20545C10.4239 7.21085 10.282 7.27417 10.1779 7.3821C10.0738 7.49002 10.0156 7.63413 10.0156 7.78408C10.0156 7.93403 10.0738 8.07814 10.1779 8.18606C10.282 8.29398 10.4239 8.35731 10.5738 8.3627Z" fill="url(#paint4_radial_1073_16251)"/>
<g filter="url(#filter4_f_1073_16251)">
<path d="M13.9449 8.47989C14.0226 8.48269 14.1001 8.4698 14.1728 8.44198C14.2454 8.41416 14.3117 8.37199 14.3677 8.31798C14.4237 8.26398 14.4682 8.19924 14.4986 8.12764C14.529 8.05605 14.5447 7.97905 14.5447 7.90127C14.5447 7.82348 14.529 7.74648 14.4986 7.67489C14.4682 7.60329 14.4237 7.53856 14.3677 7.48455C14.3117 7.43054 14.2454 7.38837 14.1728 7.36055C14.1001 7.33274 14.0226 7.31984 13.9449 7.32264C13.795 7.32804 13.6531 7.39136 13.549 7.49928C13.4449 7.60721 13.3867 7.75131 13.3867 7.90127C13.3867 8.05122 13.4449 8.19532 13.549 8.30325C13.6531 8.41117 13.795 8.47449 13.9449 8.47989Z" fill="#E6A769"/>
</g>
<path d="M14.2261 8.3627C14.3039 8.3655 14.3814 8.35261 14.454 8.32479C14.5267 8.29697 14.593 8.2548 14.6489 8.20079C14.7049 8.14679 14.7495 8.08205 14.7799 8.01046C14.8103 7.93886 14.826 7.86187 14.826 7.78408C14.826 7.70629 14.8103 7.6293 14.7799 7.5577C14.7495 7.4861 14.7049 7.42137 14.6489 7.36736C14.593 7.31336 14.5267 7.27118 14.454 7.24337C14.3814 7.21555 14.3039 7.20265 14.2261 7.20545C14.0763 7.21085 13.9344 7.27417 13.8303 7.3821C13.7261 7.49002 13.668 7.63413 13.668 7.78408C13.668 7.93403 13.7261 8.07814 13.8303 8.18606C13.9344 8.29398 14.0763 8.35731 14.2261 8.3627Z" fill="url(#paint5_radial_1073_16251)"/>
<path d="M20.9767 13.0078H3.82422V15.4131H20.9767V13.0078Z" fill="url(#paint6_linear_1073_16251)"/>
<path d="M20.9767 13.0078H3.82422V15.4131H20.9767V13.0078Z" fill="url(#paint7_linear_1073_16251)"/>
<path d="M21.1566 19.5544H3.64414C3.18179 19.554 2.73849 19.3702 2.41156 19.0432C2.08463 18.7163 1.90079 18.273 1.90039 17.8106C1.90079 17.3483 2.08463 16.905 2.41156 16.5781C2.73849 16.2511 3.18179 16.0673 3.64414 16.0669H21.1566C21.619 16.0673 22.0623 16.2511 22.3892 16.5781C22.7161 16.905 22.9 17.3483 22.9004 17.8106C22.9 18.273 22.7161 18.7163 22.3892 19.0432C22.0623 19.3702 21.619 19.554 21.1566 19.5544Z" fill="url(#paint8_linear_1073_16251)"/>
<path d="M21.1566 19.5544H3.64414C3.18179 19.554 2.73849 19.3702 2.41156 19.0432C2.08463 18.7163 1.90079 18.273 1.90039 17.8106C1.90079 17.3483 2.08463 16.905 2.41156 16.5781C2.73849 16.2511 3.18179 16.0673 3.64414 16.0669H21.1566C21.619 16.0673 22.0623 16.2511 22.3892 16.5781C22.7161 16.905 22.9 17.3483 22.9004 17.8106C22.9 18.273 22.7161 18.7163 22.3892 19.0432C22.0623 19.3702 21.619 19.554 21.1566 19.5544Z" fill="url(#paint9_radial_1073_16251)"/>
<path d="M21.1566 19.5544H3.64414C3.18179 19.554 2.73849 19.3702 2.41156 19.0432C2.08463 18.7163 1.90079 18.273 1.90039 17.8106C1.90079 17.3483 2.08463 16.905 2.41156 16.5781C2.73849 16.2511 3.18179 16.0673 3.64414 16.0669H21.1566C21.619 16.0673 22.0623 16.2511 22.3892 16.5781C22.7161 16.905 22.9 17.3483 22.9004 17.8106C22.9 18.273 22.7161 18.7163 22.3892 19.0432C22.0623 19.3702 21.619 19.554 21.1566 19.5544Z" fill="url(#paint10_radial_1073_16251)"/>
<g filter="url(#filter5_f_1073_16251)">
<path fill-rule="evenodd" clip-rule="evenodd" d="M7.64831 12.2583C8.83331 12.2583 10.0026 12.742 10.5306 13.024C11.0593 13.3068 11.4756 13.5288 12.4063 13.5288C13.7983 13.5288 17.9623 12.2583 19.6641 13.1688C20.1921 13.4516 19.5591 13.5288 20.4846 13.5288L20.7193 14.5983C20.1801 14.5983 19.6993 14.4513 19.0468 14.1026L19.0318 14.0951C18.5031 13.8123 18.0898 13.5911 17.1643 13.5911C16.2388 13.5911 15.8248 13.8116 15.2968 14.0936L15.2803 14.1026C14.6263 14.4521 13.8501 14.8608 12.4063 14.8608C10.9626 14.8608 10.1863 14.4521 9.53231 14.1033L9.51656 14.0943C8.98781 13.8116 8.57381 13.5911 7.64906 13.5911C6.72206 13.5911 6.30656 13.8123 5.77556 14.0951L5.76131 14.1026C5.10731 14.4513 4.96931 14.5983 4.19531 14.5983C4.19531 14.5983 4.23581 13.3053 4.76381 13.024C5.41931 12.6745 6.19781 12.2583 7.64831 12.2583Z" fill="url(#paint11_linear_1073_16251)"/>
<path fill-rule="evenodd" clip-rule="evenodd" d="M7.64831 12.2583C8.83331 12.2583 10.0026 12.742 10.5306 13.024C11.0593 13.3068 11.4756 13.5288 12.4063 13.5288C13.7983 13.5288 17.9623 12.2583 19.6641 13.1688C20.1921 13.4516 19.5591 13.5288 20.4846 13.5288L20.7193 14.5983C20.1801 14.5983 19.6993 14.4513 19.0468 14.1026L19.0318 14.0951C18.5031 13.8123 18.0898 13.5911 17.1643 13.5911C16.2388 13.5911 15.8248 13.8116 15.2968 14.0936L15.2803 14.1026C14.6263 14.4521 13.8501 14.8608 12.4063 14.8608C10.9626 14.8608 10.1863 14.4521 9.53231 14.1033L9.51656 14.0943C8.98781 13.8116 8.57381 13.5911 7.64906 13.5911C6.72206 13.5911 6.30656 13.8123 5.77556 14.0951L5.76131 14.1026C5.10731 14.4513 4.96931 14.5983 4.19531 14.5983C4.19531 14.5983 4.23581 13.3053 4.76381 13.024C5.41931 12.6745 6.19781 12.2583 7.64831 12.2583Z" fill="#E0215C"/>
</g>
<path fill-rule="evenodd" clip-rule="evenodd" d="M4.77886 12.0812C5.43286 11.7325 6.20911 11.3237 7.64911 11.3237C9.08986 11.3237 9.86461 11.7332 10.5179 12.0812L10.5314 12.0887C11.0601 12.3715 11.4764 12.5935 12.4071 12.5935C13.3379 12.5935 13.7541 12.3715 14.2821 12.0895L14.2964 12.082C14.9489 11.7332 15.7244 11.3237 17.1651 11.3237C18.6051 11.3237 19.3806 11.7332 20.0331 12.082L20.0481 12.0895C20.5754 12.3722 20.9894 12.5935 21.9156 12.5935C22.1929 12.5935 22.4588 12.7036 22.6549 12.8997C22.851 13.0958 22.9611 13.3617 22.9611 13.639C22.9611 13.9163 22.851 14.1822 22.6549 14.3783C22.4588 14.5743 22.1929 14.6845 21.9156 14.6845C20.4741 14.6845 19.6994 14.2742 19.0469 13.9255L19.0319 13.918C18.5039 13.6352 18.0906 13.414 17.1644 13.414C16.2396 13.414 15.8256 13.6352 15.2969 13.9172L15.2819 13.9262C14.6271 14.275 13.8509 14.6837 12.4071 14.6837C10.9634 14.6837 10.1871 14.275 9.53311 13.9262L9.51736 13.9172C8.98861 13.6352 8.57461 13.4147 7.64986 13.4147C6.72286 13.4147 6.30736 13.636 5.77636 13.9187L5.76211 13.9262C5.10811 14.275 4.33186 14.6837 2.89186 14.6837C2.75226 14.6875 2.61332 14.6632 2.48325 14.6124C2.35318 14.5615 2.23461 14.4851 2.13455 14.3877C2.03448 14.2903 1.95495 14.1738 1.90064 14.0452C1.84634 13.9165 1.81836 13.7783 1.81836 13.6386C1.81836 13.499 1.84634 13.3607 1.90064 13.2321C1.95495 13.1034 2.03448 12.9869 2.13455 12.8895C2.23461 12.7921 2.35318 12.7157 2.48325 12.6648C2.61332 12.614 2.75226 12.5897 2.89186 12.5935C3.81811 12.5935 4.23436 12.3722 4.76461 12.0887L4.77886 12.0812Z" fill="url(#paint12_linear_1073_16251)"/>
<path fill-rule="evenodd" clip-rule="evenodd" d="M4.77886 12.0812C5.43286 11.7325 6.20911 11.3237 7.64911 11.3237C9.08986 11.3237 9.86461 11.7332 10.5179 12.0812L10.5314 12.0887C11.0601 12.3715 11.4764 12.5935 12.4071 12.5935C13.3379 12.5935 13.7541 12.3715 14.2821 12.0895L14.2964 12.082C14.9489 11.7332 15.7244 11.3237 17.1651 11.3237C18.6051 11.3237 19.3806 11.7332 20.0331 12.082L20.0481 12.0895C20.5754 12.3722 20.9894 12.5935 21.9156 12.5935C22.1929 12.5935 22.4588 12.7036 22.6549 12.8997C22.851 13.0958 22.9611 13.3617 22.9611 13.639C22.9611 13.9163 22.851 14.1822 22.6549 14.3783C22.4588 14.5743 22.1929 14.6845 21.9156 14.6845C20.4741 14.6845 19.6994 14.2742 19.0469 13.9255L19.0319 13.918C18.5039 13.6352 18.0906 13.414 17.1644 13.414C16.2396 13.414 15.8256 13.6352 15.2969 13.9172L15.2819 13.9262C14.6271 14.275 13.8509 14.6837 12.4071 14.6837C10.9634 14.6837 10.1871 14.275 9.53311 13.9262L9.51736 13.9172C8.98861 13.6352 8.57461 13.4147 7.64986 13.4147C6.72286 13.4147 6.30736 13.636 5.77636 13.9187L5.76211 13.9262C5.10811 14.275 4.33186 14.6837 2.89186 14.6837C2.75226 14.6875 2.61332 14.6632 2.48325 14.6124C2.35318 14.5615 2.23461 14.4851 2.13455 14.3877C2.03448 14.2903 1.95495 14.1738 1.90064 14.0452C1.84634 13.9165 1.81836 13.7783 1.81836 13.6386C1.81836 13.499 1.84634 13.3607 1.90064 13.2321C1.95495 13.1034 2.03448 12.9869 2.13455 12.8895C2.23461 12.7921 2.35318 12.7157 2.48325 12.6648C2.61332 12.614 2.75226 12.5897 2.89186 12.5935C3.81811 12.5935 4.23436 12.3722 4.76461 12.0887L4.77886 12.0812Z" fill="url(#paint13_radial_1073_16251)"/>
<path d="M19.0356 22.9744H5.76133C5.50765 22.9744 5.25646 22.9244 5.0221 22.8273C4.78774 22.7302 4.57481 22.5879 4.39546 22.4085C4.21612 22.2291 4.07388 22.0161 3.97687 21.7817C3.87986 21.5473 3.82998 21.2961 3.83008 21.0424V19.5552H20.9818V21.0357C20.9791 21.5505 20.7728 22.0434 20.4081 22.4067C20.0433 22.77 19.5497 22.9744 19.0348 22.9752" fill="url(#paint14_linear_1073_16251)"/>
<path d="M19.0356 22.9744H5.76133C5.50765 22.9744 5.25646 22.9244 5.0221 22.8273C4.78774 22.7302 4.57481 22.5879 4.39546 22.4085C4.21612 22.2291 4.07388 22.0161 3.97687 21.7817C3.87986 21.5473 3.82998 21.2961 3.83008 21.0424V19.5552H20.9818V21.0357C20.9791 21.5505 20.7728 22.0434 20.4081 22.4067C20.0433 22.77 19.5497 22.9744 19.0348 22.9752" fill="url(#paint15_radial_1073_16251)"/>
<path d="M20.9767 15.4131H3.82422V16.0671L9.28872 17.2918C11.3332 17.7508 13.4602 17.7508 15.5047 17.2918L20.9685 16.0671V15.4131H20.9767Z" fill="url(#paint16_linear_1073_16251)"/>
<g filter="url(#filter6_f_1073_16251)">
<path d="M20.6271 15.7236C18.9629 16.3101 16.1316 16.8629 15.6816 16.9191" stroke="url(#paint17_linear_1073_16251)" stroke-width="0.1875"/>
</g>
<g filter="url(#filter7_f_1073_16251)">
<path d="M4.05664 15.7236C5.72089 16.3101 8.55214 16.8629 9.00214 16.9191" stroke="url(#paint18_linear_1073_16251)" stroke-width="0.1875"/>
</g>
<g filter="url(#filter8_f_1073_16251)">
<path d="M9.44727 12.7002C10.0098 13.0602 11.5848 13.9895 12.4473 13.9895C13.525 13.9895 16.9548 11.1545 18.9858 12.2315C20.533 13.052 21.853 13.0047 21.7285 13.052" stroke="url(#paint19_radial_1073_16251)" stroke-width="0.5625"/>
</g>
<g filter="url(#filter9_f_1073_16251)">
<path d="M6.25856 12.9464C5.14781 13.5269 3.58631 14.2941 2.67206 14.5049L2.41406 12.9464C2.41406 12.9464 2.78681 13.1886 4.24256 12.5129C6.21131 11.5986 7.27781 11.2004 8.42606 11.5754L9.53981 13.7789C8.82881 13.2861 6.77381 12.6764 6.25781 12.9464" fill="url(#paint20_linear_1073_16251)"/>
</g>
<defs>
<filter id="filter0_f_1073_16251" x="11.2949" y="9.271" width="1.9082" height="1.9082" filterUnits="userSpaceOnUse" color-interpolation-filters="sRGB">
<feFlood flood-opacity="0" result="BackgroundImageFix"/>
<feBlend mode="normal" in="SourceGraphic" in2="BackgroundImageFix" result="shape"/>
<feGaussianBlur stdDeviation="0.1875" result="effect1_foregroundBlur_1073_16251"/>
</filter>
<filter id="filter1_f_1073_16251" x="7.16797" y="8.5752" width="2.01562" height="2.0249" filterUnits="userSpaceOnUse" color-interpolation-filters="sRGB">
<feFlood flood-opacity="0" result="BackgroundImageFix"/>
<feBlend mode="normal" in="SourceGraphic" in2="BackgroundImageFix" result="shape"/>
<feGaussianBlur stdDeviation="0.1875" result="effect1_foregroundBlur_1073_16251"/>
</filter>
<filter id="filter2_f_1073_16251" x="15.1348" y="8.53564" width="1.9082" height="1.9082" filterUnits="userSpaceOnUse" color-interpolation-filters="sRGB">
<feFlood flood-opacity="0" result="BackgroundImageFix"/>
<feBlend mode="normal" in="SourceGraphic" in2="BackgroundImageFix" result="shape"/>
<feGaussianBlur stdDeviation="0.1875" result="effect1_foregroundBlur_1073_16251"/>
</filter>
<filter id="filter3_f_1073_16251" x="9.25781" y="6.83008" width="2.01562" height="2.0249" filterUnits="userSpaceOnUse" color-interpolation-filters="sRGB">
<feFlood flood-opacity="0" result="BackgroundImageFix"/>
<feBlend mode="normal" in="SourceGraphic" in2="BackgroundImageFix" result="shape"/>
<feGaussianBlur stdDeviation="0.1875" result="effect1_foregroundBlur_1073_16251"/>
</filter>
<filter id="filter4_f_1073_16251" x="13.0117" y="6.94727" width="1.9082" height="1.9082" filterUnits="userSpaceOnUse" color-interpolation-filters="sRGB">
<feFlood flood-opacity="0" result="BackgroundImageFix"/>
<feBlend mode="normal" in="SourceGraphic" in2="BackgroundImageFix" result="shape"/>
<feGaussianBlur stdDeviation="0.1875" result="effect1_foregroundBlur_1073_16251"/>
</filter>
<filter id="filter5_f_1073_16251" x="3.82031" y="11.8833" width="17.2734" height="3.35254" filterUnits="userSpaceOnUse" color-interpolation-filters="sRGB">
<feFlood flood-opacity="0" result="BackgroundImageFix"/>
<feBlend mode="normal" in="SourceGraphic" in2="BackgroundImageFix" result="shape"/>
<feGaussianBlur stdDeviation="0.1875" result="effect1_foregroundBlur_1073_16251"/>
</filter>
<filter id="filter6_f_1073_16251" x="15.4824" y="15.4478" width="5.36328" height="1.75195" filterUnits="userSpaceOnUse" color-interpolation-filters="sRGB">
<feFlood flood-opacity="0" result="BackgroundImageFix"/>
<feBlend mode="normal" in="SourceGraphic" in2="BackgroundImageFix" result="shape"/>
<feGaussianBlur stdDeviation="0.09375" result="effect1_foregroundBlur_1073_16251"/>
</filter>
<filter id="filter7_f_1073_16251" x="3.83789" y="15.4478" width="5.36328" height="1.75195" filterUnits="userSpaceOnUse" color-interpolation-filters="sRGB">
<feFlood flood-opacity="0" result="BackgroundImageFix"/>
<feBlend mode="normal" in="SourceGraphic" in2="BackgroundImageFix" result="shape"/>
<feGaussianBlur stdDeviation="0.09375" result="effect1_foregroundBlur_1073_16251"/>
</filter>
<filter id="filter8_f_1073_16251" x="8.91992" y="11.3311" width="13.4727" height="3.31445" filterUnits="userSpaceOnUse" color-interpolation-filters="sRGB">
<feFlood flood-opacity="0" result="BackgroundImageFix"/>
<feBlend mode="normal" in="SourceGraphic" in2="BackgroundImageFix" result="shape"/>
<feGaussianBlur stdDeviation="0.1875" result="effect1_foregroundBlur_1073_16251"/>
</filter>
<filter id="filter9_f_1073_16251" x="2.03906" y="11.0601" width="7.875" height="3.81982" filterUnits="userSpaceOnUse" color-interpolation-filters="sRGB">
<feFlood flood-opacity="0" result="BackgroundImageFix"/>
<feBlend mode="normal" in="SourceGraphic" in2="BackgroundImageFix" result="shape"/>
<feGaussianBlur stdDeviation="0.1875" result="effect1_foregroundBlur_1073_16251"/>
</filter>
<radialGradient id="paint0_radial_1073_16251" cx="0" cy="0" r="1" gradientUnits="userSpaceOnUse" gradientTransform="translate(18.8222 9.18478) rotate(154.335) scale(12.0134 11.6388)">
<stop offset="0.131" stop-color="#FFD39B"/>
<stop offset="1" stop-color="#FFD39A" stop-opacity="0"/>
</radialGradient>
<radialGradient id="paint1_radial_1073_16251" cx="0" cy="0" r="1" gradientUnits="userSpaceOnUse" gradientTransform="translate(12.7257 9.73501) rotate(124.244) scale(1.6085)">
<stop offset="0.182" stop-color="#F6E8D9"/>
<stop offset="0.607" stop-color="#E2CFC1"/>
</radialGradient>
<radialGradient id="paint2_radial_1073_16251" cx="0" cy="0" r="1" gradientUnits="userSpaceOnUse" gradientTransform="translate(8.8858 9.0739) rotate(124.244) scale(1.6085)">
<stop offset="0.182" stop-color="#F6E8D9"/>
<stop offset="0.607" stop-color="#E2CFC1"/>
</radialGradient>
<radialGradient id="paint3_radial_1073_16251" cx="0" cy="0" r="1" gradientUnits="userSpaceOnUse" gradientTransform="translate(16.5675 9.074) rotate(124.244) scale(1.6085)">
<stop offset="0.182" stop-color="#F6E8D9"/>
<stop offset="0.607" stop-color="#E2CFC1"/>
</radialGradient>
<radialGradient id="paint4_radial_1073_16251" cx="0" cy="0" r="1" gradientUnits="userSpaceOnUse" gradientTransform="translate(10.9006 7.44985) rotate(124.244) scale(1.6085)">
<stop offset="0.182" stop-color="#F6E8D9"/>
<stop offset="0.607" stop-color="#E2CFC1"/>
</radialGradient>
<radialGradient id="paint5_radial_1073_16251" cx="0" cy="0" r="1" gradientUnits="userSpaceOnUse" gradientTransform="translate(14.5529 7.44977) rotate(124.244) scale(1.6085)">
<stop offset="0.182" stop-color="#F6E8D9"/>
<stop offset="0.607" stop-color="#E2CFC1"/>
</radialGradient>
<linearGradient id="paint6_linear_1073_16251" x1="3.82497" y1="15.4131" x2="20.9767" y2="15.4131" gradientUnits="userSpaceOnUse">
<stop stop-color="#DD7476"/>
<stop offset="0.085" stop-color="#E2565F"/>
<stop offset="0.243" stop-color="#DE445C"/>
<stop offset="0.508" stop-color="#D62650"/>
<stop offset="0.784" stop-color="#EB4A80"/>
<stop offset="0.94" stop-color="#DB4379"/>
<stop offset="1" stop-color="#D45E85"/>
</linearGradient>
<linearGradient id="paint7_linear_1073_16251" x1="12.4005" y1="15.6538" x2="12.4005" y2="14.9503" gradientUnits="userSpaceOnUse">
<stop offset="0.467" stop-color="#E72D62"/>
<stop offset="0.846" stop-color="#E72E64" stop-opacity="0"/>
</linearGradient>
<linearGradient id="paint8_linear_1073_16251" x1="12.4004" y1="16.0669" x2="12.4004" y2="19.5544" gradientUnits="userSpaceOnUse">
<stop stop-color="#946B52"/>
<stop offset="0.312" stop-color="#A77A6F"/>
<stop offset="0.661" stop-color="#98655D"/>
<stop offset="1" stop-color="#86536D"/>
</linearGradient>
<radialGradient id="paint9_radial_1073_16251" cx="0" cy="0" r="1" gradientUnits="userSpaceOnUse" gradientTransform="translate(8.65039 15.7939) rotate(84.2894) scale(4.23979 14.0107)">
<stop stop-color="#6B544C"/>
<stop offset="1" stop-color="#6B544C" stop-opacity="0"/>
</radialGradient>
<radialGradient id="paint10_radial_1073_16251" cx="0" cy="0" r="1" gradientUnits="userSpaceOnUse" gradientTransform="translate(12.4004 18.9814) rotate(90) scale(2.8125 8.83222)">
<stop stop-color="#803E4C"/>
<stop offset="1" stop-color="#824456" stop-opacity="0"/>
</radialGradient>
<linearGradient id="paint11_linear_1073_16251" x1="2.08631" y1="13.1808" x2="22.6648" y2="13.1808" gradientUnits="userSpaceOnUse">
<stop stop-color="#437151"/>
<stop offset="0.508" stop-color="#619F49"/>
<stop offset="1" stop-color="#79B142"/>
</linearGradient>
<linearGradient id="paint12_linear_1073_16251" x1="2.08711" y1="13.0037" x2="22.6656" y2="13.0037" gradientUnits="userSpaceOnUse">
<stop stop-color="#437151"/>
<stop offset="0.508" stop-color="#619F49"/>
<stop offset="1" stop-color="#79B142"/>
</linearGradient>
<radialGradient id="paint13_radial_1073_16251" cx="0" cy="0" r="1" gradientUnits="userSpaceOnUse" gradientTransform="translate(2.46211 13.5205) rotate(81.8699) scale(1.32583 3.67178)">
<stop stop-color="#6C9B83"/>
<stop offset="1" stop-color="#6D9B85" stop-opacity="0"/>
</radialGradient>
<linearGradient id="paint14_linear_1073_16251" x1="12.4063" y1="19.5544" x2="12.4063" y2="22.9744" gradientUnits="userSpaceOnUse">
<stop stop-color="#E18F63"/>
<stop offset="0.381" stop-color="#E89C6E"/>
<stop offset="0.573" stop-color="#EA9D75"/>
<stop offset="1" stop-color="#E0819D"/>
</linearGradient>
<radialGradient id="paint15_radial_1073_16251" cx="0" cy="0" r="1" gradientUnits="userSpaceOnUse" gradientTransform="translate(21.2586 20.7162) rotate(90) scale(2.71875 15.3492)">
<stop stop-color="#FFD5AE"/>
<stop offset="1" stop-color="#FFC8A0" stop-opacity="0"/>
</radialGradient>
<linearGradient id="paint16_linear_1073_16251" x1="12.4005" y1="14.7163" x2="12.4005" y2="17.6361" gradientUnits="userSpaceOnUse">
<stop stop-color="#C7850F"/>
<stop offset="0.488" stop-color="#F0CD2D"/>
<stop offset="1" stop-color="#F7C747"/>
</linearGradient>
<linearGradient id="paint17_linear_1073_16251" x1="14.9316" y1="16.5914" x2="15.0329" y2="15.1049" gradientUnits="userSpaceOnUse">
<stop stop-color="#FFE07A" stop-opacity="0"/>
<stop offset="0.218" stop-color="#FFE68F"/>
<stop offset="1" stop-color="#FFDB5C"/>
</linearGradient>
<linearGradient id="paint18_linear_1073_16251" x1="9.75214" y1="16.5914" x2="9.65014" y2="15.1049" gradientUnits="userSpaceOnUse">
<stop stop-color="#FFE07A" stop-opacity="0"/>
<stop offset="0.218" stop-color="#FFE68F"/>
<stop offset="1" stop-color="#FFDB5C"/>
</linearGradient>
<radialGradient id="paint19_radial_1073_16251" cx="0" cy="0" r="1" gradientUnits="userSpaceOnUse" gradientTransform="translate(16.6657 12.2316) rotate(15.695) scale(5.89154 2.8444)">
<stop offset="0.227" stop-color="#87BE66"/>
<stop offset="1" stop-color="#92C771" stop-opacity="0"/>
</radialGradient>
<linearGradient id="paint20_linear_1073_16251" x1="3.07106" y1="13.7084" x2="9.14081" y2="12.8174" gradientUnits="userSpaceOnUse">
<stop stop-color="#66987E"/>
<stop offset="0.458" stop-color="#66987E" stop-opacity="0.542"/>
<stop offset="1" stop-color="#66987E" stop-opacity="0"/>
</linearGradient>
</defs>
</svg>
