<svg width="25" height="25" viewBox="0 0 25 25" fill="none" xmlns="http://www.w3.org/2000/svg">
<path d="M7.4363 3.75C7.62904 4.13618 7.90982 4.47168 8.256 4.72944C8.60218 4.98721 9.00408 5.16003 9.4293 5.23399C9.85453 5.30794 10.2912 5.28095 10.7041 5.15519C11.1169 5.02944 11.4945 4.80844 11.8063 4.51L11.8363 4.485C11.9951 4.33482 12.1849 4.22117 12.3923 4.15201C12.5996 4.08285 12.8196 4.05985 13.0368 4.08462C13.254 4.10938 13.4631 4.18132 13.6496 4.29539C13.8361 4.40946 13.9954 4.56291 14.1163 4.745L17.9263 10.49C18.8063 11.82 20.8013 13.375 22.0013 14.425C23.1763 15.425 23.8963 17.205 23.3313 18.655C22.9713 19.565 21.6313 19.9 20.7163 19.54L13.0813 16.57C11.7732 16.0579 10.556 15.3387 9.4763 14.44L2.9013 11.87C2.81912 11.838 2.74407 11.79 2.68046 11.7289C2.61685 11.6678 2.56593 11.5947 2.53062 11.5139C2.49532 11.4331 2.47632 11.3461 2.47472 11.2579C2.47312 11.1697 2.48895 11.0821 2.5213 11L4.9713 4.755L7.4363 3.75Z" fill="#BF8256"/>
<path opacity="0.15" d="M4.22461 21.3351C4.22461 21.6016 5.21496 21.8572 6.97781 22.0457C8.74065 22.2342 11.1316 22.3401 13.6246 22.3401C16.1176 22.3401 18.5086 22.2342 20.2714 22.0457C22.0343 21.8572 23.0246 21.6016 23.0246 21.3351C23.0246 21.0685 22.0343 20.8129 20.2714 20.6244C18.5086 20.436 16.1176 20.3301 13.6246 20.3301C11.1316 20.3301 8.74065 20.436 6.97781 20.6244C5.21496 20.8129 4.22461 21.0685 4.22461 21.3351Z" fill="#45413C"/>
<path d="M6.77608 5.8C6.97019 6.18547 7.25185 6.52015 7.5985 6.77724C7.94515 7.03434 8.34717 7.20672 8.77239 7.28059C9.19761 7.35445 9.63422 7.32776 10.0473 7.20263C10.4603 7.0775 10.8383 6.85742 11.1511 6.56L11.1761 6.53C11.335 6.37892 11.525 6.26451 11.7329 6.19483C11.9408 6.12514 12.1614 6.10187 12.3793 6.12666C12.5971 6.15145 12.8069 6.22369 12.9938 6.3383C13.1807 6.4529 13.3402 6.60709 13.4611 6.79L17.2661 12.535C18.1461 13.865 20.1461 15.425 21.3461 16.47C22.1717 17.1864 22.7055 18.181 22.8461 19.265C23.0666 19.1126 23.2399 18.9012 23.3461 18.655C23.9111 17.205 23.1911 15.44 22.0161 14.425C20.8161 13.375 18.8211 11.82 17.9411 10.49L14.1161 4.74C13.9947 4.55827 13.8351 4.40526 13.6485 4.29165C13.4618 4.17805 13.2525 4.10661 13.0354 4.08232C12.8182 4.05803 12.5984 4.08148 12.3912 4.15104C12.184 4.22059 11.9946 4.33457 11.8361 4.485L11.8061 4.51C11.4943 4.80844 11.1167 5.02944 10.7038 5.15519C10.291 5.28095 9.85431 5.30794 9.42908 5.23399C9.00386 5.16003 8.60196 4.98721 8.25578 4.72944C7.90959 4.47168 7.62882 4.13618 7.43608 3.75L6.77608 5.8ZM2.53108 11C2.48704 11.1382 2.48704 11.2868 2.53108 11.425V11Z" fill="#DEA47A"/>
<path d="M7.4363 3.75C7.62904 4.13618 7.90982 4.47168 8.256 4.72944C8.60218 4.98721 9.00408 5.16003 9.4293 5.23399C9.85453 5.30794 10.2912 5.28095 10.7041 5.15519C11.1169 5.02944 11.4945 4.80844 11.8063 4.51L11.8363 4.485C11.9951 4.33482 12.1849 4.22117 12.3923 4.15201C12.5996 4.08285 12.8196 4.05985 13.0368 4.08462C13.254 4.10938 13.4631 4.18132 13.6496 4.29539C13.8361 4.40946 13.9954 4.56291 14.1163 4.745L17.9263 10.49C18.8063 11.82 20.8013 13.375 22.0013 14.425C23.1763 15.425 23.8963 17.205 23.3313 18.655C22.9713 19.565 21.6313 19.9 20.7163 19.54L13.0813 16.57C11.7732 16.0579 10.556 15.3387 9.4763 14.44L2.9013 11.87C2.81912 11.838 2.74407 11.79 2.68046 11.7289C2.61685 11.6678 2.56593 11.5947 2.53062 11.5139C2.49532 11.4331 2.47632 11.3461 2.47472 11.2579C2.47312 11.1697 2.48895 11.0821 2.5213 11L4.9713 4.755L7.4363 3.75Z" stroke="#45413C" stroke-width="0.5" stroke-linecap="round" stroke-linejoin="round"/>
<path d="M16.3648 10.89L12.7698 5.95C12.5621 5.66494 12.2805 5.44207 11.9553 5.30548C11.6301 5.16888 11.2738 5.12377 10.9248 5.175L10.1748 5.285C9.93645 5.3208 9.69299 5.29959 9.46441 5.22311C9.23583 5.14663 9.02863 5.01705 8.85981 4.845L7.53481 3.51C7.39254 3.36403 7.21958 3.25151 7.02847 3.1806C6.83736 3.10969 6.63287 3.08216 6.42981 3.1C6.17382 3.12257 5.92946 3.21721 5.72504 3.37296C5.52063 3.52871 5.36452 3.73918 5.27481 3.98L2.52981 10.98C2.49406 11.0625 2.47529 11.1514 2.47463 11.2414C2.47396 11.3313 2.49141 11.4205 2.52594 11.5035C2.56047 11.5866 2.61137 11.6618 2.6756 11.7248C2.73983 11.7878 2.81609 11.8371 2.89981 11.87L9.46481 14.44C11.4648 13.735 13.1948 13.94 14.6748 14.94C14.7575 14.9959 14.855 15.0258 14.9548 15.0258C15.0546 15.0258 15.1521 14.9959 15.2348 14.94L15.7348 14.59C16.0217 14.3905 16.266 14.1359 16.4533 13.8409C16.6407 13.546 16.7674 13.2166 16.826 12.8722C16.8847 12.5277 16.8741 12.175 16.7949 11.8347C16.7157 11.4943 16.5695 11.1732 16.3648 10.89Z" fill="#BF8256"/>
<path d="M16.3654 10.89L12.7704 5.95C12.5627 5.66494 12.281 5.44207 11.9559 5.30548C11.6307 5.16888 11.2744 5.12377 10.9254 5.175L10.1754 5.285C9.93703 5.3208 9.69357 5.29959 9.46499 5.22311C9.23641 5.14663 9.02921 5.01705 8.86039 4.845L7.53539 3.51C7.39311 3.36403 7.22016 3.25151 7.02905 3.1806C6.83794 3.10969 6.63345 3.08216 6.43039 3.1C6.1744 3.12257 5.93004 3.21721 5.72562 3.37296C5.5212 3.52871 5.3651 3.73918 5.27539 3.98L4.77539 5.305C6.26711 5.35379 7.68377 5.9709 8.73539 7.03C8.90421 7.20205 9.11141 7.33163 9.33999 7.40811C9.56857 7.48459 9.81203 7.5058 10.0504 7.47L10.8004 7.36C11.1493 7.30933 11.5055 7.3547 11.8305 7.49125C12.1556 7.6278 12.4373 7.85036 12.6454 8.135L16.2204 13.1C16.3557 13.2912 16.4681 13.4976 16.5554 13.715C16.7959 13.2749 16.9057 12.7752 16.8721 12.2748C16.8384 11.7744 16.6626 11.294 16.3654 10.89Z" fill="#DEA47A"/>
<path d="M16.3648 10.89L12.7698 5.95C12.5621 5.66494 12.2805 5.44207 11.9553 5.30548C11.6301 5.16889 11.2738 5.12377 10.9248 5.175L10.1748 5.285C9.93645 5.3208 9.69299 5.29959 9.46441 5.22311C9.23583 5.14663 9.02863 5.01705 8.85981 4.845L7.53481 3.51C7.39254 3.36403 7.21958 3.25151 7.02847 3.1806C6.83736 3.10969 6.63287 3.08216 6.42981 3.1C6.17382 3.12257 5.92946 3.21721 5.72504 3.37296C5.52063 3.52871 5.36452 3.73918 5.27481 3.98L2.52981 10.98C2.49406 11.0625 2.47529 11.1514 2.47463 11.2414C2.47396 11.3313 2.49141 11.4205 2.52594 11.5035C2.56047 11.5866 2.61137 11.6618 2.6756 11.7248C2.73983 11.7878 2.81609 11.8371 2.89981 11.87L9.46481 14.44C11.4648 13.735 13.1948 13.94 14.6748 14.94C14.7575 14.9959 14.855 15.0258 14.9548 15.0258C15.0546 15.0258 15.1521 14.9959 15.2348 14.94L15.7348 14.59C16.0217 14.3905 16.266 14.1359 16.4533 13.8409C16.6407 13.546 16.7674 13.2166 16.826 12.8722C16.8847 12.5277 16.8741 12.175 16.7949 11.8347C16.7157 11.4943 16.5695 11.1732 16.3648 10.89Z" stroke="#45413C" stroke-width="0.5" stroke-linecap="round" stroke-linejoin="round"/>
<path d="M12.981 16.5301C11.6815 16.0226 10.4726 15.3084 9.40096 14.4151L2.28596 11.6301L1.67596 13.1901C1.65896 13.2308 1.65026 13.2744 1.65039 13.3185C1.65052 13.3625 1.65947 13.4061 1.67671 13.4466C1.69396 13.4872 1.71914 13.5239 1.75079 13.5545C1.78243 13.5852 1.81989 13.6092 1.86096 13.6251L7.13096 15.6851L7.99096 15.3001L8.32596 15.5151C10.0011 16.5934 11.78 17.5012 13.636 18.2251L21.396 21.2251C21.4782 21.2562 21.5694 21.2538 21.6499 21.2182C21.7303 21.1827 21.7936 21.1169 21.826 21.0351L22.196 20.1001L12.981 16.5301ZM15.051 11.0701C15.1465 11.2197 15.2972 11.3257 15.4704 11.365C15.6435 11.4043 15.8251 11.3738 15.976 11.2801L17.681 10.2051C17.7555 10.1582 17.82 10.097 17.8709 10.0251C17.9218 9.95322 17.958 9.87201 17.9775 9.78611C17.997 9.70022 17.9994 9.61133 17.9846 9.52451C17.9697 9.43769 17.9379 9.35465 17.891 9.28012C17.844 9.2056 17.7828 9.14105 17.711 9.09016C17.6391 9.03928 17.5578 9.00305 17.472 8.98355C17.3861 8.96405 17.2972 8.96166 17.2103 8.97651C17.1235 8.99137 17.0405 9.02318 16.966 9.07012L15.261 10.1451C15.1864 10.192 15.1217 10.2531 15.0708 10.325C15.0199 10.3969 14.9836 10.4781 14.9641 10.5641C14.9446 10.65 14.9422 10.7389 14.9571 10.8257C14.972 10.9126 15.0039 10.9956 15.051 11.0701ZM16.161 6.74012C16.0653 6.58912 15.9137 6.48222 15.7394 6.44285C15.565 6.40348 15.3822 6.43487 15.231 6.53012L13.531 7.60012C13.3949 7.70149 13.302 7.85038 13.2708 8.01715C13.2395 8.18391 13.2722 8.35633 13.3624 8.50007C13.4525 8.6438 13.5935 8.74832 13.7573 8.7928C13.921 8.83729 14.0955 8.81848 14.246 8.74012L15.951 7.66512C16.1006 7.56954 16.2065 7.41886 16.2458 7.24573C16.2851 7.07259 16.2546 6.89094 16.161 6.74012Z" fill="#656769" stroke="#45413C" stroke-width="0.5" stroke-linecap="round" stroke-linejoin="round"/>
</svg>
