<svg width="25" height="25" viewBox="0 0 25 25" fill="none" xmlns="http://www.w3.org/2000/svg">
<g clip-path="url(#clip0_1073_16232)">
<path d="M12.4004 24.0986C19.0279 24.0986 24.4004 18.7261 24.4004 12.0986C24.4004 5.47163 19.0279 0.0986328 12.4004 0.0986328C5.77289 0.0986328 0.400391 5.47163 0.400391 12.0986C0.400391 18.7261 5.77289 24.0986 12.4004 24.0986Z" fill="#DEEEFF"/>
<path d="M5.41797 5.55322V18.6442H19.3815V5.55322H5.41797ZM7.16347 17.7717H6.29097V16.8987H7.16347V17.7717ZM7.16347 16.0262H6.29097V15.1532H7.16347V16.0262ZM7.16347 14.2807H6.29097V13.4077H7.16347V14.2807ZM7.16347 12.5352H6.29097V11.6622H7.16347V12.5352ZM7.16347 10.7897H6.29097V9.91722H7.16347V10.7897ZM7.16347 9.04422H6.29097V8.17172H7.16347V9.04422ZM7.16347 7.29922H6.29097V6.42622H7.16347V7.29922ZM18.5085 17.7717H17.636V16.8987H18.509L18.5085 17.7717ZM18.5085 16.0262H17.636V15.1532H18.509L18.5085 16.0262ZM18.5085 14.2807H17.636V13.4077H18.509L18.5085 14.2807ZM18.5085 12.5352H17.636V11.6622H18.509L18.5085 12.5352ZM18.5085 10.7897H17.636V9.91722H18.509L18.5085 10.7897ZM18.5085 9.04422H17.636V8.17172H18.509L18.5085 9.04422ZM18.5085 7.29922H17.636V6.42622H18.509L18.5085 7.29922Z" fill="#2E3ECD"/>
<path d="M16.7641 16.2442H8.03711V18.6442H16.7641V16.2442ZM16.7641 5.55322H8.03711V7.95322H16.7641V5.55322ZM16.7641 9.26272H8.03711V14.9352H16.7641V9.26272Z" fill="#6BAFFF"/>
</g>
<defs>
<clipPath id="clip0_1073_16232">
<rect width="24" height="24" fill="white" transform="translate(0.400391 0.100098)"/>
</clipPath>
</defs>
</svg>
