<svg width="202" height="85" viewBox="0 0 202 85" fill="none" xmlns="http://www.w3.org/2000/svg">
<g filter="url(#filter0_dd_1131_17110)">
<path d="M6.56994 4.7092C6.72258 2.61863 8.46319 1.00047 10.5593 1.00047H196.697C199.021 1.00047 200.856 2.97404 200.686 5.29174L195.43 77.2911C195.277 79.3817 193.537 80.9999 191.44 80.9999H5.30269C2.97883 80.9999 1.14409 79.0263 1.3133 76.7086L6.56994 4.7092Z" fill="#068F36"/>
<path d="M196.697 0.5C199.311 0.500104 201.376 2.7208 201.186 5.32812L195.929 77.3271C195.757 79.679 193.799 81.5 191.44 81.5H5.30273C2.68839 81.5 0.624088 79.2793 0.814453 76.6719L6.07129 4.67285C6.243 2.32096 8.20142 0.5 10.5596 0.5H196.697Z" stroke="black"/>
</g>
<mask id="mask0_1131_17110" style="mask-type:alpha" maskUnits="userSpaceOnUse" x="1" y="1" width="200" height="80">
<path d="M6.56995 4.70922C6.72258 2.61865 8.46319 1.00049 10.5593 1.00049H196.697C199.021 1.00049 200.856 2.97406 200.686 5.29175L195.43 77.2911C195.277 79.3817 193.537 80.9999 191.44 80.9999H5.30269C2.97883 80.9999 1.14409 79.0263 1.3133 76.7086L6.56995 4.70922Z" fill="#E6311F"/>
</mask>
<g mask="url(#mask0_1131_17110)">
<rect x="-5.68164" y="-14.9932" width="225.403" height="23.4222" fill="#459B03"/>
<rect x="-5.55078" y="72.23" width="225.403" height="23.9316" fill="#007328"/>
</g>
<g filter="url(#filter1_d_1131_17110)">
<mask id="path-6-outside-1_1131_17110" maskUnits="userSpaceOnUse" x="63" y="27" width="85" height="22" fill="black">
<rect fill="white" x="63" y="27" width="85" height="22"/>
<path d="M77.8035 33.468C77.8035 35.4093 76.9635 36.884 75.2835 37.892C76.1981 38.228 76.9635 38.8067 77.5795 39.628C78.1955 40.4493 78.5035 41.616 78.5035 43.128C78.5035 44.6213 77.9435 45.8067 76.8235 46.684C75.7221 47.5613 74.1355 48 72.0635 48H65.4555C65.1381 48 64.8768 47.8973 64.6715 47.692C64.4661 47.468 64.3635 47.1787 64.3635 46.824V28.904C64.3635 28.6987 64.3915 28.568 64.4475 28.512C64.5221 28.4373 64.6621 28.4 64.8675 28.4H71.2515C75.6195 28.4 77.8035 30.0893 77.8035 33.468ZM69.7395 32.936V36.604H69.8795C71.6715 36.604 72.5675 36.0067 72.5675 34.812C72.5675 34.1587 72.3901 33.6827 72.0355 33.384C71.6995 33.0853 71.1301 32.936 70.3275 32.936H69.7395ZM69.7395 39.908V43.548H70.2435C71.0461 43.548 71.6341 43.3987 72.0075 43.1C72.3808 42.8013 72.5675 42.3253 72.5675 41.672C72.5675 41.0187 72.3901 40.5613 72.0355 40.3C71.6995 40.0387 71.1301 39.908 70.3275 39.908H69.7395ZM82.5845 37.836C82.0618 36.9027 81.8005 36.1467 81.8005 35.568C81.8005 34.9707 81.9591 34.588 82.2765 34.42C83.3405 33.9533 84.7965 33.72 86.6445 33.72C88.5111 33.72 89.8271 34.1587 90.5925 35.036C91.3578 35.8947 91.7405 37.1733 91.7405 38.872V43.296H92.6925C93.0098 43.296 93.2525 43.4827 93.4205 43.856C93.6071 44.2293 93.7005 44.7427 93.7005 45.396C93.7005 46.0493 93.5325 46.6933 93.1965 47.328C92.8791 47.9627 92.4405 48.28 91.8805 48.28C90.8725 48.28 90.0605 48.0093 89.4445 47.468C89.1645 47.244 88.9498 46.9733 88.8005 46.656C87.9418 47.7387 86.6071 48.28 84.7965 48.28C83.4338 48.28 82.2858 47.7947 81.3525 46.824C80.4191 45.8533 79.9525 44.7053 79.9525 43.38C79.9525 40.3373 81.7725 38.816 85.4125 38.816H86.9525V38.536C86.9525 38.0507 86.8685 37.7427 86.7005 37.612C86.5511 37.4627 86.1871 37.388 85.6085 37.388C84.8991 37.388 83.8911 37.5373 82.5845 37.836ZM84.8245 42.988C84.8245 43.3987 84.9365 43.716 85.1605 43.94C85.3845 44.1453 85.6645 44.248 86.0005 44.248C86.3551 44.248 86.6725 44.108 86.9525 43.828V41.672H86.1685C85.2725 41.672 84.8245 42.1107 84.8245 42.988ZM101.417 47.832C101.417 47.9627 100.745 48.028 99.4013 48.028C97.5346 47.972 96.6013 47.8693 96.6013 47.72V38.648H95.8733C95.388 38.648 95.0706 38.2373 94.9213 37.416C94.884 37.1733 94.8653 36.9307 94.8653 36.688C94.8653 36.1093 94.9773 35.5307 95.2013 34.952C95.5373 34.1307 96.06 33.72 96.7693 33.72C97.4786 33.72 98.1133 33.888 98.6733 34.224C99.2333 34.56 99.6066 34.896 99.7933 35.232C100.969 34.224 102.369 33.72 103.993 33.72C105.617 33.72 106.793 34.1587 107.521 35.036C108.249 35.9133 108.613 37.3507 108.613 39.348V47.748C108.613 47.972 107.811 48.084 106.205 48.084C104.619 48.084 103.825 47.972 103.825 47.748V39.656C103.825 38.7227 103.499 38.256 102.845 38.256C102.659 38.256 102.397 38.34 102.061 38.508C101.725 38.6573 101.511 38.7693 101.417 38.844V47.832ZM111.267 28.624C111.267 28.3253 112.117 28.176 113.815 28.176C115.402 28.232 116.195 28.3533 116.195 28.54V39.292L118.967 34.168C119.098 33.888 119.891 33.748 121.347 33.748C122.803 33.748 123.737 33.8413 124.147 34.028L120.507 39.964L124.707 47.832C124.745 47.9067 124.39 47.9627 123.643 48C122.915 48.056 122.309 48.084 121.823 48.084C120.031 48.084 119.07 48 118.939 47.832L116.167 41.616V47.804C116.167 48.0467 115.346 48.168 113.703 48.168C112.079 48.168 111.267 48.056 111.267 47.832V28.624ZM145.868 33.468C145.868 35.4093 145.028 36.884 143.348 37.892C144.262 38.228 145.028 38.8067 145.644 39.628C146.26 40.4493 146.568 41.616 146.568 43.128C146.568 44.6213 146.008 45.8067 144.888 46.684C143.786 47.5613 142.2 48 140.128 48H133.52C133.202 48 132.941 47.8973 132.736 47.692C132.53 47.468 132.428 47.1787 132.428 46.824V28.904C132.428 28.6987 132.456 28.568 132.512 28.512C132.586 28.4373 132.726 28.4 132.932 28.4H139.316C143.684 28.4 145.868 30.0893 145.868 33.468ZM137.804 32.936V36.604H137.944C139.736 36.604 140.632 36.0067 140.632 34.812C140.632 34.1587 140.454 33.6827 140.1 33.384C139.764 33.0853 139.194 32.936 138.392 32.936H137.804ZM137.804 39.908V43.548H138.308C139.11 43.548 139.698 43.3987 140.072 43.1C140.445 42.8013 140.632 42.3253 140.632 41.672C140.632 41.0187 140.454 40.5613 140.1 40.3C139.764 40.0387 139.194 39.908 138.392 39.908H137.804Z"/>
</mask>
<path d="M77.8035 33.468C77.8035 35.4093 76.9635 36.884 75.2835 37.892C76.1981 38.228 76.9635 38.8067 77.5795 39.628C78.1955 40.4493 78.5035 41.616 78.5035 43.128C78.5035 44.6213 77.9435 45.8067 76.8235 46.684C75.7221 47.5613 74.1355 48 72.0635 48H65.4555C65.1381 48 64.8768 47.8973 64.6715 47.692C64.4661 47.468 64.3635 47.1787 64.3635 46.824V28.904C64.3635 28.6987 64.3915 28.568 64.4475 28.512C64.5221 28.4373 64.6621 28.4 64.8675 28.4H71.2515C75.6195 28.4 77.8035 30.0893 77.8035 33.468ZM69.7395 32.936V36.604H69.8795C71.6715 36.604 72.5675 36.0067 72.5675 34.812C72.5675 34.1587 72.3901 33.6827 72.0355 33.384C71.6995 33.0853 71.1301 32.936 70.3275 32.936H69.7395ZM69.7395 39.908V43.548H70.2435C71.0461 43.548 71.6341 43.3987 72.0075 43.1C72.3808 42.8013 72.5675 42.3253 72.5675 41.672C72.5675 41.0187 72.3901 40.5613 72.0355 40.3C71.6995 40.0387 71.1301 39.908 70.3275 39.908H69.7395ZM82.5845 37.836C82.0618 36.9027 81.8005 36.1467 81.8005 35.568C81.8005 34.9707 81.9591 34.588 82.2765 34.42C83.3405 33.9533 84.7965 33.72 86.6445 33.72C88.5111 33.72 89.8271 34.1587 90.5925 35.036C91.3578 35.8947 91.7405 37.1733 91.7405 38.872V43.296H92.6925C93.0098 43.296 93.2525 43.4827 93.4205 43.856C93.6071 44.2293 93.7005 44.7427 93.7005 45.396C93.7005 46.0493 93.5325 46.6933 93.1965 47.328C92.8791 47.9627 92.4405 48.28 91.8805 48.28C90.8725 48.28 90.0605 48.0093 89.4445 47.468C89.1645 47.244 88.9498 46.9733 88.8005 46.656C87.9418 47.7387 86.6071 48.28 84.7965 48.28C83.4338 48.28 82.2858 47.7947 81.3525 46.824C80.4191 45.8533 79.9525 44.7053 79.9525 43.38C79.9525 40.3373 81.7725 38.816 85.4125 38.816H86.9525V38.536C86.9525 38.0507 86.8685 37.7427 86.7005 37.612C86.5511 37.4627 86.1871 37.388 85.6085 37.388C84.8991 37.388 83.8911 37.5373 82.5845 37.836ZM84.8245 42.988C84.8245 43.3987 84.9365 43.716 85.1605 43.94C85.3845 44.1453 85.6645 44.248 86.0005 44.248C86.3551 44.248 86.6725 44.108 86.9525 43.828V41.672H86.1685C85.2725 41.672 84.8245 42.1107 84.8245 42.988ZM101.417 47.832C101.417 47.9627 100.745 48.028 99.4013 48.028C97.5346 47.972 96.6013 47.8693 96.6013 47.72V38.648H95.8733C95.388 38.648 95.0706 38.2373 94.9213 37.416C94.884 37.1733 94.8653 36.9307 94.8653 36.688C94.8653 36.1093 94.9773 35.5307 95.2013 34.952C95.5373 34.1307 96.06 33.72 96.7693 33.72C97.4786 33.72 98.1133 33.888 98.6733 34.224C99.2333 34.56 99.6066 34.896 99.7933 35.232C100.969 34.224 102.369 33.72 103.993 33.72C105.617 33.72 106.793 34.1587 107.521 35.036C108.249 35.9133 108.613 37.3507 108.613 39.348V47.748C108.613 47.972 107.811 48.084 106.205 48.084C104.619 48.084 103.825 47.972 103.825 47.748V39.656C103.825 38.7227 103.499 38.256 102.845 38.256C102.659 38.256 102.397 38.34 102.061 38.508C101.725 38.6573 101.511 38.7693 101.417 38.844V47.832ZM111.267 28.624C111.267 28.3253 112.117 28.176 113.815 28.176C115.402 28.232 116.195 28.3533 116.195 28.54V39.292L118.967 34.168C119.098 33.888 119.891 33.748 121.347 33.748C122.803 33.748 123.737 33.8413 124.147 34.028L120.507 39.964L124.707 47.832C124.745 47.9067 124.39 47.9627 123.643 48C122.915 48.056 122.309 48.084 121.823 48.084C120.031 48.084 119.07 48 118.939 47.832L116.167 41.616V47.804C116.167 48.0467 115.346 48.168 113.703 48.168C112.079 48.168 111.267 48.056 111.267 47.832V28.624ZM145.868 33.468C145.868 35.4093 145.028 36.884 143.348 37.892C144.262 38.228 145.028 38.8067 145.644 39.628C146.26 40.4493 146.568 41.616 146.568 43.128C146.568 44.6213 146.008 45.8067 144.888 46.684C143.786 47.5613 142.2 48 140.128 48H133.52C133.202 48 132.941 47.8973 132.736 47.692C132.53 47.468 132.428 47.1787 132.428 46.824V28.904C132.428 28.6987 132.456 28.568 132.512 28.512C132.586 28.4373 132.726 28.4 132.932 28.4H139.316C143.684 28.4 145.868 30.0893 145.868 33.468ZM137.804 32.936V36.604H137.944C139.736 36.604 140.632 36.0067 140.632 34.812C140.632 34.1587 140.454 33.6827 140.1 33.384C139.764 33.0853 139.194 32.936 138.392 32.936H137.804ZM137.804 39.908V43.548H138.308C139.11 43.548 139.698 43.3987 140.072 43.1C140.445 42.8013 140.632 42.3253 140.632 41.672C140.632 41.0187 140.454 40.5613 140.1 40.3C139.764 40.0387 139.194 39.908 138.392 39.908H137.804Z" fill="white"/>
<path d="M75.2835 37.892L74.9233 37.2918L73.6687 38.0445L75.0421 38.5491L75.2835 37.892ZM77.5795 39.628L78.1395 39.208V39.208L77.5795 39.628ZM76.8235 46.684L76.3918 46.1329L76.3873 46.1365L76.8235 46.684ZM64.6715 47.692L64.1555 48.165L64.1657 48.1762L64.1765 48.187L64.6715 47.692ZM64.4475 28.512L63.9525 28.017L63.9525 28.017L64.4475 28.512ZM69.7395 32.936V32.236H69.0395V32.936H69.7395ZM69.7395 36.604H69.0395V37.304H69.7395V36.604ZM72.0355 33.384L71.5704 33.9072L71.5774 33.9134L71.5846 33.9194L72.0355 33.384ZM69.7395 39.908V39.208H69.0395V39.908H69.7395ZM69.7395 43.548H69.0395V44.248H69.7395V43.548ZM72.0075 43.1L72.4448 43.6466L72.0075 43.1ZM72.0355 40.3L71.6057 40.8525L71.6129 40.8581L71.6202 40.8635L72.0355 40.3ZM77.8035 33.468H77.1035C77.1035 35.1607 76.3949 36.4088 74.9233 37.2918L75.2835 37.892L75.6436 38.4922C77.5321 37.3592 78.5035 35.658 78.5035 33.468H77.8035ZM75.2835 37.892L75.0421 38.5491C75.8229 38.8359 76.48 39.3287 77.0195 40.048L77.5795 39.628L78.1395 39.208C77.4469 38.2846 76.5733 37.6201 75.5248 37.2349L75.2835 37.892ZM77.5795 39.628L77.0195 40.048C77.5106 40.7029 77.8035 41.6989 77.8035 43.128H78.5035H79.2035C79.2035 41.5331 78.8803 40.1958 78.1395 39.208L77.5795 39.628ZM78.5035 43.128H77.8035C77.8035 44.4186 77.3329 45.3957 76.3918 46.1329L76.8235 46.684L77.2551 47.2351C78.554 46.2176 79.2035 44.8241 79.2035 43.128H78.5035ZM76.8235 46.684L76.3873 46.1365C75.4565 46.878 74.0491 47.3 72.0635 47.3V48V48.7C74.2218 48.7 75.9878 48.2447 77.2596 47.2315L76.8235 46.684ZM72.0635 48V47.3H65.4555V48V48.7H72.0635V48ZM65.4555 48V47.3C65.3048 47.3 65.2277 47.2583 65.1664 47.197L64.6715 47.692L64.1765 48.187C64.5259 48.5364 64.9714 48.7 65.4555 48.7V48ZM64.6715 47.692L65.1875 47.219C65.12 47.1454 65.0635 47.0347 65.0635 46.824H64.3635H63.6635C63.6635 47.3226 63.8123 47.7906 64.1555 48.165L64.6715 47.692ZM64.3635 46.824H65.0635V28.904H64.3635H63.6635V46.824H64.3635ZM64.3635 28.904H65.0635C65.0635 28.8681 65.0647 28.8412 65.0663 28.8221C65.0679 28.8026 65.0696 28.7958 65.0689 28.7987C65.0685 28.8006 65.0639 28.8222 65.0491 28.8553C65.0344 28.8878 65.0031 28.9463 64.9424 29.007L64.4475 28.512L63.9525 28.017C63.7839 28.1856 63.725 28.3889 63.7 28.5053C63.6717 28.6373 63.6635 28.7753 63.6635 28.904H64.3635ZM64.4475 28.512L64.9424 29.007C64.8662 29.0832 64.7954 29.1026 64.7888 29.1044C64.7834 29.1058 64.7865 29.1045 64.801 29.1029C64.8151 29.1014 64.8369 29.1 64.8675 29.1V28.4V27.7C64.6308 27.7 64.2375 27.732 63.9525 28.017L64.4475 28.512ZM64.8675 28.4V29.1H71.2515V28.4V27.7H64.8675V28.4ZM71.2515 28.4V29.1C73.3647 29.1 74.821 29.512 75.7372 30.2207C76.6193 30.903 77.1035 31.9415 77.1035 33.468H77.8035H78.5035C78.5035 31.6158 77.8956 30.1203 76.5938 29.1133C75.326 28.1327 73.5062 27.7 71.2515 27.7V28.4ZM69.7395 32.936H69.0395V36.604H69.7395H70.4395V32.936H69.7395ZM69.7395 36.604V37.304H69.8795V36.604V35.904H69.7395V36.604ZM69.8795 36.604V37.304C70.8311 37.304 71.6673 37.1494 72.2838 36.7384C72.9503 36.2941 73.2675 35.6132 73.2675 34.812H72.5675H71.8675C71.8675 35.2054 71.7366 35.4206 71.5072 35.5736C71.2276 35.7599 70.7198 35.904 69.8795 35.904V36.604ZM72.5675 34.812H73.2675C73.2675 34.0401 73.0557 33.328 72.4864 32.8486L72.0355 33.384L71.5846 33.9194C71.7245 34.0373 71.8675 34.2772 71.8675 34.812H72.5675ZM72.0355 33.384L72.5005 32.8608C71.968 32.3875 71.1802 32.236 70.3275 32.236V32.936V33.636C71.0801 33.636 71.4309 33.7832 71.5704 33.9072L72.0355 33.384ZM70.3275 32.936V32.236H69.7395V32.936V33.636H70.3275V32.936ZM69.7395 39.908H69.0395V43.548H69.7395H70.4395V39.908H69.7395ZM69.7395 43.548V44.248H70.2435V43.548V42.848H69.7395V43.548ZM70.2435 43.548V44.248C71.1064 44.248 71.8876 44.0924 72.4448 43.6466L72.0075 43.1L71.5702 42.5534C71.3807 42.705 70.9858 42.848 70.2435 42.848V43.548ZM72.0075 43.1L72.4448 43.6466C73.0395 43.1708 73.2675 42.4552 73.2675 41.672H72.5675H71.8675C71.8675 42.1955 71.7221 42.4319 71.5702 42.5534L72.0075 43.1ZM72.5675 41.672H73.2675C73.2675 40.9085 73.0588 40.1845 72.4507 39.7365L72.0355 40.3L71.6202 40.8635C71.7215 40.9381 71.8675 41.1289 71.8675 41.672H72.5675ZM72.0355 40.3L72.4652 39.7475C71.9373 39.3368 71.1666 39.208 70.3275 39.208V39.908V40.608C71.0936 40.608 71.4617 40.7405 71.6057 40.8525L72.0355 40.3ZM70.3275 39.908V39.208H69.7395V39.908V40.608H70.3275V39.908ZM82.5845 37.836L81.9737 38.178L82.2297 38.6351L82.7404 38.5184L82.5845 37.836ZM82.2765 34.42L81.9953 33.7789L81.9717 33.7893L81.9489 33.8013L82.2765 34.42ZM90.5925 35.036L90.0649 35.4962L90.0699 35.5018L90.5925 35.036ZM91.7405 43.296H91.0405V43.996H91.7405V43.296ZM93.4205 43.856L92.7821 44.1433L92.788 44.1563L92.7944 44.169L93.4205 43.856ZM93.1965 47.328L92.5778 47.0005L92.574 47.0077L92.5704 47.0149L93.1965 47.328ZM89.4445 47.468L89.9066 46.9422L89.8944 46.9315L89.8818 46.9214L89.4445 47.468ZM88.8005 46.656L89.4338 46.3579L88.9533 45.3368L88.252 46.221L88.8005 46.656ZM81.3525 46.824L81.8571 46.3388L81.3525 46.824ZM86.9525 38.816V39.516H87.6525V38.816H86.9525ZM86.7005 37.612L86.2055 38.107L86.2363 38.1378L86.2707 38.1645L86.7005 37.612ZM85.1605 43.94L84.6655 44.435L84.6763 44.4457L84.6875 44.456L85.1605 43.94ZM86.9525 43.828L87.4474 44.323L87.6525 44.1179V43.828H86.9525ZM86.9525 41.672H87.6525V40.972H86.9525V41.672ZM82.5845 37.836L83.1952 37.494C82.6891 36.5902 82.5005 35.9633 82.5005 35.568H81.8005H81.1005C81.1005 36.3301 81.4345 37.2151 81.9737 38.178L82.5845 37.836ZM81.8005 35.568H82.5005C82.5005 35.324 82.5339 35.1787 82.5661 35.1011C82.581 35.0651 82.5934 35.0491 82.5978 35.044C82.6013 35.04 82.6025 35.0395 82.604 35.0387L82.2765 34.42L81.9489 33.8013C81.2773 34.1569 81.1005 34.893 81.1005 35.568H81.8005ZM82.2765 34.42L82.5576 35.0611C83.4961 34.6495 84.8425 34.42 86.6445 34.42V33.72V33.02C84.7504 33.02 83.1849 33.2572 81.9953 33.7789L82.2765 34.42ZM86.6445 33.72V34.42C88.4288 34.42 89.495 34.8428 90.065 35.4962L90.5925 35.036L91.12 34.5758C90.1592 33.4745 88.5935 33.02 86.6445 33.02V33.72ZM90.5925 35.036L90.0699 35.5018C90.677 36.1829 91.0405 37.265 91.0405 38.872H91.7405H92.4405C92.4405 37.0816 92.0386 35.6064 91.115 34.5702L90.5925 35.036ZM91.7405 38.872H91.0405V43.296H91.7405H92.4405V38.872H91.7405ZM91.7405 43.296V43.996H92.6925V43.296V42.596H91.7405V43.296ZM92.6925 43.296V43.996C92.7022 43.996 92.7017 43.9973 92.6951 43.9951C92.6883 43.9928 92.6846 43.99 92.6857 43.9908C92.6899 43.9941 92.7302 44.0278 92.7821 44.1433L93.4205 43.856L94.0588 43.5687C93.9428 43.3109 93.7777 43.0646 93.5393 42.8812C93.2908 42.6901 92.9995 42.596 92.6925 42.596V43.296ZM93.4205 43.856L92.7944 44.169C92.9126 44.4055 93.0005 44.796 93.0005 45.396H93.7005H94.4005C94.4005 44.6893 94.3017 44.0531 94.0466 43.543L93.4205 43.856ZM93.7005 45.396H93.0005C93.0005 45.9241 92.8658 46.4565 92.5778 47.0005L93.1965 47.328L93.8151 47.6555C94.1991 46.9302 94.4005 46.1745 94.4005 45.396H93.7005ZM93.1965 47.328L92.5704 47.0149C92.3339 47.4879 92.1003 47.58 91.8805 47.58V48.28V48.98C92.7806 48.98 93.4244 48.4374 93.8226 47.641L93.1965 47.328ZM91.8805 48.28V47.58C91.0019 47.58 90.3673 47.3471 89.9066 46.9422L89.4445 47.468L88.9824 47.9938C89.7537 48.6716 90.743 48.98 91.8805 48.98V48.28ZM89.4445 47.468L89.8818 46.9214C89.6833 46.7626 89.5366 46.5763 89.4338 46.3579L88.8005 46.656L88.1671 46.9541C88.363 47.3703 88.6456 47.7254 89.0072 48.0146L89.4445 47.468ZM88.8005 46.656L88.252 46.221C87.5651 47.0872 86.4651 47.58 84.7965 47.58V48.28V48.98C86.7492 48.98 88.3185 48.3901 89.3489 47.091L88.8005 46.656ZM84.7965 48.28V47.58C83.6216 47.58 82.6566 47.1704 81.8571 46.3388L81.3525 46.824L80.8479 47.3092C81.915 48.4189 83.246 48.98 84.7965 48.98V48.28ZM81.3525 46.824L81.8571 46.3388C81.0469 45.4962 80.6525 44.5212 80.6525 43.38H79.9525H79.2525C79.2525 44.8894 79.7914 46.2104 80.8479 47.3092L81.3525 46.824ZM79.9525 43.38H80.6525C80.6525 42.0028 81.0584 41.0859 81.7664 40.4941C82.4985 39.8821 83.6728 39.516 85.4125 39.516V38.816V38.116C83.5121 38.116 81.9565 38.5105 80.8685 39.4199C79.7566 40.3494 79.2525 41.7145 79.2525 43.38H79.9525ZM85.4125 38.816V39.516H86.9525V38.816V38.116H85.4125V38.816ZM86.9525 38.816H87.6525V38.536H86.9525H86.2525V38.816H86.9525ZM86.9525 38.536H87.6525C87.6525 38.2598 87.6293 37.9934 87.5648 37.7568C87.5019 37.5261 87.3803 37.2539 87.1302 37.0595L86.7005 37.612L86.2707 38.1645C86.1887 38.1007 86.193 38.0479 86.2141 38.1252C86.2336 38.1966 86.2525 38.3268 86.2525 38.536H86.9525ZM86.7005 37.612L87.1954 37.117C86.975 36.8965 86.683 36.8048 86.4561 36.7583C86.2097 36.7077 85.922 36.688 85.6085 36.688V37.388V38.088C85.8736 38.088 86.0572 38.1056 86.1748 38.1297C86.2325 38.1415 86.2607 38.1523 86.2683 38.1556C86.2769 38.1594 86.2466 38.1481 86.2055 38.107L86.7005 37.612ZM85.6085 37.388V36.688C84.8191 36.688 83.7496 36.8516 82.4285 37.1536L82.5845 37.836L82.7404 38.5184C84.0326 38.223 84.9792 38.088 85.6085 38.088V37.388ZM84.8245 42.988H84.1245C84.1245 43.5269 84.2745 44.044 84.6655 44.435L85.1605 43.94L85.6554 43.445C85.5984 43.388 85.5245 43.2704 85.5245 42.988H84.8245ZM85.1605 43.94L84.6875 44.456C85.0546 44.7926 85.5094 44.948 86.0005 44.948V44.248V43.548C85.8196 43.548 85.7143 43.4981 85.6335 43.424L85.1605 43.94ZM86.0005 44.248V44.948C86.5632 44.948 87.0529 44.7175 87.4474 44.323L86.9525 43.828L86.4575 43.333C86.292 43.4985 86.1471 43.548 86.0005 43.548V44.248ZM86.9525 43.828H87.6525V41.672H86.9525H86.2525V43.828H86.9525ZM86.9525 41.672V40.972H86.1685V41.672V42.372H86.9525V41.672ZM86.1685 41.672V40.972C85.6162 40.972 85.0728 41.1072 84.6707 41.5008C84.266 41.8972 84.1245 42.4377 84.1245 42.988H84.8245H85.5245C85.5245 42.661 85.607 42.5435 85.6502 42.5012C85.6962 42.4562 85.8247 42.372 86.1685 42.372V41.672ZM99.4013 48.028L99.3803 48.7277L99.3908 48.728H99.4013V48.028ZM96.6013 38.648H97.3013V37.948H96.6013V38.648ZM94.9213 37.416L94.2295 37.5224L94.2309 37.5319L94.2326 37.5412L94.9213 37.416ZM95.2013 34.952L94.5533 34.6869L94.5485 34.6993L95.2013 34.952ZM98.6733 34.224L98.3132 34.8242H98.3132L98.6733 34.224ZM99.7933 35.232L99.1814 35.5719L99.5978 36.3215L100.249 35.7635L99.7933 35.232ZM102.061 38.508L102.346 39.1477L102.36 39.1412L102.374 39.1341L102.061 38.508ZM101.417 38.844L100.98 38.2974L100.717 38.5076V38.844H101.417ZM101.417 47.832H100.717C100.717 47.5091 100.932 47.3401 100.992 47.2992C101.06 47.2529 101.11 47.2415 101.095 47.2458C101.076 47.2515 101.002 47.2671 100.846 47.2823C100.545 47.3116 100.068 47.328 99.4013 47.328V48.028V48.728C100.078 48.728 100.61 48.7118 100.981 48.6757C101.16 48.6583 101.339 48.633 101.487 48.5898C101.557 48.5695 101.67 48.5315 101.78 48.4566C101.882 48.3872 102.117 48.1875 102.117 47.832H101.417ZM99.4013 48.028L99.4223 47.3283C98.4932 47.3004 97.8159 47.2614 97.3779 47.2132C97.1536 47.1885 97.0219 47.1645 96.9588 47.1474C96.9216 47.1374 96.9492 47.1405 97.0008 47.1709C97.0124 47.1778 97.3013 47.3409 97.3013 47.72H96.6013H95.9013C95.9013 48.1364 96.2194 48.3354 96.2894 48.3767C96.3993 48.4416 96.5143 48.4776 96.5938 48.4991C96.764 48.545 96.9824 48.5781 97.2248 48.6048C97.7201 48.6593 98.4428 48.6996 99.3803 48.7277L99.4013 48.028ZM96.6013 47.72H97.3013V38.648H96.6013H95.9013V47.72H96.6013ZM96.6013 38.648V37.948H95.8733V38.648V39.348H96.6013V38.648ZM95.8733 38.648V37.948C95.8542 37.948 95.8538 37.9448 95.8596 37.9478C95.864 37.9501 95.851 37.9454 95.8252 37.912C95.7645 37.8334 95.6755 37.6511 95.61 37.2908L94.9213 37.416L94.2326 37.5412C94.3164 38.0023 94.4608 38.4359 94.7174 38.768C94.998 39.1311 95.397 39.348 95.8733 39.348V38.648ZM94.9213 37.416L95.6132 37.3096C95.5812 37.1017 95.5653 36.8946 95.5653 36.688H94.8653H94.1653C94.1653 36.9667 94.1868 37.245 94.2295 37.5224L94.9213 37.416ZM94.8653 36.688H95.5653C95.5653 36.2018 95.659 35.7086 95.8541 35.2047L95.2013 34.952L94.5485 34.6993C94.2956 35.3527 94.1653 36.0168 94.1653 36.688H94.8653ZM95.2013 34.952L95.8492 35.217C95.9861 34.8823 96.1384 34.6879 96.2778 34.5784C96.4072 34.4767 96.5602 34.42 96.7693 34.42V33.72V33.02C96.2691 33.02 95.8061 33.1686 95.4128 33.4776C95.0295 33.7788 94.7525 34.2004 94.5534 34.687L95.2013 34.952ZM96.7693 33.72V34.42C97.3631 34.42 97.8713 34.5591 98.3132 34.8242L98.6733 34.224L99.0335 33.6238C98.3554 33.2169 97.5942 33.02 96.7693 33.02V33.72ZM98.6733 34.224L98.3132 34.8242C98.8326 35.1359 99.0826 35.3942 99.1814 35.5719L99.7933 35.232L100.405 34.892C100.131 34.3978 99.634 33.9841 99.0335 33.6238L98.6733 34.224ZM99.7933 35.232L100.249 35.7635C101.291 34.8698 102.528 34.42 103.993 34.42V33.72V33.02C102.211 33.02 100.647 33.5782 99.3378 34.7005L99.7933 35.232ZM103.993 33.72V34.42C105.501 34.42 106.437 34.8253 106.983 35.483L107.521 35.036L108.06 34.589C107.15 33.492 105.734 33.02 103.993 33.02V33.72ZM107.521 35.036L106.983 35.483C107.553 36.17 107.913 37.4033 107.913 39.348H108.613H109.313C109.313 37.2981 108.946 35.6567 108.06 34.589L107.521 35.036ZM108.613 39.348H107.913V47.748H108.613H109.313V39.348H108.613ZM108.613 47.748H107.913C107.913 47.5424 108.013 47.398 108.087 47.326C108.121 47.2927 108.15 47.2729 108.166 47.2632C108.175 47.258 108.182 47.2545 108.186 47.2524C108.19 47.2503 108.192 47.2493 108.193 47.2493C108.193 47.2492 108.191 47.2499 108.188 47.2511C108.184 47.2523 108.179 47.254 108.173 47.256C108.159 47.2601 108.141 47.2652 108.116 47.2709C108.066 47.2825 108 47.2948 107.915 47.3067C107.563 47.3558 107.001 47.384 106.205 47.384V48.084V48.784C107.015 48.784 107.657 48.7562 108.108 48.6933C108.327 48.6628 108.548 48.618 108.733 48.5407C108.825 48.5024 108.952 48.4381 109.065 48.3275C109.189 48.2065 109.313 48.0096 109.313 47.748H108.613ZM106.205 48.084V47.384C105.42 47.384 104.865 47.3558 104.518 47.3069C104.434 47.295 104.369 47.2828 104.32 47.2714C104.296 47.2657 104.278 47.2607 104.265 47.2567C104.252 47.2526 104.247 47.2503 104.247 47.2504C104.247 47.2504 104.257 47.2547 104.274 47.2651C104.291 47.2751 104.321 47.2952 104.355 47.3289C104.428 47.4017 104.525 47.5454 104.525 47.748H103.825H103.125C103.125 48.0066 103.247 48.2028 103.37 48.3246C103.483 48.4359 103.61 48.5008 103.701 48.5396C103.885 48.6176 104.106 48.6626 104.322 48.6931C104.769 48.7562 105.404 48.784 106.205 48.784V48.084ZM103.825 47.748H104.525V39.656H103.825H103.125V47.748H103.825ZM103.825 39.656H104.525C104.525 39.1291 104.437 38.6092 104.154 38.2046C103.839 37.7545 103.362 37.556 102.845 37.556V38.256V38.956C102.925 38.956 102.962 38.9701 102.973 38.9755C102.981 38.9792 102.991 38.9848 103.007 39.0074C103.05 39.0695 103.125 39.2495 103.125 39.656H103.825ZM102.845 38.256V37.556C102.487 37.556 102.102 37.7049 101.748 37.8819L102.061 38.508L102.374 39.1341C102.521 39.0607 102.637 39.0134 102.724 38.9854C102.814 38.9562 102.85 38.956 102.845 38.956V38.256ZM102.061 38.508L101.777 37.8683C101.457 38.0106 101.156 38.1566 100.98 38.2974L101.417 38.844L101.855 39.3906C101.846 39.3976 101.873 39.3764 101.972 39.3246C102.062 39.2779 102.185 39.2191 102.346 39.1477L102.061 38.508ZM101.417 38.844H100.717V47.832H101.417H102.117V38.844H101.417ZM113.815 28.176L113.84 27.4764L113.828 27.476H113.815V28.176ZM116.195 39.292H115.495L116.811 39.6251L116.195 39.292ZM118.967 34.168L119.583 34.5011L119.593 34.4828L119.602 34.464L118.967 34.168ZM124.147 34.028L124.744 34.3939L125.158 33.7186L124.437 33.3907L124.147 34.028ZM120.507 39.964L119.91 39.5981L119.701 39.9399L119.89 40.2936L120.507 39.964ZM124.707 47.832L125.333 47.519L125.329 47.5106L125.325 47.5024L124.707 47.832ZM123.643 48L123.608 47.3009L123.599 47.3013L123.59 47.3021L123.643 48ZM118.939 47.832L118.3 48.1171L118.334 48.1947L118.387 48.2618L118.939 47.832ZM116.167 41.616L116.806 41.3309L115.467 41.616H116.167ZM111.267 28.624H111.967C111.967 28.7679 111.911 28.8851 111.85 28.9604C111.823 28.9943 111.797 29.0162 111.781 29.0286C111.765 29.0409 111.754 29.0465 111.753 29.0471C111.752 29.0475 111.772 29.0375 111.822 29.0228C111.871 29.0085 111.938 28.9929 112.025 28.9774C112.388 28.9137 112.975 28.876 113.815 28.876V28.176V27.476C112.956 27.476 112.27 27.513 111.783 27.5986C111.546 27.6402 111.302 27.702 111.1 27.8089C110.914 27.907 110.567 28.1556 110.567 28.624H111.267ZM113.815 28.176L113.79 28.8756C114.577 28.9033 115.139 28.9467 115.494 29.001C115.678 29.0291 115.766 29.0545 115.793 29.0648C115.809 29.071 115.763 29.0567 115.702 29.0041C115.636 28.9478 115.495 28.7927 115.495 28.54H116.195H116.895C116.895 28.2406 116.729 28.0409 116.614 27.942C116.503 27.8468 116.383 27.792 116.3 27.7597C116.128 27.693 115.919 27.6496 115.706 27.617C115.268 27.55 114.64 27.5047 113.84 27.4764L113.815 28.176ZM116.195 28.54H115.495V39.292H116.195H116.895V28.54H116.195ZM116.195 39.292L116.811 39.6251L119.583 34.5011L118.967 34.168L118.352 33.8349L115.58 38.9589L116.195 39.292ZM118.967 34.168L119.602 34.464C119.531 34.616 119.425 34.6463 119.479 34.6215C119.519 34.6033 119.612 34.5724 119.782 34.5423C120.118 34.4829 120.633 34.448 121.347 34.448V33.748V33.048C120.605 33.048 119.995 33.0831 119.539 33.1637C119.312 33.2036 119.091 33.2602 118.9 33.347C118.723 33.4272 118.469 33.5799 118.333 33.872L118.967 34.168ZM121.347 33.748V34.448C122.063 34.448 122.635 34.4711 123.07 34.5145C123.524 34.56 123.763 34.6222 123.858 34.6653L124.147 34.028L124.437 33.3907C124.121 33.2471 123.688 33.1694 123.209 33.1215C122.71 33.0716 122.087 33.048 121.347 33.048V33.748ZM124.147 34.028L123.55 33.6621L119.91 39.5981L120.507 39.964L121.104 40.3299L124.744 34.3939L124.147 34.028ZM120.507 39.964L119.89 40.2936L124.09 48.1616L124.707 47.832L125.325 47.5024L121.125 39.6344L120.507 39.964ZM124.707 47.832L124.081 48.145C124.027 48.0375 123.993 47.8943 124.019 47.7343C124.043 47.5804 124.115 47.4689 124.174 47.4007C124.276 47.2832 124.386 47.241 124.395 47.2372C124.436 47.2205 124.44 47.2259 124.36 47.2386C124.222 47.2604 123.977 47.2824 123.608 47.3009L123.643 48L123.678 48.6991C124.056 48.6802 124.362 48.6556 124.578 48.6214C124.676 48.6061 124.808 48.5811 124.928 48.5318C124.977 48.5117 125.115 48.4525 125.232 48.3176C125.299 48.2406 125.374 48.1202 125.401 47.9572C125.428 47.7883 125.392 47.6358 125.333 47.519L124.707 47.832ZM123.643 48L123.59 47.3021C122.871 47.3573 122.284 47.384 121.823 47.384V48.084V48.784C122.333 48.784 122.959 48.7547 123.697 48.6979L123.643 48ZM121.823 48.084V47.384C120.933 47.384 120.269 47.363 119.819 47.3237C119.592 47.3038 119.44 47.281 119.35 47.2602C119.305 47.2496 119.295 47.244 119.306 47.249C119.313 47.2519 119.334 47.2617 119.364 47.2814C119.392 47.3003 119.442 47.3383 119.492 47.4022L118.939 47.832L118.387 48.2618C118.51 48.4203 118.667 48.4977 118.748 48.5331C118.844 48.5748 118.945 48.6034 119.036 48.6243C119.218 48.6665 119.444 48.6962 119.697 48.7183C120.209 48.763 120.921 48.784 121.823 48.784V48.084ZM118.939 47.832L119.578 47.5469L116.806 41.3309L116.167 41.616L115.528 41.9011L118.3 48.1171L118.939 47.832ZM116.167 41.616H115.467V47.804H116.167H116.867V41.616H116.167ZM116.167 47.804H115.467C115.467 47.6148 115.554 47.4766 115.625 47.4027C115.658 47.3689 115.687 47.3485 115.703 47.3382C115.712 47.3327 115.718 47.3289 115.723 47.3267C115.727 47.3245 115.729 47.3234 115.73 47.3233C115.73 47.3232 115.724 47.3258 115.71 47.3302C115.697 47.3346 115.678 47.34 115.653 47.3461C115.603 47.3585 115.536 47.3717 115.449 47.3845C115.091 47.4374 114.517 47.468 113.703 47.468V48.168V48.868C114.532 48.868 115.19 48.8379 115.653 48.7695C115.878 48.7363 116.107 48.6875 116.297 48.6032C116.43 48.5443 116.867 48.3225 116.867 47.804H116.167ZM113.703 48.168V47.468C112.899 47.468 112.329 47.4398 111.972 47.3906C111.885 47.3786 111.817 47.3662 111.767 47.3545C111.741 47.3488 111.722 47.3436 111.708 47.3393C111.701 47.3373 111.696 47.3355 111.693 47.3342C111.691 47.3336 111.689 47.3331 111.688 47.3327C111.688 47.3326 111.688 47.3324 111.687 47.3323C111.687 47.3322 111.687 47.3322 111.687 47.3322C111.687 47.3322 111.687 47.3322 111.687 47.3323C111.688 47.3325 111.688 47.3326 111.689 47.3328C111.69 47.3333 111.691 47.334 111.693 47.335C111.697 47.3369 111.704 47.3403 111.712 47.3453C111.728 47.3547 111.757 47.3742 111.791 47.4072C111.865 47.4783 111.967 47.6235 111.967 47.832H111.267H110.567C110.567 48.0965 110.695 48.2942 110.819 48.4143C110.933 48.5242 111.06 48.5879 111.152 48.6258C111.337 48.7024 111.56 48.747 111.781 48.7774C112.236 48.8402 112.884 48.868 113.703 48.868V48.168ZM111.267 47.832H111.967V28.624H111.267H110.567V47.832H111.267ZM143.348 37.892L142.987 37.2918L141.733 38.0445L143.106 38.5491L143.348 37.892ZM145.644 39.628L146.204 39.208V39.208L145.644 39.628ZM144.888 46.684L144.456 46.1329L144.451 46.1365L144.888 46.684ZM132.736 47.692L132.22 48.165L132.23 48.1762L132.241 48.187L132.736 47.692ZM132.512 28.512L132.017 28.017L132.017 28.017L132.512 28.512ZM137.804 32.936V32.236H137.104V32.936H137.804ZM137.804 36.604H137.104V37.304H137.804V36.604ZM140.1 33.384L139.634 33.9072L139.641 33.9134L139.649 33.9194L140.1 33.384ZM137.804 39.908V39.208H137.104V39.908H137.804ZM137.804 43.548H137.104V44.248H137.804V43.548ZM140.072 43.1L140.509 43.6466L140.072 43.1ZM140.1 40.3L139.67 40.8525L139.677 40.8581L139.684 40.8635L140.1 40.3ZM145.868 33.468H145.168C145.168 35.1607 144.459 36.4088 142.987 37.2918L143.348 37.892L143.708 38.4922C145.596 37.3592 146.568 35.658 146.568 33.468H145.868ZM143.348 37.892L143.106 38.5491C143.887 38.8359 144.544 39.3287 145.084 40.048L145.644 39.628L146.204 39.208C145.511 38.2846 144.637 37.6201 143.589 37.2349L143.348 37.892ZM145.644 39.628L145.084 40.048C145.575 40.7029 145.868 41.6989 145.868 43.128H146.568H147.268C147.268 41.5331 146.944 40.1958 146.204 39.208L145.644 39.628ZM146.568 43.128H145.868C145.868 44.4186 145.397 45.3957 144.456 46.1329L144.888 46.684L145.319 47.2351C146.618 46.2176 147.268 44.8241 147.268 43.128H146.568ZM144.888 46.684L144.451 46.1365C143.521 46.878 142.113 47.3 140.128 47.3V48V48.7C142.286 48.7 144.052 48.2447 145.324 47.2315L144.888 46.684ZM140.128 48V47.3H133.52V48V48.7H140.128V48ZM133.52 48V47.3C133.369 47.3 133.292 47.2583 133.23 47.197L132.736 47.692L132.241 48.187C132.59 48.5364 133.036 48.7 133.52 48.7V48ZM132.736 47.692L133.252 47.219C133.184 47.1454 133.128 47.0347 133.128 46.824H132.428H131.728C131.728 47.3226 131.876 47.7906 132.22 48.165L132.736 47.692ZM132.428 46.824H133.128V28.904H132.428H131.728V46.824H132.428ZM132.428 28.904H133.128C133.128 28.8681 133.129 28.8412 133.13 28.8221C133.132 28.8026 133.134 28.7958 133.133 28.7987C133.133 28.8006 133.128 28.8222 133.113 28.8553C133.098 28.8878 133.067 28.9463 133.007 29.007L132.512 28.512L132.017 28.017C131.848 28.1856 131.789 28.3889 131.764 28.5053C131.736 28.6373 131.728 28.7753 131.728 28.904H132.428ZM132.512 28.512L133.007 29.007C132.93 29.0832 132.859 29.1026 132.853 29.1044C132.847 29.1058 132.851 29.1045 132.865 29.1029C132.879 29.1014 132.901 29.1 132.932 29.1V28.4V27.7C132.695 27.7 132.302 27.732 132.017 28.017L132.512 28.512ZM132.932 28.4V29.1H139.316V28.4V27.7H132.932V28.4ZM139.316 28.4V29.1C141.429 29.1 142.885 29.512 143.801 30.2207C144.683 30.903 145.168 31.9415 145.168 33.468H145.868H146.568C146.568 31.6158 145.96 30.1203 144.658 29.1133C143.39 28.1327 141.57 27.7 139.316 27.7V28.4ZM137.804 32.936H137.104V36.604H137.804H138.504V32.936H137.804ZM137.804 36.604V37.304H137.944V36.604V35.904H137.804V36.604ZM137.944 36.604V37.304C138.895 37.304 139.731 37.1494 140.348 36.7384C141.014 36.2941 141.332 35.6132 141.332 34.812H140.632H139.932C139.932 35.2054 139.801 35.4206 139.571 35.5736C139.292 35.7599 138.784 35.904 137.944 35.904V36.604ZM140.632 34.812H141.332C141.332 34.0401 141.12 33.328 140.55 32.8486L140.1 33.384L139.649 33.9194C139.789 34.0373 139.932 34.2772 139.932 34.812H140.632ZM140.1 33.384L140.565 32.8608C140.032 32.3875 139.244 32.236 138.392 32.236V32.936V33.636C139.144 33.636 139.495 33.7832 139.634 33.9072L140.1 33.384ZM138.392 32.936V32.236H137.804V32.936V33.636H138.392V32.936ZM137.804 39.908H137.104V43.548H137.804H138.504V39.908H137.804ZM137.804 43.548V44.248H138.308V43.548V42.848H137.804V43.548ZM138.308 43.548V44.248C139.17 44.248 139.952 44.0924 140.509 43.6466L140.072 43.1L139.634 42.5534C139.445 42.705 139.05 42.848 138.308 42.848V43.548ZM140.072 43.1L140.509 43.6466C141.104 43.1708 141.332 42.4552 141.332 41.672H140.632H139.932C139.932 42.1955 139.786 42.4319 139.634 42.5534L140.072 43.1ZM140.632 41.672H141.332C141.332 40.9085 141.123 40.1845 140.515 39.7365L140.1 40.3L139.684 40.8635C139.786 40.9381 139.932 41.1289 139.932 41.672H140.632ZM140.1 40.3L140.529 39.7475C140.001 39.3368 139.231 39.208 138.392 39.208V39.908V40.608C139.158 40.608 139.526 40.7405 139.67 40.8525L140.1 40.3ZM138.392 39.908V39.208H137.804V39.908V40.608H138.392V39.908Z" fill="black" mask="url(#path-6-outside-1_1131_17110)"/>
</g>
<defs>
<filter id="filter0_dd_1131_17110" x="0.302734" y="0.000488281" width="201.595" height="84.4995" filterUnits="userSpaceOnUse" color-interpolation-filters="sRGB">
<feFlood flood-opacity="0" result="BackgroundImageFix"/>
<feColorMatrix in="SourceAlpha" type="matrix" values="0 0 0 0 0 0 0 0 0 0 0 0 0 0 0 0 0 0 127 0" result="hardAlpha"/>
<feOffset dx="0.2" dy="2.5"/>
<feComposite in2="hardAlpha" operator="out"/>
<feColorMatrix type="matrix" values="0 0 0 0 0 0 0 0 0 0 0 0 0 0 0 0 0 0 0.5 0"/>
<feBlend mode="normal" in2="BackgroundImageFix" result="effect1_dropShadow_1131_17110"/>
<feColorMatrix in="SourceAlpha" type="matrix" values="0 0 0 0 0 0 0 0 0 0 0 0 0 0 0 0 0 0 127 0" result="hardAlpha"/>
<feOffset dy="0.6"/>
<feComposite in2="hardAlpha" operator="out"/>
<feColorMatrix type="matrix" values="0 0 0 0 0 0 0 0 0 0 0 0 0 0 0 0 0 0 1 0"/>
<feBlend mode="normal" in2="effect1_dropShadow_1131_17110" result="effect2_dropShadow_1131_17110"/>
<feBlend mode="normal" in="SourceGraphic" in2="effect2_dropShadow_1131_17110" result="shape"/>
</filter>
<filter id="filter1_d_1131_17110" x="63.6641" y="27.4761" width="83.6035" height="23.5039" filterUnits="userSpaceOnUse" color-interpolation-filters="sRGB">
<feFlood flood-opacity="0" result="BackgroundImageFix"/>
<feColorMatrix in="SourceAlpha" type="matrix" values="0 0 0 0 0 0 0 0 0 0 0 0 0 0 0 0 0 0 127 0" result="hardAlpha"/>
<feOffset dy="2"/>
<feComposite in2="hardAlpha" operator="out"/>
<feColorMatrix type="matrix" values="0 0 0 0 0 0 0 0 0 0 0 0 0 0 0 0 0 0 1 0"/>
<feBlend mode="normal" in2="BackgroundImageFix" result="effect1_dropShadow_1131_17110"/>
<feBlend mode="normal" in="SourceGraphic" in2="effect1_dropShadow_1131_17110" result="shape"/>
</filter>
</defs>
</svg>
