<svg width="202" height="85" viewBox="0 0 202 85" fill="none" xmlns="http://www.w3.org/2000/svg">
<g filter="url(#filter0_dd_1131_17119)">
<path d="M6.56994 4.7092C6.72258 2.61863 8.46319 1.00047 10.5593 1.00047H196.697C199.021 1.00047 200.856 2.97404 200.686 5.29174L195.43 77.2911C195.277 79.3817 193.537 80.9999 191.44 80.9999H5.30269C2.97883 80.9999 1.14409 79.0263 1.3133 76.7086L6.56994 4.7092Z" fill="#068F36"/>
<path d="M196.697 0.5C199.311 0.500104 201.376 2.7208 201.186 5.32812L195.929 77.3271C195.757 79.679 193.799 81.5 191.44 81.5H5.30273C2.68839 81.5 0.624088 79.2793 0.814453 76.6719L6.07129 4.67285C6.243 2.32096 8.20142 0.5 10.5596 0.5H196.697Z" stroke="black"/>
</g>
<mask id="mask0_1131_17119" style="mask-type:alpha" maskUnits="userSpaceOnUse" x="1" y="1" width="200" height="80">
<path d="M6.56995 4.70922C6.72258 2.61865 8.46319 1.00049 10.5593 1.00049H196.697C199.021 1.00049 200.856 2.97406 200.686 5.29175L195.43 77.2911C195.277 79.3817 193.537 80.9999 191.44 80.9999H5.30269C2.97883 80.9999 1.14409 79.0263 1.3133 76.7086L6.56995 4.70922Z" fill="#E6311F"/>
</mask>
<g mask="url(#mask0_1131_17119)">
<rect x="-5.68164" y="-14.9932" width="225.403" height="23.4222" fill="#459B03"/>
<rect x="-5.55078" y="72.23" width="225.403" height="23.9316" fill="#007328"/>
</g>
<g filter="url(#filter1_d_1131_17119)">
<mask id="path-6-outside-1_1131_17119" maskUnits="userSpaceOnUse" x="64" y="27" width="84" height="22" fill="black">
<rect fill="white" x="64" y="27" width="84" height="22"/>
<path d="M78.7683 33.468C78.7683 35.4093 77.9283 36.884 76.2483 37.892C77.163 38.228 77.9283 38.8067 78.5443 39.628C79.1603 40.4493 79.4683 41.616 79.4683 43.128C79.4683 44.6213 78.9083 45.8067 77.7883 46.684C76.687 47.5613 75.1003 48 73.0283 48H66.4203C66.103 48 65.8416 47.8973 65.6363 47.692C65.431 47.468 65.3283 47.1787 65.3283 46.824V28.904C65.3283 28.6987 65.3563 28.568 65.4123 28.512C65.487 28.4373 65.627 28.4 65.8323 28.4H72.2163C76.5843 28.4 78.7683 30.0893 78.7683 33.468ZM70.7043 32.936V36.604H70.8443C72.6363 36.604 73.5323 36.0067 73.5323 34.812C73.5323 34.1587 73.355 33.6827 73.0003 33.384C72.6643 33.0853 72.095 32.936 71.2923 32.936H70.7043ZM70.7043 39.908V43.548H71.2083C72.011 43.548 72.599 43.3987 72.9723 43.1C73.3456 42.8013 73.5323 42.3253 73.5323 41.672C73.5323 41.0187 73.355 40.5613 73.0003 40.3C72.6643 40.0387 72.095 39.908 71.2923 39.908H70.7043ZM83.5493 37.836C83.0266 36.9027 82.7653 36.1467 82.7653 35.568C82.7653 34.9707 82.924 34.588 83.2413 34.42C84.3053 33.9533 85.7613 33.72 87.6093 33.72C89.476 33.72 90.792 34.1587 91.5573 35.036C92.3226 35.8947 92.7053 37.1733 92.7053 38.872V43.296H93.6573C93.9746 43.296 94.2173 43.4827 94.3853 43.856C94.572 44.2293 94.6653 44.7427 94.6653 45.396C94.6653 46.0493 94.4973 46.6933 94.1613 47.328C93.844 47.9627 93.4053 48.28 92.8453 48.28C91.8373 48.28 91.0253 48.0093 90.4093 47.468C90.1293 47.244 89.9146 46.9733 89.7653 46.656C88.9066 47.7387 87.572 48.28 85.7613 48.28C84.3986 48.28 83.2506 47.7947 82.3173 46.824C81.384 45.8533 80.9173 44.7053 80.9173 43.38C80.9173 40.3373 82.7373 38.816 86.3773 38.816H87.9173V38.536C87.9173 38.0507 87.8333 37.7427 87.6653 37.612C87.516 37.4627 87.152 37.388 86.5733 37.388C85.864 37.388 84.856 37.5373 83.5493 37.836ZM85.7893 42.988C85.7893 43.3987 85.9013 43.716 86.1253 43.94C86.3493 44.1453 86.6293 44.248 86.9653 44.248C87.32 44.248 87.6373 44.108 87.9173 43.828V41.672H87.1333C86.2373 41.672 85.7893 42.1107 85.7893 42.988ZM102.382 47.832C102.382 47.9627 101.71 48.028 100.366 48.028C98.4995 47.972 97.5662 47.8693 97.5662 47.72V38.648H96.8382C96.3528 38.648 96.0355 38.2373 95.8862 37.416C95.8488 37.1733 95.8302 36.9307 95.8302 36.688C95.8302 36.1093 95.9422 35.5307 96.1662 34.952C96.5022 34.1307 97.0248 33.72 97.7342 33.72C98.4435 33.72 99.0782 33.888 99.6382 34.224C100.198 34.56 100.571 34.896 100.758 35.232C101.934 34.224 103.334 33.72 104.958 33.72C106.582 33.72 107.758 34.1587 108.486 35.036C109.214 35.9133 109.578 37.3507 109.578 39.348V47.748C109.578 47.972 108.775 48.084 107.17 48.084C105.583 48.084 104.79 47.972 104.79 47.748V39.656C104.79 38.7227 104.463 38.256 103.81 38.256C103.623 38.256 103.362 38.34 103.026 38.508C102.69 38.6573 102.475 38.7693 102.382 38.844V47.832ZM112.232 28.624C112.232 28.3253 113.081 28.176 114.78 28.176C116.367 28.232 117.16 28.3533 117.16 28.54V39.292L119.932 34.168C120.063 33.888 120.856 33.748 122.312 33.748C123.768 33.748 124.701 33.8413 125.112 34.028L121.472 39.964L125.672 47.832C125.709 47.9067 125.355 47.9627 124.608 48C123.88 48.056 123.273 48.084 122.788 48.084C120.996 48.084 120.035 48 119.904 47.832L117.132 41.616V47.804C117.132 48.0467 116.311 48.168 114.668 48.168C113.044 48.168 112.232 48.056 112.232 47.832V28.624ZM141.092 28.148C142.455 28.148 143.65 28.344 144.676 28.736C145.722 29.1093 146.244 29.6227 146.244 30.276C146.244 30.9293 145.992 31.7413 145.488 32.712C145.003 33.664 144.592 34.14 144.256 34.14C144.163 34.14 144.051 34.0933 143.92 34C143.808 33.888 143.528 33.776 143.08 33.664C142.651 33.5333 142.278 33.468 141.96 33.468C140.878 33.468 140 33.8507 139.328 34.616C138.675 35.3813 138.348 36.5573 138.348 38.144C138.348 39.712 138.684 40.8787 139.356 41.644C140.047 42.4093 140.915 42.792 141.96 42.792C142.39 42.792 142.866 42.736 143.388 42.624C143.93 42.4933 144.312 42.316 144.536 42.092C144.574 42.0547 144.648 42.036 144.76 42.036C144.872 42.036 145.078 42.2507 145.376 42.68C145.694 43.0907 145.983 43.6413 146.244 44.332C146.506 45.004 146.636 45.5267 146.636 45.9C146.636 46.628 146.076 47.2067 144.956 47.636C143.836 48.0653 142.511 48.28 140.98 48.28C138.516 48.28 136.491 47.412 134.904 45.676C133.318 43.94 132.524 41.4947 132.524 38.34C132.524 35.1667 133.336 32.6747 134.96 30.864C136.603 29.0533 138.647 28.148 141.092 28.148Z"/>
</mask>
<path d="M78.7683 33.468C78.7683 35.4093 77.9283 36.884 76.2483 37.892C77.163 38.228 77.9283 38.8067 78.5443 39.628C79.1603 40.4493 79.4683 41.616 79.4683 43.128C79.4683 44.6213 78.9083 45.8067 77.7883 46.684C76.687 47.5613 75.1003 48 73.0283 48H66.4203C66.103 48 65.8416 47.8973 65.6363 47.692C65.431 47.468 65.3283 47.1787 65.3283 46.824V28.904C65.3283 28.6987 65.3563 28.568 65.4123 28.512C65.487 28.4373 65.627 28.4 65.8323 28.4H72.2163C76.5843 28.4 78.7683 30.0893 78.7683 33.468ZM70.7043 32.936V36.604H70.8443C72.6363 36.604 73.5323 36.0067 73.5323 34.812C73.5323 34.1587 73.355 33.6827 73.0003 33.384C72.6643 33.0853 72.095 32.936 71.2923 32.936H70.7043ZM70.7043 39.908V43.548H71.2083C72.011 43.548 72.599 43.3987 72.9723 43.1C73.3456 42.8013 73.5323 42.3253 73.5323 41.672C73.5323 41.0187 73.355 40.5613 73.0003 40.3C72.6643 40.0387 72.095 39.908 71.2923 39.908H70.7043ZM83.5493 37.836C83.0266 36.9027 82.7653 36.1467 82.7653 35.568C82.7653 34.9707 82.924 34.588 83.2413 34.42C84.3053 33.9533 85.7613 33.72 87.6093 33.72C89.476 33.72 90.792 34.1587 91.5573 35.036C92.3226 35.8947 92.7053 37.1733 92.7053 38.872V43.296H93.6573C93.9746 43.296 94.2173 43.4827 94.3853 43.856C94.572 44.2293 94.6653 44.7427 94.6653 45.396C94.6653 46.0493 94.4973 46.6933 94.1613 47.328C93.844 47.9627 93.4053 48.28 92.8453 48.28C91.8373 48.28 91.0253 48.0093 90.4093 47.468C90.1293 47.244 89.9146 46.9733 89.7653 46.656C88.9066 47.7387 87.572 48.28 85.7613 48.28C84.3986 48.28 83.2506 47.7947 82.3173 46.824C81.384 45.8533 80.9173 44.7053 80.9173 43.38C80.9173 40.3373 82.7373 38.816 86.3773 38.816H87.9173V38.536C87.9173 38.0507 87.8333 37.7427 87.6653 37.612C87.516 37.4627 87.152 37.388 86.5733 37.388C85.864 37.388 84.856 37.5373 83.5493 37.836ZM85.7893 42.988C85.7893 43.3987 85.9013 43.716 86.1253 43.94C86.3493 44.1453 86.6293 44.248 86.9653 44.248C87.32 44.248 87.6373 44.108 87.9173 43.828V41.672H87.1333C86.2373 41.672 85.7893 42.1107 85.7893 42.988ZM102.382 47.832C102.382 47.9627 101.71 48.028 100.366 48.028C98.4995 47.972 97.5662 47.8693 97.5662 47.72V38.648H96.8382C96.3528 38.648 96.0355 38.2373 95.8862 37.416C95.8488 37.1733 95.8302 36.9307 95.8302 36.688C95.8302 36.1093 95.9422 35.5307 96.1662 34.952C96.5022 34.1307 97.0248 33.72 97.7342 33.72C98.4435 33.72 99.0782 33.888 99.6382 34.224C100.198 34.56 100.571 34.896 100.758 35.232C101.934 34.224 103.334 33.72 104.958 33.72C106.582 33.72 107.758 34.1587 108.486 35.036C109.214 35.9133 109.578 37.3507 109.578 39.348V47.748C109.578 47.972 108.775 48.084 107.17 48.084C105.583 48.084 104.79 47.972 104.79 47.748V39.656C104.79 38.7227 104.463 38.256 103.81 38.256C103.623 38.256 103.362 38.34 103.026 38.508C102.69 38.6573 102.475 38.7693 102.382 38.844V47.832ZM112.232 28.624C112.232 28.3253 113.081 28.176 114.78 28.176C116.367 28.232 117.16 28.3533 117.16 28.54V39.292L119.932 34.168C120.063 33.888 120.856 33.748 122.312 33.748C123.768 33.748 124.701 33.8413 125.112 34.028L121.472 39.964L125.672 47.832C125.709 47.9067 125.355 47.9627 124.608 48C123.88 48.056 123.273 48.084 122.788 48.084C120.996 48.084 120.035 48 119.904 47.832L117.132 41.616V47.804C117.132 48.0467 116.311 48.168 114.668 48.168C113.044 48.168 112.232 48.056 112.232 47.832V28.624ZM141.092 28.148C142.455 28.148 143.65 28.344 144.676 28.736C145.722 29.1093 146.244 29.6227 146.244 30.276C146.244 30.9293 145.992 31.7413 145.488 32.712C145.003 33.664 144.592 34.14 144.256 34.14C144.163 34.14 144.051 34.0933 143.92 34C143.808 33.888 143.528 33.776 143.08 33.664C142.651 33.5333 142.278 33.468 141.96 33.468C140.878 33.468 140 33.8507 139.328 34.616C138.675 35.3813 138.348 36.5573 138.348 38.144C138.348 39.712 138.684 40.8787 139.356 41.644C140.047 42.4093 140.915 42.792 141.96 42.792C142.39 42.792 142.866 42.736 143.388 42.624C143.93 42.4933 144.312 42.316 144.536 42.092C144.574 42.0547 144.648 42.036 144.76 42.036C144.872 42.036 145.078 42.2507 145.376 42.68C145.694 43.0907 145.983 43.6413 146.244 44.332C146.506 45.004 146.636 45.5267 146.636 45.9C146.636 46.628 146.076 47.2067 144.956 47.636C143.836 48.0653 142.511 48.28 140.98 48.28C138.516 48.28 136.491 47.412 134.904 45.676C133.318 43.94 132.524 41.4947 132.524 38.34C132.524 35.1667 133.336 32.6747 134.96 30.864C136.603 29.0533 138.647 28.148 141.092 28.148Z" fill="white"/>
<path d="M76.2483 37.892L75.8882 37.2918L74.6335 38.0445L76.0069 38.5491L76.2483 37.892ZM78.5443 39.628L79.1043 39.208V39.208L78.5443 39.628ZM77.7883 46.684L77.3566 46.1329L77.3522 46.1365L77.7883 46.684ZM65.6363 47.692L65.1203 48.165L65.1306 48.1762L65.1413 48.187L65.6363 47.692ZM65.4123 28.512L64.9173 28.017L64.9173 28.017L65.4123 28.512ZM70.7043 32.936V32.236H70.0043V32.936H70.7043ZM70.7043 36.604H70.0043V37.304H70.7043V36.604ZM73.0003 33.384L72.5353 33.9072L72.5423 33.9134L72.5494 33.9194L73.0003 33.384ZM70.7043 39.908V39.208H70.0043V39.908H70.7043ZM70.7043 43.548H70.0043V44.248H70.7043V43.548ZM72.9723 43.1L73.4096 43.6466L72.9723 43.1ZM73.0003 40.3L72.5706 40.8525L72.5777 40.8581L72.5851 40.8635L73.0003 40.3ZM78.7683 33.468H78.0683C78.0683 35.1607 77.3597 36.4088 75.8882 37.2918L76.2483 37.892L76.6085 38.4922C78.4969 37.3592 79.4683 35.658 79.4683 33.468H78.7683ZM76.2483 37.892L76.0069 38.5491C76.7878 38.8359 77.4448 39.3287 77.9843 40.048L78.5443 39.628L79.1043 39.208C78.4118 38.2846 77.5382 37.6201 76.4897 37.2349L76.2483 37.892ZM78.5443 39.628L77.9843 40.048C78.4755 40.7029 78.7683 41.6989 78.7683 43.128H79.4683H80.1683C80.1683 41.5331 79.8451 40.1958 79.1043 39.208L78.5443 39.628ZM79.4683 43.128H78.7683C78.7683 44.4186 78.2977 45.3957 77.3567 46.1329L77.7883 46.684L78.22 47.2351C79.5189 46.2176 80.1683 44.8241 80.1683 43.128H79.4683ZM77.7883 46.684L77.3522 46.1365C76.4213 46.878 75.0139 47.3 73.0283 47.3V48V48.7C75.1867 48.7 76.9526 48.2447 78.2245 47.2315L77.7883 46.684ZM73.0283 48V47.3H66.4203V48V48.7H73.0283V48ZM66.4203 48V47.3C66.2697 47.3 66.1925 47.2583 66.1313 47.197L65.6363 47.692L65.1413 48.187C65.4908 48.5364 65.9363 48.7 66.4203 48.7V48ZM65.6363 47.692L66.1523 47.219C66.0848 47.1454 66.0283 47.0347 66.0283 46.824H65.3283H64.6283C64.6283 47.3226 64.7771 47.7906 65.1203 48.165L65.6363 47.692ZM65.3283 46.824H66.0283V28.904H65.3283H64.6283V46.824H65.3283ZM65.3283 28.904H66.0283C66.0283 28.8681 66.0296 28.8412 66.0311 28.8221C66.0328 28.8026 66.0344 28.7958 66.0338 28.7987C66.0334 28.8006 66.0288 28.8222 66.0139 28.8553C65.9993 28.8878 65.9679 28.9463 65.9073 29.007L65.4123 28.512L64.9173 28.017C64.7487 28.1856 64.6898 28.3889 64.6649 28.5053C64.6366 28.6373 64.6283 28.7753 64.6283 28.904H65.3283ZM65.4123 28.512L65.9073 29.007C65.831 29.0832 65.7603 29.1026 65.7537 29.1044C65.7482 29.1058 65.7514 29.1045 65.7658 29.1029C65.78 29.1014 65.8017 29.1 65.8323 29.1V28.4V27.7C65.5956 27.7 65.2023 27.732 64.9173 28.017L65.4123 28.512ZM65.8323 28.4V29.1H72.2163V28.4V27.7H65.8323V28.4ZM72.2163 28.4V29.1C74.3295 29.1 75.7858 29.512 76.702 30.2207C77.5841 30.903 78.0683 31.9415 78.0683 33.468H78.7683H79.4683C79.4683 31.6158 78.8605 30.1203 77.5586 29.1133C76.2908 28.1327 74.4711 27.7 72.2163 27.7V28.4ZM70.7043 32.936H70.0043V36.604H70.7043H71.4043V32.936H70.7043ZM70.7043 36.604V37.304H70.8443V36.604V35.904H70.7043V36.604ZM70.8443 36.604V37.304C71.796 37.304 72.6321 37.1494 73.2486 36.7384C73.9151 36.2941 74.2323 35.6132 74.2323 34.812H73.5323H72.8323C72.8323 35.2054 72.7015 35.4206 72.472 35.5736C72.1925 35.7599 71.6846 35.904 70.8443 35.904V36.604ZM73.5323 34.812H74.2323C74.2323 34.0401 74.0206 33.328 73.4512 32.8486L73.0003 33.384L72.5494 33.9194C72.6894 34.0373 72.8323 34.2772 72.8323 34.812H73.5323ZM73.0003 33.384L73.4654 32.8608C72.9329 32.3875 72.145 32.236 71.2923 32.236V32.936V33.636C72.0449 33.636 72.3958 33.7832 72.5353 33.9072L73.0003 33.384ZM71.2923 32.936V32.236H70.7043V32.936V33.636H71.2923V32.936ZM70.7043 39.908H70.0043V43.548H70.7043H71.4043V39.908H70.7043ZM70.7043 43.548V44.248H71.2083V43.548V42.848H70.7043V43.548ZM71.2083 43.548V44.248C72.0713 44.248 72.8524 44.0924 73.4096 43.6466L72.9723 43.1L72.535 42.5534C72.3456 42.705 71.9507 42.848 71.2083 42.848V43.548ZM72.9723 43.1L73.4096 43.6466C74.0044 43.1708 74.2323 42.4552 74.2323 41.672H73.5323H72.8323C72.8323 42.1955 72.6869 42.4319 72.535 42.5534L72.9723 43.1ZM73.5323 41.672H74.2323C74.2323 40.9085 74.0236 40.1845 73.4156 39.7365L73.0003 40.3L72.5851 40.8635C72.6863 40.9381 72.8323 41.1289 72.8323 41.672H73.5323ZM73.0003 40.3L73.4301 39.7475C72.9021 39.3368 72.1315 39.208 71.2923 39.208V39.908V40.608C72.0585 40.608 72.4265 40.7405 72.5706 40.8525L73.0003 40.3ZM71.2923 39.908V39.208H70.7043V39.908V40.608H71.2923V39.908ZM83.5493 37.836L82.9386 38.178L83.1945 38.6351L83.7053 38.5184L83.5493 37.836ZM83.2413 34.42L82.9602 33.7789L82.9366 33.7893L82.9138 33.8013L83.2413 34.42ZM91.5573 35.036L91.0298 35.4962L91.0348 35.5018L91.5573 35.036ZM92.7053 43.296H92.0053V43.996H92.7053V43.296ZM94.3853 43.856L93.747 44.1433L93.7528 44.1563L93.7592 44.169L94.3853 43.856ZM94.1613 47.328L93.5427 47.0005L93.5389 47.0077L93.5352 47.0149L94.1613 47.328ZM90.4093 47.468L90.8714 46.9422L90.8592 46.9315L90.8466 46.9214L90.4093 47.468ZM89.7653 46.656L90.3987 46.3579L89.9181 45.3368L89.2169 46.221L89.7653 46.656ZM82.3173 46.824L82.8219 46.3388L82.3173 46.824ZM87.9173 38.816V39.516H88.6173V38.816H87.9173ZM87.6653 37.612L87.1703 38.107L87.2012 38.1378L87.2356 38.1645L87.6653 37.612ZM86.1253 43.94L85.6303 44.435L85.6411 44.4457L85.6523 44.456L86.1253 43.94ZM87.9173 43.828L88.4123 44.323L88.6173 44.1179V43.828H87.9173ZM87.9173 41.672H88.6173V40.972H87.9173V41.672ZM83.5493 37.836L84.1601 37.494C83.654 36.5902 83.4653 35.9633 83.4653 35.568H82.7653H82.0653C82.0653 36.3301 82.3993 37.2151 82.9386 38.178L83.5493 37.836ZM82.7653 35.568H83.4653C83.4653 35.324 83.4988 35.1787 83.5309 35.1011C83.5459 35.0651 83.5583 35.0491 83.5626 35.044C83.5661 35.04 83.5673 35.0395 83.5688 35.0387L83.2413 34.42L82.9138 33.8013C82.2422 34.1569 82.0653 34.893 82.0653 35.568H82.7653ZM83.2413 34.42L83.5225 35.0611C84.4609 34.6495 85.8074 34.42 87.6093 34.42V33.72V33.02C85.7152 33.02 84.1497 33.2572 82.9602 33.7789L83.2413 34.42ZM87.6093 33.72V34.42C89.3936 34.42 90.4599 34.8428 91.0298 35.4962L91.5573 35.036L92.0848 34.5758C91.1241 33.4745 89.5583 33.02 87.6093 33.02V33.72ZM91.5573 35.036L91.0348 35.5018C91.6419 36.1829 92.0053 37.265 92.0053 38.872H92.7053H93.4053C93.4053 37.0816 93.0034 35.6064 92.0799 34.5702L91.5573 35.036ZM92.7053 38.872H92.0053V43.296H92.7053H93.4053V38.872H92.7053ZM92.7053 43.296V43.996H93.6573V43.296V42.596H92.7053V43.296ZM93.6573 43.296V43.996C93.6671 43.996 93.6665 43.9973 93.66 43.9951C93.6531 43.9928 93.6494 43.99 93.6505 43.9908C93.6547 43.9941 93.695 44.0278 93.747 44.1433L94.3853 43.856L95.0237 43.5687C94.9076 43.3109 94.7426 43.0646 94.5041 42.8812C94.2557 42.6901 93.9643 42.596 93.6573 42.596V43.296ZM94.3853 43.856L93.7592 44.169C93.8775 44.4055 93.9653 44.796 93.9653 45.396H94.6653H95.3653C95.3653 44.6893 95.2665 44.0531 95.0114 43.543L94.3853 43.856ZM94.6653 45.396H93.9653C93.9653 45.9241 93.8306 46.4565 93.5427 47.0005L94.1613 47.328L94.78 47.6555C95.164 46.9302 95.3653 46.1745 95.3653 45.396H94.6653ZM94.1613 47.328L93.5352 47.0149C93.2987 47.4879 93.0652 47.58 92.8453 47.58V48.28V48.98C93.7454 48.98 94.3892 48.4374 94.7874 47.641L94.1613 47.328ZM92.8453 48.28V47.58C91.9668 47.58 91.3321 47.3471 90.8714 46.9422L90.4093 47.468L89.9472 47.9938C90.7185 48.6716 91.7079 48.98 92.8453 48.98V48.28ZM90.4093 47.468L90.8466 46.9214C90.6482 46.7626 90.5015 46.5763 90.3987 46.3579L89.7653 46.656L89.1319 46.9541C89.3278 47.3703 89.6105 47.7254 89.972 48.0146L90.4093 47.468ZM89.7653 46.656L89.2169 46.221C88.5299 47.0872 87.4299 47.58 85.7613 47.58V48.28V48.98C87.714 48.98 89.2834 48.3901 90.3138 47.091L89.7653 46.656ZM85.7613 48.28V47.58C84.5865 47.58 83.6215 47.1704 82.8219 46.3388L82.3173 46.824L81.8127 47.3092C82.8798 48.4189 84.2108 48.98 85.7613 48.98V48.28ZM82.3173 46.824L82.8219 46.3388C82.0117 45.4962 81.6173 44.5212 81.6173 43.38H80.9173H80.2173C80.2173 44.8894 80.7563 46.2104 81.8127 47.3092L82.3173 46.824ZM80.9173 43.38H81.6173C81.6173 42.0028 82.0232 41.0859 82.7313 40.4941C83.4633 39.8821 84.6377 39.516 86.3773 39.516V38.816V38.116C84.4769 38.116 82.9213 38.5105 81.8334 39.4199C80.7214 40.3494 80.2173 41.7145 80.2173 43.38H80.9173ZM86.3773 38.816V39.516H87.9173V38.816V38.116H86.3773V38.816ZM87.9173 38.816H88.6173V38.536H87.9173H87.2173V38.816H87.9173ZM87.9173 38.536H88.6173C88.6173 38.2598 88.5942 37.9934 88.5296 37.7568C88.4667 37.5261 88.3451 37.2539 88.0951 37.0595L87.6653 37.612L87.2356 38.1645C87.1535 38.1007 87.1579 38.0479 87.179 38.1252C87.1985 38.1966 87.2173 38.3268 87.2173 38.536H87.9173ZM87.6653 37.612L88.1603 37.117C87.9398 36.8965 87.6478 36.8048 87.421 36.7583C87.1746 36.7077 86.8869 36.688 86.5733 36.688V37.388V38.088C86.8384 38.088 87.022 38.1056 87.1397 38.1297C87.1973 38.1415 87.2255 38.1523 87.2331 38.1556C87.2418 38.1594 87.2114 38.1481 87.1703 38.107L87.6653 37.612ZM86.5733 37.388V36.688C85.7839 36.688 84.7145 36.8516 83.3933 37.1536L83.5493 37.836L83.7053 38.5184C84.9975 38.223 85.9441 38.088 86.5733 38.088V37.388ZM85.7893 42.988H85.0893C85.0893 43.5269 85.2394 44.044 85.6303 44.435L86.1253 43.94L86.6203 43.445C86.5632 43.388 86.4893 43.2704 86.4893 42.988H85.7893ZM86.1253 43.94L85.6523 44.456C86.0195 44.7926 86.4742 44.948 86.9653 44.948V44.248V43.548C86.7844 43.548 86.6792 43.4981 86.5983 43.424L86.1253 43.94ZM86.9653 44.248V44.948C87.528 44.948 88.0177 44.7175 88.4123 44.323L87.9173 43.828L87.4223 43.333C87.2569 43.4985 87.1119 43.548 86.9653 43.548V44.248ZM87.9173 43.828H88.6173V41.672H87.9173H87.2173V43.828H87.9173ZM87.9173 41.672V40.972H87.1333V41.672V42.372H87.9173V41.672ZM87.1333 41.672V40.972C86.5811 40.972 86.0376 41.1072 85.6356 41.5008C85.2308 41.8972 85.0893 42.4377 85.0893 42.988H85.7893H86.4893C86.4893 42.661 86.5718 42.5435 86.6151 42.5012C86.661 42.4562 86.7896 42.372 87.1333 42.372V41.672ZM100.366 48.028L100.345 48.7277L100.356 48.728H100.366V48.028ZM97.5662 38.648H98.2662V37.948H97.5662V38.648ZM95.8862 37.416L95.1943 37.5224L95.1957 37.5319L95.1974 37.5412L95.8862 37.416ZM96.1662 34.952L95.5182 34.6869L95.5134 34.6993L96.1662 34.952ZM99.6382 34.224L99.278 34.8242H99.278L99.6382 34.224ZM100.758 35.232L100.146 35.5719L100.563 36.3215L101.214 35.7635L100.758 35.232ZM103.026 38.508L103.31 39.1477L103.325 39.1412L103.339 39.1341L103.026 38.508ZM102.382 38.844L101.945 38.2974L101.682 38.5076V38.844H102.382ZM102.382 47.832H101.682C101.682 47.5091 101.897 47.3401 101.957 47.2992C102.025 47.2529 102.075 47.2415 102.06 47.2458C102.041 47.2515 101.967 47.2671 101.81 47.2823C101.509 47.3116 101.033 47.328 100.366 47.328V48.028V48.728C101.043 48.728 101.575 48.7118 101.946 48.6757C102.125 48.6583 102.304 48.633 102.452 48.5898C102.521 48.5695 102.634 48.5315 102.744 48.4566C102.847 48.3872 103.082 48.1875 103.082 47.832H102.382ZM100.366 48.028L100.387 47.3283C99.458 47.3004 98.7807 47.2614 98.3427 47.2132C98.1184 47.1885 97.9868 47.1645 97.9236 47.1474C97.8865 47.1374 97.914 47.1405 97.9656 47.1709C97.9772 47.1778 98.2662 47.3409 98.2662 47.72H97.5662H96.8662C96.8662 48.1364 97.1843 48.3354 97.2542 48.3767C97.3642 48.4416 97.4792 48.4776 97.5587 48.4991C97.7289 48.545 97.9472 48.5781 98.1896 48.6048C98.6849 48.6593 99.4076 48.6996 100.345 48.7277L100.366 48.028ZM97.5662 47.72H98.2662V38.648H97.5662H96.8662V47.72H97.5662ZM97.5662 38.648V37.948H96.8382V38.648V39.348H97.5662V38.648ZM96.8382 38.648V37.948C96.819 37.948 96.8187 37.9448 96.8245 37.9478C96.8288 37.9501 96.8159 37.9454 96.7901 37.912C96.7294 37.8334 96.6404 37.6511 96.5749 37.2908L95.8862 37.416L95.1974 37.5412C95.2813 38.0023 95.4256 38.4359 95.6823 38.768C95.9628 39.1311 96.3619 39.348 96.8382 39.348V38.648ZM95.8862 37.416L96.578 37.3096C96.546 37.1017 96.5302 36.8946 96.5302 36.688H95.8302H95.1302C95.1302 36.9667 95.1516 37.245 95.1943 37.5224L95.8862 37.416ZM95.8302 36.688H96.5302C96.5302 36.2018 96.6239 35.7086 96.819 35.2047L96.1662 34.952L95.5134 34.6993C95.2604 35.3527 95.1302 36.0168 95.1302 36.688H95.8302ZM96.1662 34.952L96.814 35.217C96.951 34.8823 97.1033 34.6879 97.2426 34.5784C97.3721 34.4767 97.5251 34.42 97.7342 34.42V33.72V33.02C97.2339 33.02 96.7709 33.1686 96.3777 33.4776C95.9944 33.7788 95.7173 34.2004 95.5183 34.687L96.1662 34.952ZM97.7342 33.72V34.42C98.3279 34.42 98.8361 34.5591 99.278 34.8242L99.6382 34.224L99.9983 33.6238C99.3202 33.2169 98.5591 33.02 97.7342 33.02V33.72ZM99.6382 34.224L99.278 34.8242C99.7974 35.1359 100.047 35.3942 100.146 35.5719L100.758 35.232L101.37 34.892C101.095 34.3978 100.599 33.9841 99.9983 33.6238L99.6382 34.224ZM100.758 35.232L101.214 35.7635C102.256 34.8698 103.492 34.42 104.958 34.42V33.72V33.02C103.176 33.02 101.612 33.5782 100.303 34.7005L100.758 35.232ZM104.958 33.72V34.42C106.466 34.42 107.402 34.8253 107.947 35.483L108.486 35.036L109.025 34.589C108.115 33.492 106.699 33.02 104.958 33.02V33.72ZM108.486 35.036L107.947 35.483C108.518 36.17 108.878 37.4033 108.878 39.348H109.578H110.278C110.278 37.2981 109.911 35.6567 109.025 34.589L108.486 35.036ZM109.578 39.348H108.878V47.748H109.578H110.278V39.348H109.578ZM109.578 47.748H108.878C108.878 47.5424 108.978 47.398 109.051 47.326C109.086 47.2927 109.115 47.2729 109.131 47.2632C109.14 47.258 109.147 47.2545 109.151 47.2524C109.155 47.2503 109.157 47.2493 109.157 47.2493C109.158 47.2492 109.156 47.2499 109.153 47.2511C109.149 47.2523 109.144 47.254 109.138 47.256C109.124 47.2601 109.106 47.2652 109.081 47.2709C109.031 47.2825 108.965 47.2948 108.879 47.3067C108.528 47.3558 107.965 47.384 107.17 47.384V48.084V48.784C107.98 48.784 108.622 48.7562 109.073 48.6933C109.291 48.6628 109.513 48.618 109.698 48.5407C109.79 48.5024 109.916 48.4381 110.03 48.3275C110.154 48.2065 110.278 48.0096 110.278 47.748H109.578ZM107.17 48.084V47.384C106.384 47.384 105.829 47.3558 105.483 47.3069C105.399 47.295 105.334 47.2828 105.285 47.2714C105.261 47.2657 105.243 47.2607 105.23 47.2567C105.217 47.2526 105.212 47.2503 105.212 47.2504C105.212 47.2504 105.222 47.2547 105.239 47.2651C105.256 47.2751 105.285 47.2952 105.319 47.3289C105.393 47.4017 105.49 47.5454 105.49 47.748H104.79H104.09C104.09 48.0066 104.212 48.2028 104.335 48.3246C104.448 48.4359 104.574 48.5008 104.666 48.5396C104.85 48.6176 105.071 48.6626 105.287 48.6931C105.734 48.7562 106.369 48.784 107.17 48.784V48.084ZM104.79 47.748H105.49V39.656H104.79H104.09V47.748H104.79ZM104.79 39.656H105.49C105.49 39.1291 105.402 38.6092 105.119 38.2046C104.804 37.7545 104.326 37.556 103.81 37.556V38.256V38.956C103.89 38.956 103.927 38.9701 103.938 38.9755C103.946 38.9792 103.956 38.9848 103.972 39.0074C104.015 39.0695 104.09 39.2495 104.09 39.656H104.79ZM103.81 38.256V37.556C103.452 37.556 103.067 37.7049 102.713 37.8819L103.026 38.508L103.339 39.1341C103.486 39.0607 103.601 39.0134 103.688 38.9854C103.779 38.9562 103.815 38.956 103.81 38.956V38.256ZM103.026 38.508L102.742 37.8683C102.422 38.0106 102.121 38.1566 101.945 38.2974L102.382 38.844L102.819 39.3906C102.811 39.3976 102.838 39.3764 102.937 39.3246C103.027 39.2779 103.15 39.2191 103.31 39.1477L103.026 38.508ZM102.382 38.844H101.682V47.832H102.382H103.082V38.844H102.382ZM114.78 28.176L114.805 27.4764L114.792 27.476H114.78V28.176ZM117.16 39.292H116.46L117.776 39.6251L117.16 39.292ZM119.932 34.168L120.548 34.5011L120.558 34.4828L120.566 34.464L119.932 34.168ZM125.112 34.028L125.709 34.3939L126.123 33.7186L125.402 33.3907L125.112 34.028ZM121.472 39.964L120.875 39.5981L120.666 39.9399L120.855 40.2936L121.472 39.964ZM125.672 47.832L126.298 47.519L126.294 47.5106L126.29 47.5024L125.672 47.832ZM124.608 48L124.573 47.3009L124.564 47.3013L124.554 47.3021L124.608 48ZM119.904 47.832L119.265 48.1171L119.299 48.1947L119.351 48.2618L119.904 47.832ZM117.132 41.616L117.771 41.3309L116.432 41.616H117.132ZM112.232 28.624H112.932C112.932 28.7679 112.876 28.8851 112.815 28.9604C112.788 28.9943 112.762 29.0162 112.746 29.0286C112.73 29.0409 112.719 29.0465 112.718 29.0471C112.717 29.0475 112.737 29.0375 112.787 29.0228C112.836 29.0085 112.903 28.9929 112.99 28.9774C113.353 28.9137 113.94 28.876 114.78 28.876V28.176V27.476C113.921 27.476 113.234 27.513 112.748 27.5986C112.511 27.6402 112.267 27.702 112.065 27.8089C111.879 27.907 111.532 28.1556 111.532 28.624H112.232ZM114.78 28.176L114.755 28.8756C115.542 28.9033 116.104 28.9467 116.459 29.001C116.643 29.0291 116.731 29.0545 116.758 29.0648C116.774 29.071 116.728 29.0567 116.667 29.0041C116.601 28.9478 116.46 28.7927 116.46 28.54H117.16H117.86C117.86 28.2406 117.694 28.0409 117.579 27.942C117.468 27.8468 117.348 27.792 117.265 27.7597C117.093 27.693 116.884 27.6496 116.671 27.617C116.233 27.55 115.604 27.5047 114.805 27.4764L114.78 28.176ZM117.16 28.54H116.46V39.292H117.16H117.86V28.54H117.16ZM117.16 39.292L117.776 39.6251L120.548 34.5011L119.932 34.168L119.316 33.8349L116.544 38.9589L117.16 39.292ZM119.932 34.168L120.566 34.464C120.495 34.616 120.39 34.6463 120.444 34.6215C120.484 34.6033 120.577 34.5724 120.747 34.5423C121.083 34.4829 121.598 34.448 122.312 34.448V33.748V33.048C121.57 33.048 120.96 33.0831 120.503 33.1637C120.277 33.2036 120.056 33.2602 119.865 33.347C119.688 33.4272 119.434 33.5799 119.298 33.872L119.932 34.168ZM122.312 33.748V34.448C123.028 34.448 123.6 34.4711 124.034 34.5145C124.489 34.56 124.728 34.6222 124.822 34.6653L125.112 34.028L125.402 33.3907C125.086 33.2471 124.653 33.1694 124.174 33.1215C123.675 33.0716 123.052 33.048 122.312 33.048V33.748ZM125.112 34.028L124.515 33.6621L120.875 39.5981L121.472 39.964L122.069 40.3299L125.709 34.3939L125.112 34.028ZM121.472 39.964L120.855 40.2936L125.055 48.1616L125.672 47.832L126.29 47.5024L122.09 39.6344L121.472 39.964ZM125.672 47.832L125.046 48.145C124.992 48.0375 124.958 47.8943 124.983 47.7343C125.008 47.5804 125.08 47.4689 125.139 47.4007C125.24 47.2832 125.351 47.241 125.36 47.2372C125.401 47.2205 125.405 47.2259 125.325 47.2386C125.186 47.2604 124.942 47.2824 124.573 47.3009L124.608 48L124.643 48.6991C125.021 48.6802 125.327 48.6556 125.543 48.6214C125.641 48.6061 125.773 48.5811 125.893 48.5318C125.942 48.5117 126.08 48.4525 126.197 48.3176C126.263 48.2406 126.339 48.1202 126.366 47.9572C126.393 47.7883 126.357 47.6358 126.298 47.519L125.672 47.832ZM124.608 48L124.554 47.3021C123.836 47.3573 123.249 47.384 122.788 47.384V48.084V48.784C123.298 48.784 123.924 48.7547 124.662 48.6979L124.608 48ZM122.788 48.084V47.384C121.898 47.384 121.234 47.363 120.784 47.3237C120.557 47.3038 120.405 47.281 120.315 47.2602C120.27 47.2496 120.259 47.244 120.271 47.249C120.278 47.2519 120.299 47.2617 120.329 47.2814C120.357 47.3003 120.407 47.3383 120.457 47.4022L119.904 47.832L119.351 48.2618C119.475 48.4203 119.632 48.4977 119.713 48.5331C119.809 48.5748 119.91 48.6034 120 48.6243C120.183 48.6665 120.409 48.6962 120.662 48.7183C121.173 48.763 121.886 48.784 122.788 48.784V48.084ZM119.904 47.832L120.543 47.5469L117.771 41.3309L117.132 41.616L116.493 41.9011L119.265 48.1171L119.904 47.832ZM117.132 41.616H116.432V47.804H117.132H117.832V41.616H117.132ZM117.132 47.804H116.432C116.432 47.6148 116.519 47.4766 116.59 47.4027C116.623 47.3689 116.652 47.3485 116.668 47.3382C116.677 47.3327 116.683 47.3289 116.687 47.3267C116.692 47.3245 116.694 47.3234 116.694 47.3233C116.695 47.3232 116.689 47.3258 116.675 47.3302C116.662 47.3346 116.643 47.34 116.618 47.3461C116.568 47.3585 116.501 47.3717 116.414 47.3845C116.056 47.4374 115.481 47.468 114.668 47.468V48.168V48.868C115.497 48.868 116.155 48.8379 116.618 48.7695C116.843 48.7363 117.072 48.6875 117.262 48.6032C117.395 48.5443 117.832 48.3225 117.832 47.804H117.132ZM114.668 48.168V47.468C113.863 47.468 113.293 47.4398 112.937 47.3906C112.85 47.3786 112.782 47.3662 112.731 47.3545C112.706 47.3488 112.687 47.3436 112.673 47.3393C112.666 47.3373 112.661 47.3355 112.657 47.3342C112.656 47.3336 112.654 47.3331 112.653 47.3327C112.653 47.3326 112.653 47.3324 112.652 47.3323C112.652 47.3322 112.652 47.3322 112.652 47.3322C112.652 47.3322 112.652 47.3322 112.652 47.3323C112.653 47.3325 112.653 47.3326 112.653 47.3328C112.654 47.3333 112.656 47.334 112.658 47.335C112.662 47.3369 112.668 47.3403 112.677 47.3453C112.693 47.3547 112.722 47.3742 112.756 47.4072C112.83 47.4783 112.932 47.6235 112.932 47.832H112.232H111.532C111.532 48.0965 111.659 48.2942 111.784 48.4143C111.898 48.5242 112.025 48.5879 112.117 48.6258C112.302 48.7024 112.525 48.747 112.745 48.7774C113.201 48.8402 113.849 48.868 114.668 48.868V48.168ZM112.232 47.832H112.932V28.624H112.232H111.532V47.832H112.232ZM144.676 28.736L144.427 29.39L144.434 29.3927L144.441 29.3952L144.676 28.736ZM145.488 32.712L144.867 32.3894L144.865 32.3941L145.488 32.712ZM143.92 34L143.425 34.495L143.466 34.5359L143.514 34.5696L143.92 34ZM143.08 33.664L142.877 34.3337L142.893 34.3388L142.911 34.3431L143.08 33.664ZM139.328 34.616L138.802 34.1541L138.796 34.1615L139.328 34.616ZM139.356 41.644L138.83 42.1059L138.837 42.113L139.356 41.644ZM143.388 42.624L143.535 43.3085L143.544 43.3066L143.553 43.3045L143.388 42.624ZM144.536 42.092L144.041 41.597L144.536 42.092ZM145.376 42.68L144.802 43.0797L144.812 43.0941L144.822 43.108L145.376 42.68ZM146.244 44.332L145.59 44.5797L145.592 44.5857L146.244 44.332ZM144.956 47.636L145.207 48.2896L144.956 47.636ZM134.904 45.676L134.388 46.1483L134.904 45.676ZM134.96 30.864L134.442 30.3937L134.439 30.3966L134.96 30.864ZM141.092 28.148V28.848C142.389 28.848 143.496 29.0347 144.427 29.39L144.676 28.736L144.926 28.082C143.803 27.6533 142.521 27.448 141.092 27.448V28.148ZM144.676 28.736L144.441 29.3952C145.426 29.7469 145.544 30.0972 145.544 30.276H146.244H146.944C146.944 29.1482 146.018 28.4718 144.912 28.0768L144.676 28.736ZM146.244 30.276H145.544C145.544 30.7655 145.35 31.4594 144.867 32.3894L145.488 32.712L146.11 33.0346C146.635 32.0232 146.944 31.0932 146.944 30.276H146.244ZM145.488 32.712L144.865 32.3941C144.632 32.8496 144.438 33.1496 144.286 33.3257C144.108 33.5327 144.101 33.44 144.256 33.44V34.14V34.84C144.748 34.84 145.114 34.5093 145.346 34.2403C145.605 33.9404 145.859 33.5264 146.112 33.0299L145.488 32.712ZM144.256 34.14V33.44C144.325 33.44 144.367 33.4568 144.372 33.4588C144.377 33.4611 144.363 33.4556 144.327 33.4304L143.92 34L143.514 34.5696C143.687 34.6932 143.945 34.84 144.256 34.84V34.14ZM143.92 34L144.415 33.505C144.256 33.3457 144.049 33.2472 143.886 33.1821C143.706 33.1099 143.491 33.045 143.25 32.9849L143.08 33.664L142.911 34.3431C143.118 34.395 143.267 34.4421 143.366 34.4819C143.416 34.5016 143.444 34.5161 143.458 34.5238C143.473 34.5328 143.456 34.5252 143.425 34.495L143.92 34ZM143.08 33.664L143.284 32.9943C142.814 32.8512 142.369 32.768 141.96 32.768V33.468V34.168C142.187 34.168 142.488 34.2155 142.877 34.3337L143.08 33.664ZM141.96 33.468V32.768C140.691 32.768 139.616 33.227 138.802 34.1541L139.328 34.616L139.854 35.0779C140.384 34.4744 141.065 34.168 141.96 34.168V33.468ZM139.328 34.616L138.796 34.1615C137.987 35.1089 137.648 36.4817 137.648 38.144H138.348H139.048C139.048 36.633 139.363 35.6538 139.861 35.0705L139.328 34.616ZM138.348 38.144H137.648C137.648 39.794 137.999 41.1594 138.83 42.1059L139.356 41.644L139.882 41.1821C139.369 40.598 139.048 39.63 139.048 38.144H138.348ZM139.356 41.644L138.837 42.113C139.662 43.0277 140.72 43.492 141.96 43.492V42.792V42.092C141.11 42.092 140.432 41.7909 139.876 41.175L139.356 41.644ZM141.96 42.792V43.492C142.449 43.492 142.975 43.4284 143.535 43.3085L143.388 42.624L143.242 41.9395C142.756 42.0436 142.33 42.092 141.96 42.092V42.792ZM143.388 42.624L143.553 43.3045C144.137 43.1635 144.671 42.9477 145.031 42.587L144.536 42.092L144.041 41.597C143.954 41.6843 143.723 41.8232 143.224 41.9435L143.388 42.624ZM144.536 42.092L145.031 42.587C144.928 42.69 144.823 42.7209 144.79 42.7291C144.753 42.7384 144.738 42.736 144.76 42.736V42.036V41.336C144.671 41.336 144.562 41.343 144.451 41.3709C144.343 41.3978 144.182 41.4566 144.041 41.597L144.536 42.092ZM144.76 42.036V42.736C144.664 42.736 144.59 42.7133 144.549 42.6968C144.506 42.68 144.479 42.6627 144.47 42.656C144.452 42.6442 144.459 42.6458 144.493 42.6809C144.558 42.7495 144.66 42.8761 144.802 43.0797L145.376 42.68L145.951 42.2803C145.794 42.0546 145.644 41.8592 145.504 41.7131C145.435 41.6409 145.351 41.562 145.254 41.4965C145.172 41.4408 144.996 41.336 144.76 41.336V42.036ZM145.376 42.68L144.822 43.108C145.084 43.4462 145.343 43.9288 145.59 44.5797L146.244 44.332L146.899 44.0843C146.623 43.3538 146.304 42.7352 145.93 42.252L145.376 42.68ZM146.244 44.332L145.592 44.5857C145.846 45.2378 145.936 45.661 145.936 45.9H146.636H147.336C147.336 45.3923 147.166 44.7702 146.897 44.0783L146.244 44.332ZM146.636 45.9H145.936C145.936 46.173 145.752 46.5814 144.706 46.9824L144.956 47.636L145.207 48.2896C146.401 47.8319 147.336 47.083 147.336 45.9H146.636ZM144.956 47.636L144.706 46.9824C143.684 47.3739 142.448 47.58 140.98 47.58V48.28V48.98C142.574 48.98 143.988 48.7568 145.207 48.2896L144.956 47.636ZM140.98 48.28V47.58C138.702 47.58 136.868 46.787 135.421 45.2037L134.904 45.676L134.388 46.1483C136.114 48.037 138.33 48.98 140.98 48.98V48.28ZM134.904 45.676L135.421 45.2037C133.988 43.6355 133.224 41.3806 133.224 38.34H132.524H131.824C131.824 41.6088 132.648 44.2445 134.388 46.1483L134.904 45.676ZM132.524 38.34H133.224C133.224 35.2853 134.004 32.9785 135.481 31.3314L134.96 30.864L134.439 30.3966C132.669 32.3708 131.824 35.048 131.824 38.34H132.524ZM134.96 30.864L135.479 31.3343C136.989 29.67 138.844 28.848 141.092 28.848V28.148V27.448C138.45 27.448 136.217 28.4367 134.442 30.3937L134.96 30.864Z" fill="black" mask="url(#path-6-outside-1_1131_17119)"/>
</g>
<defs>
<filter id="filter0_dd_1131_17119" x="0.302734" y="0.000488281" width="201.595" height="84.4995" filterUnits="userSpaceOnUse" color-interpolation-filters="sRGB">
<feFlood flood-opacity="0" result="BackgroundImageFix"/>
<feColorMatrix in="SourceAlpha" type="matrix" values="0 0 0 0 0 0 0 0 0 0 0 0 0 0 0 0 0 0 127 0" result="hardAlpha"/>
<feOffset dx="0.2" dy="2.5"/>
<feComposite in2="hardAlpha" operator="out"/>
<feColorMatrix type="matrix" values="0 0 0 0 0 0 0 0 0 0 0 0 0 0 0 0 0 0 0.5 0"/>
<feBlend mode="normal" in2="BackgroundImageFix" result="effect1_dropShadow_1131_17119"/>
<feColorMatrix in="SourceAlpha" type="matrix" values="0 0 0 0 0 0 0 0 0 0 0 0 0 0 0 0 0 0 127 0" result="hardAlpha"/>
<feOffset dy="0.6"/>
<feComposite in2="hardAlpha" operator="out"/>
<feColorMatrix type="matrix" values="0 0 0 0 0 0 0 0 0 0 0 0 0 0 0 0 0 0 1 0"/>
<feBlend mode="normal" in2="effect1_dropShadow_1131_17119" result="effect2_dropShadow_1131_17119"/>
<feBlend mode="normal" in="SourceGraphic" in2="effect2_dropShadow_1131_17119" result="shape"/>
</filter>
<filter id="filter1_d_1131_17119" x="64.6289" y="27.4482" width="82.707" height="23.5317" filterUnits="userSpaceOnUse" color-interpolation-filters="sRGB">
<feFlood flood-opacity="0" result="BackgroundImageFix"/>
<feColorMatrix in="SourceAlpha" type="matrix" values="0 0 0 0 0 0 0 0 0 0 0 0 0 0 0 0 0 0 127 0" result="hardAlpha"/>
<feOffset dy="2"/>
<feComposite in2="hardAlpha" operator="out"/>
<feColorMatrix type="matrix" values="0 0 0 0 0 0 0 0 0 0 0 0 0 0 0 0 0 0 1 0"/>
<feBlend mode="normal" in2="BackgroundImageFix" result="effect1_dropShadow_1131_17119"/>
<feBlend mode="normal" in="SourceGraphic" in2="effect1_dropShadow_1131_17119" result="shape"/>
</filter>
</defs>
</svg>
