<svg width="202" height="85" viewBox="0 0 202 85" fill="none" xmlns="http://www.w3.org/2000/svg">
<g filter="url(#filter0_dd_1131_17101)">
<path d="M6.56994 4.7092C6.72258 2.61863 8.46319 1.00047 10.5593 1.00047H196.697C199.021 1.00047 200.856 2.97404 200.686 5.29174L195.43 77.2911C195.277 79.3817 193.537 80.9999 191.44 80.9999H5.30269C2.97883 80.9999 1.14409 79.0263 1.3133 76.7086L6.56994 4.7092Z" fill="#068F36"/>
<path d="M196.697 0.5C199.311 0.500104 201.376 2.7208 201.186 5.32812L195.929 77.3271C195.757 79.679 193.799 81.5 191.44 81.5H5.30273C2.68839 81.5 0.624088 79.2793 0.814453 76.6719L6.07129 4.67285C6.243 2.32096 8.20142 0.5 10.5596 0.5H196.697Z" stroke="black"/>
</g>
<mask id="mask0_1131_17101" style="mask-type:alpha" maskUnits="userSpaceOnUse" x="1" y="1" width="200" height="80">
<path d="M6.56995 4.70922C6.72258 2.61865 8.46319 1.00049 10.5593 1.00049H196.697C199.021 1.00049 200.856 2.97406 200.686 5.29175L195.43 77.2911C195.277 79.3817 193.537 80.9999 191.44 80.9999H5.30269C2.97883 80.9999 1.14409 79.0263 1.3133 76.7086L6.56995 4.70922Z" fill="#E6311F"/>
</mask>
<g mask="url(#mask0_1131_17101)">
<rect x="-5.68164" y="-14.9932" width="225.403" height="23.4222" fill="#459B03"/>
<rect x="-5.55078" y="72.23" width="225.403" height="23.9316" fill="#007328"/>
</g>
<g filter="url(#filter1_d_1131_17101)">
<mask id="path-6-outside-1_1131_17101" maskUnits="userSpaceOnUse" x="59" y="31" width="86" height="22" fill="black">
<rect fill="white" x="59" y="31" width="86" height="22"/>
<path d="M73.4421 37.468C73.4421 39.4093 72.6021 40.884 70.9221 41.892C71.8368 42.228 72.6021 42.8067 73.2181 43.628C73.8341 44.4493 74.1421 45.616 74.1421 47.128C74.1421 48.6213 73.5821 49.8067 72.4621 50.684C71.3608 51.5613 69.7741 52 67.7021 52H61.0941C60.7768 52 60.5155 51.8973 60.3101 51.692C60.1048 51.468 60.0021 51.1787 60.0021 50.824V32.904C60.0021 32.6987 60.0301 32.568 60.0861 32.512C60.1608 32.4373 60.3008 32.4 60.5061 32.4H66.8901C71.2581 32.4 73.4421 34.0893 73.4421 37.468ZM65.3781 36.936V40.604H65.5181C67.3101 40.604 68.2061 40.0067 68.2061 38.812C68.2061 38.1587 68.0288 37.6827 67.6741 37.384C67.3381 37.0853 66.7688 36.936 65.9661 36.936H65.3781ZM65.3781 43.908V47.548H65.8821C66.6848 47.548 67.2728 47.3987 67.6461 47.1C68.0195 46.8013 68.2061 46.3253 68.2061 45.672C68.2061 45.0187 68.0288 44.5613 67.6741 44.3C67.3381 44.0387 66.7688 43.908 65.9661 43.908H65.3781ZM78.2231 41.836C77.7005 40.9027 77.4391 40.1467 77.4391 39.568C77.4391 38.9707 77.5978 38.588 77.9151 38.42C78.9791 37.9533 80.4351 37.72 82.2831 37.72C84.1498 37.72 85.4658 38.1587 86.2311 39.036C86.9965 39.8947 87.3791 41.1733 87.3791 42.872V47.296H88.3311C88.6485 47.296 88.8911 47.4827 89.0591 47.856C89.2458 48.2293 89.3391 48.7427 89.3391 49.396C89.3391 50.0493 89.1711 50.6933 88.8351 51.328C88.5178 51.9627 88.0791 52.28 87.5191 52.28C86.5111 52.28 85.6991 52.0093 85.0831 51.468C84.8031 51.244 84.5885 50.9733 84.4391 50.656C83.5805 51.7387 82.2458 52.28 80.4351 52.28C79.0725 52.28 77.9245 51.7947 76.9911 50.824C76.0578 49.8533 75.5911 48.7053 75.5911 47.38C75.5911 44.3373 77.4111 42.816 81.0511 42.816H82.5911V42.536C82.5911 42.0507 82.5071 41.7427 82.3391 41.612C82.1898 41.4627 81.8258 41.388 81.2471 41.388C80.5378 41.388 79.5298 41.5373 78.2231 41.836ZM80.4631 46.988C80.4631 47.3987 80.5751 47.716 80.7991 47.94C81.0231 48.1453 81.3031 48.248 81.6391 48.248C81.9938 48.248 82.3111 48.108 82.5911 47.828V45.672H81.8071C80.9111 45.672 80.4631 46.1107 80.4631 46.988ZM97.056 51.832C97.056 51.9627 96.384 52.028 95.04 52.028C93.1733 51.972 92.24 51.8693 92.24 51.72V42.648H91.512C91.0267 42.648 90.7093 42.2373 90.56 41.416C90.5227 41.1733 90.504 40.9307 90.504 40.688C90.504 40.1093 90.616 39.5307 90.84 38.952C91.176 38.1307 91.6987 37.72 92.408 37.72C93.1173 37.72 93.752 37.888 94.312 38.224C94.872 38.56 95.2453 38.896 95.432 39.232C96.608 38.224 98.008 37.72 99.632 37.72C101.256 37.72 102.432 38.1587 103.16 39.036C103.888 39.9133 104.252 41.3507 104.252 43.348V51.748C104.252 51.972 103.449 52.084 101.844 52.084C100.257 52.084 99.464 51.972 99.464 51.748V43.656C99.464 42.7227 99.1373 42.256 98.484 42.256C98.2973 42.256 98.036 42.34 97.7 42.508C97.364 42.6573 97.1493 42.7693 97.056 42.844V51.832ZM106.906 32.624C106.906 32.3253 107.755 32.176 109.454 32.176C111.041 32.232 111.834 32.3533 111.834 32.54V43.292L114.606 38.168C114.737 37.888 115.53 37.748 116.986 37.748C118.442 37.748 119.375 37.8413 119.786 38.028L116.146 43.964L120.346 51.832C120.383 51.9067 120.029 51.9627 119.282 52C118.554 52.056 117.947 52.084 117.462 52.084C115.67 52.084 114.709 52 114.578 51.832L111.806 45.616V51.804C111.806 52.0467 110.985 52.168 109.342 52.168C107.718 52.168 106.906 52.056 106.906 51.832V32.624ZM140.918 52.056C139.294 52.056 138.417 51.7947 138.286 51.272L137.362 47.66H132.91L132.098 51.132C131.986 51.7107 131.09 52 129.41 52C128.514 52 127.852 51.9533 127.422 51.86C126.993 51.748 126.778 51.664 126.778 51.608L131.734 32.652C131.734 32.5027 133.013 32.428 135.57 32.428C138.128 32.428 139.406 32.5027 139.406 32.652L144.25 51.636C144.25 51.7667 143.821 51.8693 142.962 51.944C142.104 52.0187 141.422 52.056 140.918 52.056ZM133.61 44.104H136.55L135.29 38.308H135.122L133.61 44.104Z"/>
</mask>
<path d="M73.4421 37.468C73.4421 39.4093 72.6021 40.884 70.9221 41.892C71.8368 42.228 72.6021 42.8067 73.2181 43.628C73.8341 44.4493 74.1421 45.616 74.1421 47.128C74.1421 48.6213 73.5821 49.8067 72.4621 50.684C71.3608 51.5613 69.7741 52 67.7021 52H61.0941C60.7768 52 60.5155 51.8973 60.3101 51.692C60.1048 51.468 60.0021 51.1787 60.0021 50.824V32.904C60.0021 32.6987 60.0301 32.568 60.0861 32.512C60.1608 32.4373 60.3008 32.4 60.5061 32.4H66.8901C71.2581 32.4 73.4421 34.0893 73.4421 37.468ZM65.3781 36.936V40.604H65.5181C67.3101 40.604 68.2061 40.0067 68.2061 38.812C68.2061 38.1587 68.0288 37.6827 67.6741 37.384C67.3381 37.0853 66.7688 36.936 65.9661 36.936H65.3781ZM65.3781 43.908V47.548H65.8821C66.6848 47.548 67.2728 47.3987 67.6461 47.1C68.0195 46.8013 68.2061 46.3253 68.2061 45.672C68.2061 45.0187 68.0288 44.5613 67.6741 44.3C67.3381 44.0387 66.7688 43.908 65.9661 43.908H65.3781ZM78.2231 41.836C77.7005 40.9027 77.4391 40.1467 77.4391 39.568C77.4391 38.9707 77.5978 38.588 77.9151 38.42C78.9791 37.9533 80.4351 37.72 82.2831 37.72C84.1498 37.72 85.4658 38.1587 86.2311 39.036C86.9965 39.8947 87.3791 41.1733 87.3791 42.872V47.296H88.3311C88.6485 47.296 88.8911 47.4827 89.0591 47.856C89.2458 48.2293 89.3391 48.7427 89.3391 49.396C89.3391 50.0493 89.1711 50.6933 88.8351 51.328C88.5178 51.9627 88.0791 52.28 87.5191 52.28C86.5111 52.28 85.6991 52.0093 85.0831 51.468C84.8031 51.244 84.5885 50.9733 84.4391 50.656C83.5805 51.7387 82.2458 52.28 80.4351 52.28C79.0725 52.28 77.9245 51.7947 76.9911 50.824C76.0578 49.8533 75.5911 48.7053 75.5911 47.38C75.5911 44.3373 77.4111 42.816 81.0511 42.816H82.5911V42.536C82.5911 42.0507 82.5071 41.7427 82.3391 41.612C82.1898 41.4627 81.8258 41.388 81.2471 41.388C80.5378 41.388 79.5298 41.5373 78.2231 41.836ZM80.4631 46.988C80.4631 47.3987 80.5751 47.716 80.7991 47.94C81.0231 48.1453 81.3031 48.248 81.6391 48.248C81.9938 48.248 82.3111 48.108 82.5911 47.828V45.672H81.8071C80.9111 45.672 80.4631 46.1107 80.4631 46.988ZM97.056 51.832C97.056 51.9627 96.384 52.028 95.04 52.028C93.1733 51.972 92.24 51.8693 92.24 51.72V42.648H91.512C91.0267 42.648 90.7093 42.2373 90.56 41.416C90.5227 41.1733 90.504 40.9307 90.504 40.688C90.504 40.1093 90.616 39.5307 90.84 38.952C91.176 38.1307 91.6987 37.72 92.408 37.72C93.1173 37.72 93.752 37.888 94.312 38.224C94.872 38.56 95.2453 38.896 95.432 39.232C96.608 38.224 98.008 37.72 99.632 37.72C101.256 37.72 102.432 38.1587 103.16 39.036C103.888 39.9133 104.252 41.3507 104.252 43.348V51.748C104.252 51.972 103.449 52.084 101.844 52.084C100.257 52.084 99.464 51.972 99.464 51.748V43.656C99.464 42.7227 99.1373 42.256 98.484 42.256C98.2973 42.256 98.036 42.34 97.7 42.508C97.364 42.6573 97.1493 42.7693 97.056 42.844V51.832ZM106.906 32.624C106.906 32.3253 107.755 32.176 109.454 32.176C111.041 32.232 111.834 32.3533 111.834 32.54V43.292L114.606 38.168C114.737 37.888 115.53 37.748 116.986 37.748C118.442 37.748 119.375 37.8413 119.786 38.028L116.146 43.964L120.346 51.832C120.383 51.9067 120.029 51.9627 119.282 52C118.554 52.056 117.947 52.084 117.462 52.084C115.67 52.084 114.709 52 114.578 51.832L111.806 45.616V51.804C111.806 52.0467 110.985 52.168 109.342 52.168C107.718 52.168 106.906 52.056 106.906 51.832V32.624ZM140.918 52.056C139.294 52.056 138.417 51.7947 138.286 51.272L137.362 47.66H132.91L132.098 51.132C131.986 51.7107 131.09 52 129.41 52C128.514 52 127.852 51.9533 127.422 51.86C126.993 51.748 126.778 51.664 126.778 51.608L131.734 32.652C131.734 32.5027 133.013 32.428 135.57 32.428C138.128 32.428 139.406 32.5027 139.406 32.652L144.25 51.636C144.25 51.7667 143.821 51.8693 142.962 51.944C142.104 52.0187 141.422 52.056 140.918 52.056ZM133.61 44.104H136.55L135.29 38.308H135.122L133.61 44.104Z" fill="white"/>
<path d="M70.9221 41.892L70.562 41.2918L69.3073 42.0445L70.6808 42.5491L70.9221 41.892ZM73.2181 43.628L73.7781 43.208V43.208L73.2181 43.628ZM72.4621 50.684L72.0305 50.1329L72.026 50.1365L72.4621 50.684ZM60.3101 51.692L59.7941 52.165L59.8044 52.1762L59.8152 52.187L60.3101 51.692ZM60.0861 32.512L59.5912 32.017L59.5912 32.017L60.0861 32.512ZM65.3781 36.936V36.236H64.6781V36.936H65.3781ZM65.3781 40.604H64.6781V41.304H65.3781V40.604ZM67.6741 37.384L67.2091 37.9072L67.2161 37.9134L67.2232 37.9194L67.6741 37.384ZM65.3781 43.908V43.208H64.6781V43.908H65.3781ZM65.3781 47.548H64.6781V48.248H65.3781V47.548ZM67.6461 47.1L68.0834 47.6466L67.6461 47.1ZM67.6741 44.3L67.2444 44.8525L67.2516 44.8581L67.2589 44.8635L67.6741 44.3ZM73.4421 37.468H72.7421C72.7421 39.1607 72.0335 40.4088 70.562 41.2918L70.9221 41.892L71.2823 42.4922C73.1707 41.3592 74.1421 39.658 74.1421 37.468H73.4421ZM70.9221 41.892L70.6808 42.5491C71.4616 42.8359 72.1187 43.3287 72.6581 44.048L73.2181 43.628L73.7781 43.208C73.0856 42.2846 72.212 41.6201 71.1635 41.2349L70.9221 41.892ZM73.2181 43.628L72.6581 44.048C73.1493 44.7029 73.4421 45.6989 73.4421 47.128H74.1421H74.8421C74.8421 45.5331 74.519 44.1958 73.7781 43.208L73.2181 43.628ZM74.1421 47.128H73.4421C73.4421 48.4186 72.9716 49.3957 72.0305 50.1329L72.4621 50.684L72.8938 51.2351C74.1927 50.2176 74.8421 48.8241 74.8421 47.128H74.1421ZM72.4621 50.684L72.026 50.1365C71.0952 50.878 69.6878 51.3 67.7021 51.3V52V52.7C69.8605 52.7 71.6265 52.2447 72.8983 51.2315L72.4621 50.684ZM67.7021 52V51.3H61.0941V52V52.7H67.7021V52ZM61.0941 52V51.3C60.9435 51.3 60.8663 51.2583 60.8051 51.197L60.3101 51.692L59.8152 52.187C60.1646 52.5364 60.6101 52.7 61.0941 52.7V52ZM60.3101 51.692L60.8261 51.219C60.7587 51.1454 60.7021 51.0347 60.7021 50.824H60.0021H59.3021C59.3021 51.3226 59.4509 51.7906 59.7941 52.165L60.3101 51.692ZM60.0021 50.824H60.7021V32.904H60.0021H59.3021V50.824H60.0021ZM60.0021 32.904H60.7021C60.7021 32.8681 60.7034 32.8412 60.705 32.8221C60.7066 32.8026 60.7082 32.7958 60.7076 32.7987C60.7072 32.8006 60.7026 32.8222 60.6877 32.8553C60.6731 32.8878 60.6418 32.9463 60.5811 33.007L60.0861 32.512L59.5912 32.017C59.4225 32.1856 59.3636 32.3889 59.3387 32.5053C59.3104 32.6373 59.3021 32.7753 59.3021 32.904H60.0021ZM60.0861 32.512L60.5811 33.007C60.5048 33.0832 60.4341 33.1026 60.4275 33.1044C60.422 33.1058 60.4252 33.1045 60.4396 33.1029C60.4538 33.1014 60.4756 33.1 60.5061 33.1V32.4V31.7C60.2695 31.7 59.8762 31.732 59.5912 32.017L60.0861 32.512ZM60.5061 32.4V33.1H66.8901V32.4V31.7H60.5061V32.4ZM66.8901 32.4V33.1C69.0034 33.1 70.4596 33.512 71.3759 34.2207C72.258 34.903 72.7421 35.9415 72.7421 37.468H73.4421H74.1421C74.1421 35.6158 73.5343 34.1203 72.2324 33.1133C70.9646 32.1327 69.1449 31.7 66.8901 31.7V32.4ZM65.3781 36.936H64.6781V40.604H65.3781H66.0781V36.936H65.3781ZM65.3781 40.604V41.304H65.5181V40.604V39.904H65.3781V40.604ZM65.5181 40.604V41.304C66.4698 41.304 67.306 41.1494 67.9224 40.7384C68.589 40.2941 68.9061 39.6132 68.9061 38.812H68.2061H67.5061C67.5061 39.2054 67.3753 39.4206 67.1459 39.5736C66.8663 39.7599 66.3585 39.904 65.5181 39.904V40.604ZM68.2061 38.812H68.9061C68.9061 38.0401 68.6944 37.328 68.125 36.8486L67.6741 37.384L67.2232 37.9194C67.3632 38.0373 67.5061 38.2772 67.5061 38.812H68.2061ZM67.6741 37.384L68.1392 36.8608C67.6067 36.3875 66.8188 36.236 65.9661 36.236V36.936V37.636C66.7188 37.636 67.0696 37.7832 67.2091 37.9072L67.6741 37.384ZM65.9661 36.936V36.236H65.3781V36.936V37.636H65.9661V36.936ZM65.3781 43.908H64.6781V47.548H65.3781H66.0781V43.908H65.3781ZM65.3781 47.548V48.248H65.8821V47.548V46.848H65.3781V47.548ZM65.8821 47.548V48.248C66.7451 48.248 67.5262 48.0924 68.0834 47.6466L67.6461 47.1L67.2089 46.5534C67.0194 46.705 66.6245 46.848 65.8821 46.848V47.548ZM67.6461 47.1L68.0834 47.6466C68.6782 47.1708 68.9061 46.4552 68.9061 45.672H68.2061H67.5061C67.5061 46.1955 67.3608 46.4319 67.2089 46.5534L67.6461 47.1ZM68.2061 45.672H68.9061C68.9061 44.9085 68.6975 44.1845 68.0894 43.7365L67.6741 44.3L67.2589 44.8635C67.3601 44.9381 67.5061 45.1289 67.5061 45.672H68.2061ZM67.6741 44.3L68.1039 43.7475C67.5759 43.3368 66.8053 43.208 65.9661 43.208V43.908V44.608C66.7323 44.608 67.1003 44.7405 67.2444 44.8525L67.6741 44.3ZM65.9661 43.908V43.208H65.3781V43.908V44.608H65.9661V43.908ZM78.2231 41.836L77.6124 42.178L77.8684 42.6351L78.3791 42.5184L78.2231 41.836ZM77.9151 38.42L77.634 37.7789L77.6104 37.7893L77.5876 37.8013L77.9151 38.42ZM86.2311 39.036L85.7036 39.4962L85.7086 39.5018L86.2311 39.036ZM87.3791 47.296H86.6791V47.996H87.3791V47.296ZM89.0591 47.856L88.4208 48.1433L88.4267 48.1563L88.433 48.169L89.0591 47.856ZM88.8351 51.328L88.2165 51.0005L88.2127 51.0077L88.209 51.0149L88.8351 51.328ZM85.0831 51.468L85.5452 50.9422L85.5331 50.9315L85.5204 50.9214L85.0831 51.468ZM84.4391 50.656L85.0725 50.3579L84.592 49.3368L83.8907 50.221L84.4391 50.656ZM76.9911 50.824L77.4957 50.3388L76.9911 50.824ZM82.5911 42.816V43.516H83.2911V42.816H82.5911ZM82.3391 41.612L81.8442 42.107L81.875 42.1378L81.9094 42.1645L82.3391 41.612ZM80.7991 47.94L80.3042 48.435L80.3149 48.4457L80.3261 48.456L80.7991 47.94ZM82.5911 47.828L83.0861 48.323L83.2911 48.1179V47.828H82.5911ZM82.5911 45.672H83.2911V44.972H82.5911V45.672ZM78.2231 41.836L78.8339 41.494C78.3278 40.5902 78.1391 39.9633 78.1391 39.568H77.4391H76.7391C76.7391 40.3301 77.0732 41.2151 77.6124 42.178L78.2231 41.836ZM77.4391 39.568H78.1391C78.1391 39.324 78.1726 39.1787 78.2048 39.1011C78.2197 39.0651 78.2321 39.0491 78.2365 39.044C78.24 39.04 78.2411 39.0395 78.2427 39.0387L77.9151 38.42L77.5876 37.8013C76.916 38.1569 76.7391 38.893 76.7391 39.568H77.4391ZM77.9151 38.42L78.1963 39.0611C79.1347 38.6495 80.4812 38.42 82.2831 38.42V37.72V37.02C80.3891 37.02 78.8236 37.2572 77.634 37.7789L77.9151 38.42ZM82.2831 37.72V38.42C84.0674 38.42 85.1337 38.8428 85.7036 39.4962L86.2311 39.036L86.7586 38.5758C85.7979 37.4745 84.2322 37.02 82.2831 37.02V37.72ZM86.2311 39.036L85.7086 39.5018C86.3157 40.1829 86.6791 41.265 86.6791 42.872H87.3791H88.0791C88.0791 41.0816 87.6773 39.6064 86.7537 38.5702L86.2311 39.036ZM87.3791 42.872H86.6791V47.296H87.3791H88.0791V42.872H87.3791ZM87.3791 47.296V47.996H88.3311V47.296V46.596H87.3791V47.296ZM88.3311 47.296V47.996C88.3409 47.996 88.3403 47.9973 88.3338 47.9951C88.3269 47.9928 88.3232 47.99 88.3243 47.9908C88.3285 47.9941 88.3688 48.0278 88.4208 48.1433L89.0591 47.856L89.6975 47.5687C89.5815 47.3109 89.4164 47.0646 89.1779 46.8812C88.9295 46.6901 88.6381 46.596 88.3311 46.596V47.296ZM89.0591 47.856L88.433 48.169C88.5513 48.4055 88.6391 48.796 88.6391 49.396H89.3391H90.0391C90.0391 48.6893 89.9403 48.0531 89.6852 47.543L89.0591 47.856ZM89.3391 49.396H88.6391C88.6391 49.9241 88.5045 50.4565 88.2165 51.0005L88.8351 51.328L89.4538 51.6555C89.8378 50.9302 90.0391 50.1745 90.0391 49.396H89.3391ZM88.8351 51.328L88.209 51.0149C87.9726 51.4879 87.739 51.58 87.5191 51.58V52.28V52.98C88.4193 52.98 89.0631 52.4374 89.4612 51.641L88.8351 51.328ZM87.5191 52.28V51.58C86.6406 51.58 86.0059 51.3471 85.5452 50.9422L85.0831 51.468L84.6211 51.9938C85.3923 52.6716 86.3817 52.98 87.5191 52.98V52.28ZM85.0831 51.468L85.5204 50.9214C85.322 50.7626 85.1753 50.5763 85.0725 50.3579L84.4391 50.656L83.8058 50.9541C84.0017 51.3703 84.2843 51.7254 84.6459 52.0146L85.0831 51.468ZM84.4391 50.656L83.8907 50.221C83.2037 51.0872 82.1038 51.58 80.4351 51.58V52.28V52.98C82.3878 52.98 83.9572 52.3901 84.9876 51.091L84.4391 50.656ZM80.4351 52.28V51.58C79.2603 51.58 78.2953 51.1704 77.4957 50.3388L76.9911 50.824L76.4866 51.3092C77.5536 52.4189 78.8846 52.98 80.4351 52.98V52.28ZM76.9911 50.824L77.4957 50.3388C76.6855 49.4962 76.2911 48.5212 76.2911 47.38H75.5911H74.8911C74.8911 48.8894 75.4301 50.2104 76.4866 51.3092L76.9911 50.824ZM75.5911 47.38H76.2911C76.2911 46.0028 76.6971 45.0859 77.4051 44.4941C78.1371 43.8821 79.3115 43.516 81.0511 43.516V42.816V42.116C79.1508 42.116 77.5951 42.5105 76.5072 43.4199C75.3952 44.3494 74.8911 45.7145 74.8911 47.38H75.5911ZM81.0511 42.816V43.516H82.5911V42.816V42.116H81.0511V42.816ZM82.5911 42.816H83.2911V42.536H82.5911H81.8911V42.816H82.5911ZM82.5911 42.536H83.2911C83.2911 42.2598 83.268 41.9934 83.2035 41.7568C83.1406 41.5261 83.019 41.2539 82.7689 41.0595L82.3391 41.612L81.9094 42.1645C81.8273 42.1007 81.8317 42.0479 81.8528 42.1252C81.8723 42.1966 81.8911 42.3268 81.8911 42.536H82.5911ZM82.3391 41.612L82.8341 41.117C82.6136 40.8965 82.3217 40.8048 82.0948 40.7583C81.8484 40.7077 81.5607 40.688 81.2471 40.688V41.388V42.088C81.5122 42.088 81.6959 42.1056 81.8135 42.1297C81.8711 42.1415 81.8993 42.1523 81.9069 42.1556C81.9156 42.1594 81.8853 42.1481 81.8442 42.107L82.3391 41.612ZM81.2471 41.388V40.688C80.4577 40.688 79.3883 40.8516 78.0672 41.1536L78.2231 41.836L78.3791 42.5184C79.6713 42.223 80.6179 42.088 81.2471 42.088V41.388ZM80.4631 46.988H79.7631C79.7631 47.5269 79.9132 48.044 80.3042 48.435L80.7991 47.94L81.2941 47.445C81.2371 47.388 81.1631 47.2704 81.1631 46.988H80.4631ZM80.7991 47.94L80.3261 48.456C80.6933 48.7926 81.1481 48.948 81.6391 48.948V48.248V47.548C81.4582 47.548 81.353 47.4981 81.2721 47.424L80.7991 47.94ZM81.6391 48.248V48.948C82.2019 48.948 82.6916 48.7175 83.0861 48.323L82.5911 47.828L82.0962 47.333C81.9307 47.4985 81.7858 47.548 81.6391 47.548V48.248ZM82.5911 47.828H83.2911V45.672H82.5911H81.8911V47.828H82.5911ZM82.5911 45.672V44.972H81.8071V45.672V46.372H82.5911V45.672ZM81.8071 45.672V44.972C81.2549 44.972 80.7114 45.1072 80.3094 45.5008C79.9046 45.8972 79.7631 46.4377 79.7631 46.988H80.4631H81.1631C81.1631 46.661 81.2456 46.5435 81.2889 46.5012C81.3348 46.4562 81.4634 46.372 81.8071 46.372V45.672ZM95.04 52.028L95.019 52.7277L95.0295 52.728H95.04V52.028ZM92.24 42.648H92.94V41.948H92.24V42.648ZM90.56 41.416L89.8681 41.5224L89.8696 41.5319L89.8713 41.5412L90.56 41.416ZM90.84 38.952L90.192 38.6869L90.1872 38.6993L90.84 38.952ZM94.312 38.224L93.9518 38.8242H93.9518L94.312 38.224ZM95.432 39.232L94.8201 39.5719L95.2365 40.3215L95.8875 39.7635L95.432 39.232ZM97.7 42.508L97.9843 43.1477L97.9988 43.1412L98.013 43.1341L97.7 42.508ZM97.056 42.844L96.6187 42.2974L96.356 42.5076V42.844H97.056ZM97.056 51.832H96.356C96.356 51.5091 96.5706 51.3401 96.6306 51.2992C96.6987 51.2529 96.7486 51.2415 96.734 51.2458C96.7144 51.2515 96.6409 51.2671 96.4842 51.2823C96.1832 51.3116 95.7069 51.328 95.04 51.328V52.028V52.728C95.7171 52.728 96.2487 52.7118 96.6197 52.6757C96.799 52.6583 96.9776 52.633 97.126 52.5898C97.1953 52.5695 97.3083 52.5315 97.4183 52.4566C97.5204 52.3872 97.756 52.1875 97.756 51.832H97.056ZM95.04 52.028L95.061 51.3283C94.1319 51.3004 93.4545 51.2614 93.0165 51.2132C92.7923 51.1885 92.6606 51.1645 92.5975 51.1474C92.5603 51.1374 92.5878 51.1405 92.6394 51.1709C92.6511 51.1778 92.94 51.3409 92.94 51.72H92.24H91.54C91.54 52.1364 91.8581 52.3354 91.928 52.3767C92.038 52.4416 92.153 52.4776 92.2325 52.4991C92.4027 52.545 92.621 52.5781 92.8634 52.6048C93.3588 52.6593 94.0814 52.6996 95.019 52.7277L95.04 52.028ZM92.24 51.72H92.94V42.648H92.24H91.54V51.72H92.24ZM92.24 42.648V41.948H91.512V42.648V43.348H92.24V42.648ZM91.512 42.648V41.948C91.4928 41.948 91.4925 41.9448 91.4983 41.9478C91.5027 41.9501 91.4897 41.9454 91.4639 41.912C91.4032 41.8334 91.3142 41.6511 91.2487 41.2908L90.56 41.416L89.8713 41.5412C89.9551 42.0023 90.0994 42.4359 90.3561 42.768C90.6367 43.1311 91.0357 43.348 91.512 43.348V42.648ZM90.56 41.416L91.2518 41.3096C91.2199 41.1017 91.204 40.8946 91.204 40.688H90.504H89.804C89.804 40.9667 89.8254 41.245 89.8681 41.5224L90.56 41.416ZM90.504 40.688H91.204C91.204 40.2018 91.2977 39.7086 91.4928 39.2047L90.84 38.952L90.1872 38.6993C89.9343 39.3527 89.804 40.0168 89.804 40.688H90.504ZM90.84 38.952L91.4879 39.217C91.6248 38.8823 91.7771 38.6879 91.9165 38.5784C92.0459 38.4767 92.1989 38.42 92.408 38.42V37.72V37.02C91.9077 37.02 91.4448 37.1686 91.0515 37.4776C90.6682 37.7788 90.3912 38.2004 90.1921 38.687L90.84 38.952ZM92.408 37.72V38.42C93.0018 38.42 93.5099 38.5591 93.9518 38.8242L94.312 38.224L94.6721 37.6238C93.994 37.2169 93.2329 37.02 92.408 37.02V37.72ZM94.312 38.224L93.9518 38.8242C94.4713 39.1359 94.7213 39.3942 94.8201 39.5719L95.432 39.232L96.0439 38.892C95.7693 38.3978 95.2727 37.9841 94.6721 37.6238L94.312 38.224ZM95.432 39.232L95.8875 39.7635C96.9301 38.8698 98.1663 38.42 99.632 38.42V37.72V37.02C97.8497 37.02 96.2858 37.5782 94.9764 38.7005L95.432 39.232ZM99.632 37.72V38.42C101.14 38.42 102.076 38.8253 102.621 39.483L103.16 39.036L103.699 38.589C102.788 37.492 101.372 37.02 99.632 37.02V37.72ZM103.16 39.036L102.621 39.483C103.191 40.17 103.552 41.4033 103.552 43.348H104.252H104.952C104.952 41.2981 104.585 39.6567 103.699 38.589L103.16 39.036ZM104.252 43.348H103.552V51.748H104.252H104.952V43.348H104.252ZM104.252 51.748H103.552C103.552 51.5424 103.652 51.398 103.725 51.326C103.759 51.2927 103.789 51.2729 103.805 51.2632C103.814 51.258 103.82 51.2545 103.825 51.2524C103.829 51.2503 103.831 51.2493 103.831 51.2493C103.831 51.2492 103.83 51.2499 103.826 51.2511C103.823 51.2523 103.818 51.254 103.811 51.256C103.798 51.2601 103.779 51.2652 103.755 51.2709C103.705 51.2825 103.639 51.2948 103.553 51.3067C103.202 51.3558 102.639 51.384 101.844 51.384V52.084V52.784C102.654 52.784 103.296 52.7562 103.747 52.6933C103.965 52.6628 104.187 52.618 104.372 52.5407C104.463 52.5024 104.59 52.4381 104.703 52.3275C104.827 52.2065 104.952 52.0096 104.952 51.748H104.252ZM101.844 52.084V51.384C101.058 51.384 100.503 51.3558 100.157 51.3069C100.073 51.295 100.008 51.2828 99.959 51.2714C99.935 51.2657 99.917 51.2607 99.904 51.2567C99.8909 51.2526 99.8853 51.2503 99.8857 51.2504C99.8857 51.2504 99.8961 51.2547 99.913 51.2651C99.9294 51.2751 99.9592 51.2952 99.9932 51.3289C100.067 51.4017 100.164 51.5454 100.164 51.748H99.464H98.764C98.764 52.0066 98.8858 52.2028 99.0091 52.3246C99.1217 52.4359 99.2482 52.5008 99.3397 52.5396C99.5239 52.6176 99.7447 52.6626 99.9611 52.6931C100.408 52.7562 101.043 52.784 101.844 52.784V52.084ZM99.464 51.748H100.164V43.656H99.464H98.764V51.748H99.464ZM99.464 43.656H100.164C100.164 43.1291 100.076 42.6092 99.7924 42.2046C99.4774 41.7545 99.0003 41.556 98.484 41.556V42.256V42.956C98.5641 42.956 98.6005 42.9701 98.6118 42.9755C98.6196 42.9792 98.6297 42.9848 98.6455 43.0074C98.689 43.0695 98.764 43.2495 98.764 43.656H99.464ZM98.484 42.256V41.556C98.1255 41.556 97.7409 41.7049 97.3869 41.8819L97.7 42.508L98.013 43.1341C98.1599 43.0607 98.2752 43.0134 98.3622 42.9854C98.453 42.9562 98.4889 42.956 98.484 42.956V42.256ZM97.7 42.508L97.4157 41.8683C97.0956 42.0106 96.7947 42.1566 96.6187 42.2974L97.056 42.844L97.4933 43.3906C97.4846 43.3976 97.5116 43.3764 97.6108 43.3246C97.7004 43.2779 97.8236 43.2191 97.9843 43.1477L97.7 42.508ZM97.056 42.844H96.356V51.832H97.056H97.756V42.844H97.056ZM109.454 32.176L109.479 31.4764L109.466 31.476H109.454V32.176ZM111.834 43.292H111.134L112.45 43.6251L111.834 43.292ZM114.606 38.168L115.222 38.5011L115.231 38.4828L115.24 38.464L114.606 38.168ZM119.786 38.028L120.383 38.3939L120.797 37.7186L120.076 37.3907L119.786 38.028ZM116.146 43.964L115.549 43.5981L115.34 43.9399L115.528 44.2936L116.146 43.964ZM120.346 51.832L120.972 51.519L120.968 51.5106L120.963 51.5024L120.346 51.832ZM119.282 52L119.247 51.3009L119.238 51.3013L119.228 51.3021L119.282 52ZM114.578 51.832L113.939 52.1171L113.973 52.1947L114.025 52.2618L114.578 51.832ZM111.806 45.616L112.445 45.3309L111.106 45.616H111.806ZM106.906 32.624H107.606C107.606 32.7679 107.55 32.8851 107.489 32.9604C107.461 32.9943 107.436 33.0162 107.42 33.0286C107.403 33.0409 107.393 33.0465 107.392 33.0471C107.391 33.0475 107.411 33.0375 107.461 33.0228C107.51 33.0085 107.576 32.9929 107.664 32.9774C108.027 32.9137 108.614 32.876 109.454 32.876V32.176V31.476C108.595 31.476 107.908 31.513 107.422 31.5986C107.185 31.6402 106.941 31.702 106.739 31.8089C106.552 31.907 106.206 32.1556 106.206 32.624H106.906ZM109.454 32.176L109.429 32.8756C110.216 32.9033 110.778 32.9467 111.133 33.001C111.317 33.0291 111.405 33.0545 111.432 33.0648C111.448 33.071 111.402 33.0567 111.341 33.0041C111.275 32.9478 111.134 32.7927 111.134 32.54H111.834H112.534C112.534 32.2406 112.368 32.0409 112.253 31.942C112.142 31.8468 112.022 31.792 111.938 31.7597C111.767 31.693 111.557 31.6496 111.345 31.617C110.906 31.55 110.278 31.5047 109.479 31.4764L109.454 32.176ZM111.834 32.54H111.134V43.292H111.834H112.534V32.54H111.834ZM111.834 43.292L112.45 43.6251L115.222 38.5011L114.606 38.168L113.99 37.8349L111.218 42.9589L111.834 43.292ZM114.606 38.168L115.24 38.464C115.169 38.616 115.063 38.6463 115.118 38.6215C115.158 38.6033 115.25 38.5724 115.421 38.5423C115.757 38.4829 116.272 38.448 116.986 38.448V37.748V37.048C116.244 37.048 115.634 37.0831 115.177 37.1637C114.951 37.2036 114.729 37.2602 114.538 37.347C114.362 37.4272 114.108 37.5799 113.972 37.872L114.606 38.168ZM116.986 37.748V38.448C117.702 38.448 118.274 38.4711 118.708 38.5145C119.163 38.56 119.401 38.6222 119.496 38.6653L119.786 38.028L120.076 37.3907C119.76 37.2471 119.326 37.1694 118.848 37.1215C118.349 37.0716 117.726 37.048 116.986 37.048V37.748ZM119.786 38.028L119.189 37.6621L115.549 43.5981L116.146 43.964L116.743 44.3299L120.383 38.3939L119.786 38.028ZM116.146 43.964L115.528 44.2936L119.728 52.1616L120.346 51.832L120.963 51.5024L116.763 43.6344L116.146 43.964ZM120.346 51.832L119.72 52.145C119.666 52.0375 119.631 51.8943 119.657 51.7343C119.682 51.5804 119.753 51.4689 119.812 51.4007C119.914 51.2832 120.025 51.241 120.034 51.2372C120.074 51.2205 120.079 51.2259 119.999 51.2386C119.86 51.2604 119.616 51.2824 119.247 51.3009L119.282 52L119.317 52.6991C119.694 52.6802 120.001 52.6556 120.217 52.6214C120.314 52.6061 120.447 52.5811 120.567 52.5318C120.616 52.5117 120.754 52.4525 120.87 52.3176C120.937 52.2406 121.013 52.1202 121.039 51.9572C121.067 51.7883 121.03 51.6358 120.972 51.519L120.346 51.832ZM119.282 52L119.228 51.3021C118.51 51.3573 117.923 51.384 117.462 51.384V52.084V52.784C117.972 52.784 118.598 52.7547 119.336 52.6979L119.282 52ZM117.462 52.084V51.384C116.572 51.384 115.908 51.363 115.458 51.3237C115.23 51.3038 115.079 51.281 114.989 51.2602C114.943 51.2496 114.933 51.244 114.945 51.249C114.951 51.2519 114.973 51.2617 115.002 51.2814C115.031 51.3003 115.081 51.3383 115.13 51.4022L114.578 51.832L114.025 52.2618C114.149 52.4203 114.305 52.4977 114.387 52.5331C114.483 52.5748 114.583 52.6034 114.674 52.6243C114.857 52.6665 115.083 52.6962 115.336 52.7183C115.847 52.763 116.56 52.784 117.462 52.784V52.084ZM114.578 51.832L115.217 51.5469L112.445 45.3309L111.806 45.616L111.167 45.9011L113.939 52.1171L114.578 51.832ZM111.806 45.616H111.106V51.804H111.806H112.506V45.616H111.806ZM111.806 51.804H111.106C111.106 51.6148 111.193 51.4766 111.264 51.4027C111.297 51.3689 111.326 51.3485 111.342 51.3382C111.35 51.3327 111.357 51.3289 111.361 51.3267C111.366 51.3245 111.368 51.3234 111.368 51.3233C111.368 51.3232 111.362 51.3258 111.349 51.3302C111.335 51.3346 111.317 51.34 111.292 51.3461C111.242 51.3585 111.175 51.3717 111.088 51.3845C110.729 51.4374 110.155 51.468 109.342 51.468V52.168V52.868C110.171 52.868 110.829 52.8379 111.292 52.7695C111.517 52.7363 111.745 52.6875 111.935 52.6032C112.069 52.5443 112.506 52.3225 112.506 51.804H111.806ZM109.342 52.168V51.468C108.537 51.468 107.967 51.4398 107.611 51.3906C107.524 51.3786 107.456 51.3662 107.405 51.3545C107.38 51.3488 107.361 51.3436 107.347 51.3393C107.34 51.3373 107.335 51.3355 107.331 51.3342C107.329 51.3336 107.328 51.3331 107.327 51.3327C107.327 51.3326 107.326 51.3324 107.326 51.3323C107.326 51.3322 107.326 51.3322 107.326 51.3322C107.326 51.3322 107.326 51.3322 107.326 51.3323C107.326 51.3325 107.327 51.3326 107.327 51.3328C107.328 51.3333 107.33 51.334 107.332 51.335C107.336 51.3369 107.342 51.3403 107.351 51.3453C107.366 51.3547 107.396 51.3742 107.43 51.4072C107.504 51.4783 107.606 51.6235 107.606 51.832H106.906H106.206C106.206 52.0965 106.333 52.2942 106.458 52.4143C106.571 52.5242 106.699 52.5879 106.79 52.6258C106.976 52.7024 107.199 52.747 107.419 52.7774C107.874 52.8402 108.522 52.868 109.342 52.868V52.168ZM106.906 51.832H107.606V32.624H106.906H106.206V51.832H106.906ZM138.286 51.272L138.965 51.1022L138.964 51.0985L138.286 51.272ZM137.362 47.66L138.04 47.4865L137.906 46.96H137.362V47.66ZM132.91 47.66V46.96H132.355L132.229 47.5006L132.91 47.66ZM132.098 51.132L131.417 50.9726L131.414 50.9857L131.411 50.999L132.098 51.132ZM127.422 51.86L127.246 52.5373L127.259 52.541L127.273 52.544L127.422 51.86ZM126.778 51.608L126.101 51.4309L126.078 51.518V51.608H126.778ZM131.734 32.652L132.411 32.8291L132.434 32.742V32.652H131.734ZM139.406 32.652H138.706V32.7399L138.728 32.8251L139.406 32.652ZM144.25 51.636H144.95V51.5481L144.928 51.4629L144.25 51.636ZM142.962 51.944L142.902 51.2466L142.962 51.944ZM133.61 44.104L132.933 43.9273L132.704 44.804H133.61V44.104ZM136.55 44.104V44.804H137.419L137.234 43.9553L136.55 44.104ZM135.29 38.308L135.974 38.1593L135.854 37.608H135.29V38.308ZM135.122 38.308V37.608H134.581L134.445 38.1313L135.122 38.308ZM140.918 52.056V51.356C140.13 51.356 139.584 51.2911 139.242 51.1891C138.871 51.0785 138.937 50.9909 138.965 51.1022L138.286 51.272L137.607 51.4418C137.766 52.0757 138.336 52.3802 138.842 52.5309C139.378 52.6903 140.082 52.756 140.918 52.756V52.056ZM138.286 51.272L138.964 51.0985L138.04 47.4865L137.362 47.66L136.684 47.8335L137.608 51.4455L138.286 51.272ZM137.362 47.66V46.96H132.91V47.66V48.36H137.362V47.66ZM132.91 47.66L132.229 47.5006L131.417 50.9726L132.098 51.132L132.78 51.2914L133.592 47.8194L132.91 47.66ZM132.098 51.132L131.411 50.999C131.428 50.9109 131.487 51.0006 131.127 51.1169C130.783 51.228 130.225 51.3 129.41 51.3V52V52.7C130.275 52.7 131.006 52.6273 131.557 52.4491C132.093 52.2761 132.656 51.9317 132.785 51.265L132.098 51.132ZM129.41 52V51.3C128.524 51.3 127.923 51.2526 127.571 51.176L127.422 51.86L127.273 52.544C127.78 52.654 128.505 52.7 129.41 52.7V52ZM127.422 51.86L127.599 51.1827C127.391 51.1285 127.262 51.0878 127.194 51.0611C127.156 51.0461 127.168 51.0474 127.201 51.0689C127.216 51.0791 127.267 51.1132 127.321 51.1764C127.372 51.2364 127.478 51.385 127.478 51.608H126.778H126.078C126.078 51.845 126.191 52.0085 126.255 52.0842C126.323 52.1632 126.394 52.2139 126.436 52.2416C126.523 52.2981 126.615 52.3379 126.684 52.3649C126.831 52.4222 127.024 52.4795 127.246 52.5373L127.422 51.86ZM126.778 51.608L127.455 51.7851L132.411 32.8291L131.734 32.652L131.057 32.4749L126.101 51.4309L126.778 51.608ZM131.734 32.652H132.434C132.434 32.9182 132.286 33.0852 132.21 33.1514C132.137 33.2156 132.072 33.2422 132.059 33.2475C132.028 33.26 132.029 33.255 132.095 33.2435C132.214 33.2227 132.421 33.2011 132.734 33.1828C133.352 33.1467 134.295 33.128 135.57 33.128V32.428V31.728C134.288 31.728 133.313 31.7466 132.652 31.7852C132.326 31.8042 132.054 31.8293 131.853 31.8645C131.759 31.881 131.64 31.9063 131.529 31.9515C131.477 31.9731 131.381 32.0166 131.288 32.0983C131.192 32.1821 131.034 32.3671 131.034 32.652H131.734ZM135.57 32.428V33.128C136.846 33.128 137.788 33.1467 138.406 33.1828C138.72 33.2011 138.927 33.2227 139.046 33.2435C139.111 33.255 139.112 33.26 139.081 33.2475C139.069 33.2422 139.003 33.2156 138.93 33.1514C138.854 33.0852 138.706 32.9182 138.706 32.652H139.406H140.106C140.106 32.3671 139.948 32.1821 139.852 32.0983C139.759 32.0166 139.664 31.9731 139.611 31.9515C139.501 31.9063 139.381 31.881 139.287 31.8645C139.086 31.8293 138.814 31.8042 138.488 31.7852C137.828 31.7466 136.852 31.728 135.57 31.728V32.428ZM139.406 32.652L138.728 32.8251L143.572 51.8091L144.25 51.636L144.928 51.4629L140.084 32.4789L139.406 32.652ZM144.25 51.636H143.55C143.55 51.4443 143.633 51.3034 143.701 51.2249C143.763 51.154 143.821 51.1214 143.835 51.1137C143.863 51.0989 143.853 51.1093 143.765 51.1302C143.603 51.1691 143.322 51.21 142.902 51.2466L142.962 51.944L143.023 52.6414C143.461 52.6033 143.824 52.5555 144.091 52.4918C144.218 52.4614 144.369 52.4169 144.504 52.3438C144.588 52.2979 144.95 52.0889 144.95 51.636H144.25ZM142.962 51.944L142.902 51.2466C142.051 51.3206 141.393 51.356 140.918 51.356V52.056V52.756C141.452 52.756 142.156 52.7167 143.023 52.6414L142.962 51.944ZM133.61 44.104V44.804H136.55V44.104V43.404H133.61V44.104ZM136.55 44.104L137.234 43.9553L135.974 38.1593L135.29 38.308L134.606 38.4567L135.866 44.2527L136.55 44.104ZM135.29 38.308V37.608H135.122V38.308V39.008H135.29V38.308ZM135.122 38.308L134.445 38.1313L132.933 43.9273L133.61 44.104L134.288 44.2807L135.8 38.4847L135.122 38.308Z" fill="black" mask="url(#path-6-outside-1_1131_17101)"/>
</g>
<defs>
<filter id="filter0_dd_1131_17101" x="0.302734" y="0.000488281" width="201.595" height="84.4995" filterUnits="userSpaceOnUse" color-interpolation-filters="sRGB">
<feFlood flood-opacity="0" result="BackgroundImageFix"/>
<feColorMatrix in="SourceAlpha" type="matrix" values="0 0 0 0 0 0 0 0 0 0 0 0 0 0 0 0 0 0 127 0" result="hardAlpha"/>
<feOffset dx="0.2" dy="2.5"/>
<feComposite in2="hardAlpha" operator="out"/>
<feColorMatrix type="matrix" values="0 0 0 0 0 0 0 0 0 0 0 0 0 0 0 0 0 0 0.5 0"/>
<feBlend mode="normal" in2="BackgroundImageFix" result="effect1_dropShadow_1131_17101"/>
<feColorMatrix in="SourceAlpha" type="matrix" values="0 0 0 0 0 0 0 0 0 0 0 0 0 0 0 0 0 0 127 0" result="hardAlpha"/>
<feOffset dy="0.6"/>
<feComposite in2="hardAlpha" operator="out"/>
<feColorMatrix type="matrix" values="0 0 0 0 0 0 0 0 0 0 0 0 0 0 0 0 0 0 1 0"/>
<feBlend mode="normal" in2="effect1_dropShadow_1131_17101" result="effect2_dropShadow_1131_17101"/>
<feBlend mode="normal" in="SourceGraphic" in2="effect2_dropShadow_1131_17101" result="shape"/>
</filter>
<filter id="filter1_d_1131_17101" x="59.3027" y="31.4761" width="85.6484" height="23.5039" filterUnits="userSpaceOnUse" color-interpolation-filters="sRGB">
<feFlood flood-opacity="0" result="BackgroundImageFix"/>
<feColorMatrix in="SourceAlpha" type="matrix" values="0 0 0 0 0 0 0 0 0 0 0 0 0 0 0 0 0 0 127 0" result="hardAlpha"/>
<feOffset dy="2"/>
<feComposite in2="hardAlpha" operator="out"/>
<feColorMatrix type="matrix" values="0 0 0 0 0 0 0 0 0 0 0 0 0 0 0 0 0 0 1 0"/>
<feBlend mode="normal" in2="BackgroundImageFix" result="effect1_dropShadow_1131_17101"/>
<feBlend mode="normal" in="SourceGraphic" in2="effect1_dropShadow_1131_17101" result="shape"/>
</filter>
</defs>
</svg>
