<svg width="202" height="85" viewBox="0 0 202 85" fill="none" xmlns="http://www.w3.org/2000/svg">
<g filter="url(#filter0_dd_1131_17481)">
<path d="M6.56994 4.7092C6.72258 2.61863 8.46319 1.00047 10.5593 1.00047H196.697C199.021 1.00047 200.856 2.97404 200.686 5.29174L195.43 77.2911C195.277 79.3817 193.537 80.9999 191.44 80.9999H5.30269C2.97883 80.9999 1.14409 79.0263 1.3133 76.7086L6.56994 4.7092Z" fill="#068F36"/>
<path d="M196.697 0.5C199.311 0.500104 201.376 2.7208 201.186 5.32812L195.929 77.3271C195.757 79.679 193.799 81.5 191.44 81.5H5.30273C2.68839 81.5 0.624088 79.2793 0.814453 76.6719L6.07129 4.67285C6.243 2.32096 8.20142 0.5 10.5596 0.5H196.697Z" stroke="black"/>
</g>
<mask id="mask0_1131_17481" style="mask-type:alpha" maskUnits="userSpaceOnUse" x="1" y="1" width="200" height="80">
<path d="M6.56995 4.70922C6.72258 2.61865 8.46319 1.00049 10.5593 1.00049H196.697C199.021 1.00049 200.856 2.97406 200.686 5.29175L195.43 77.2911C195.277 79.3817 193.537 80.9999 191.44 80.9999H5.30269C2.97883 80.9999 1.14409 79.0263 1.3133 76.7086L6.56995 4.70922Z" fill="#E6311F"/>
</mask>
<g mask="url(#mask0_1131_17481)">
<rect x="-5.68164" y="-14.9932" width="225.403" height="23.4222" fill="#459B03"/>
<rect x="-5.55078" y="72.23" width="225.403" height="23.9316" fill="#007328"/>
</g>
<g filter="url(#filter1_d_1131_17481)">
<mask id="path-6-outside-1_1131_17481" maskUnits="userSpaceOnUse" x="56" y="31" width="87" height="22" fill="black">
<rect fill="white" x="56" y="31" width="87" height="22"/>
<path d="M58.128 45.168C58.4827 45.448 59.0893 45.8307 59.948 46.316C60.8253 46.8013 61.656 47.044 62.44 47.044C63.2427 47.044 63.644 46.736 63.644 46.12C63.644 45.84 63.532 45.5973 63.308 45.392C63.084 45.168 62.6733 44.916 62.076 44.636C61.4787 44.356 61.0307 44.1413 60.732 43.992C60.4333 43.824 60.032 43.5627 59.528 43.208C59.0427 42.8347 58.6693 42.452 58.408 42.06C57.6613 40.996 57.288 39.6427 57.288 38C57.288 36.3573 57.8947 34.976 59.108 33.856C60.34 32.7173 61.9453 32.148 63.924 32.148C65.268 32.148 66.5093 32.2973 67.648 32.596C68.7867 32.876 69.3747 33.2493 69.412 33.716C69.412 33.772 69.412 33.828 69.412 33.884C69.412 34.5373 69.2067 35.368 68.796 36.376C68.3853 37.3653 68.096 37.916 67.928 38.028C66.7333 37.412 65.66 37.104 64.708 37.104C63.7747 37.104 63.308 37.44 63.308 38.112C63.308 38.5227 63.6533 38.8867 64.344 39.204C64.4933 39.2787 64.708 39.3813 64.988 39.512C65.268 39.6427 65.5853 39.8013 65.94 39.988C66.3133 40.156 66.7053 40.38 67.116 40.66C67.5453 40.9213 68.0027 41.276 68.488 41.724C69.4773 42.6573 69.972 43.8893 69.972 45.42C69.972 47.4173 69.4213 49.0507 68.32 50.32C67.2187 51.5893 65.52 52.2427 63.224 52.28C62.104 52.28 61.0867 52.1867 60.172 52C59.276 51.8133 58.492 51.4493 57.82 50.908C57.148 50.3667 56.812 49.7133 56.812 48.948C56.812 48.1827 56.952 47.4267 57.232 46.68C57.512 45.9147 57.8107 45.4107 58.128 45.168ZM72.275 38.168C72.275 37.9627 73.0777 37.86 74.683 37.86C76.2883 37.86 77.091 37.9627 77.091 38.168V46.344C77.091 47.2773 77.3897 47.744 77.987 47.744C78.435 47.744 78.939 47.548 79.499 47.156V38.168C79.499 37.9813 80.2923 37.888 81.879 37.888C83.4657 37.888 84.259 37.9813 84.259 38.168V47.352H84.987C85.6217 47.352 85.939 47.9587 85.939 49.172C85.939 49.788 85.8083 50.4133 85.547 51.048C85.1737 51.8693 84.6697 52.28 84.035 52.28C82.7843 52.28 81.8603 51.7667 81.263 50.74L81.235 50.768C80.0963 51.776 78.8737 52.28 77.567 52.28C75.7563 52.28 74.4217 51.832 73.563 50.936C72.7043 50.0213 72.275 48.5187 72.275 46.428V38.168ZM88.0655 32.484C88.0655 32.26 88.8681 32.148 90.4735 32.148C92.0975 32.148 92.9095 32.2693 92.9095 32.512V37.944C93.7121 37.7947 94.2815 37.72 94.6175 37.72C98.5375 37.72 100.497 39.9693 100.497 44.468C100.497 46.9693 99.8908 48.9013 98.6775 50.264C97.4828 51.608 95.7748 52.28 93.5535 52.28C91.3508 52.28 89.5215 51.7853 88.0655 50.796V32.484ZM93.8335 42.088C93.5161 42.088 93.2081 42.1907 92.9095 42.396V47.744C93.1708 47.856 93.4415 47.912 93.7215 47.912C94.0201 47.912 94.3188 47.8 94.6175 47.576C95.1401 47.2027 95.4015 46.3347 95.4015 44.972C95.4015 43.0493 94.8788 42.088 93.8335 42.088ZM115.436 51.86C115.436 51.9907 114.634 52.056 113.028 52.056C111.442 52.056 110.648 51.972 110.648 51.804V43.656C110.648 42.7227 110.34 42.256 109.724 42.256C109.407 42.256 108.987 42.4613 108.464 42.872V51.832C108.464 52.0187 107.662 52.112 106.056 52.112C104.47 52.112 103.676 52.0093 103.676 51.804V42.648H102.976C102.36 42.648 102.052 42.004 102.052 40.716C102.052 40.1373 102.164 39.5493 102.388 38.952C102.687 38.1307 103.172 37.72 103.844 37.72C104.516 37.72 105.16 37.8973 105.776 38.252C106.411 38.6067 106.794 38.9427 106.924 39.26C108.082 38.2333 109.36 37.72 110.76 37.72C112.179 37.72 113.318 38.1587 114.176 39.036C115.184 38.1587 116.398 37.72 117.816 37.72C120.896 37.72 122.436 39.596 122.436 43.348V51.86C122.436 51.9907 121.634 52.056 120.028 52.056C118.442 52.056 117.648 51.972 117.648 51.804V43.656C117.648 42.7227 117.34 42.256 116.724 42.256C116.388 42.256 115.959 42.4613 115.436 42.872V51.86ZM130.223 51.832C130.223 51.9813 129.364 52.056 127.647 52.056C125.948 52.056 125.099 51.9907 125.099 51.86V38.112C125.099 37.9813 125.948 37.916 127.647 37.916C129.364 37.916 130.223 37.972 130.223 38.084V51.832ZM130.223 36.432C130.223 36.5627 129.364 36.628 127.647 36.628C125.948 36.628 125.099 36.572 125.099 36.46V32.428C125.099 32.2413 125.948 32.148 127.647 32.148C129.364 32.148 130.223 32.204 130.223 32.316V36.432ZM139.475 51.832C139.475 52.056 138.691 52.168 137.123 52.168C135.256 52.0933 134.323 51.972 134.323 51.804V41.892H132.895C132.522 41.892 132.335 41.248 132.335 39.96C132.335 39.624 132.363 39.2133 132.419 38.728C132.494 38.2427 132.634 38 132.839 38H134.323V35.536C134.323 35.1627 135.107 34.976 136.675 34.976C138.262 34.976 139.055 35.1253 139.055 35.424V37.216L139.083 38H141.463C141.78 38 141.939 38.6533 141.939 39.96C141.939 41.2667 141.78 41.92 141.463 41.92H139.475V51.832Z"/>
</mask>
<path d="M58.128 45.168C58.4827 45.448 59.0893 45.8307 59.948 46.316C60.8253 46.8013 61.656 47.044 62.44 47.044C63.2427 47.044 63.644 46.736 63.644 46.12C63.644 45.84 63.532 45.5973 63.308 45.392C63.084 45.168 62.6733 44.916 62.076 44.636C61.4787 44.356 61.0307 44.1413 60.732 43.992C60.4333 43.824 60.032 43.5627 59.528 43.208C59.0427 42.8347 58.6693 42.452 58.408 42.06C57.6613 40.996 57.288 39.6427 57.288 38C57.288 36.3573 57.8947 34.976 59.108 33.856C60.34 32.7173 61.9453 32.148 63.924 32.148C65.268 32.148 66.5093 32.2973 67.648 32.596C68.7867 32.876 69.3747 33.2493 69.412 33.716C69.412 33.772 69.412 33.828 69.412 33.884C69.412 34.5373 69.2067 35.368 68.796 36.376C68.3853 37.3653 68.096 37.916 67.928 38.028C66.7333 37.412 65.66 37.104 64.708 37.104C63.7747 37.104 63.308 37.44 63.308 38.112C63.308 38.5227 63.6533 38.8867 64.344 39.204C64.4933 39.2787 64.708 39.3813 64.988 39.512C65.268 39.6427 65.5853 39.8013 65.94 39.988C66.3133 40.156 66.7053 40.38 67.116 40.66C67.5453 40.9213 68.0027 41.276 68.488 41.724C69.4773 42.6573 69.972 43.8893 69.972 45.42C69.972 47.4173 69.4213 49.0507 68.32 50.32C67.2187 51.5893 65.52 52.2427 63.224 52.28C62.104 52.28 61.0867 52.1867 60.172 52C59.276 51.8133 58.492 51.4493 57.82 50.908C57.148 50.3667 56.812 49.7133 56.812 48.948C56.812 48.1827 56.952 47.4267 57.232 46.68C57.512 45.9147 57.8107 45.4107 58.128 45.168ZM72.275 38.168C72.275 37.9627 73.0777 37.86 74.683 37.86C76.2883 37.86 77.091 37.9627 77.091 38.168V46.344C77.091 47.2773 77.3897 47.744 77.987 47.744C78.435 47.744 78.939 47.548 79.499 47.156V38.168C79.499 37.9813 80.2923 37.888 81.879 37.888C83.4657 37.888 84.259 37.9813 84.259 38.168V47.352H84.987C85.6217 47.352 85.939 47.9587 85.939 49.172C85.939 49.788 85.8083 50.4133 85.547 51.048C85.1737 51.8693 84.6697 52.28 84.035 52.28C82.7843 52.28 81.8603 51.7667 81.263 50.74L81.235 50.768C80.0963 51.776 78.8737 52.28 77.567 52.28C75.7563 52.28 74.4217 51.832 73.563 50.936C72.7043 50.0213 72.275 48.5187 72.275 46.428V38.168ZM88.0655 32.484C88.0655 32.26 88.8681 32.148 90.4735 32.148C92.0975 32.148 92.9095 32.2693 92.9095 32.512V37.944C93.7121 37.7947 94.2815 37.72 94.6175 37.72C98.5375 37.72 100.497 39.9693 100.497 44.468C100.497 46.9693 99.8908 48.9013 98.6775 50.264C97.4828 51.608 95.7748 52.28 93.5535 52.28C91.3508 52.28 89.5215 51.7853 88.0655 50.796V32.484ZM93.8335 42.088C93.5161 42.088 93.2081 42.1907 92.9095 42.396V47.744C93.1708 47.856 93.4415 47.912 93.7215 47.912C94.0201 47.912 94.3188 47.8 94.6175 47.576C95.1401 47.2027 95.4015 46.3347 95.4015 44.972C95.4015 43.0493 94.8788 42.088 93.8335 42.088ZM115.436 51.86C115.436 51.9907 114.634 52.056 113.028 52.056C111.442 52.056 110.648 51.972 110.648 51.804V43.656C110.648 42.7227 110.34 42.256 109.724 42.256C109.407 42.256 108.987 42.4613 108.464 42.872V51.832C108.464 52.0187 107.662 52.112 106.056 52.112C104.47 52.112 103.676 52.0093 103.676 51.804V42.648H102.976C102.36 42.648 102.052 42.004 102.052 40.716C102.052 40.1373 102.164 39.5493 102.388 38.952C102.687 38.1307 103.172 37.72 103.844 37.72C104.516 37.72 105.16 37.8973 105.776 38.252C106.411 38.6067 106.794 38.9427 106.924 39.26C108.082 38.2333 109.36 37.72 110.76 37.72C112.179 37.72 113.318 38.1587 114.176 39.036C115.184 38.1587 116.398 37.72 117.816 37.72C120.896 37.72 122.436 39.596 122.436 43.348V51.86C122.436 51.9907 121.634 52.056 120.028 52.056C118.442 52.056 117.648 51.972 117.648 51.804V43.656C117.648 42.7227 117.34 42.256 116.724 42.256C116.388 42.256 115.959 42.4613 115.436 42.872V51.86ZM130.223 51.832C130.223 51.9813 129.364 52.056 127.647 52.056C125.948 52.056 125.099 51.9907 125.099 51.86V38.112C125.099 37.9813 125.948 37.916 127.647 37.916C129.364 37.916 130.223 37.972 130.223 38.084V51.832ZM130.223 36.432C130.223 36.5627 129.364 36.628 127.647 36.628C125.948 36.628 125.099 36.572 125.099 36.46V32.428C125.099 32.2413 125.948 32.148 127.647 32.148C129.364 32.148 130.223 32.204 130.223 32.316V36.432ZM139.475 51.832C139.475 52.056 138.691 52.168 137.123 52.168C135.256 52.0933 134.323 51.972 134.323 51.804V41.892H132.895C132.522 41.892 132.335 41.248 132.335 39.96C132.335 39.624 132.363 39.2133 132.419 38.728C132.494 38.2427 132.634 38 132.839 38H134.323V35.536C134.323 35.1627 135.107 34.976 136.675 34.976C138.262 34.976 139.055 35.1253 139.055 35.424V37.216L139.083 38H141.463C141.78 38 141.939 38.6533 141.939 39.96C141.939 41.2667 141.78 41.92 141.463 41.92H139.475V51.832Z" fill="white"/>
<path d="M58.128 45.168L58.5618 44.6186L58.1348 44.2815L57.7028 44.6119L58.128 45.168ZM59.948 46.316L59.6035 46.9254L59.6092 46.9285L59.948 46.316ZM63.308 45.392L62.813 45.887L62.8238 45.8977L62.835 45.908L63.308 45.392ZM62.076 44.636L61.7789 45.2698L62.076 44.636ZM60.732 43.992L60.3888 44.6021L60.4037 44.6105L60.419 44.6181L60.732 43.992ZM59.528 43.208L59.1012 43.7628L59.113 43.7719L59.1252 43.7805L59.528 43.208ZM58.408 42.06L58.9904 41.6717L58.9858 41.6647L58.981 41.6579L58.408 42.06ZM59.108 33.856L59.5828 34.3704L59.5831 34.3701L59.108 33.856ZM67.648 32.596L67.4704 33.2732L67.4808 33.2757L67.648 32.596ZM69.412 33.716H70.112V33.688L70.1098 33.6602L69.412 33.716ZM68.796 36.376L69.4425 36.6444L69.4443 36.6401L68.796 36.376ZM67.928 38.028L67.6072 38.6502L67.9734 38.839L68.3163 38.6104L67.928 38.028ZM64.344 39.204L64.6571 38.5779L64.6467 38.5727L64.6363 38.5679L64.344 39.204ZM64.988 39.512L64.692 40.1463L64.988 39.512ZM65.94 39.988L65.614 40.6074L65.6331 40.6175L65.6527 40.6263L65.94 39.988ZM67.116 40.66L66.7217 41.2384L66.7366 41.2485L66.752 41.2579L67.116 40.66ZM68.488 41.724L68.9684 41.2148L68.9628 41.2096L68.488 41.724ZM68.32 50.32L68.8487 50.7787L68.32 50.32ZM63.224 52.28V52.9801L63.2354 52.9799L63.224 52.28ZM60.172 52L60.0292 52.6853L60.032 52.6859L60.172 52ZM57.82 50.908L58.2591 50.3629L57.82 50.908ZM57.232 46.68L57.8875 46.9258L57.8894 46.9205L57.232 46.68ZM58.128 45.168L57.6942 45.7174C58.0942 46.0332 58.7413 46.438 59.6036 46.9254L59.948 46.316L60.2924 45.7066C59.4374 45.2233 58.8711 44.8628 58.5618 44.6186L58.128 45.168ZM59.948 46.316L59.6092 46.9285C60.5619 47.4556 61.5089 47.744 62.44 47.744V47.044V46.344C61.8031 46.344 61.0887 46.1471 60.2868 45.7035L59.948 46.316ZM62.44 47.044V47.744C62.9112 47.744 63.393 47.657 63.7692 47.3683C64.1804 47.0527 64.344 46.5928 64.344 46.12H63.644H62.944C62.944 46.1989 62.9311 46.2352 62.9267 46.2454C62.9241 46.2514 62.9233 46.2527 62.9168 46.2577C62.8916 46.277 62.7715 46.344 62.44 46.344V47.044ZM63.644 46.12H64.344C64.344 45.6258 64.1359 45.2013 63.781 44.876L63.308 45.392L62.835 45.908C62.9281 45.9934 62.944 46.0542 62.944 46.12H63.644ZM63.308 45.392L63.803 44.897C63.4876 44.5817 62.982 44.2876 62.3731 44.0022L62.076 44.636L61.7789 45.2698C62.3647 45.5444 62.6804 45.7543 62.813 45.887L63.308 45.392ZM62.076 44.636L62.3731 44.0022C61.777 43.7228 61.3355 43.5111 61.045 43.3659L60.732 43.992L60.419 44.6181C60.7258 44.7715 61.1803 44.9892 61.7789 45.2698L62.076 44.636ZM60.732 43.992L61.0752 43.3819C60.8071 43.2311 60.4282 42.9855 59.9308 42.6355L59.528 43.208L59.1252 43.7805C59.6358 44.1398 60.0596 44.4169 60.3888 44.6021L60.732 43.992ZM59.528 43.208L59.9548 42.6532C59.5129 42.3133 59.1988 41.9842 58.9904 41.6717L58.408 42.06L57.8256 42.4483C58.1399 42.9198 58.5724 43.3561 59.1012 43.7628L59.528 43.208ZM58.408 42.06L58.981 41.6579C58.3365 40.7394 57.988 39.5369 57.988 38H57.288H56.588C56.588 39.7485 56.9862 41.2526 57.835 42.4621L58.408 42.06ZM57.288 38H57.988C57.988 36.5539 58.5122 35.3586 59.5828 34.3704L59.108 33.856L58.6332 33.3416C57.2772 34.5934 56.588 36.1608 56.588 38H57.288ZM59.108 33.856L59.5831 34.3701C60.663 33.3719 62.0879 32.848 63.924 32.848V32.148V31.448C61.8028 31.448 60.017 32.0627 58.6329 33.3419L59.108 33.856ZM63.924 32.148V32.848C65.2164 32.848 66.3972 32.9916 67.4704 33.2731L67.648 32.596L67.8256 31.9189C66.6214 31.6031 65.3196 31.448 63.924 31.448V32.148ZM67.648 32.596L67.4808 33.2757C68.0196 33.4082 68.3669 33.5494 68.5678 33.6769C68.7703 33.8055 68.7204 33.8489 68.7142 33.7718L69.412 33.716L70.1098 33.6602C70.0663 33.1164 69.7037 32.7398 69.3182 32.495C68.9311 32.2493 68.4151 32.0638 67.8152 31.9162L67.648 32.596ZM69.412 33.716H68.712C68.712 33.7161 68.712 33.7162 68.712 33.7163C68.712 33.7164 68.712 33.7165 68.712 33.7167C68.712 33.7168 68.712 33.7169 68.712 33.717C68.712 33.7171 68.712 33.7172 68.712 33.7173C68.712 33.7174 68.712 33.7175 68.712 33.7176C68.712 33.7177 68.712 33.7179 68.712 33.718C68.712 33.7181 68.712 33.7182 68.712 33.7183C68.712 33.7184 68.712 33.7185 68.712 33.7186C68.712 33.7187 68.712 33.7188 68.712 33.719C68.712 33.7191 68.712 33.7192 68.712 33.7193C68.712 33.7194 68.712 33.7195 68.712 33.7196C68.712 33.7197 68.712 33.7198 68.712 33.7199C68.712 33.72 68.712 33.7202 68.712 33.7203C68.712 33.7204 68.712 33.7205 68.712 33.7206C68.712 33.7207 68.712 33.7208 68.712 33.7209C68.712 33.721 68.712 33.7211 68.712 33.7212C68.712 33.7214 68.712 33.7215 68.712 33.7216C68.712 33.7217 68.712 33.7218 68.712 33.7219C68.712 33.722 68.712 33.7221 68.712 33.7222C68.712 33.7223 68.712 33.7225 68.712 33.7226C68.712 33.7227 68.712 33.7228 68.712 33.7229C68.712 33.723 68.712 33.7231 68.712 33.7232C68.712 33.7233 68.712 33.7234 68.712 33.7235C68.712 33.7237 68.712 33.7238 68.712 33.7239C68.712 33.724 68.712 33.7241 68.712 33.7242C68.712 33.7243 68.712 33.7244 68.712 33.7245C68.712 33.7246 68.712 33.7247 68.712 33.7249C68.712 33.725 68.712 33.7251 68.712 33.7252C68.712 33.7253 68.712 33.7254 68.712 33.7255C68.712 33.7256 68.712 33.7257 68.712 33.7258C68.712 33.726 68.712 33.7261 68.712 33.7262C68.712 33.7263 68.712 33.7264 68.712 33.7265C68.712 33.7266 68.712 33.7267 68.712 33.7268C68.712 33.7269 68.712 33.727 68.712 33.7272C68.712 33.7273 68.712 33.7274 68.712 33.7275C68.712 33.7276 68.712 33.7277 68.712 33.7278C68.712 33.7279 68.712 33.728 68.712 33.7281C68.712 33.7282 68.712 33.7284 68.712 33.7285C68.712 33.7286 68.712 33.7287 68.712 33.7288C68.712 33.7289 68.712 33.729 68.712 33.7291C68.712 33.7292 68.712 33.7293 68.712 33.7295C68.712 33.7296 68.712 33.7297 68.712 33.7298C68.712 33.7299 68.712 33.73 68.712 33.7301C68.712 33.7302 68.712 33.7303 68.712 33.7304C68.712 33.7305 68.712 33.7307 68.712 33.7308C68.712 33.7309 68.712 33.731 68.712 33.7311C68.712 33.7312 68.712 33.7313 68.712 33.7314C68.712 33.7315 68.712 33.7316 68.712 33.7317C68.712 33.7319 68.712 33.732 68.712 33.7321C68.712 33.7322 68.712 33.7323 68.712 33.7324C68.712 33.7325 68.712 33.7326 68.712 33.7327C68.712 33.7328 68.712 33.733 68.712 33.7331C68.712 33.7332 68.712 33.7333 68.712 33.7334C68.712 33.7335 68.712 33.7336 68.712 33.7337C68.712 33.7338 68.712 33.7339 68.712 33.734C68.712 33.7342 68.712 33.7343 68.712 33.7344C68.712 33.7345 68.712 33.7346 68.712 33.7347C68.712 33.7348 68.712 33.7349 68.712 33.735C68.712 33.7351 68.712 33.7352 68.712 33.7354C68.712 33.7355 68.712 33.7356 68.712 33.7357C68.712 33.7358 68.712 33.7359 68.712 33.736C68.712 33.7361 68.712 33.7362 68.712 33.7363C68.712 33.7365 68.712 33.7366 68.712 33.7367C68.712 33.7368 68.712 33.7369 68.712 33.737C68.712 33.7371 68.712 33.7372 68.712 33.7373C68.712 33.7374 68.712 33.7375 68.712 33.7377C68.712 33.7378 68.712 33.7379 68.712 33.738C68.712 33.7381 68.712 33.7382 68.712 33.7383C68.712 33.7384 68.712 33.7385 68.712 33.7386C68.712 33.7387 68.712 33.7389 68.712 33.739C68.712 33.7391 68.712 33.7392 68.712 33.7393C68.712 33.7394 68.712 33.7395 68.712 33.7396C68.712 33.7397 68.712 33.7398 68.712 33.74C68.712 33.7401 68.712 33.7402 68.712 33.7403C68.712 33.7404 68.712 33.7405 68.712 33.7406C68.712 33.7407 68.712 33.7408 68.712 33.7409C68.712 33.741 68.712 33.7412 68.712 33.7413C68.712 33.7414 68.712 33.7415 68.712 33.7416C68.712 33.7417 68.712 33.7418 68.712 33.7419C68.712 33.742 68.712 33.7421 68.712 33.7422C68.712 33.7424 68.712 33.7425 68.712 33.7426C68.712 33.7427 68.712 33.7428 68.712 33.7429C68.712 33.743 68.712 33.7431 68.712 33.7432C68.712 33.7433 68.712 33.7435 68.712 33.7436C68.712 33.7437 68.712 33.7438 68.712 33.7439C68.712 33.744 68.712 33.7441 68.712 33.7442C68.712 33.7443 68.712 33.7444 68.712 33.7445C68.712 33.7447 68.712 33.7448 68.712 33.7449C68.712 33.745 68.712 33.7451 68.712 33.7452C68.712 33.7453 68.712 33.7454 68.712 33.7455C68.712 33.7456 68.712 33.7457 68.712 33.7459C68.712 33.746 68.712 33.7461 68.712 33.7462C68.712 33.7463 68.712 33.7464 68.712 33.7465C68.712 33.7466 68.712 33.7467 68.712 33.7468C68.712 33.747 68.712 33.7471 68.712 33.7472C68.712 33.7473 68.712 33.7474 68.712 33.7475C68.712 33.7476 68.712 33.7477 68.712 33.7478C68.712 33.7479 68.712 33.748 68.712 33.7482C68.712 33.7483 68.712 33.7484 68.712 33.7485C68.712 33.7486 68.712 33.7487 68.712 33.7488C68.712 33.7489 68.712 33.749 68.712 33.7491C68.712 33.7492 68.712 33.7494 68.712 33.7495C68.712 33.7496 68.712 33.7497 68.712 33.7498C68.712 33.7499 68.712 33.75 68.712 33.7501C68.712 33.7502 68.712 33.7503 68.712 33.7505C68.712 33.7506 68.712 33.7507 68.712 33.7508C68.712 33.7509 68.712 33.751 68.712 33.7511C68.712 33.7512 68.712 33.7513 68.712 33.7514C68.712 33.7515 68.712 33.7517 68.712 33.7518C68.712 33.7519 68.712 33.752 68.712 33.7521C68.712 33.7522 68.712 33.7523 68.712 33.7524C68.712 33.7525 68.712 33.7526 68.712 33.7527C68.712 33.7529 68.712 33.753 68.712 33.7531C68.712 33.7532 68.712 33.7533 68.712 33.7534C68.712 33.7535 68.712 33.7536 68.712 33.7537C68.712 33.7538 68.712 33.754 68.712 33.7541C68.712 33.7542 68.712 33.7543 68.712 33.7544C68.712 33.7545 68.712 33.7546 68.712 33.7547C68.712 33.7548 68.712 33.7549 68.712 33.755C68.712 33.7552 68.712 33.7553 68.712 33.7554C68.712 33.7555 68.712 33.7556 68.712 33.7557C68.712 33.7558 68.712 33.7559 68.712 33.756C68.712 33.7561 68.712 33.7562 68.712 33.7564C68.712 33.7565 68.712 33.7566 68.712 33.7567C68.712 33.7568 68.712 33.7569 68.712 33.757C68.712 33.7571 68.712 33.7572 68.712 33.7573C68.712 33.7575 68.712 33.7576 68.712 33.7577C68.712 33.7578 68.712 33.7579 68.712 33.758C68.712 33.7581 68.712 33.7582 68.712 33.7583C68.712 33.7584 68.712 33.7585 68.712 33.7587C68.712 33.7588 68.712 33.7589 68.712 33.759C68.712 33.7591 68.712 33.7592 68.712 33.7593C68.712 33.7594 68.712 33.7595 68.712 33.7596C68.712 33.7597 68.712 33.7599 68.712 33.76C68.712 33.7601 68.712 33.7602 68.712 33.7603C68.712 33.7604 68.712 33.7605 68.712 33.7606C68.712 33.7607 68.712 33.7608 68.712 33.761C68.712 33.7611 68.712 33.7612 68.712 33.7613C68.712 33.7614 68.712 33.7615 68.712 33.7616C68.712 33.7617 68.712 33.7618 68.712 33.7619C68.712 33.762 68.712 33.7622 68.712 33.7623C68.712 33.7624 68.712 33.7625 68.712 33.7626C68.712 33.7627 68.712 33.7628 68.712 33.7629C68.712 33.763 68.712 33.7631 68.712 33.7632C68.712 33.7634 68.712 33.7635 68.712 33.7636C68.712 33.7637 68.712 33.7638 68.712 33.7639C68.712 33.764 68.712 33.7641 68.712 33.7642C68.712 33.7643 68.712 33.7645 68.712 33.7646C68.712 33.7647 68.712 33.7648 68.712 33.7649C68.712 33.765 68.712 33.7651 68.712 33.7652C68.712 33.7653 68.712 33.7654 68.712 33.7655C68.712 33.7657 68.712 33.7658 68.712 33.7659C68.712 33.766 68.712 33.7661 68.712 33.7662C68.712 33.7663 68.712 33.7664 68.712 33.7665C68.712 33.7666 68.712 33.7667 68.712 33.7669C68.712 33.767 68.712 33.7671 68.712 33.7672C68.712 33.7673 68.712 33.7674 68.712 33.7675C68.712 33.7676 68.712 33.7677 68.712 33.7678C68.712 33.768 68.712 33.7681 68.712 33.7682C68.712 33.7683 68.712 33.7684 68.712 33.7685C68.712 33.7686 68.712 33.7687 68.712 33.7688C68.712 33.7689 68.712 33.769 68.712 33.7692C68.712 33.7693 68.712 33.7694 68.712 33.7695C68.712 33.7696 68.712 33.7697 68.712 33.7698C68.712 33.7699 68.712 33.77 68.712 33.7701C68.712 33.7702 68.712 33.7704 68.712 33.7705C68.712 33.7706 68.712 33.7707 68.712 33.7708C68.712 33.7709 68.712 33.771 68.712 33.7711C68.712 33.7712 68.712 33.7713 68.712 33.7715C68.712 33.7716 68.712 33.7717 68.712 33.7718C68.712 33.7719 68.712 33.772 68.712 33.7721C68.712 33.7722 68.712 33.7723 68.712 33.7724C68.712 33.7725 68.712 33.7727 68.712 33.7728C68.712 33.7729 68.712 33.773 68.712 33.7731C68.712 33.7732 68.712 33.7733 68.712 33.7734C68.712 33.7735 68.712 33.7736 68.712 33.7737C68.712 33.7739 68.712 33.774 68.712 33.7741C68.712 33.7742 68.712 33.7743 68.712 33.7744C68.712 33.7745 68.712 33.7746 68.712 33.7747C68.712 33.7748 68.712 33.775 68.712 33.7751C68.712 33.7752 68.712 33.7753 68.712 33.7754C68.712 33.7755 68.712 33.7756 68.712 33.7757C68.712 33.7758 68.712 33.7759 68.712 33.776C68.712 33.7762 68.712 33.7763 68.712 33.7764C68.712 33.7765 68.712 33.7766 68.712 33.7767C68.712 33.7768 68.712 33.7769 68.712 33.777C68.712 33.7771 68.712 33.7772 68.712 33.7774C68.712 33.7775 68.712 33.7776 68.712 33.7777C68.712 33.7778 68.712 33.7779 68.712 33.778C68.712 33.7781 68.712 33.7782 68.712 33.7783C68.712 33.7785 68.712 33.7786 68.712 33.7787C68.712 33.7788 68.712 33.7789 68.712 33.779C68.712 33.7791 68.712 33.7792 68.712 33.7793C68.712 33.7794 68.712 33.7795 68.712 33.7797C68.712 33.7798 68.712 33.7799 68.712 33.78C68.712 33.7801 68.712 33.7802 68.712 33.7803C68.712 33.7804 68.712 33.7805 68.712 33.7806C68.712 33.7807 68.712 33.7809 68.712 33.781C68.712 33.7811 68.712 33.7812 68.712 33.7813C68.712 33.7814 68.712 33.7815 68.712 33.7816C68.712 33.7817 68.712 33.7818 68.712 33.782C68.712 33.7821 68.712 33.7822 68.712 33.7823C68.712 33.7824 68.712 33.7825 68.712 33.7826C68.712 33.7827 68.712 33.7828 68.712 33.7829C68.712 33.783 68.712 33.7832 68.712 33.7833C68.712 33.7834 68.712 33.7835 68.712 33.7836C68.712 33.7837 68.712 33.7838 68.712 33.7839C68.712 33.784 68.712 33.7841 68.712 33.7842C68.712 33.7844 68.712 33.7845 68.712 33.7846C68.712 33.7847 68.712 33.7848 68.712 33.7849C68.712 33.785 68.712 33.7851 68.712 33.7852C68.712 33.7853 68.712 33.7855 68.712 33.7856C68.712 33.7857 68.712 33.7858 68.712 33.7859C68.712 33.786 68.712 33.7861 68.712 33.7862C68.712 33.7863 68.712 33.7864 68.712 33.7865C68.712 33.7867 68.712 33.7868 68.712 33.7869C68.712 33.787 68.712 33.7871 68.712 33.7872C68.712 33.7873 68.712 33.7874 68.712 33.7875C68.712 33.7876 68.712 33.7877 68.712 33.7879C68.712 33.788 68.712 33.7881 68.712 33.7882C68.712 33.7883 68.712 33.7884 68.712 33.7885C68.712 33.7886 68.712 33.7887 68.712 33.7888C68.712 33.789 68.712 33.7891 68.712 33.7892C68.712 33.7893 68.712 33.7894 68.712 33.7895C68.712 33.7896 68.712 33.7897 68.712 33.7898C68.712 33.7899 68.712 33.79 68.712 33.7902C68.712 33.7903 68.712 33.7904 68.712 33.7905C68.712 33.7906 68.712 33.7907 68.712 33.7908C68.712 33.7909 68.712 33.791 68.712 33.7911C68.712 33.7912 68.712 33.7914 68.712 33.7915C68.712 33.7916 68.712 33.7917 68.712 33.7918C68.712 33.7919 68.712 33.792 68.712 33.7921C68.712 33.7922 68.712 33.7923 68.712 33.7925C68.712 33.7926 68.712 33.7927 68.712 33.7928C68.712 33.7929 68.712 33.793 68.712 33.7931C68.712 33.7932 68.712 33.7933 68.712 33.7934C68.712 33.7935 68.712 33.7937 68.712 33.7938C68.712 33.7939 68.712 33.794 68.712 33.7941C68.712 33.7942 68.712 33.7943 68.712 33.7944C68.712 33.7945 68.712 33.7946 68.712 33.7947C68.712 33.7949 68.712 33.795 68.712 33.7951C68.712 33.7952 68.712 33.7953 68.712 33.7954C68.712 33.7955 68.712 33.7956 68.712 33.7957C68.712 33.7958 68.712 33.796 68.712 33.7961C68.712 33.7962 68.712 33.7963 68.712 33.7964C68.712 33.7965 68.712 33.7966 68.712 33.7967C68.712 33.7968 68.712 33.7969 68.712 33.797C68.712 33.7972 68.712 33.7973 68.712 33.7974C68.712 33.7975 68.712 33.7976 68.712 33.7977C68.712 33.7978 68.712 33.7979 68.712 33.798C68.712 33.7981 68.712 33.7982 68.712 33.7984C68.712 33.7985 68.712 33.7986 68.712 33.7987C68.712 33.7988 68.712 33.7989 68.712 33.799C68.712 33.7991 68.712 33.7992 68.712 33.7993C68.712 33.7995 68.712 33.7996 68.712 33.7997C68.712 33.7998 68.712 33.7999 68.712 33.8C68.712 33.8001 68.712 33.8002 68.712 33.8003C68.712 33.8004 68.712 33.8005 68.712 33.8007C68.712 33.8008 68.712 33.8009 68.712 33.801C68.712 33.8011 68.712 33.8012 68.712 33.8013C68.712 33.8014 68.712 33.8015 68.712 33.8016C68.712 33.8017 68.712 33.8019 68.712 33.802C68.712 33.8021 68.712 33.8022 68.712 33.8023C68.712 33.8024 68.712 33.8025 68.712 33.8026C68.712 33.8027 68.712 33.8028 68.712 33.803C68.712 33.8031 68.712 33.8032 68.712 33.8033C68.712 33.8034 68.712 33.8035 68.712 33.8036C68.712 33.8037 68.712 33.8038 68.712 33.8039C68.712 33.804 68.712 33.8042 68.712 33.8043C68.712 33.8044 68.712 33.8045 68.712 33.8046C68.712 33.8047 68.712 33.8048 68.712 33.8049C68.712 33.805 68.712 33.8051 68.712 33.8052C68.712 33.8054 68.712 33.8055 68.712 33.8056C68.712 33.8057 68.712 33.8058 68.712 33.8059C68.712 33.806 68.712 33.8061 68.712 33.8062C68.712 33.8063 68.712 33.8065 68.712 33.8066C68.712 33.8067 68.712 33.8068 68.712 33.8069C68.712 33.807 68.712 33.8071 68.712 33.8072C68.712 33.8073 68.712 33.8074 68.712 33.8075C68.712 33.8077 68.712 33.8078 68.712 33.8079C68.712 33.808 68.712 33.8081 68.712 33.8082C68.712 33.8083 68.712 33.8084 68.712 33.8085C68.712 33.8086 68.712 33.8087 68.712 33.8089C68.712 33.809 68.712 33.8091 68.712 33.8092C68.712 33.8093 68.712 33.8094 68.712 33.8095C68.712 33.8096 68.712 33.8097 68.712 33.8098C68.712 33.81 68.712 33.8101 68.712 33.8102C68.712 33.8103 68.712 33.8104 68.712 33.8105C68.712 33.8106 68.712 33.8107 68.712 33.8108C68.712 33.8109 68.712 33.811 68.712 33.8112C68.712 33.8113 68.712 33.8114 68.712 33.8115C68.712 33.8116 68.712 33.8117 68.712 33.8118C68.712 33.8119 68.712 33.812 68.712 33.8121C68.712 33.8122 68.712 33.8124 68.712 33.8125C68.712 33.8126 68.712 33.8127 68.712 33.8128C68.712 33.8129 68.712 33.813 68.712 33.8131C68.712 33.8132 68.712 33.8133 68.712 33.8135C68.712 33.8136 68.712 33.8137 68.712 33.8138C68.712 33.8139 68.712 33.814 68.712 33.8141C68.712 33.8142 68.712 33.8143 68.712 33.8144C68.712 33.8145 68.712 33.8147 68.712 33.8148C68.712 33.8149 68.712 33.815 68.712 33.8151C68.712 33.8152 68.712 33.8153 68.712 33.8154C68.712 33.8155 68.712 33.8156 68.712 33.8157C68.712 33.8159 68.712 33.816 68.712 33.8161C68.712 33.8162 68.712 33.8163 68.712 33.8164C68.712 33.8165 68.712 33.8166 68.712 33.8167C68.712 33.8168 68.712 33.817 68.712 33.8171C68.712 33.8172 68.712 33.8173 68.712 33.8174C68.712 33.8175 68.712 33.8176 68.712 33.8177C68.712 33.8178 68.712 33.8179 68.712 33.818C68.712 33.8182 68.712 33.8183 68.712 33.8184C68.712 33.8185 68.712 33.8186 68.712 33.8187C68.712 33.8188 68.712 33.8189 68.712 33.819C68.712 33.8191 68.712 33.8192 68.712 33.8194C68.712 33.8195 68.712 33.8196 68.712 33.8197C68.712 33.8198 68.712 33.8199 68.712 33.82C68.712 33.8201 68.712 33.8202 68.712 33.8203C68.712 33.8205 68.712 33.8206 68.712 33.8207C68.712 33.8208 68.712 33.8209 68.712 33.821C68.712 33.8211 68.712 33.8212 68.712 33.8213C68.712 33.8214 68.712 33.8215 68.712 33.8217C68.712 33.8218 68.712 33.8219 68.712 33.822C68.712 33.8221 68.712 33.8222 68.712 33.8223C68.712 33.8224 68.712 33.8225 68.712 33.8226C68.712 33.8227 68.712 33.8229 68.712 33.823C68.712 33.8231 68.712 33.8232 68.712 33.8233C68.712 33.8234 68.712 33.8235 68.712 33.8236C68.712 33.8237 68.712 33.8238 68.712 33.824C68.712 33.8241 68.712 33.8242 68.712 33.8243C68.712 33.8244 68.712 33.8245 68.712 33.8246C68.712 33.8247 68.712 33.8248 68.712 33.8249C68.712 33.825 68.712 33.8252 68.712 33.8253C68.712 33.8254 68.712 33.8255 68.712 33.8256C68.712 33.8257 68.712 33.8258 68.712 33.8259C68.712 33.826 68.712 33.8261 68.712 33.8262C68.712 33.8264 68.712 33.8265 68.712 33.8266C68.712 33.8267 68.712 33.8268 68.712 33.8269C68.712 33.827 68.712 33.8271 68.712 33.8272C68.712 33.8273 68.712 33.8275 68.712 33.8276C68.712 33.8277 68.712 33.8278 68.712 33.8279C68.712 33.828 68.712 33.8281 68.712 33.8282C68.712 33.8283 68.712 33.8284 68.712 33.8285C68.712 33.8287 68.712 33.8288 68.712 33.8289C68.712 33.829 68.712 33.8291 68.712 33.8292C68.712 33.8293 68.712 33.8294 68.712 33.8295C68.712 33.8296 68.712 33.8297 68.712 33.8299C68.712 33.83 68.712 33.8301 68.712 33.8302C68.712 33.8303 68.712 33.8304 68.712 33.8305C68.712 33.8306 68.712 33.8307 68.712 33.8308C68.712 33.831 68.712 33.8311 68.712 33.8312C68.712 33.8313 68.712 33.8314 68.712 33.8315C68.712 33.8316 68.712 33.8317 68.712 33.8318C68.712 33.8319 68.712 33.832 68.712 33.8322C68.712 33.8323 68.712 33.8324 68.712 33.8325C68.712 33.8326 68.712 33.8327 68.712 33.8328C68.712 33.8329 68.712 33.833 68.712 33.8331C68.712 33.8332 68.712 33.8334 68.712 33.8335C68.712 33.8336 68.712 33.8337 68.712 33.8338C68.712 33.8339 68.712 33.834 68.712 33.8341C68.712 33.8342 68.712 33.8343 68.712 33.8345C68.712 33.8346 68.712 33.8347 68.712 33.8348C68.712 33.8349 68.712 33.835 68.712 33.8351C68.712 33.8352 68.712 33.8353 68.712 33.8354C68.712 33.8355 68.712 33.8357 68.712 33.8358C68.712 33.8359 68.712 33.836 68.712 33.8361C68.712 33.8362 68.712 33.8363 68.712 33.8364C68.712 33.8365 68.712 33.8366 68.712 33.8367C68.712 33.8369 68.712 33.837 68.712 33.8371C68.712 33.8372 68.712 33.8373 68.712 33.8374C68.712 33.8375 68.712 33.8376 68.712 33.8377C68.712 33.8378 68.712 33.838 68.712 33.8381C68.712 33.8382 68.712 33.8383 68.712 33.8384C68.712 33.8385 68.712 33.8386 68.712 33.8387C68.712 33.8388 68.712 33.8389 68.712 33.839C68.712 33.8392 68.712 33.8393 68.712 33.8394C68.712 33.8395 68.712 33.8396 68.712 33.8397C68.712 33.8398 68.712 33.8399 68.712 33.84C68.712 33.8401 68.712 33.8402 68.712 33.8404C68.712 33.8405 68.712 33.8406 68.712 33.8407C68.712 33.8408 68.712 33.8409 68.712 33.841C68.712 33.8411 68.712 33.8412 68.712 33.8413C68.712 33.8415 68.712 33.8416 68.712 33.8417C68.712 33.8418 68.712 33.8419 68.712 33.842C68.712 33.8421 68.712 33.8422 68.712 33.8423C68.712 33.8424 68.712 33.8425 68.712 33.8427C68.712 33.8428 68.712 33.8429 68.712 33.843C68.712 33.8431 68.712 33.8432 68.712 33.8433C68.712 33.8434 68.712 33.8435 68.712 33.8436C68.712 33.8437 68.712 33.8439 68.712 33.844C68.712 33.8441 68.712 33.8442 68.712 33.8443C68.712 33.8444 68.712 33.8445 68.712 33.8446C68.712 33.8447 68.712 33.8448 68.712 33.845C68.712 33.8451 68.712 33.8452 68.712 33.8453C68.712 33.8454 68.712 33.8455 68.712 33.8456C68.712 33.8457 68.712 33.8458 68.712 33.8459C68.712 33.846 68.712 33.8462 68.712 33.8463C68.712 33.8464 68.712 33.8465 68.712 33.8466C68.712 33.8467 68.712 33.8468 68.712 33.8469C68.712 33.847 68.712 33.8471 68.712 33.8472C68.712 33.8474 68.712 33.8475 68.712 33.8476C68.712 33.8477 68.712 33.8478 68.712 33.8479C68.712 33.848 68.712 33.8481 68.712 33.8482C68.712 33.8483 68.712 33.8485 68.712 33.8486C68.712 33.8487 68.712 33.8488 68.712 33.8489C68.712 33.849 68.712 33.8491 68.712 33.8492C68.712 33.8493 68.712 33.8494 68.712 33.8495C68.712 33.8497 68.712 33.8498 68.712 33.8499C68.712 33.85 68.712 33.8501 68.712 33.8502C68.712 33.8503 68.712 33.8504 68.712 33.8505C68.712 33.8506 68.712 33.8507 68.712 33.8509C68.712 33.851 68.712 33.8511 68.712 33.8512C68.712 33.8513 68.712 33.8514 68.712 33.8515C68.712 33.8516 68.712 33.8517 68.712 33.8518C68.712 33.852 68.712 33.8521 68.712 33.8522C68.712 33.8523 68.712 33.8524 68.712 33.8525C68.712 33.8526 68.712 33.8527 68.712 33.8528C68.712 33.8529 68.712 33.853 68.712 33.8532C68.712 33.8533 68.712 33.8534 68.712 33.8535C68.712 33.8536 68.712 33.8537 68.712 33.8538C68.712 33.8539 68.712 33.854 68.712 33.8541C68.712 33.8542 68.712 33.8544 68.712 33.8545C68.712 33.8546 68.712 33.8547 68.712 33.8548C68.712 33.8549 68.712 33.855 68.712 33.8551C68.712 33.8552 68.712 33.8553 68.712 33.8555C68.712 33.8556 68.712 33.8557 68.712 33.8558C68.712 33.8559 68.712 33.856 68.712 33.8561C68.712 33.8562 68.712 33.8563 68.712 33.8564C68.712 33.8565 68.712 33.8567 68.712 33.8568C68.712 33.8569 68.712 33.857 68.712 33.8571C68.712 33.8572 68.712 33.8573 68.712 33.8574C68.712 33.8575 68.712 33.8576 68.712 33.8577C68.712 33.8579 68.712 33.858 68.712 33.8581C68.712 33.8582 68.712 33.8583 68.712 33.8584C68.712 33.8585 68.712 33.8586 68.712 33.8587C68.712 33.8588 68.712 33.859 68.712 33.8591C68.712 33.8592 68.712 33.8593 68.712 33.8594C68.712 33.8595 68.712 33.8596 68.712 33.8597C68.712 33.8598 68.712 33.8599 68.712 33.86C68.712 33.8602 68.712 33.8603 68.712 33.8604C68.712 33.8605 68.712 33.8606 68.712 33.8607C68.712 33.8608 68.712 33.8609 68.712 33.861C68.712 33.8611 68.712 33.8612 68.712 33.8614C68.712 33.8615 68.712 33.8616 68.712 33.8617C68.712 33.8618 68.712 33.8619 68.712 33.862C68.712 33.8621 68.712 33.8622 68.712 33.8623C68.712 33.8625 68.712 33.8626 68.712 33.8627C68.712 33.8628 68.712 33.8629 68.712 33.863C68.712 33.8631 68.712 33.8632 68.712 33.8633C68.712 33.8634 68.712 33.8635 68.712 33.8637C68.712 33.8638 68.712 33.8639 68.712 33.864C68.712 33.8641 68.712 33.8642 68.712 33.8643C68.712 33.8644 68.712 33.8645 68.712 33.8646C68.712 33.8647 68.712 33.8649 68.712 33.865C68.712 33.8651 68.712 33.8652 68.712 33.8653C68.712 33.8654 68.712 33.8655 68.712 33.8656C68.712 33.8657 68.712 33.8658 68.712 33.866C68.712 33.8661 68.712 33.8662 68.712 33.8663C68.712 33.8664 68.712 33.8665 68.712 33.8666C68.712 33.8667 68.712 33.8668 68.712 33.8669C68.712 33.867 68.712 33.8672 68.712 33.8673C68.712 33.8674 68.712 33.8675 68.712 33.8676C68.712 33.8677 68.712 33.8678 68.712 33.8679C68.712 33.868 68.712 33.8681 68.712 33.8682C68.712 33.8684 68.712 33.8685 68.712 33.8686C68.712 33.8687 68.712 33.8688 68.712 33.8689C68.712 33.869 68.712 33.8691 68.712 33.8692C68.712 33.8693 68.712 33.8695 68.712 33.8696C68.712 33.8697 68.712 33.8698 68.712 33.8699C68.712 33.87 68.712 33.8701 68.712 33.8702C68.712 33.8703 68.712 33.8704 68.712 33.8705C68.712 33.8707 68.712 33.8708 68.712 33.8709C68.712 33.871 68.712 33.8711 68.712 33.8712C68.712 33.8713 68.712 33.8714 68.712 33.8715C68.712 33.8716 68.712 33.8717 68.712 33.8719C68.712 33.872 68.712 33.8721 68.712 33.8722C68.712 33.8723 68.712 33.8724 68.712 33.8725C68.712 33.8726 68.712 33.8727 68.712 33.8728C68.712 33.873 68.712 33.8731 68.712 33.8732C68.712 33.8733 68.712 33.8734 68.712 33.8735C68.712 33.8736 68.712 33.8737 68.712 33.8738C68.712 33.8739 68.712 33.874 68.712 33.8742C68.712 33.8743 68.712 33.8744 68.712 33.8745C68.712 33.8746 68.712 33.8747 68.712 33.8748C68.712 33.8749 68.712 33.875 68.712 33.8751C68.712 33.8752 68.712 33.8754 68.712 33.8755C68.712 33.8756 68.712 33.8757 68.712 33.8758C68.712 33.8759 68.712 33.876 68.712 33.8761C68.712 33.8762 68.712 33.8763 68.712 33.8765C68.712 33.8766 68.712 33.8767 68.712 33.8768C68.712 33.8769 68.712 33.877 68.712 33.8771C68.712 33.8772 68.712 33.8773 68.712 33.8774C68.712 33.8775 68.712 33.8777 68.712 33.8778C68.712 33.8779 68.712 33.878 68.712 33.8781C68.712 33.8782 68.712 33.8783 68.712 33.8784C68.712 33.8785 68.712 33.8786 68.712 33.8787C68.712 33.8789 68.712 33.879 68.712 33.8791C68.712 33.8792 68.712 33.8793 68.712 33.8794C68.712 33.8795 68.712 33.8796 68.712 33.8797C68.712 33.8798 68.712 33.88 68.712 33.8801C68.712 33.8802 68.712 33.8803 68.712 33.8804C68.712 33.8805 68.712 33.8806 68.712 33.8807C68.712 33.8808 68.712 33.8809 68.712 33.881C68.712 33.8812 68.712 33.8813 68.712 33.8814C68.712 33.8815 68.712 33.8816 68.712 33.8817C68.712 33.8818 68.712 33.8819 68.712 33.882C68.712 33.8821 68.712 33.8822 68.712 33.8824C68.712 33.8825 68.712 33.8826 68.712 33.8827C68.712 33.8828 68.712 33.8829 68.712 33.883C68.712 33.8831 68.712 33.8832 68.712 33.8833C68.712 33.8835 68.712 33.8836 68.712 33.8837C68.712 33.8838 68.712 33.8839 68.712 33.884H69.412H70.112C70.112 33.8839 70.112 33.8838 70.112 33.8837C70.112 33.8836 70.112 33.8835 70.112 33.8833C70.112 33.8832 70.112 33.8831 70.112 33.883C70.112 33.8829 70.112 33.8828 70.112 33.8827C70.112 33.8826 70.112 33.8825 70.112 33.8824C70.112 33.8822 70.112 33.8821 70.112 33.882C70.112 33.8819 70.112 33.8818 70.112 33.8817C70.112 33.8816 70.112 33.8815 70.112 33.8814C70.112 33.8813 70.112 33.8812 70.112 33.881C70.112 33.8809 70.112 33.8808 70.112 33.8807C70.112 33.8806 70.112 33.8805 70.112 33.8804C70.112 33.8803 70.112 33.8802 70.112 33.8801C70.112 33.88 70.112 33.8798 70.112 33.8797C70.112 33.8796 70.112 33.8795 70.112 33.8794C70.112 33.8793 70.112 33.8792 70.112 33.8791C70.112 33.879 70.112 33.8789 70.112 33.8787C70.112 33.8786 70.112 33.8785 70.112 33.8784C70.112 33.8783 70.112 33.8782 70.112 33.8781C70.112 33.878 70.112 33.8779 70.112 33.8778C70.112 33.8777 70.112 33.8775 70.112 33.8774C70.112 33.8773 70.112 33.8772 70.112 33.8771C70.112 33.877 70.112 33.8769 70.112 33.8768C70.112 33.8767 70.112 33.8766 70.112 33.8765C70.112 33.8763 70.112 33.8762 70.112 33.8761C70.112 33.876 70.112 33.8759 70.112 33.8758C70.112 33.8757 70.112 33.8756 70.112 33.8755C70.112 33.8754 70.112 33.8752 70.112 33.8751C70.112 33.875 70.112 33.8749 70.112 33.8748C70.112 33.8747 70.112 33.8746 70.112 33.8745C70.112 33.8744 70.112 33.8743 70.112 33.8742C70.112 33.874 70.112 33.8739 70.112 33.8738C70.112 33.8737 70.112 33.8736 70.112 33.8735C70.112 33.8734 70.112 33.8733 70.112 33.8732C70.112 33.8731 70.112 33.873 70.112 33.8728C70.112 33.8727 70.112 33.8726 70.112 33.8725C70.112 33.8724 70.112 33.8723 70.112 33.8722C70.112 33.8721 70.112 33.872 70.112 33.8719C70.112 33.8717 70.112 33.8716 70.112 33.8715C70.112 33.8714 70.112 33.8713 70.112 33.8712C70.112 33.8711 70.112 33.871 70.112 33.8709C70.112 33.8708 70.112 33.8707 70.112 33.8705C70.112 33.8704 70.112 33.8703 70.112 33.8702C70.112 33.8701 70.112 33.87 70.112 33.8699C70.112 33.8698 70.112 33.8697 70.112 33.8696C70.112 33.8695 70.112 33.8693 70.112 33.8692C70.112 33.8691 70.112 33.869 70.112 33.8689C70.112 33.8688 70.112 33.8687 70.112 33.8686C70.112 33.8685 70.112 33.8684 70.112 33.8682C70.112 33.8681 70.112 33.868 70.112 33.8679C70.112 33.8678 70.112 33.8677 70.112 33.8676C70.112 33.8675 70.112 33.8674 70.112 33.8673C70.112 33.8672 70.112 33.867 70.112 33.8669C70.112 33.8668 70.112 33.8667 70.112 33.8666C70.112 33.8665 70.112 33.8664 70.112 33.8663C70.112 33.8662 70.112 33.8661 70.112 33.866C70.112 33.8658 70.112 33.8657 70.112 33.8656C70.112 33.8655 70.112 33.8654 70.112 33.8653C70.112 33.8652 70.112 33.8651 70.112 33.865C70.112 33.8649 70.112 33.8647 70.112 33.8646C70.112 33.8645 70.112 33.8644 70.112 33.8643C70.112 33.8642 70.112 33.8641 70.112 33.864C70.112 33.8639 70.112 33.8638 70.112 33.8637C70.112 33.8635 70.112 33.8634 70.112 33.8633C70.112 33.8632 70.112 33.8631 70.112 33.863C70.112 33.8629 70.112 33.8628 70.112 33.8627C70.112 33.8626 70.112 33.8625 70.112 33.8623C70.112 33.8622 70.112 33.8621 70.112 33.862C70.112 33.8619 70.112 33.8618 70.112 33.8617C70.112 33.8616 70.112 33.8615 70.112 33.8614C70.112 33.8612 70.112 33.8611 70.112 33.861C70.112 33.8609 70.112 33.8608 70.112 33.8607C70.112 33.8606 70.112 33.8605 70.112 33.8604C70.112 33.8603 70.112 33.8602 70.112 33.86C70.112 33.8599 70.112 33.8598 70.112 33.8597C70.112 33.8596 70.112 33.8595 70.112 33.8594C70.112 33.8593 70.112 33.8592 70.112 33.8591C70.112 33.859 70.112 33.8588 70.112 33.8587C70.112 33.8586 70.112 33.8585 70.112 33.8584C70.112 33.8583 70.112 33.8582 70.112 33.8581C70.112 33.858 70.112 33.8579 70.112 33.8577C70.112 33.8576 70.112 33.8575 70.112 33.8574C70.112 33.8573 70.112 33.8572 70.112 33.8571C70.112 33.857 70.112 33.8569 70.112 33.8568C70.112 33.8567 70.112 33.8565 70.112 33.8564C70.112 33.8563 70.112 33.8562 70.112 33.8561C70.112 33.856 70.112 33.8559 70.112 33.8558C70.112 33.8557 70.112 33.8556 70.112 33.8555C70.112 33.8553 70.112 33.8552 70.112 33.8551C70.112 33.855 70.112 33.8549 70.112 33.8548C70.112 33.8547 70.112 33.8546 70.112 33.8545C70.112 33.8544 70.112 33.8542 70.112 33.8541C70.112 33.854 70.112 33.8539 70.112 33.8538C70.112 33.8537 70.112 33.8536 70.112 33.8535C70.112 33.8534 70.112 33.8533 70.112 33.8532C70.112 33.853 70.112 33.8529 70.112 33.8528C70.112 33.8527 70.112 33.8526 70.112 33.8525C70.112 33.8524 70.112 33.8523 70.112 33.8522C70.112 33.8521 70.112 33.852 70.112 33.8518C70.112 33.8517 70.112 33.8516 70.112 33.8515C70.112 33.8514 70.112 33.8513 70.112 33.8512C70.112 33.8511 70.112 33.851 70.112 33.8509C70.112 33.8507 70.112 33.8506 70.112 33.8505C70.112 33.8504 70.112 33.8503 70.112 33.8502C70.112 33.8501 70.112 33.85 70.112 33.8499C70.112 33.8498 70.112 33.8497 70.112 33.8495C70.112 33.8494 70.112 33.8493 70.112 33.8492C70.112 33.8491 70.112 33.849 70.112 33.8489C70.112 33.8488 70.112 33.8487 70.112 33.8486C70.112 33.8485 70.112 33.8483 70.112 33.8482C70.112 33.8481 70.112 33.848 70.112 33.8479C70.112 33.8478 70.112 33.8477 70.112 33.8476C70.112 33.8475 70.112 33.8474 70.112 33.8472C70.112 33.8471 70.112 33.847 70.112 33.8469C70.112 33.8468 70.112 33.8467 70.112 33.8466C70.112 33.8465 70.112 33.8464 70.112 33.8463C70.112 33.8462 70.112 33.846 70.112 33.8459C70.112 33.8458 70.112 33.8457 70.112 33.8456C70.112 33.8455 70.112 33.8454 70.112 33.8453C70.112 33.8452 70.112 33.8451 70.112 33.845C70.112 33.8448 70.112 33.8447 70.112 33.8446C70.112 33.8445 70.112 33.8444 70.112 33.8443C70.112 33.8442 70.112 33.8441 70.112 33.844C70.112 33.8439 70.112 33.8437 70.112 33.8436C70.112 33.8435 70.112 33.8434 70.112 33.8433C70.112 33.8432 70.112 33.8431 70.112 33.843C70.112 33.8429 70.112 33.8428 70.112 33.8427C70.112 33.8425 70.112 33.8424 70.112 33.8423C70.112 33.8422 70.112 33.8421 70.112 33.842C70.112 33.8419 70.112 33.8418 70.112 33.8417C70.112 33.8416 70.112 33.8415 70.112 33.8413C70.112 33.8412 70.112 33.8411 70.112 33.841C70.112 33.8409 70.112 33.8408 70.112 33.8407C70.112 33.8406 70.112 33.8405 70.112 33.8404C70.112 33.8402 70.112 33.8401 70.112 33.84C70.112 33.8399 70.112 33.8398 70.112 33.8397C70.112 33.8396 70.112 33.8395 70.112 33.8394C70.112 33.8393 70.112 33.8392 70.112 33.839C70.112 33.8389 70.112 33.8388 70.112 33.8387C70.112 33.8386 70.112 33.8385 70.112 33.8384C70.112 33.8383 70.112 33.8382 70.112 33.8381C70.112 33.838 70.112 33.8378 70.112 33.8377C70.112 33.8376 70.112 33.8375 70.112 33.8374C70.112 33.8373 70.112 33.8372 70.112 33.8371C70.112 33.837 70.112 33.8369 70.112 33.8367C70.112 33.8366 70.112 33.8365 70.112 33.8364C70.112 33.8363 70.112 33.8362 70.112 33.8361C70.112 33.836 70.112 33.8359 70.112 33.8358C70.112 33.8357 70.112 33.8355 70.112 33.8354C70.112 33.8353 70.112 33.8352 70.112 33.8351C70.112 33.835 70.112 33.8349 70.112 33.8348C70.112 33.8347 70.112 33.8346 70.112 33.8345C70.112 33.8343 70.112 33.8342 70.112 33.8341C70.112 33.834 70.112 33.8339 70.112 33.8338C70.112 33.8337 70.112 33.8336 70.112 33.8335C70.112 33.8334 70.112 33.8332 70.112 33.8331C70.112 33.833 70.112 33.8329 70.112 33.8328C70.112 33.8327 70.112 33.8326 70.112 33.8325C70.112 33.8324 70.112 33.8323 70.112 33.8322C70.112 33.832 70.112 33.8319 70.112 33.8318C70.112 33.8317 70.112 33.8316 70.112 33.8315C70.112 33.8314 70.112 33.8313 70.112 33.8312C70.112 33.8311 70.112 33.831 70.112 33.8308C70.112 33.8307 70.112 33.8306 70.112 33.8305C70.112 33.8304 70.112 33.8303 70.112 33.8302C70.112 33.8301 70.112 33.83 70.112 33.8299C70.112 33.8297 70.112 33.8296 70.112 33.8295C70.112 33.8294 70.112 33.8293 70.112 33.8292C70.112 33.8291 70.112 33.829 70.112 33.8289C70.112 33.8288 70.112 33.8287 70.112 33.8285C70.112 33.8284 70.112 33.8283 70.112 33.8282C70.112 33.8281 70.112 33.828 70.112 33.8279C70.112 33.8278 70.112 33.8277 70.112 33.8276C70.112 33.8275 70.112 33.8273 70.112 33.8272C70.112 33.8271 70.112 33.827 70.112 33.8269C70.112 33.8268 70.112 33.8267 70.112 33.8266C70.112 33.8265 70.112 33.8264 70.112 33.8262C70.112 33.8261 70.112 33.826 70.112 33.8259C70.112 33.8258 70.112 33.8257 70.112 33.8256C70.112 33.8255 70.112 33.8254 70.112 33.8253C70.112 33.8252 70.112 33.825 70.112 33.8249C70.112 33.8248 70.112 33.8247 70.112 33.8246C70.112 33.8245 70.112 33.8244 70.112 33.8243C70.112 33.8242 70.112 33.8241 70.112 33.824C70.112 33.8238 70.112 33.8237 70.112 33.8236C70.112 33.8235 70.112 33.8234 70.112 33.8233C70.112 33.8232 70.112 33.8231 70.112 33.823C70.112 33.8229 70.112 33.8227 70.112 33.8226C70.112 33.8225 70.112 33.8224 70.112 33.8223C70.112 33.8222 70.112 33.8221 70.112 33.822C70.112 33.8219 70.112 33.8218 70.112 33.8217C70.112 33.8215 70.112 33.8214 70.112 33.8213C70.112 33.8212 70.112 33.8211 70.112 33.821C70.112 33.8209 70.112 33.8208 70.112 33.8207C70.112 33.8206 70.112 33.8205 70.112 33.8203C70.112 33.8202 70.112 33.8201 70.112 33.82C70.112 33.8199 70.112 33.8198 70.112 33.8197C70.112 33.8196 70.112 33.8195 70.112 33.8194C70.112 33.8192 70.112 33.8191 70.112 33.819C70.112 33.8189 70.112 33.8188 70.112 33.8187C70.112 33.8186 70.112 33.8185 70.112 33.8184C70.112 33.8183 70.112 33.8182 70.112 33.818C70.112 33.8179 70.112 33.8178 70.112 33.8177C70.112 33.8176 70.112 33.8175 70.112 33.8174C70.112 33.8173 70.112 33.8172 70.112 33.8171C70.112 33.817 70.112 33.8168 70.112 33.8167C70.112 33.8166 70.112 33.8165 70.112 33.8164C70.112 33.8163 70.112 33.8162 70.112 33.8161C70.112 33.816 70.112 33.8159 70.112 33.8157C70.112 33.8156 70.112 33.8155 70.112 33.8154C70.112 33.8153 70.112 33.8152 70.112 33.8151C70.112 33.815 70.112 33.8149 70.112 33.8148C70.112 33.8147 70.112 33.8145 70.112 33.8144C70.112 33.8143 70.112 33.8142 70.112 33.8141C70.112 33.814 70.112 33.8139 70.112 33.8138C70.112 33.8137 70.112 33.8136 70.112 33.8135C70.112 33.8133 70.112 33.8132 70.112 33.8131C70.112 33.813 70.112 33.8129 70.112 33.8128C70.112 33.8127 70.112 33.8126 70.112 33.8125C70.112 33.8124 70.112 33.8122 70.112 33.8121C70.112 33.812 70.112 33.8119 70.112 33.8118C70.112 33.8117 70.112 33.8116 70.112 33.8115C70.112 33.8114 70.112 33.8113 70.112 33.8112C70.112 33.811 70.112 33.8109 70.112 33.8108C70.112 33.8107 70.112 33.8106 70.112 33.8105C70.112 33.8104 70.112 33.8103 70.112 33.8102C70.112 33.8101 70.112 33.81 70.112 33.8098C70.112 33.8097 70.112 33.8096 70.112 33.8095C70.112 33.8094 70.112 33.8093 70.112 33.8092C70.112 33.8091 70.112 33.809 70.112 33.8089C70.112 33.8087 70.112 33.8086 70.112 33.8085C70.112 33.8084 70.112 33.8083 70.112 33.8082C70.112 33.8081 70.112 33.808 70.112 33.8079C70.112 33.8078 70.112 33.8077 70.112 33.8075C70.112 33.8074 70.112 33.8073 70.112 33.8072C70.112 33.8071 70.112 33.807 70.112 33.8069C70.112 33.8068 70.112 33.8067 70.112 33.8066C70.112 33.8065 70.112 33.8063 70.112 33.8062C70.112 33.8061 70.112 33.806 70.112 33.8059C70.112 33.8058 70.112 33.8057 70.112 33.8056C70.112 33.8055 70.112 33.8054 70.112 33.8052C70.112 33.8051 70.112 33.805 70.112 33.8049C70.112 33.8048 70.112 33.8047 70.112 33.8046C70.112 33.8045 70.112 33.8044 70.112 33.8043C70.112 33.8042 70.112 33.804 70.112 33.8039C70.112 33.8038 70.112 33.8037 70.112 33.8036C70.112 33.8035 70.112 33.8034 70.112 33.8033C70.112 33.8032 70.112 33.8031 70.112 33.803C70.112 33.8028 70.112 33.8027 70.112 33.8026C70.112 33.8025 70.112 33.8024 70.112 33.8023C70.112 33.8022 70.112 33.8021 70.112 33.802C70.112 33.8019 70.112 33.8017 70.112 33.8016C70.112 33.8015 70.112 33.8014 70.112 33.8013C70.112 33.8012 70.112 33.8011 70.112 33.801C70.112 33.8009 70.112 33.8008 70.112 33.8007C70.112 33.8005 70.112 33.8004 70.112 33.8003C70.112 33.8002 70.112 33.8001 70.112 33.8C70.112 33.7999 70.112 33.7998 70.112 33.7997C70.112 33.7996 70.112 33.7995 70.112 33.7993C70.112 33.7992 70.112 33.7991 70.112 33.799C70.112 33.7989 70.112 33.7988 70.112 33.7987C70.112 33.7986 70.112 33.7985 70.112 33.7984C70.112 33.7982 70.112 33.7981 70.112 33.798C70.112 33.7979 70.112 33.7978 70.112 33.7977C70.112 33.7976 70.112 33.7975 70.112 33.7974C70.112 33.7973 70.112 33.7972 70.112 33.797C70.112 33.7969 70.112 33.7968 70.112 33.7967C70.112 33.7966 70.112 33.7965 70.112 33.7964C70.112 33.7963 70.112 33.7962 70.112 33.7961C70.112 33.796 70.112 33.7958 70.112 33.7957C70.112 33.7956 70.112 33.7955 70.112 33.7954C70.112 33.7953 70.112 33.7952 70.112 33.7951C70.112 33.795 70.112 33.7949 70.112 33.7947C70.112 33.7946 70.112 33.7945 70.112 33.7944C70.112 33.7943 70.112 33.7942 70.112 33.7941C70.112 33.794 70.112 33.7939 70.112 33.7938C70.112 33.7937 70.112 33.7935 70.112 33.7934C70.112 33.7933 70.112 33.7932 70.112 33.7931C70.112 33.793 70.112 33.7929 70.112 33.7928C70.112 33.7927 70.112 33.7926 70.112 33.7925C70.112 33.7923 70.112 33.7922 70.112 33.7921C70.112 33.792 70.112 33.7919 70.112 33.7918C70.112 33.7917 70.112 33.7916 70.112 33.7915C70.112 33.7914 70.112 33.7912 70.112 33.7911C70.112 33.791 70.112 33.7909 70.112 33.7908C70.112 33.7907 70.112 33.7906 70.112 33.7905C70.112 33.7904 70.112 33.7903 70.112 33.7902C70.112 33.79 70.112 33.7899 70.112 33.7898C70.112 33.7897 70.112 33.7896 70.112 33.7895C70.112 33.7894 70.112 33.7893 70.112 33.7892C70.112 33.7891 70.112 33.789 70.112 33.7888C70.112 33.7887 70.112 33.7886 70.112 33.7885C70.112 33.7884 70.112 33.7883 70.112 33.7882C70.112 33.7881 70.112 33.788 70.112 33.7879C70.112 33.7877 70.112 33.7876 70.112 33.7875C70.112 33.7874 70.112 33.7873 70.112 33.7872C70.112 33.7871 70.112 33.787 70.112 33.7869C70.112 33.7868 70.112 33.7867 70.112 33.7865C70.112 33.7864 70.112 33.7863 70.112 33.7862C70.112 33.7861 70.112 33.786 70.112 33.7859C70.112 33.7858 70.112 33.7857 70.112 33.7856C70.112 33.7855 70.112 33.7853 70.112 33.7852C70.112 33.7851 70.112 33.785 70.112 33.7849C70.112 33.7848 70.112 33.7847 70.112 33.7846C70.112 33.7845 70.112 33.7844 70.112 33.7842C70.112 33.7841 70.112 33.784 70.112 33.7839C70.112 33.7838 70.112 33.7837 70.112 33.7836C70.112 33.7835 70.112 33.7834 70.112 33.7833C70.112 33.7832 70.112 33.783 70.112 33.7829C70.112 33.7828 70.112 33.7827 70.112 33.7826C70.112 33.7825 70.112 33.7824 70.112 33.7823C70.112 33.7822 70.112 33.7821 70.112 33.782C70.112 33.7818 70.112 33.7817 70.112 33.7816C70.112 33.7815 70.112 33.7814 70.112 33.7813C70.112 33.7812 70.112 33.7811 70.112 33.781C70.112 33.7809 70.112 33.7807 70.112 33.7806C70.112 33.7805 70.112 33.7804 70.112 33.7803C70.112 33.7802 70.112 33.7801 70.112 33.78C70.112 33.7799 70.112 33.7798 70.112 33.7797C70.112 33.7795 70.112 33.7794 70.112 33.7793C70.112 33.7792 70.112 33.7791 70.112 33.779C70.112 33.7789 70.112 33.7788 70.112 33.7787C70.112 33.7786 70.112 33.7785 70.112 33.7783C70.112 33.7782 70.112 33.7781 70.112 33.778C70.112 33.7779 70.112 33.7778 70.112 33.7777C70.112 33.7776 70.112 33.7775 70.112 33.7774C70.112 33.7772 70.112 33.7771 70.112 33.777C70.112 33.7769 70.112 33.7768 70.112 33.7767C70.112 33.7766 70.112 33.7765 70.112 33.7764C70.112 33.7763 70.112 33.7762 70.112 33.776C70.112 33.7759 70.112 33.7758 70.112 33.7757C70.112 33.7756 70.112 33.7755 70.112 33.7754C70.112 33.7753 70.112 33.7752 70.112 33.7751C70.112 33.775 70.112 33.7748 70.112 33.7747C70.112 33.7746 70.112 33.7745 70.112 33.7744C70.112 33.7743 70.112 33.7742 70.112 33.7741C70.112 33.774 70.112 33.7739 70.112 33.7737C70.112 33.7736 70.112 33.7735 70.112 33.7734C70.112 33.7733 70.112 33.7732 70.112 33.7731C70.112 33.773 70.112 33.7729 70.112 33.7728C70.112 33.7727 70.112 33.7725 70.112 33.7724C70.112 33.7723 70.112 33.7722 70.112 33.7721C70.112 33.772 70.112 33.7719 70.112 33.7718C70.112 33.7717 70.112 33.7716 70.112 33.7715C70.112 33.7713 70.112 33.7712 70.112 33.7711C70.112 33.771 70.112 33.7709 70.112 33.7708C70.112 33.7707 70.112 33.7706 70.112 33.7705C70.112 33.7704 70.112 33.7702 70.112 33.7701C70.112 33.77 70.112 33.7699 70.112 33.7698C70.112 33.7697 70.112 33.7696 70.112 33.7695C70.112 33.7694 70.112 33.7693 70.112 33.7692C70.112 33.769 70.112 33.7689 70.112 33.7688C70.112 33.7687 70.112 33.7686 70.112 33.7685C70.112 33.7684 70.112 33.7683 70.112 33.7682C70.112 33.7681 70.112 33.768 70.112 33.7678C70.112 33.7677 70.112 33.7676 70.112 33.7675C70.112 33.7674 70.112 33.7673 70.112 33.7672C70.112 33.7671 70.112 33.767 70.112 33.7669C70.112 33.7667 70.112 33.7666 70.112 33.7665C70.112 33.7664 70.112 33.7663 70.112 33.7662C70.112 33.7661 70.112 33.766 70.112 33.7659C70.112 33.7658 70.112 33.7657 70.112 33.7655C70.112 33.7654 70.112 33.7653 70.112 33.7652C70.112 33.7651 70.112 33.765 70.112 33.7649C70.112 33.7648 70.112 33.7647 70.112 33.7646C70.112 33.7645 70.112 33.7643 70.112 33.7642C70.112 33.7641 70.112 33.764 70.112 33.7639C70.112 33.7638 70.112 33.7637 70.112 33.7636C70.112 33.7635 70.112 33.7634 70.112 33.7632C70.112 33.7631 70.112 33.763 70.112 33.7629C70.112 33.7628 70.112 33.7627 70.112 33.7626C70.112 33.7625 70.112 33.7624 70.112 33.7623C70.112 33.7622 70.112 33.762 70.112 33.7619C70.112 33.7618 70.112 33.7617 70.112 33.7616C70.112 33.7615 70.112 33.7614 70.112 33.7613C70.112 33.7612 70.112 33.7611 70.112 33.761C70.112 33.7608 70.112 33.7607 70.112 33.7606C70.112 33.7605 70.112 33.7604 70.112 33.7603C70.112 33.7602 70.112 33.7601 70.112 33.76C70.112 33.7599 70.112 33.7597 70.112 33.7596C70.112 33.7595 70.112 33.7594 70.112 33.7593C70.112 33.7592 70.112 33.7591 70.112 33.759C70.112 33.7589 70.112 33.7588 70.112 33.7587C70.112 33.7585 70.112 33.7584 70.112 33.7583C70.112 33.7582 70.112 33.7581 70.112 33.758C70.112 33.7579 70.112 33.7578 70.112 33.7577C70.112 33.7576 70.112 33.7575 70.112 33.7573C70.112 33.7572 70.112 33.7571 70.112 33.757C70.112 33.7569 70.112 33.7568 70.112 33.7567C70.112 33.7566 70.112 33.7565 70.112 33.7564C70.112 33.7562 70.112 33.7561 70.112 33.756C70.112 33.7559 70.112 33.7558 70.112 33.7557C70.112 33.7556 70.112 33.7555 70.112 33.7554C70.112 33.7553 70.112 33.7552 70.112 33.755C70.112 33.7549 70.112 33.7548 70.112 33.7547C70.112 33.7546 70.112 33.7545 70.112 33.7544C70.112 33.7543 70.112 33.7542 70.112 33.7541C70.112 33.754 70.112 33.7538 70.112 33.7537C70.112 33.7536 70.112 33.7535 70.112 33.7534C70.112 33.7533 70.112 33.7532 70.112 33.7531C70.112 33.753 70.112 33.7529 70.112 33.7527C70.112 33.7526 70.112 33.7525 70.112 33.7524C70.112 33.7523 70.112 33.7522 70.112 33.7521C70.112 33.752 70.112 33.7519 70.112 33.7518C70.112 33.7517 70.112 33.7515 70.112 33.7514C70.112 33.7513 70.112 33.7512 70.112 33.7511C70.112 33.751 70.112 33.7509 70.112 33.7508C70.112 33.7507 70.112 33.7506 70.112 33.7505C70.112 33.7503 70.112 33.7502 70.112 33.7501C70.112 33.75 70.112 33.7499 70.112 33.7498C70.112 33.7497 70.112 33.7496 70.112 33.7495C70.112 33.7494 70.112 33.7492 70.112 33.7491C70.112 33.749 70.112 33.7489 70.112 33.7488C70.112 33.7487 70.112 33.7486 70.112 33.7485C70.112 33.7484 70.112 33.7483 70.112 33.7482C70.112 33.748 70.112 33.7479 70.112 33.7478C70.112 33.7477 70.112 33.7476 70.112 33.7475C70.112 33.7474 70.112 33.7473 70.112 33.7472C70.112 33.7471 70.112 33.747 70.112 33.7468C70.112 33.7467 70.112 33.7466 70.112 33.7465C70.112 33.7464 70.112 33.7463 70.112 33.7462C70.112 33.7461 70.112 33.746 70.112 33.7459C70.112 33.7457 70.112 33.7456 70.112 33.7455C70.112 33.7454 70.112 33.7453 70.112 33.7452C70.112 33.7451 70.112 33.745 70.112 33.7449C70.112 33.7448 70.112 33.7447 70.112 33.7445C70.112 33.7444 70.112 33.7443 70.112 33.7442C70.112 33.7441 70.112 33.744 70.112 33.7439C70.112 33.7438 70.112 33.7437 70.112 33.7436C70.112 33.7435 70.112 33.7433 70.112 33.7432C70.112 33.7431 70.112 33.743 70.112 33.7429C70.112 33.7428 70.112 33.7427 70.112 33.7426C70.112 33.7425 70.112 33.7424 70.112 33.7422C70.112 33.7421 70.112 33.742 70.112 33.7419C70.112 33.7418 70.112 33.7417 70.112 33.7416C70.112 33.7415 70.112 33.7414 70.112 33.7413C70.112 33.7412 70.112 33.741 70.112 33.7409C70.112 33.7408 70.112 33.7407 70.112 33.7406C70.112 33.7405 70.112 33.7404 70.112 33.7403C70.112 33.7402 70.112 33.7401 70.112 33.74C70.112 33.7398 70.112 33.7397 70.112 33.7396C70.112 33.7395 70.112 33.7394 70.112 33.7393C70.112 33.7392 70.112 33.7391 70.112 33.739C70.112 33.7389 70.112 33.7387 70.112 33.7386C70.112 33.7385 70.112 33.7384 70.112 33.7383C70.112 33.7382 70.112 33.7381 70.112 33.738C70.112 33.7379 70.112 33.7378 70.112 33.7377C70.112 33.7375 70.112 33.7374 70.112 33.7373C70.112 33.7372 70.112 33.7371 70.112 33.737C70.112 33.7369 70.112 33.7368 70.112 33.7367C70.112 33.7366 70.112 33.7365 70.112 33.7363C70.112 33.7362 70.112 33.7361 70.112 33.736C70.112 33.7359 70.112 33.7358 70.112 33.7357C70.112 33.7356 70.112 33.7355 70.112 33.7354C70.112 33.7352 70.112 33.7351 70.112 33.735C70.112 33.7349 70.112 33.7348 70.112 33.7347C70.112 33.7346 70.112 33.7345 70.112 33.7344C70.112 33.7343 70.112 33.7342 70.112 33.734C70.112 33.7339 70.112 33.7338 70.112 33.7337C70.112 33.7336 70.112 33.7335 70.112 33.7334C70.112 33.7333 70.112 33.7332 70.112 33.7331C70.112 33.733 70.112 33.7328 70.112 33.7327C70.112 33.7326 70.112 33.7325 70.112 33.7324C70.112 33.7323 70.112 33.7322 70.112 33.7321C70.112 33.732 70.112 33.7319 70.112 33.7317C70.112 33.7316 70.112 33.7315 70.112 33.7314C70.112 33.7313 70.112 33.7312 70.112 33.7311C70.112 33.731 70.112 33.7309 70.112 33.7308C70.112 33.7307 70.112 33.7305 70.112 33.7304C70.112 33.7303 70.112 33.7302 70.112 33.7301C70.112 33.73 70.112 33.7299 70.112 33.7298C70.112 33.7297 70.112 33.7296 70.112 33.7295C70.112 33.7293 70.112 33.7292 70.112 33.7291C70.112 33.729 70.112 33.7289 70.112 33.7288C70.112 33.7287 70.112 33.7286 70.112 33.7285C70.112 33.7284 70.112 33.7282 70.112 33.7281C70.112 33.728 70.112 33.7279 70.112 33.7278C70.112 33.7277 70.112 33.7276 70.112 33.7275C70.112 33.7274 70.112 33.7273 70.112 33.7272C70.112 33.727 70.112 33.7269 70.112 33.7268C70.112 33.7267 70.112 33.7266 70.112 33.7265C70.112 33.7264 70.112 33.7263 70.112 33.7262C70.112 33.7261 70.112 33.726 70.112 33.7258C70.112 33.7257 70.112 33.7256 70.112 33.7255C70.112 33.7254 70.112 33.7253 70.112 33.7252C70.112 33.7251 70.112 33.725 70.112 33.7249C70.112 33.7247 70.112 33.7246 70.112 33.7245C70.112 33.7244 70.112 33.7243 70.112 33.7242C70.112 33.7241 70.112 33.724 70.112 33.7239C70.112 33.7238 70.112 33.7237 70.112 33.7235C70.112 33.7234 70.112 33.7233 70.112 33.7232C70.112 33.7231 70.112 33.723 70.112 33.7229C70.112 33.7228 70.112 33.7227 70.112 33.7226C70.112 33.7225 70.112 33.7223 70.112 33.7222C70.112 33.7221 70.112 33.722 70.112 33.7219C70.112 33.7218 70.112 33.7217 70.112 33.7216C70.112 33.7215 70.112 33.7214 70.112 33.7212C70.112 33.7211 70.112 33.721 70.112 33.7209C70.112 33.7208 70.112 33.7207 70.112 33.7206C70.112 33.7205 70.112 33.7204 70.112 33.7203C70.112 33.7202 70.112 33.72 70.112 33.7199C70.112 33.7198 70.112 33.7197 70.112 33.7196C70.112 33.7195 70.112 33.7194 70.112 33.7193C70.112 33.7192 70.112 33.7191 70.112 33.719C70.112 33.7188 70.112 33.7187 70.112 33.7186C70.112 33.7185 70.112 33.7184 70.112 33.7183C70.112 33.7182 70.112 33.7181 70.112 33.718C70.112 33.7179 70.112 33.7177 70.112 33.7176C70.112 33.7175 70.112 33.7174 70.112 33.7173C70.112 33.7172 70.112 33.7171 70.112 33.717C70.112 33.7169 70.112 33.7168 70.112 33.7167C70.112 33.7165 70.112 33.7164 70.112 33.7163C70.112 33.7162 70.112 33.7161 70.112 33.716H69.412ZM69.412 33.884H68.712C68.712 34.4061 68.544 35.1393 68.1477 36.1119L68.796 36.376L69.4443 36.6401C69.8694 35.5967 70.112 34.6686 70.112 33.884H69.412ZM68.796 36.376L68.1495 36.1076C67.9474 36.5945 67.7817 36.9573 67.6513 37.2054C67.5858 37.33 67.5357 37.4133 67.5006 37.4641C67.4539 37.5319 67.4661 37.4946 67.5397 37.4456L67.928 38.028L68.3163 38.6104C68.4739 38.5054 68.5853 38.3572 68.6529 38.2594C68.7321 38.1445 68.8115 38.0073 68.8907 37.8566C69.0497 37.554 69.234 37.1468 69.4425 36.6444L68.796 36.376ZM67.928 38.028L68.2488 37.4058C66.9933 36.7585 65.808 36.404 64.708 36.404V37.104V37.804C65.512 37.804 66.4734 38.0655 67.6072 38.6502L67.928 38.028ZM64.708 37.104V36.404C64.1783 36.404 63.655 36.4956 63.249 36.7879C62.8004 37.1109 62.608 37.5942 62.608 38.112H63.308H64.008C64.008 38.0246 64.0231 37.9816 64.0307 37.9651C64.0366 37.9523 64.0445 37.9403 64.067 37.9241C64.1276 37.8804 64.3043 37.804 64.708 37.804V37.104ZM63.308 38.112H62.608C62.608 38.9737 63.3299 39.5084 64.0518 39.8401L64.344 39.204L64.6363 38.5679C64.3344 38.4292 64.1629 38.3041 64.0748 38.2112C64.0334 38.1676 64.0176 38.1386 64.0121 38.1262C64.0076 38.1161 64.008 38.1132 64.008 38.112H63.308ZM64.344 39.204L64.031 39.8301C64.1888 39.909 64.4102 40.0148 64.692 40.1463L64.988 39.512L65.284 38.8777C65.0058 38.7478 64.7979 38.6483 64.6571 38.5779L64.344 39.204ZM64.988 39.512L64.692 40.1463C64.9594 40.2711 65.2665 40.4245 65.614 40.6074L65.94 39.988L66.266 39.3686C65.9042 39.1781 65.5766 39.0142 65.284 38.8777L64.988 39.512ZM65.94 39.988L65.6527 40.6263C65.9818 40.7744 66.338 40.9767 66.7217 41.2384L67.116 40.66L67.5103 40.0816C67.0727 39.7833 66.6449 39.5376 66.2273 39.3497L65.94 39.988ZM67.116 40.66L66.752 41.2579C67.1316 41.489 67.552 41.8126 68.0132 42.2384L68.488 41.724L68.9628 41.2096C68.4533 40.7394 67.959 40.3537 67.48 40.0621L67.116 40.66ZM68.488 41.724L68.0076 42.2332C68.8385 43.017 69.272 44.0554 69.272 45.42H69.972H70.672C70.672 43.7232 70.1161 42.2976 68.9684 41.2148L68.488 41.724ZM69.972 45.42H69.272C69.272 47.2822 68.7621 48.7424 67.7913 49.8613L68.32 50.32L68.8487 50.7787C70.0806 49.359 70.672 47.5525 70.672 45.42H69.972ZM68.32 50.32L67.7913 49.8613C66.8629 50.9312 65.3857 51.5448 63.2126 51.5801L63.224 52.28L63.2354 52.9799C65.6543 52.9406 67.5744 52.2475 68.8487 50.7787L68.32 50.32ZM63.224 52.28V51.58C62.142 51.58 61.1725 51.4898 60.312 51.3141L60.172 52L60.032 52.6859C61.0008 52.8836 62.066 52.98 63.224 52.98V52.28ZM60.172 52L60.3148 51.3147C59.5205 51.1492 58.8396 50.8305 58.2591 50.3629L57.82 50.908L57.3809 51.4531C58.1444 52.0682 59.0315 52.4774 60.0292 52.6853L60.172 52ZM57.82 50.908L58.2591 50.3629C57.7283 49.9353 57.512 49.4727 57.512 48.948H56.812H56.112C56.112 49.9539 56.5677 50.7981 57.3809 51.4531L57.82 50.908ZM56.812 48.948H57.512C57.512 48.2701 57.6356 47.5972 57.8874 46.9258L57.232 46.68L56.5766 46.4342C56.2684 47.2561 56.112 48.0952 56.112 48.948H56.812ZM57.232 46.68L57.8894 46.9205C58.1624 46.1743 58.4053 45.8372 58.5532 45.7241L58.128 45.168L57.7028 44.6119C57.2161 44.9842 56.8616 45.6551 56.5746 46.4395L57.232 46.68ZM79.499 47.156L79.9004 47.7295L80.199 47.5205V47.156H79.499ZM84.259 47.352H83.559V48.052H84.259V47.352ZM85.547 51.048L86.1843 51.3377L86.1895 51.3262L86.1943 51.3145L85.547 51.048ZM81.263 50.74L81.868 50.388L81.4109 49.6022L80.768 50.245L81.263 50.74ZM81.235 50.768L81.699 51.2921L81.7149 51.278L81.73 51.263L81.235 50.768ZM73.563 50.936L73.0526 51.4151L73.0576 51.4203L73.563 50.936ZM72.275 38.168H72.975C72.975 38.3988 72.8539 38.5508 72.7796 38.6173C72.7148 38.6753 72.6639 38.6915 72.6763 38.6868C72.6971 38.6788 72.781 38.655 72.9658 38.6313C73.3214 38.5859 73.8872 38.56 74.683 38.56V37.86V37.16C73.8735 37.16 73.2352 37.1855 72.7882 37.2427C72.5716 37.2704 72.3546 37.3107 72.1747 37.3797C72.0868 37.4135 71.9606 37.4714 71.8457 37.5743C71.7212 37.6858 71.575 37.8859 71.575 38.168H72.275ZM74.683 37.86V38.56C75.4788 38.56 76.0446 38.5859 76.4002 38.6313C76.585 38.655 76.6689 38.6788 76.6897 38.6868C76.7021 38.6915 76.6512 38.6753 76.5864 38.6173C76.5121 38.5508 76.391 38.3988 76.391 38.168H77.091H77.791C77.791 37.8859 77.6448 37.6858 77.5203 37.5743C77.4054 37.4714 77.2793 37.4135 77.1913 37.3797C77.0114 37.3107 76.7944 37.2704 76.5778 37.2427C76.1308 37.1855 75.4925 37.16 74.683 37.16V37.86ZM77.091 38.168H76.391V46.344H77.091H77.791V38.168H77.091ZM77.091 46.344H76.391C76.391 46.8628 76.4699 47.3722 76.7254 47.7713C77.015 48.2238 77.4719 48.444 77.987 48.444V47.744V47.044C77.9298 47.044 77.9138 47.0333 77.9184 47.0357C77.9252 47.0392 77.9199 47.0405 77.9046 47.0167C77.8614 46.9492 77.791 46.7585 77.791 46.344H77.091ZM77.987 47.744V48.444C78.636 48.444 79.2807 48.1633 79.9004 47.7295L79.499 47.156L79.0976 46.5825C78.5973 46.9327 78.234 47.044 77.987 47.044V47.744ZM79.499 47.156H80.199V38.168H79.499H78.799V47.156H79.499ZM79.499 38.168H80.199C80.199 38.4247 80.0538 38.5829 79.9812 38.6427C79.9154 38.6969 79.8656 38.7109 79.8807 38.7056C79.9051 38.697 79.9918 38.6749 80.1758 38.6532C80.5303 38.6115 81.0919 38.588 81.879 38.588V37.888V37.188C81.0794 37.188 80.451 37.2112 80.0122 37.2628C79.7996 37.2878 79.5888 37.324 79.4148 37.3854C79.3308 37.4151 79.2065 37.467 79.0912 37.562C78.969 37.6626 78.799 37.8646 78.799 38.168H79.499ZM81.879 37.888V38.588C82.6661 38.588 83.2277 38.6115 83.5822 38.6532C83.7662 38.6749 83.8529 38.697 83.8773 38.7056C83.8924 38.7109 83.8426 38.6969 83.7768 38.6427C83.7042 38.5829 83.559 38.4247 83.559 38.168H84.259H84.959C84.959 37.8646 84.789 37.6626 84.6668 37.562C84.5515 37.467 84.4272 37.4151 84.3432 37.3854C84.1692 37.324 83.9584 37.2878 83.7458 37.2628C83.307 37.2112 82.6786 37.188 81.879 37.188V37.888ZM84.259 38.168H83.559V47.352H84.259H84.959V38.168H84.259ZM84.259 47.352V48.052H84.987V47.352V46.652H84.259V47.352ZM84.987 47.352V48.052C85.0103 48.052 85.0222 48.0547 85.0257 48.0557C85.0276 48.0562 85.0282 48.0565 85.028 48.0564C85.0279 48.0564 85.0278 48.0563 85.0276 48.0562C85.0275 48.0562 85.0274 48.0562 85.0274 48.0561C85.0273 48.0561 85.0273 48.0561 85.0273 48.0561C85.0273 48.0561 85.0274 48.0561 85.0275 48.0562C85.0275 48.0562 85.0277 48.0563 85.0279 48.0565C85.0283 48.0568 85.0289 48.0573 85.0299 48.0581C85.0317 48.0597 85.035 48.0628 85.0395 48.0679C85.0485 48.0783 85.0632 48.0979 85.0807 48.1314C85.1608 48.2846 85.239 48.6036 85.239 49.172H85.939H86.639C86.639 48.5271 86.5585 47.9361 86.3213 47.4826C86.1973 47.2455 86.0218 47.0297 85.7797 46.8754C85.5347 46.7193 85.2619 46.652 84.987 46.652V47.352ZM85.939 49.172H85.239C85.239 49.6867 85.1302 50.2217 84.8997 50.7815L85.547 51.048L86.1943 51.3145C86.4864 50.605 86.639 49.8893 86.639 49.172H85.939ZM85.547 51.048L84.9097 50.7583C84.5944 51.4521 84.2822 51.58 84.035 51.58V52.28V52.98C85.0571 52.98 85.7529 52.2866 86.1843 51.3377L85.547 51.048ZM84.035 52.28V51.58C83.0174 51.58 82.3321 51.1856 81.868 50.388L81.263 50.74L80.658 51.092C81.3886 52.3478 82.5513 52.98 84.035 52.98V52.28ZM81.263 50.74L80.768 50.245L80.74 50.273L81.235 50.768L81.73 51.263L81.758 51.235L81.263 50.74ZM81.235 50.768L80.771 50.2439C79.7381 51.1583 78.6752 51.58 77.567 51.58V52.28V52.98C79.0722 52.98 80.4546 52.3937 81.699 51.2921L81.235 50.768ZM77.567 52.28V51.58C75.8591 51.58 74.7445 51.1571 74.0684 50.4517L73.563 50.936L73.0576 51.4203C74.0989 52.5069 75.6536 52.98 77.567 52.98V52.28ZM73.563 50.936L74.0734 50.4569C73.3957 49.7351 72.975 48.4518 72.975 46.428H72.275H71.575C71.575 48.5855 72.0129 50.3076 73.0526 51.4151L73.563 50.936ZM72.275 46.428H72.975V38.168H72.275H71.575V46.428H72.275ZM92.9095 37.944H92.2095V38.7862L93.0375 38.6322L92.9095 37.944ZM98.6775 50.264L98.1547 49.7985L98.1543 49.7989L98.6775 50.264ZM88.0655 50.796H87.3655V51.1667L87.6721 51.375L88.0655 50.796ZM92.9095 42.396L92.5129 41.8192L92.2095 42.0278V42.396H92.9095ZM92.9095 47.744H92.2095V48.2056L92.6337 48.3874L92.9095 47.744ZM94.6175 47.576L94.2106 47.0064L94.204 47.0111L94.1975 47.016L94.6175 47.576ZM88.0655 32.484H88.7655C88.7655 32.6895 88.6659 32.834 88.5922 32.906C88.5581 32.9393 88.5284 32.9591 88.5123 32.9688C88.5037 32.974 88.4971 32.9775 88.4929 32.9796C88.4887 32.9817 88.4864 32.9827 88.4863 32.9827C88.4861 32.9828 88.4876 32.9821 88.4911 32.9809C88.4945 32.9797 88.4994 32.978 88.506 32.976C88.5195 32.9719 88.5381 32.9668 88.5627 32.9611C88.6123 32.9495 88.6787 32.9372 88.7642 32.9253C89.1158 32.8762 89.6783 32.848 90.4735 32.848V32.148V31.448C89.6633 31.448 89.0218 31.4758 88.5707 31.5387C88.3523 31.5692 88.1304 31.614 87.9457 31.6913C87.8541 31.7296 87.7272 31.7939 87.614 31.9045C87.4901 32.0255 87.3655 32.2225 87.3655 32.484H88.0655ZM90.4735 32.148V32.848C91.2774 32.848 91.8441 32.8786 92.197 32.9313C92.2827 32.9441 92.3487 32.9572 92.3977 32.9694C92.4219 32.9755 92.4401 32.9808 92.453 32.985C92.4661 32.9893 92.4715 32.9918 92.4709 32.9915C92.4706 32.9914 92.4602 32.9868 92.4434 32.9759C92.4269 32.9652 92.398 32.9445 92.3654 32.9104C92.2941 32.8358 92.2095 32.6984 92.2095 32.512H92.9095H93.6095C93.6095 31.9978 93.1792 31.7748 93.0436 31.714C92.854 31.629 92.6264 31.5799 92.4039 31.5467C91.9448 31.4781 91.2935 31.448 90.4735 31.448V32.148ZM92.9095 32.512H92.2095V37.944H92.9095H93.6095V32.512H92.9095ZM92.9095 37.944L93.0375 38.6322C93.8407 38.4828 94.3529 38.42 94.6175 38.42V37.72V37.02C94.21 37.02 93.5835 37.1066 92.7814 37.2558L92.9095 37.944ZM94.6175 37.72V38.42C96.4426 38.42 97.6913 38.9392 98.4997 39.8669C99.3241 40.813 99.7975 42.3047 99.7975 44.468H100.497H101.197C101.197 42.1326 100.691 40.2503 99.5552 38.9471C98.4036 37.6255 96.7124 37.02 94.6175 37.02V37.72ZM100.497 44.468H99.7975C99.7975 46.8617 99.2175 48.6049 98.1547 49.7985L98.6775 50.264L99.2003 50.7295C100.564 49.1978 101.197 47.077 101.197 44.468H100.497ZM98.6775 50.264L98.1543 49.7989C97.1229 50.9593 95.6257 51.58 93.5535 51.58V52.28V52.98C95.9239 52.98 97.8427 52.2567 99.2007 50.7291L98.6775 50.264ZM93.5535 52.28V51.58C91.4557 51.58 89.7727 51.1097 88.4589 50.217L88.0655 50.796L87.6721 51.375C89.2703 52.461 91.2459 52.98 93.5535 52.98V52.28ZM88.0655 50.796H88.7655V32.484H88.0655H87.3655V50.796H88.0655ZM93.8335 42.088V41.388C93.3551 41.388 92.9111 41.5454 92.5129 41.8192L92.9095 42.396L93.306 42.9728C93.5052 42.8359 93.6772 42.788 93.8335 42.788V42.088ZM92.9095 42.396H92.2095V47.744H92.9095H93.6095V42.396H92.9095ZM92.9095 47.744L92.6337 48.3874C92.9808 48.5362 93.3452 48.612 93.7215 48.612V47.912V47.212C93.5378 47.212 93.3608 47.1758 93.1852 47.1006L92.9095 47.744ZM93.7215 47.912V48.612C94.206 48.612 94.6484 48.4278 95.0375 48.136L94.6175 47.576L94.1975 47.016C93.9892 47.1722 93.8343 47.212 93.7215 47.212V47.912ZM94.6175 47.576L95.0243 48.1456C95.4545 47.8384 95.7183 47.3696 95.8757 46.8468C96.0334 46.3233 96.1015 45.691 96.1015 44.972H95.4015H94.7015C94.7015 45.6157 94.6389 46.0987 94.5352 46.4432C94.4313 46.7884 94.3032 46.9403 94.2106 47.0064L94.6175 47.576ZM95.4015 44.972H96.1015C96.1015 43.9701 95.9692 43.1088 95.6245 42.4746C95.4463 42.1471 95.2042 41.867 94.8853 41.6715C94.5648 41.475 94.2059 41.388 93.8335 41.388V42.088V42.788C93.9837 42.788 94.0821 42.8212 94.1536 42.865C94.2267 42.9099 94.3113 42.9903 94.3945 43.1434C94.5724 43.4706 94.7015 44.0512 94.7015 44.972H95.4015ZM108.464 42.872L108.032 42.3216L107.764 42.5318V42.872H108.464ZM103.676 42.648H104.376V41.948H103.676V42.648ZM102.388 38.952L103.044 39.1978L103.046 39.1912L102.388 38.952ZM105.776 38.252L105.427 38.8587L105.435 38.8631L105.776 38.252ZM106.924 39.26L106.277 39.5265L106.652 40.4373L107.389 39.7837L106.924 39.26ZM114.176 39.036L113.676 39.5256L114.138 39.9975L114.636 39.564L114.176 39.036ZM115.436 42.872L115.004 42.3216L114.736 42.5318V42.872H115.436ZM115.436 51.86H114.736C114.736 51.4767 115.029 51.3112 115.052 51.2977C115.111 51.264 115.148 51.2588 115.12 51.2657C115.075 51.2767 114.969 51.2937 114.778 51.3093C114.406 51.3396 113.827 51.356 113.028 51.356V52.056V52.756C113.835 52.756 114.46 52.7397 114.891 52.7047C115.101 52.6876 115.296 52.6638 115.452 52.6258C115.524 52.6082 115.636 52.5765 115.745 52.5141C115.819 52.4721 116.136 52.2759 116.136 51.86H115.436ZM113.028 52.056V51.356C112.241 51.356 111.676 51.3349 111.317 51.2969C111.131 51.2772 111.039 51.2567 111.009 51.2471C110.99 51.241 111.037 51.2522 111.102 51.3007C111.168 51.3494 111.348 51.5131 111.348 51.804H110.648H109.948C109.948 52.1369 110.153 52.34 110.269 52.4254C110.384 52.5107 110.505 52.556 110.585 52.5814C110.753 52.6348 110.959 52.6668 111.17 52.6891C111.604 52.7351 112.229 52.756 113.028 52.756V52.056ZM110.648 51.804H111.348V43.656H110.648H109.948V51.804H110.648ZM110.648 43.656H111.348C111.348 43.1345 111.266 42.6216 111.002 42.2204C110.703 41.7683 110.239 41.556 109.724 41.556V42.256V42.956C109.789 42.956 109.812 42.968 109.813 42.9683C109.814 42.9689 109.815 42.9693 109.817 42.9708C109.818 42.9725 109.824 42.9783 109.833 42.9916C109.876 43.0571 109.948 43.2441 109.948 43.656H110.648ZM109.724 42.256V41.556C109.151 41.556 108.567 41.9012 108.032 42.3216L108.464 42.872L108.897 43.4224C109.407 43.0215 109.663 42.956 109.724 42.956V42.256ZM108.464 42.872H107.764V51.832H108.464H109.164V42.872H108.464ZM108.464 51.832H107.764C107.764 51.5719 107.913 51.4132 107.985 51.3547C108.05 51.3014 108.099 51.2879 108.083 51.2936C108.057 51.3027 107.968 51.325 107.781 51.3467C107.422 51.3885 106.853 51.412 106.056 51.412V52.112V52.812C106.865 52.812 107.5 52.7888 107.943 52.7373C108.158 52.7123 108.37 52.6763 108.544 52.6154C108.629 52.5861 108.753 52.5347 108.869 52.4405C108.991 52.3413 109.164 52.1388 109.164 51.832H108.464ZM106.056 52.112V51.412C105.27 51.412 104.712 51.3861 104.361 51.3408C104.179 51.3172 104.097 51.2936 104.078 51.2862C104.067 51.2818 104.119 51.2986 104.183 51.3574C104.258 51.4251 104.376 51.5764 104.376 51.804H103.676H102.976C102.976 52.0829 103.119 52.2824 103.244 52.395C103.358 52.4987 103.484 52.5572 103.572 52.5913C103.751 52.6609 103.967 52.7015 104.182 52.7292C104.624 52.7865 105.256 52.812 106.056 52.812V52.112ZM103.676 51.804H104.376V42.648H103.676H102.976V51.804H103.676ZM103.676 42.648V41.948H102.976V42.648V43.348H103.676V42.648ZM102.976 42.648V41.948C102.951 41.948 102.959 41.9439 102.972 41.953C102.979 41.9579 102.953 41.9435 102.915 41.863C102.829 41.6833 102.752 41.3265 102.752 40.716H102.052H101.352C101.352 41.3935 101.43 42.0027 101.652 42.467C101.767 42.7085 101.934 42.9356 102.172 43.1015C102.416 43.2716 102.693 43.348 102.976 43.348V42.648ZM102.052 40.716H102.752C102.752 40.2294 102.846 39.7246 103.044 39.1978L102.388 38.952L101.733 38.7062C101.482 39.3741 101.352 40.0452 101.352 40.716H102.052ZM102.388 38.952L103.046 39.1912C103.169 38.8541 103.307 38.6648 103.429 38.5624C103.537 38.4704 103.664 38.42 103.844 38.42V37.72V37.02C103.353 37.02 102.901 37.1749 102.524 37.4936C102.16 37.8018 101.907 38.2285 101.73 38.7128L102.388 38.952ZM103.844 37.72V38.42C104.387 38.42 104.911 38.5615 105.427 38.8586L105.776 38.252L106.126 37.6454C105.41 37.2332 104.646 37.02 103.844 37.02V37.72ZM105.776 38.252L105.435 38.8631C106.058 39.2111 106.245 39.4483 106.277 39.5265L106.924 39.26L107.572 38.9935C107.342 38.437 106.764 38.0022 106.118 37.6409L105.776 38.252ZM106.924 39.26L107.389 39.7837C108.433 38.8577 109.55 38.42 110.76 38.42V37.72V37.02C109.171 37.02 107.731 37.6089 106.46 38.7363L106.924 39.26ZM110.76 37.72V38.42C112.023 38.42 112.97 38.804 113.676 39.5256L114.176 39.036L114.677 38.5464C113.666 37.5133 112.335 37.02 110.76 37.02V37.72ZM114.176 39.036L114.636 39.564C115.508 38.8048 116.555 38.42 117.816 38.42V37.72V37.02C116.24 37.02 114.86 37.5125 113.717 38.508L114.176 39.036ZM117.816 37.72V38.42C119.208 38.42 120.138 38.8371 120.74 39.5711C121.365 40.3316 121.736 41.55 121.736 43.348H122.436H123.136C123.136 41.394 122.738 39.7984 121.822 38.6829C120.885 37.5409 119.505 37.02 117.816 37.02V37.72ZM122.436 43.348H121.736V51.86H122.436H123.136V43.348H122.436ZM122.436 51.86H121.736C121.736 51.4767 122.029 51.3112 122.052 51.2977C122.111 51.264 122.148 51.2588 122.12 51.2657C122.075 51.2767 121.969 51.2937 121.778 51.3093C121.406 51.3396 120.827 51.356 120.028 51.356V52.056V52.756C120.835 52.756 121.46 52.7397 121.891 52.7047C122.101 52.6876 122.296 52.6638 122.452 52.6258C122.524 52.6082 122.636 52.5765 122.745 52.5141C122.819 52.4721 123.136 52.2759 123.136 51.86H122.436ZM120.028 52.056V51.356C119.241 51.356 118.676 51.3349 118.317 51.2969C118.131 51.2772 118.039 51.2567 118.009 51.2471C117.99 51.241 118.037 51.2522 118.102 51.3007C118.168 51.3494 118.348 51.5131 118.348 51.804H117.648H116.948C116.948 52.1369 117.153 52.34 117.269 52.4254C117.384 52.5107 117.505 52.556 117.585 52.5814C117.753 52.6348 117.959 52.6668 118.17 52.6891C118.604 52.7351 119.229 52.756 120.028 52.756V52.056ZM117.648 51.804H118.348V43.656H117.648H116.948V51.804H117.648ZM117.648 43.656H118.348C118.348 43.1345 118.266 42.6216 118.002 42.2204C117.703 41.7683 117.239 41.556 116.724 41.556V42.256V42.956C116.789 42.956 116.812 42.968 116.813 42.9683C116.814 42.9689 116.815 42.9693 116.817 42.9708C116.818 42.9725 116.824 42.9783 116.833 42.9916C116.876 43.0571 116.948 43.2441 116.948 43.656H117.648ZM116.724 42.256V41.556C116.138 41.556 115.548 41.8942 115.004 42.3216L115.436 42.872L115.869 43.4224C116.37 43.0285 116.638 42.956 116.724 42.956V42.256ZM115.436 42.872H114.736V51.86H115.436H116.136V42.872H115.436ZM130.223 51.832H129.523C129.523 51.474 129.783 51.3084 129.819 51.2866C129.878 51.2503 129.915 51.2449 129.885 51.2527C129.836 51.2654 129.723 51.2848 129.518 51.3026C129.12 51.3372 128.501 51.356 127.647 51.356V52.056V52.756C128.51 52.756 129.179 52.7374 129.639 52.6974C129.864 52.6778 130.072 52.6506 130.238 52.6073C130.316 52.5871 130.433 52.5514 130.546 52.4824C130.636 52.4279 130.923 52.2274 130.923 51.832H130.223ZM127.647 52.056V51.356C126.801 51.356 126.186 51.3396 125.789 51.3091C125.586 51.2934 125.469 51.276 125.415 51.2637C125.383 51.2561 125.415 51.2595 125.47 51.2896C125.479 51.2941 125.799 51.4568 125.799 51.86H125.099H124.399C124.399 52.2958 124.745 52.4892 124.807 52.5223C124.916 52.5809 125.027 52.6109 125.101 52.6278C125.259 52.6645 125.461 52.6879 125.682 52.7049C126.134 52.7397 126.793 52.756 127.647 52.756V52.056ZM125.099 51.86H125.799V38.112H125.099H124.399V51.86H125.099ZM125.099 38.112H125.799C125.799 38.5152 125.479 38.6779 125.47 38.6824C125.415 38.7125 125.383 38.7159 125.415 38.7083C125.469 38.696 125.586 38.6786 125.789 38.6629C126.186 38.6324 126.801 38.616 127.647 38.616V37.916V37.216C126.793 37.216 126.134 37.2323 125.682 37.2671C125.461 37.2841 125.259 37.3075 125.101 37.3442C125.027 37.3611 124.916 37.3911 124.807 37.4497C124.745 37.4828 124.399 37.6762 124.399 38.112H125.099ZM127.647 37.916V38.616C128.502 38.616 129.127 38.6301 129.533 38.6565C129.741 38.67 129.865 38.6854 129.927 38.6975C129.965 38.7048 129.941 38.7037 129.892 38.6814C129.869 38.6709 129.798 38.637 129.723 38.564C129.643 38.4853 129.523 38.3227 129.523 38.084H130.223H130.923C130.923 37.8313 130.796 37.6551 130.702 37.5633C130.614 37.4772 130.523 37.4306 130.473 37.4078C130.371 37.3611 130.266 37.3372 130.196 37.3235C130.043 37.2936 129.846 37.2739 129.624 37.2595C129.171 37.2299 128.509 37.216 127.647 37.216V37.916ZM130.223 38.084H129.523V51.832H130.223H130.923V38.084H130.223ZM130.223 36.432H129.523C129.523 36.025 129.848 35.8628 129.853 35.8601C129.909 35.8307 129.94 35.8276 129.906 35.8353C129.851 35.8479 129.732 35.8653 129.526 35.881C129.124 35.9116 128.501 35.928 127.647 35.928V36.628V37.328C128.509 37.328 129.175 37.3117 129.632 37.277C129.855 37.26 130.058 37.2366 130.218 37.2002C130.291 37.1834 130.403 37.1537 130.512 37.0958C130.57 37.0645 130.923 36.8717 130.923 36.432H130.223ZM127.647 36.628V35.928C126.801 35.928 126.183 35.9139 125.782 35.8875C125.577 35.874 125.454 35.8587 125.394 35.8468C125.357 35.8396 125.382 35.8409 125.432 35.8638C125.455 35.8747 125.527 35.9091 125.601 35.9826C125.681 36.0622 125.799 36.2241 125.799 36.46H125.099H124.399C124.399 36.7099 124.523 36.8853 124.616 36.978C124.704 37.0647 124.795 37.1118 124.845 37.1349C124.948 37.1823 125.052 37.2064 125.122 37.2202C125.274 37.2503 125.47 37.27 125.69 37.2845C126.138 37.3141 126.794 37.328 127.647 37.328V36.628ZM125.099 36.46H125.799V32.428H125.099H124.399V36.46H125.099ZM125.099 32.428H125.799C125.799 32.705 125.632 32.8657 125.565 32.9172C125.501 32.9664 125.456 32.9773 125.477 32.9703C125.512 32.9587 125.613 32.9357 125.812 32.9138C126.197 32.8715 126.803 32.848 127.647 32.848V32.148V31.448C126.792 31.448 126.123 31.4712 125.659 31.5222C125.434 31.547 125.216 31.5823 125.039 31.6407C124.954 31.6687 124.829 31.7175 124.712 31.8075C124.592 31.8999 124.399 32.1043 124.399 32.428H125.099ZM127.647 32.148V32.848C128.502 32.848 129.127 32.8621 129.533 32.8885C129.741 32.902 129.865 32.9174 129.927 32.9295C129.965 32.9368 129.941 32.9357 129.892 32.9134C129.869 32.9029 129.798 32.869 129.723 32.796C129.643 32.7173 129.523 32.5547 129.523 32.316H130.223H130.923C130.923 32.0633 130.796 31.8871 130.702 31.7953C130.614 31.7092 130.523 31.6626 130.473 31.6398C130.371 31.5931 130.266 31.5692 130.196 31.5555C130.043 31.5256 129.846 31.5059 129.624 31.4915C129.171 31.4619 128.509 31.448 127.647 31.448V32.148ZM130.223 32.316H129.523V36.432H130.223H130.923V32.316H130.223ZM137.123 52.168L137.095 52.8674L137.109 52.868H137.123V52.168ZM134.323 41.892H135.023V41.192H134.323V41.892ZM132.419 38.728L131.727 38.6216L131.725 38.6346L131.724 38.6478L132.419 38.728ZM134.323 38V38.7H135.023V38H134.323ZM139.055 37.216H138.355V37.2285L138.355 37.241L139.055 37.216ZM139.083 38L138.383 38.025L138.408 38.7H139.083V38ZM139.475 41.92V41.22H138.775V41.92H139.475ZM139.475 51.832H138.775C138.775 51.6323 138.87 51.4895 138.943 51.4158C138.977 51.3818 139.007 51.3614 139.024 51.351C139.041 51.3404 139.052 51.3358 139.052 51.3356C139.053 51.3352 139.048 51.3374 139.035 51.3414C139.023 51.3453 139.006 51.3502 138.982 51.3558C138.935 51.3671 138.871 51.3792 138.788 51.391C138.447 51.4398 137.899 51.468 137.123 51.468V52.168V52.868C137.915 52.868 138.543 52.8402 138.986 52.777C139.2 52.7463 139.42 52.7011 139.604 52.6224C139.721 52.5723 140.175 52.3582 140.175 51.832H139.475ZM137.123 52.168L137.151 51.4686C136.222 51.4314 135.548 51.3833 135.113 51.3268C134.89 51.2979 134.763 51.2706 134.705 51.2526C134.671 51.2421 134.703 51.2473 134.756 51.2833C134.79 51.3056 135.023 51.4684 135.023 51.804H134.323H133.623C133.623 52.1816 133.886 52.385 133.977 52.4464C134.089 52.5215 134.208 52.5642 134.291 52.5899C134.466 52.6442 134.689 52.6835 134.933 52.7152C135.431 52.78 136.157 52.8299 137.095 52.8674L137.123 52.168ZM134.323 51.804H135.023V41.892H134.323H133.623V51.804H134.323ZM134.323 41.892V41.192H132.895V41.892V42.592H134.323V41.892ZM132.895 41.892V41.192C133.034 41.192 133.136 41.2638 133.178 41.3119C133.202 41.3394 133.18 41.3274 133.147 41.2141C133.082 40.9896 133.035 40.5869 133.035 39.96H132.335H131.635C131.635 40.6211 131.681 41.1844 131.803 41.6039C131.863 41.8126 131.958 42.0421 132.122 42.2306C132.304 42.4397 132.569 42.592 132.895 42.592V41.892ZM132.335 39.96H133.035C133.035 39.6598 133.06 39.2777 133.114 38.8082L132.419 38.728L131.724 38.6478C131.666 39.1489 131.635 39.5882 131.635 39.96H132.335ZM132.419 38.728L133.111 38.8344C133.126 38.7356 133.143 38.6612 133.159 38.6075C133.175 38.5521 133.187 38.5311 133.186 38.5318C133.186 38.5319 133.163 38.5741 133.1 38.6182C133.029 38.6683 132.936 38.7 132.839 38.7V38V37.3C132.398 37.3 132.117 37.5833 131.974 37.8322C131.839 38.065 131.769 38.3478 131.727 38.6216L132.419 38.728ZM132.839 38V38.7H134.323V38V37.3H132.839V38ZM134.323 38H135.023V35.536H134.323H133.623V38H134.323ZM134.323 35.536H135.023C135.023 35.7327 134.904 35.8414 134.877 35.8606C134.868 35.867 134.914 35.8349 135.073 35.797C135.383 35.7232 135.905 35.676 136.675 35.676V34.976V34.276C135.877 34.276 135.223 34.3222 134.749 34.435C134.516 34.4905 134.268 34.575 134.063 34.7214C133.84 34.8806 133.623 35.1526 133.623 35.536H134.323ZM136.675 34.976V35.676C137.458 35.676 138 35.7137 138.331 35.7759C138.502 35.8082 138.562 35.8377 138.562 35.8375C138.559 35.8356 138.511 35.809 138.46 35.7422C138.402 35.6658 138.355 35.5547 138.355 35.424H139.055H139.755C139.755 34.9801 139.444 34.7279 139.25 34.6185C139.052 34.5063 138.814 34.4424 138.589 34.4001C138.127 34.313 137.479 34.276 136.675 34.276V34.976ZM139.055 35.424H138.355V37.216H139.055H139.755V35.424H139.055ZM139.055 37.216L138.355 37.241L138.383 38.025L139.083 38L139.783 37.975L139.755 37.191L139.055 37.216ZM139.083 38V38.7H141.463V38V37.3H139.083V38ZM141.463 38V38.7C141.258 38.7 141.138 38.579 141.105 38.5347C141.087 38.5091 141.109 38.5296 141.14 38.6552C141.199 38.8984 141.239 39.3205 141.239 39.96H141.939H142.639C142.639 39.2928 142.6 38.735 142.5 38.3248C142.451 38.1237 142.375 37.8992 142.237 37.7103C142.086 37.5026 141.826 37.3 141.463 37.3V38ZM141.939 39.96H141.239C141.239 40.5995 141.199 41.0216 141.14 41.2648C141.109 41.3904 141.087 41.4109 141.105 41.3853C141.138 41.341 141.258 41.22 141.463 41.22V41.92V42.62C141.826 42.62 142.086 42.4174 142.237 42.2097C142.375 42.0208 142.451 41.7963 142.5 41.5952C142.6 41.185 142.639 40.6272 142.639 39.96H141.939ZM141.463 41.92V41.22H139.475V41.92V42.62H141.463V41.92ZM139.475 41.92H138.775V51.832H139.475H140.175V41.92H139.475Z" fill="black" mask="url(#path-6-outside-1_1131_17481)"/>
</g>
<defs>
<filter id="filter0_dd_1131_17481" x="0.302734" y="0.000488281" width="201.595" height="84.4995" filterUnits="userSpaceOnUse" color-interpolation-filters="sRGB">
<feFlood flood-opacity="0" result="BackgroundImageFix"/>
<feColorMatrix in="SourceAlpha" type="matrix" values="0 0 0 0 0 0 0 0 0 0 0 0 0 0 0 0 0 0 127 0" result="hardAlpha"/>
<feOffset dx="0.2" dy="2.5"/>
<feComposite in2="hardAlpha" operator="out"/>
<feColorMatrix type="matrix" values="0 0 0 0 0 0 0 0 0 0 0 0 0 0 0 0 0 0 0.5 0"/>
<feBlend mode="normal" in2="BackgroundImageFix" result="effect1_dropShadow_1131_17481"/>
<feColorMatrix in="SourceAlpha" type="matrix" values="0 0 0 0 0 0 0 0 0 0 0 0 0 0 0 0 0 0 127 0" result="hardAlpha"/>
<feOffset dy="0.6"/>
<feComposite in2="hardAlpha" operator="out"/>
<feColorMatrix type="matrix" values="0 0 0 0 0 0 0 0 0 0 0 0 0 0 0 0 0 0 1 0"/>
<feBlend mode="normal" in2="effect1_dropShadow_1131_17481" result="effect2_dropShadow_1131_17481"/>
<feBlend mode="normal" in="SourceGraphic" in2="effect2_dropShadow_1131_17481" result="shape"/>
</filter>
<filter id="filter1_d_1131_17481" x="56.1113" y="31.4482" width="86.5273" height="23.5317" filterUnits="userSpaceOnUse" color-interpolation-filters="sRGB">
<feFlood flood-opacity="0" result="BackgroundImageFix"/>
<feColorMatrix in="SourceAlpha" type="matrix" values="0 0 0 0 0 0 0 0 0 0 0 0 0 0 0 0 0 0 127 0" result="hardAlpha"/>
<feOffset dy="2"/>
<feComposite in2="hardAlpha" operator="out"/>
<feColorMatrix type="matrix" values="0 0 0 0 0 0 0 0 0 0 0 0 0 0 0 0 0 0 1 0"/>
<feBlend mode="normal" in2="BackgroundImageFix" result="effect1_dropShadow_1131_17481"/>
<feBlend mode="normal" in="SourceGraphic" in2="effect1_dropShadow_1131_17481" result="shape"/>
</filter>
</defs>
</svg>
