<svg width="20" height="15" viewBox="0 0 20 15" fill="none" xmlns="http://www.w3.org/2000/svg">
<path fill-rule="evenodd" clip-rule="evenodd" d="M19.546 1.11107C19.8272 1.39236 19.9852 1.77382 19.9852 2.17157C19.9852 2.56931 19.8272 2.95077 19.546 3.23207L8.30303 14.4751C8.15445 14.6237 7.97805 14.7416 7.7839 14.822C7.58976 14.9024 7.38167 14.9438 7.17153 14.9438C6.96138 14.9438 6.75329 14.9024 6.55915 14.822C6.365 14.7416 6.1886 14.6237 6.04003 14.4751L0.454026 8.89007C0.310761 8.7517 0.196488 8.58618 0.117874 8.40317C0.0392605 8.22017 -0.00211889 8.02334 -0.00384962 7.82417C-0.00558034 7.625 0.0323724 7.42748 0.107794 7.24313C0.183215 7.05879 0.294595 6.89131 0.435434 6.75047C0.576273 6.60963 0.74375 6.49826 0.928095 6.42283C1.11244 6.34741 1.30996 6.30946 1.50913 6.31119C1.7083 6.31292 1.90513 6.3543 2.08813 6.43291C2.27114 6.51153 2.43666 6.6258 2.57503 6.76907L7.17103 11.3651L17.424 1.11107C17.5633 0.971677 17.7287 0.861101 17.9108 0.785659C18.0928 0.710217 18.288 0.671387 18.485 0.671387C18.6821 0.671387 18.8772 0.710217 19.0593 0.785659C19.2413 0.861101 19.4067 0.971677 19.546 1.11107Z" fill="#5F8428"/>
</svg>
