<svg width="29" height="26" viewBox="0 0 29 26" fill="none" xmlns="http://www.w3.org/2000/svg">
<g clip-path="url(#clip0_1073_16842)">
<g clip-path="url(#clip1_1073_16842)">
<g clip-path="url(#clip2_1073_16842)">
<path d="M12.3394 23.8565C18.0011 23.8565 22.5909 19.2668 22.5909 13.605C22.5909 7.94327 18.0011 3.35352 12.3394 3.35352C6.67764 3.35352 2.08789 7.94327 2.08789 13.605C2.08789 19.2668 6.67764 23.8565 12.3394 23.8565Z" fill="#ECFFDE" stroke="#FFCC00" stroke-width="2.56286"/>
<path d="M12.3386 18.731C15.1695 18.731 17.4643 16.4361 17.4643 13.6052C17.4643 10.7744 15.1695 8.47949 12.3386 8.47949C9.50776 8.47949 7.21289 10.7744 7.21289 13.6052C7.21289 16.4361 9.50776 18.731 12.3386 18.731Z" fill="#ECFFDE" stroke="#FFCC00" stroke-width="2.56286"/>
<path fill-rule="evenodd" clip-rule="evenodd" d="M23.3603 4.18341L18.6851 7.78877L17.9916 4.27919C17.9765 4.06619 18.0081 3.81714 18.1951 3.67292L21.8417 0.860738C22.1222 0.644416 22.4541 0.688063 22.6714 0.969855C22.7439 1.06379 22.7801 1.11075 22.7696 1.19377L23.3603 4.18341Z" fill="#FFCC00"/>
<path fill-rule="evenodd" clip-rule="evenodd" d="M24.0854 5.12256L19.4102 8.72792L22.6283 10.2906C22.8304 10.3594 23.0793 10.3921 23.2663 10.2479L26.913 7.43573C27.1935 7.21941 27.2356 6.88733 27.0183 6.60554C26.9459 6.51161 26.9097 6.46465 26.8267 6.45374L24.0854 5.12256Z" fill="#FFCC00"/>
<path d="M22.8844 4.41701L11.9678 12.8355C11.594 13.1238 11.5247 13.6604 11.8129 14.0342C12.1012 14.408 12.6378 14.4773 13.0116 14.1891L23.9282 5.77056C24.302 5.48232 24.3713 4.94565 24.0831 4.57188C23.7948 4.1981 23.2582 4.12877 22.8844 4.41701Z" fill="black"/>
</g>
</g>
</g>
<defs>
<clipPath id="clip0_1073_16842">
<rect width="28" height="25" fill="white" transform="translate(0.369141 0.5)"/>
</clipPath>
<clipPath id="clip1_1073_16842">
<rect width="28" height="25" fill="white" transform="translate(0.369141 0.5)"/>
</clipPath>
<clipPath id="clip2_1073_16842">
<rect width="28" height="25" fill="white" transform="translate(0.369141 0.5)"/>
</clipPath>
</defs>
</svg>
