<svg width="33" height="26" viewBox="0 0 33 26" fill="none" xmlns="http://www.w3.org/2000/svg">
<g clip-path="url(#clip0_1142_14067)">
<g clip-path="url(#clip1_1142_14067)">
<g clip-path="url(#clip2_1142_14067)">
<path d="M12.3394 23.8565C18.0011 23.8565 22.5909 19.2668 22.5909 13.605C22.5909 7.94327 18.0011 3.35352 12.3394 3.35352C6.67764 3.35352 2.08789 7.94327 2.08789 13.605C2.08789 19.2668 6.67764 23.8565 12.3394 23.8565Z" fill="#ECFFDE" stroke="#09BE43" stroke-width="2.56286"/>
<path d="M12.3386 18.731C15.1695 18.731 17.4643 16.4361 17.4643 13.6052C17.4643 10.7744 15.1695 8.47949 12.3386 8.47949C9.50776 8.47949 7.21289 10.7744 7.21289 13.6052C7.21289 16.4361 9.50776 18.731 12.3386 18.731Z" fill="#ECFFDE" stroke="#09BE43" stroke-width="2.56286"/>
<path fill-rule="evenodd" clip-rule="evenodd" d="M23.3603 4.18292L18.6851 7.78828L17.9916 4.2787C17.9765 4.0657 18.0081 3.81665 18.1951 3.67243L21.8417 0.86025C22.1222 0.643927 22.4541 0.687574 22.6714 0.969367C22.7439 1.0633 22.7801 1.11026 22.7696 1.19328L23.3603 4.18292Z" fill="#09BE43"/>
<path fill-rule="evenodd" clip-rule="evenodd" d="M24.0854 5.12207L19.4102 8.72743L22.6283 10.2901C22.8304 10.3589 23.0793 10.3916 23.2663 10.2474L26.913 7.43524C27.1935 7.21892 27.2356 6.88684 27.0183 6.60505C26.9459 6.51112 26.9097 6.46416 26.8267 6.45325L24.0854 5.12207Z" fill="#09BE43"/>
<path d="M22.8844 4.41701L11.9678 12.8355C11.594 13.1238 11.5247 13.6604 11.8129 14.0342C12.1012 14.408 12.6378 14.4773 13.0116 14.1891L23.9282 5.77056C24.302 5.48232 24.3713 4.94565 24.0831 4.57188C23.7948 4.1981 23.2582 4.12877 22.8844 4.41701Z" fill="black"/>
</g>
</g>
</g>
<defs>
<clipPath id="clip0_1142_14067">
<rect width="28" height="25" fill="white" transform="translate(0.369141 0.5)"/>
</clipPath>
<clipPath id="clip1_1142_14067">
<rect width="28" height="25" fill="white" transform="translate(0.369141 0.5)"/>
</clipPath>
<clipPath id="clip2_1142_14067">
<rect width="28" height="25" fill="white" transform="translate(0.369141 0.5)"/>
</clipPath>
</defs>
</svg>
