<svg width="202" height="86" viewBox="0 0 202 86" fill="none" xmlns="http://www.w3.org/2000/svg">
<g filter="url(#filter0_dd_1287_12227)">
<path d="M6.39639 3.79083C6.50625 2.21899 7.81341 1 9.38909 1H197.783C199.522 1 200.897 2.47419 200.776 4.20917L195.604 78.2092C195.494 79.781 194.187 81 192.611 81H4.21699C2.47778 81 1.10304 79.5258 1.2243 77.7908L6.39639 3.79083Z" fill="#232E34"/>
<path d="M197.783 0.5C199.812 0.500103 201.416 2.22006 201.274 4.24414L196.103 78.2441C195.974 80.0778 194.449 81.4998 192.611 81.5H4.2168C2.18781 81.4999 0.584117 79.7799 0.725586 77.7559L5.89746 3.75586C6.02567 1.92223 7.5506 0.500214 9.38867 0.5H197.783Z" stroke="black"/>
</g>
<mask id="mask0_1287_12227" style="mask-type:alpha" maskUnits="userSpaceOnUse" x="1" y="1" width="200" height="80">
<path d="M6.39639 3.79083C6.50625 2.21899 7.81341 1 9.38909 1H197.783C199.522 1 200.897 2.47419 200.776 4.20917L195.604 78.2092C195.494 79.781 194.187 81 192.611 81H4.21699C2.47778 81 1.10304 79.5258 1.2243 77.7908L6.39639 3.79083Z" fill="#353C52"/>
</mask>
<g mask="url(#mask0_1287_12227)">
<rect x="-4.375" y="73.5186" width="207.494" height="7.4817" fill="#283238"/>
</g>
<path fill-rule="evenodd" clip-rule="evenodd" d="M113.128 32.996C113.44 32.6846 113.862 32.5097 114.303 32.5097C114.744 32.5097 115.166 32.6846 115.478 32.996L118.737 36.2551L121.996 32.996C122.312 32.7022 122.728 32.5423 123.159 32.5499C123.59 32.5575 124.001 32.732 124.306 33.0367C124.61 33.3414 124.785 33.7524 124.792 34.1832C124.8 34.614 124.64 35.0309 124.346 35.3461L121.089 38.6053L124.349 41.8645C124.651 42.1782 124.819 42.5983 124.815 43.0343C124.811 43.4703 124.636 43.8873 124.327 44.1955C124.019 44.5036 123.602 44.6783 123.166 44.6819C122.73 44.6855 122.31 44.5177 121.996 44.2146L118.737 40.9554L115.478 44.2146C115.163 44.5083 114.746 44.6682 114.315 44.6606C113.884 44.653 113.473 44.4785 113.169 44.1739C112.864 43.8692 112.689 43.4582 112.682 43.0274C112.674 42.5966 112.834 42.1797 113.128 41.8645L116.387 38.6053L113.128 35.3461C112.816 35.0343 112.641 34.6117 112.641 34.171C112.641 33.7304 112.816 33.3077 113.128 32.996ZM103.299 19.5291C105.878 17.8286 109.314 19.6799 109.314 22.7684V54.4422C109.314 57.5329 105.878 59.382 103.299 57.6814L89.9965 48.9127C89.9065 48.8527 89.8009 48.8203 89.6928 48.8196H83.2631C81.6461 48.8196 80.0952 48.1772 78.9518 47.0338C77.8084 45.8904 77.166 44.3395 77.166 42.7225V34.4881C77.166 32.871 77.8084 31.3202 78.9518 30.1768C80.0952 29.0334 81.6461 28.391 83.2631 28.391H89.6928C89.8015 28.3913 89.9079 28.3597 89.9987 28.3001L103.299 19.5291Z" fill="#E6311F"/>
<defs>
<filter id="filter0_dd_1287_12227" x="0.216797" y="0" width="201.566" height="85.5" filterUnits="userSpaceOnUse" color-interpolation-filters="sRGB">
<feFlood flood-opacity="0" result="BackgroundImageFix"/>
<feColorMatrix in="SourceAlpha" type="matrix" values="0 0 0 0 0 0 0 0 0 0 0 0 0 0 0 0 0 0 127 0" result="hardAlpha"/>
<feOffset dy="3.5"/>
<feComposite in2="hardAlpha" operator="out"/>
<feColorMatrix type="matrix" values="0 0 0 0 0 0 0 0 0 0 0 0 0 0 0 0 0 0 0.5 0"/>
<feBlend mode="normal" in2="BackgroundImageFix" result="effect1_dropShadow_1287_12227"/>
<feColorMatrix in="SourceAlpha" type="matrix" values="0 0 0 0 0 0 0 0 0 0 0 0 0 0 0 0 0 0 127 0" result="hardAlpha"/>
<feOffset dy="1.5"/>
<feComposite in2="hardAlpha" operator="out"/>
<feColorMatrix type="matrix" values="0 0 0 0 0 0 0 0 0 0 0 0 0 0 0 0 0 0 1 0"/>
<feBlend mode="normal" in2="effect1_dropShadow_1287_12227" result="effect2_dropShadow_1287_12227"/>
<feBlend mode="normal" in="SourceGraphic" in2="effect2_dropShadow_1287_12227" result="shape"/>
</filter>
</defs>
</svg>
