<svg width="202" height="85" viewBox="0 0 202 85" fill="none" xmlns="http://www.w3.org/2000/svg">
<g filter="url(#filter0_dd_1073_16897)">
<path d="M6.56994 4.7092C6.72258 2.61863 8.46319 1.00047 10.5593 1.00047H196.697C199.021 1.00047 200.856 2.97404 200.686 5.29174L195.43 77.2911C195.277 79.3817 193.537 80.9999 191.44 80.9999H5.30269C2.97883 80.9999 1.14409 79.0263 1.3133 76.7086L6.56994 4.7092Z" fill="#E6311F"/>
<path d="M196.697 0.5C199.311 0.500104 201.376 2.7208 201.186 5.32812L195.929 77.3271C195.757 79.679 193.799 81.5 191.44 81.5H5.30273C2.68839 81.5 0.624088 79.2793 0.814453 76.6719L6.07129 4.67285C6.243 2.32096 8.20142 0.5 10.5596 0.5H196.697Z" stroke="black"/>
</g>
<mask id="mask0_1073_16897" style="mask-type:alpha" maskUnits="userSpaceOnUse" x="1" y="1" width="200" height="80">
<path d="M6.56994 4.7092C6.72258 2.61863 8.46319 1.00047 10.5593 1.00047H196.697C199.021 1.00047 200.856 2.97404 200.686 5.29174L195.43 77.2911C195.277 79.3817 193.537 80.9999 191.44 80.9999H5.30269C2.97883 80.9999 1.14409 79.0263 1.3133 76.7086L6.56994 4.7092Z" fill="#E6311F"/>
</mask>
<g mask="url(#mask0_1073_16897)">
<rect x="-5.68164" y="-14.9932" width="225.403" height="23.4222" fill="#FF7B7B"/>
<rect x="-5.5498" y="72.23" width="225.403" height="23.9316" fill="#CD0034"/>
</g>
<g filter="url(#filter1_d_1073_16897)">
<mask id="path-6-outside-1_1073_16897" maskUnits="userSpaceOnUse" x="86" y="24" width="49" height="22" fill="black">
<rect fill="white" x="86" y="24" width="49" height="22"/>
<path d="M96.5 33.184C96.8547 33.184 97.032 33.8373 97.032 35.144C97.032 35.536 96.9853 36.0027 96.892 36.544C96.8173 37.0667 96.668 37.328 96.444 37.328H92.888V40.128H98.04C98.3573 40.128 98.572 40.5387 98.684 41.36C98.74 41.7147 98.768 42.0973 98.768 42.508C98.768 42.9 98.712 43.4133 98.6 44.048C98.488 44.6827 98.3013 45 98.04 45H88.464C87.7547 45 87.4 44.7107 87.4 44.132V26.128C87.4 25.6427 87.6147 25.4 88.044 25.4H98.068C98.46 25.4 98.656 26.2307 98.656 27.892C98.656 29.5347 98.46 30.356 98.068 30.356H92.888V33.184H96.5ZM109.749 31.084C109.823 30.9347 110.29 30.86 111.149 30.86C113.949 30.86 115.311 30.9627 115.237 31.168L111.821 38.252C114.117 42.5453 115.265 44.692 115.265 44.692C115.265 44.804 114.705 44.8973 113.585 44.972C112.465 45.0467 111.671 45.084 111.205 45.084C110.029 45.084 109.403 44.9627 109.329 44.72L107.817 40.044L106.081 44.916C106.043 45.0467 105.511 45.112 104.485 45.112C103.458 45.112 102.543 45.0747 101.741 45C100.938 44.9253 100.574 44.832 100.649 44.72L103.813 38.28C101.61 33.6693 100.509 31.3547 100.509 31.336C100.509 31.224 100.789 31.1213 101.349 31.028C101.927 30.9347 102.571 30.888 103.281 30.888C104.009 30.888 104.699 30.9253 105.353 31C106.006 31.056 106.37 31.14 106.445 31.252L107.929 35.788L109.749 31.084ZM122.339 44.832C122.339 44.9813 121.48 45.056 119.763 45.056C118.064 45.056 117.215 44.9907 117.215 44.86V31.112C117.215 30.9813 118.064 30.916 119.763 30.916C121.48 30.916 122.339 30.972 122.339 31.084V44.832ZM122.339 29.432C122.339 29.5627 121.48 29.628 119.763 29.628C118.064 29.628 117.215 29.572 117.215 29.46V25.428C117.215 25.2413 118.064 25.148 119.763 25.148C121.48 25.148 122.339 25.204 122.339 25.316V29.432ZM131.591 44.832C131.591 45.056 130.807 45.168 129.239 45.168C127.372 45.0933 126.439 44.972 126.439 44.804V34.892H125.011C124.637 34.892 124.451 34.248 124.451 32.96C124.451 32.624 124.479 32.2133 124.535 31.728C124.609 31.2427 124.749 31 124.955 31H126.439V28.536C126.439 28.1627 127.223 27.976 128.791 27.976C130.377 27.976 131.171 28.1253 131.171 28.424V30.216L131.199 31H133.579C133.896 31 134.055 31.6533 134.055 32.96C134.055 34.2667 133.896 34.92 133.579 34.92H131.591V44.832Z"/>
</mask>
<path d="M96.5 33.184C96.8547 33.184 97.032 33.8373 97.032 35.144C97.032 35.536 96.9853 36.0027 96.892 36.544C96.8173 37.0667 96.668 37.328 96.444 37.328H92.888V40.128H98.04C98.3573 40.128 98.572 40.5387 98.684 41.36C98.74 41.7147 98.768 42.0973 98.768 42.508C98.768 42.9 98.712 43.4133 98.6 44.048C98.488 44.6827 98.3013 45 98.04 45H88.464C87.7547 45 87.4 44.7107 87.4 44.132V26.128C87.4 25.6427 87.6147 25.4 88.044 25.4H98.068C98.46 25.4 98.656 26.2307 98.656 27.892C98.656 29.5347 98.46 30.356 98.068 30.356H92.888V33.184H96.5ZM109.749 31.084C109.823 30.9347 110.29 30.86 111.149 30.86C113.949 30.86 115.311 30.9627 115.237 31.168L111.821 38.252C114.117 42.5453 115.265 44.692 115.265 44.692C115.265 44.804 114.705 44.8973 113.585 44.972C112.465 45.0467 111.671 45.084 111.205 45.084C110.029 45.084 109.403 44.9627 109.329 44.72L107.817 40.044L106.081 44.916C106.043 45.0467 105.511 45.112 104.485 45.112C103.458 45.112 102.543 45.0747 101.741 45C100.938 44.9253 100.574 44.832 100.649 44.72L103.813 38.28C101.61 33.6693 100.509 31.3547 100.509 31.336C100.509 31.224 100.789 31.1213 101.349 31.028C101.927 30.9347 102.571 30.888 103.281 30.888C104.009 30.888 104.699 30.9253 105.353 31C106.006 31.056 106.37 31.14 106.445 31.252L107.929 35.788L109.749 31.084ZM122.339 44.832C122.339 44.9813 121.48 45.056 119.763 45.056C118.064 45.056 117.215 44.9907 117.215 44.86V31.112C117.215 30.9813 118.064 30.916 119.763 30.916C121.48 30.916 122.339 30.972 122.339 31.084V44.832ZM122.339 29.432C122.339 29.5627 121.48 29.628 119.763 29.628C118.064 29.628 117.215 29.572 117.215 29.46V25.428C117.215 25.2413 118.064 25.148 119.763 25.148C121.48 25.148 122.339 25.204 122.339 25.316V29.432ZM131.591 44.832C131.591 45.056 130.807 45.168 129.239 45.168C127.372 45.0933 126.439 44.972 126.439 44.804V34.892H125.011C124.637 34.892 124.451 34.248 124.451 32.96C124.451 32.624 124.479 32.2133 124.535 31.728C124.609 31.2427 124.749 31 124.955 31H126.439V28.536C126.439 28.1627 127.223 27.976 128.791 27.976C130.377 27.976 131.171 28.1253 131.171 28.424V30.216L131.199 31H133.579C133.896 31 134.055 31.6533 134.055 32.96C134.055 34.2667 133.896 34.92 133.579 34.92H131.591V44.832Z" fill="white"/>
<path d="M96.892 36.544L96.2022 36.4251L96.2005 36.435L96.199 36.445L96.892 36.544ZM92.888 37.328V36.628H92.188V37.328H92.888ZM92.888 40.128H92.188V40.828H92.888V40.128ZM98.684 41.36L97.9904 41.4546L97.9914 41.4619L97.9926 41.4692L98.684 41.36ZM98.6 44.048L97.9107 43.9263L98.6 44.048ZM92.888 30.356V29.656H92.188V30.356H92.888ZM92.888 33.184H92.188V33.884H92.888V33.184ZM96.5 33.184V33.884C96.3378 33.884 96.2286 33.796 96.1899 33.7485C96.1683 33.7219 96.191 33.7378 96.2234 33.8574C96.2871 34.0919 96.332 34.5065 96.332 35.144H97.032H97.732C97.732 34.4749 97.6882 33.9094 97.5746 33.4906C97.5183 33.2835 97.4302 33.0544 97.2756 32.8645C97.1039 32.6537 96.8395 32.484 96.5 32.484V33.184ZM97.032 35.144H96.332C96.332 35.4839 96.2912 35.9087 96.2022 36.4251L96.892 36.544L97.5818 36.6629C97.6795 36.0966 97.732 35.5881 97.732 35.144H97.032ZM96.892 36.544L96.199 36.445C96.1836 36.5528 96.1661 36.6347 96.1489 36.6947C96.1405 36.7243 96.1328 36.7462 96.1266 36.7618C96.1235 36.7694 96.121 36.7751 96.1191 36.779C96.1182 36.7809 96.1175 36.7823 96.117 36.7833C96.1165 36.7843 96.1162 36.7847 96.1162 36.7847C96.1162 36.7847 96.1165 36.7842 96.1171 36.7832C96.1177 36.7822 96.1187 36.7808 96.12 36.7789C96.1226 36.7751 96.1269 36.7694 96.133 36.7622C96.1453 36.7479 96.1659 36.727 96.1966 36.7055C96.2654 36.6574 96.3538 36.628 96.444 36.628V37.328V38.028C96.892 38.028 97.1812 37.7428 97.3318 37.4793C97.4715 37.2348 97.5431 36.9359 97.585 36.643L96.892 36.544ZM96.444 37.328V36.628H92.888V37.328V38.028H96.444V37.328ZM92.888 37.328H92.188V40.128H92.888H93.588V37.328H92.888ZM92.888 40.128V40.828H98.04V40.128V39.428H92.888V40.128ZM98.04 40.128V40.828C97.9551 40.828 97.8793 40.7964 97.831 40.7591C97.7932 40.7299 97.7951 40.7153 97.8186 40.7603C97.8699 40.8582 97.9381 41.0712 97.9904 41.4546L98.684 41.36L99.3776 41.2654C99.3179 40.8274 99.2228 40.4244 99.0594 40.1117C98.8935 39.7945 98.5707 39.428 98.04 39.428V40.128ZM98.684 41.36L97.9926 41.4692C98.0421 41.783 98.068 42.1288 98.068 42.508H98.768H99.468C99.468 42.0659 99.4379 41.6463 99.3754 41.2508L98.684 41.36ZM98.768 42.508H98.068C98.068 42.8417 98.0195 43.3098 97.9107 43.9263L98.6 44.048L99.2893 44.1696C99.4045 43.5169 99.468 42.9583 99.468 42.508H98.768ZM98.6 44.048L97.9107 43.9263C97.8865 44.0634 97.8602 44.1717 97.8341 44.255C97.8075 44.3398 97.7848 44.3865 97.7726 44.4071C97.76 44.4287 97.77 44.4028 97.8174 44.3693C97.8733 44.3296 97.9528 44.3 98.04 44.3V45V45.7C98.5138 45.7 98.8174 45.3923 98.9794 45.1169C99.1355 44.8515 99.228 44.5171 99.2893 44.1696L98.6 44.048ZM98.04 45V44.3H88.464V45V45.7H98.04V45ZM88.464 45V44.3C88.332 44.3 88.2411 44.2863 88.1822 44.2703C88.1535 44.2625 88.1347 44.2548 88.1234 44.2492C88.1177 44.2465 88.114 44.2442 88.1117 44.2428C88.1105 44.2421 88.1097 44.2415 88.1092 44.2412C88.1087 44.2408 88.1085 44.2406 88.1085 44.2406C88.1085 44.2406 88.1087 44.2407 88.109 44.241C88.1093 44.2414 88.1098 44.2418 88.1103 44.2423C88.1114 44.2435 88.1125 44.2448 88.1135 44.2462C88.1158 44.2493 88.1159 44.2503 88.1145 44.247C88.1115 44.2397 88.1 44.2065 88.1 44.132H87.4H86.7C86.7 44.5711 86.8415 45.0138 87.2235 45.3254C87.5782 45.6148 88.0321 45.7 88.464 45.7V45ZM87.4 44.132H88.1V26.128H87.4H86.7V44.132H87.4ZM87.4 26.128H88.1C88.1 26.056 88.1082 26.0192 88.1117 26.0075C88.1144 25.9981 88.1102 26.0176 88.0853 26.0458C88.0733 26.0593 88.0594 26.0716 88.0445 26.0817C88.0298 26.0917 88.0172 26.0975 88.0091 26.1005C87.9938 26.1063 88.0009 26.1 88.044 26.1V25.4V24.7C87.6977 24.7 87.3166 24.8018 87.0367 25.1182C86.7713 25.4182 86.7 25.7971 86.7 26.128H87.4ZM88.044 25.4V26.1H98.068V25.4V24.7H88.044V25.4ZM98.068 25.4V26.1C97.8731 26.1 97.7683 25.9806 97.7539 25.9602C97.7519 25.9573 97.7873 26.0124 97.8277 26.1838C97.9065 26.5177 97.956 27.0747 97.956 27.892H98.656H99.356C99.356 27.0479 99.3075 26.3589 99.1903 25.8622C99.1327 25.6183 99.0456 25.3619 98.8966 25.1513C98.7352 24.9233 98.4589 24.7 98.068 24.7V25.4ZM98.656 27.892H97.956C97.956 28.6998 97.9065 29.249 97.8281 29.5775C97.7879 29.746 97.753 29.7988 97.7561 29.7945C97.772 29.7722 97.8766 29.656 98.068 29.656V30.356V31.056C98.4554 31.056 98.7315 30.8371 98.8944 30.6095C99.0445 30.3999 99.1321 30.1447 99.1899 29.9025C99.3075 29.4096 99.356 28.7269 99.356 27.892H98.656ZM98.068 30.356V29.656H92.888V30.356V31.056H98.068V30.356ZM92.888 30.356H92.188V33.184H92.888H93.588V30.356H92.888ZM92.888 33.184V33.884H96.5V33.184V32.484H92.888V33.184ZM109.749 31.084L109.122 30.771L109.108 30.8005L109.096 30.8314L109.749 31.084ZM115.237 31.168L115.867 31.472L115.882 31.4403L115.894 31.4072L115.237 31.168ZM111.821 38.252L111.19 37.948L111.036 38.2684L111.203 38.5821L111.821 38.252ZM115.265 44.692H115.965V44.5166L115.882 44.3619L115.265 44.692ZM113.585 44.972L113.538 44.2736L113.585 44.972ZM109.329 44.72L109.998 44.5141L109.995 44.5046L109.329 44.72ZM107.817 40.044L108.483 39.8286L107.849 37.8683L107.157 39.809L107.817 40.044ZM106.081 44.916L105.421 44.681L105.414 44.7022L105.408 44.7237L106.081 44.916ZM101.741 45L101.805 44.303L101.741 45ZM100.649 44.72L101.231 45.1083L101.257 45.07L101.277 45.0287L100.649 44.72ZM103.813 38.28L104.441 38.5887L104.59 38.2843L104.444 37.9783L103.813 38.28ZM101.349 31.028L101.237 30.3369L101.234 30.3375L101.349 31.028ZM105.353 31L105.273 31.6955L105.283 31.6966L105.293 31.6974L105.353 31ZM106.445 31.252L107.11 31.0343L107.08 30.9434L107.027 30.8637L106.445 31.252ZM107.929 35.788L107.263 36.0057L107.873 37.8705L108.581 36.0406L107.929 35.788ZM109.749 31.084L110.375 31.397C110.324 31.4989 110.257 31.5597 110.217 31.5897C110.178 31.6195 110.149 31.6314 110.146 31.6328C110.142 31.6344 110.174 31.6218 110.265 31.6072C110.444 31.5786 110.732 31.56 111.149 31.56V30.86V30.16C110.707 30.16 110.332 30.1787 110.044 30.2248C109.902 30.2475 109.75 30.2816 109.61 30.3392C109.493 30.3876 109.256 30.5045 109.122 30.771L109.749 31.084ZM111.149 30.86V31.56C112.545 31.56 113.564 31.5858 114.218 31.635C114.552 31.6602 114.756 31.6892 114.86 31.7141C114.924 31.7292 114.889 31.7291 114.824 31.6878C114.79 31.6665 114.692 31.6001 114.619 31.4659C114.53 31.3023 114.514 31.1055 114.579 30.9288L115.237 31.168L115.894 31.4072C115.968 31.2048 115.951 30.9832 115.848 30.7955C115.762 30.6373 115.64 30.5476 115.571 30.5039C115.434 30.4176 115.283 30.3758 115.186 30.3524C114.968 30.3003 114.671 30.2652 114.323 30.239C113.614 30.1856 112.552 30.16 111.149 30.16V30.86ZM115.237 31.168L114.606 30.864L111.19 37.948L111.821 38.252L112.451 38.556L115.867 31.472L115.237 31.168ZM111.821 38.252L111.203 38.5821C111.511 39.1579 111.738 39.5828 112.011 40.0915C112.137 40.3286 112.256 40.5503 112.374 40.7707C112.388 40.798 112.403 40.825 112.417 40.8521C112.432 40.8801 112.445 40.9049 112.46 40.9326C112.464 40.9393 112.467 40.946 112.471 40.9527C112.475 40.9593 112.478 40.966 112.482 40.9726C112.485 40.9793 112.499 41.0058 112.503 41.0124C112.507 41.0191 112.51 41.0257 112.514 41.0323C112.517 41.0389 112.521 41.0455 112.524 41.052C112.528 41.0586 112.531 41.0652 112.535 41.0718C112.538 41.0783 112.542 41.0849 112.545 41.0914C112.549 41.098 112.552 41.1045 112.556 41.1111C112.559 41.1176 112.563 41.1241 112.566 41.1307C112.57 41.1372 112.573 41.1437 112.577 41.1502C112.58 41.1567 112.584 41.1632 112.587 41.1697C112.591 41.1761 112.594 41.1826 112.597 41.1891C112.601 41.1956 112.604 41.202 112.608 41.2085C112.611 41.2149 112.615 41.2214 112.618 41.2278C112.622 41.2342 112.625 41.2407 112.629 41.2471C112.632 41.2535 112.635 41.2599 112.639 41.2663C112.642 41.2727 112.646 41.2791 112.649 41.2855C112.652 41.2919 112.656 41.2983 112.659 41.3047C112.663 41.311 112.666 41.3174 112.67 41.3237C112.673 41.3301 112.676 41.3364 112.68 41.3428C112.683 41.3491 112.686 41.3555 112.69 41.3618C112.693 41.3681 112.697 41.3744 112.7 41.3807C112.703 41.387 112.707 41.3933 112.71 41.3996C112.713 41.4059 112.717 41.4122 112.72 41.4185C112.724 41.4247 112.727 41.431 112.73 41.4372C112.734 41.4435 112.737 41.4497 112.74 41.456C112.744 41.4622 112.747 41.4685 112.75 41.4747C112.754 41.4809 112.757 41.4871 112.76 41.4933C112.764 41.4995 112.767 41.5057 112.77 41.5119C112.773 41.5181 112.777 41.5243 112.78 41.5305C112.783 41.5366 112.787 41.5428 112.79 41.549C112.793 41.5551 112.797 41.5613 112.8 41.5674C112.803 41.5736 112.806 41.5797 112.81 41.5858C112.813 41.5919 112.816 41.5981 112.819 41.6042C112.823 41.6103 112.826 41.6164 112.829 41.6225C112.833 41.6286 112.836 41.6347 112.839 41.6407C112.842 41.6468 112.846 41.6529 112.849 41.6589C112.852 41.665 112.855 41.671 112.858 41.6771C112.862 41.6831 112.865 41.6892 112.868 41.6952C112.871 41.7012 112.875 41.7072 112.878 41.7133C112.881 41.7193 112.884 41.7253 112.887 41.7313C112.891 41.7373 112.894 41.7432 112.897 41.7492C112.9 41.7552 112.903 41.7612 112.907 41.7671C112.91 41.7731 112.913 41.779 112.916 41.785C112.919 41.7909 112.923 41.7969 112.926 41.8028C112.929 41.8087 112.932 41.8146 112.935 41.8206C112.938 41.8265 112.942 41.8324 112.945 41.8383C112.948 41.8442 112.951 41.8501 112.954 41.8559C112.957 41.8618 112.96 41.8677 112.964 41.8735C112.967 41.8794 112.97 41.8853 112.973 41.8911C112.976 41.897 112.979 41.9028 112.982 41.9086C112.985 41.9145 112.989 41.9203 112.992 41.9261C112.995 41.9319 112.998 41.9377 113.001 41.9435C113.004 41.9493 113.007 41.9551 113.01 41.9609C113.013 41.9667 113.016 41.9724 113.019 41.9782C113.023 41.984 113.026 41.9897 113.029 41.9955C113.032 42.0012 113.035 42.007 113.038 42.0127C113.041 42.0184 113.044 42.0241 113.047 42.0299C113.05 42.0356 113.053 42.0413 113.056 42.047C113.059 42.0527 113.062 42.0584 113.065 42.0641C113.068 42.0697 113.071 42.0754 113.075 42.0811C113.078 42.0868 113.081 42.0924 113.084 42.0981C113.087 42.1037 113.09 42.1094 113.093 42.115C113.096 42.1206 113.099 42.1262 113.102 42.1319C113.105 42.1375 113.108 42.1431 113.111 42.1487C113.114 42.1543 113.117 42.1599 113.12 42.1655C113.123 42.1711 113.126 42.1766 113.129 42.1822C113.132 42.1878 113.135 42.1933 113.138 42.1989C113.14 42.2044 113.143 42.21 113.146 42.2155C113.149 42.2211 113.152 42.2266 113.155 42.2321C113.158 42.2376 113.161 42.2431 113.164 42.2486C113.167 42.2541 113.17 42.2596 113.173 42.2651C113.176 42.2706 113.179 42.2761 113.182 42.2816C113.185 42.287 113.188 42.2925 113.19 42.2979C113.193 42.3034 113.196 42.3088 113.199 42.3143C113.202 42.3197 113.205 42.3251 113.208 42.3306C113.211 42.336 113.214 42.3414 113.217 42.3468C113.22 42.3522 113.222 42.3576 113.225 42.363C113.228 42.3684 113.231 42.3738 113.234 42.3791C113.237 42.3845 113.24 42.3899 113.243 42.3952C113.245 42.4006 113.248 42.4059 113.251 42.4113C113.254 42.4166 113.257 42.4219 113.26 42.4273C113.262 42.4326 113.265 42.4379 113.268 42.4432C113.271 42.4485 113.274 42.4538 113.277 42.4591C113.279 42.4644 113.282 42.4697 113.285 42.4749C113.288 42.4802 113.291 42.4855 113.294 42.4907C113.296 42.496 113.299 42.5012 113.302 42.5065C113.305 42.5117 113.308 42.517 113.31 42.5222C113.313 42.5274 113.316 42.5326 113.319 42.5378C113.322 42.543 113.324 42.5482 113.327 42.5534C113.33 42.5586 113.333 42.5638 113.335 42.569C113.338 42.5742 113.341 42.5793 113.344 42.5845C113.346 42.5896 113.349 42.5948 113.352 42.5999C113.355 42.6051 113.357 42.6102 113.36 42.6153C113.363 42.6205 113.366 42.6256 113.368 42.6307C113.371 42.6358 113.374 42.6409 113.377 42.646C113.379 42.6511 113.382 42.6562 113.385 42.6613C113.387 42.6663 113.39 42.6714 113.393 42.6765C113.396 42.6815 113.398 42.6866 113.401 42.6916C113.404 42.6967 113.406 42.7017 113.409 42.7067C113.412 42.7118 113.414 42.7168 113.417 42.7218C113.42 42.7268 113.423 42.7318 113.425 42.7368C113.428 42.7418 113.431 42.7468 113.433 42.7518C113.436 42.7567 113.438 42.7617 113.441 42.7667C113.444 42.7716 113.446 42.7766 113.449 42.7815C113.452 42.7865 113.454 42.7914 113.457 42.7963C113.46 42.8013 113.462 42.8062 113.465 42.8111C113.468 42.816 113.47 42.8209 113.473 42.8258C113.475 42.8307 113.478 42.8356 113.481 42.8405C113.483 42.8454 113.486 42.8502 113.488 42.8551C113.491 42.86 113.494 42.8648 113.496 42.8697C113.499 42.8745 113.501 42.8794 113.504 42.8842C113.507 42.889 113.509 42.8939 113.512 42.8987C113.514 42.9035 113.517 42.9083 113.519 42.9131C113.522 42.9179 113.525 42.9227 113.527 42.9275C113.53 42.9322 113.532 42.937 113.535 42.9418C113.537 42.9465 113.54 42.9513 113.542 42.9561C113.545 42.9608 113.548 42.9655 113.55 42.9703C113.553 42.975 113.555 42.9797 113.558 42.9845C113.56 42.9892 113.563 42.9939 113.565 42.9986C113.568 43.0033 113.57 43.008 113.573 43.0127C113.575 43.0173 113.578 43.022 113.58 43.0267C113.583 43.0313 113.585 43.036 113.588 43.0407C113.59 43.0453 113.593 43.05 113.595 43.0546C113.598 43.0592 113.6 43.0639 113.603 43.0685C113.605 43.0731 113.607 43.0777 113.61 43.0823C113.612 43.0869 113.615 43.0915 113.617 43.0961C113.62 43.1007 113.622 43.1052 113.625 43.1098C113.627 43.1144 113.63 43.1189 113.632 43.1235C113.634 43.1281 113.637 43.1326 113.639 43.1371C113.642 43.1417 113.644 43.1462 113.647 43.1507C113.649 43.1552 113.651 43.1598 113.654 43.1643C113.656 43.1688 113.659 43.1733 113.661 43.1777C113.663 43.1822 113.666 43.1867 113.668 43.1912C113.671 43.1957 113.673 43.2001 113.675 43.2046C113.678 43.209 113.68 43.2135 113.682 43.2179C113.685 43.2223 113.687 43.2268 113.69 43.2312C113.692 43.2356 113.694 43.24 113.697 43.2444C113.699 43.2488 113.701 43.2532 113.704 43.2576C113.706 43.262 113.708 43.2664 113.711 43.2708C113.713 43.2751 113.715 43.2795 113.718 43.2839C113.72 43.2882 113.722 43.2926 113.725 43.2969C113.727 43.3013 113.729 43.3056 113.732 43.3099C113.734 43.3142 113.736 43.3186 113.739 43.3229C113.741 43.3272 113.743 43.3315 113.745 43.3358C113.748 43.34 113.75 43.3443 113.752 43.3486C113.755 43.3529 113.757 43.3571 113.759 43.3614C113.778 43.3957 113.768 43.3781 113.786 43.4121C113.789 43.4163 113.791 43.4205 113.793 43.4247C113.795 43.4288 113.797 43.433 113.8 43.4372C113.818 43.472 113.794 43.4273 113.813 43.462C113.815 43.4662 113.817 43.4703 113.82 43.4744C113.822 43.4785 113.824 43.4826 113.826 43.4867C113.828 43.4908 113.831 43.4949 113.833 43.499C113.835 43.503 113.837 43.5071 113.839 43.5112C113.857 43.5449 113.834 43.5017 113.852 43.5354C113.854 43.5395 113.857 43.5435 113.859 43.5475C113.861 43.5515 113.863 43.5555 113.865 43.5595C113.867 43.5635 113.869 43.5675 113.872 43.5715C113.874 43.5755 113.876 43.5794 113.878 43.5834C113.896 43.6168 113.873 43.5737 113.891 43.6071C113.893 43.611 113.895 43.6149 113.897 43.6188C113.899 43.6228 113.901 43.6267 113.903 43.6306C113.905 43.6345 113.907 43.6383 113.909 43.6422C113.911 43.6461 113.914 43.65 113.916 43.6538C113.918 43.6577 113.92 43.6616 113.922 43.6654C113.924 43.6693 113.926 43.6731 113.928 43.6769C113.93 43.6808 113.932 43.6846 113.934 43.6884C113.936 43.6922 113.938 43.696 113.94 43.6998C113.942 43.7036 113.944 43.7074 113.946 43.7112C113.948 43.715 113.95 43.7188 113.952 43.7225C113.954 43.7263 113.956 43.7301 113.958 43.7338C113.96 43.7376 113.962 43.7413 113.964 43.745C113.966 43.7488 113.968 43.7525 113.97 43.7562C113.972 43.7599 113.974 43.7636 113.976 43.7673C113.978 43.771 113.98 43.7747 113.982 43.7784C113.984 43.7821 113.986 43.7858 113.988 43.7895C113.99 43.7931 113.992 43.7968 113.994 43.8004C113.996 43.8041 113.998 43.8077 114 43.8114C114.002 43.815 114.004 43.8186 114.006 43.8222C114.008 43.8259 114.01 43.8295 114.011 43.8331C114.013 43.8367 114.015 43.8403 114.017 43.8439C114.019 43.8475 114.021 43.851 114.023 43.8546C114.025 43.8582 114.027 43.8617 114.029 43.8653C114.031 43.8688 114.032 43.8724 114.034 43.8759C114.036 43.8795 114.038 43.883 114.04 43.8865C114.042 43.89 114.044 43.8935 114.046 43.8971C114.048 43.9006 114.049 43.9041 114.051 43.9075C114.053 43.911 114.055 43.9145 114.057 43.918C114.059 43.9215 114.061 43.9249 114.062 43.9284C114.064 43.9318 114.066 43.9353 114.068 43.9387C114.07 43.9422 114.072 43.9456 114.073 43.949C114.075 43.9524 114.077 43.9559 114.079 43.9593C114.081 43.9627 114.083 43.9661 114.084 43.9695C114.086 43.9728 114.088 43.9762 114.09 43.9796C114.092 43.983 114.093 43.9863 114.095 43.9897C114.097 43.9931 114.099 43.9964 114.101 43.9997C114.102 44.0031 114.104 44.0064 114.106 44.0097C114.108 44.0131 114.109 44.0164 114.111 44.0197C114.115 44.0263 114.118 44.0329 114.122 44.0394C114.124 44.0427 114.125 44.046 114.127 44.0492C114.129 44.0525 114.131 44.0558 114.132 44.059C114.134 44.0622 114.136 44.0655 114.137 44.0687C114.139 44.0719 114.141 44.0751 114.143 44.0784C114.144 44.0816 114.146 44.0848 114.148 44.088C114.149 44.0912 114.151 44.0943 114.153 44.0975C114.155 44.1007 114.156 44.1039 114.158 44.107C114.16 44.1102 114.161 44.1133 114.163 44.1165C114.165 44.1196 114.166 44.1228 114.168 44.1259C114.17 44.129 114.171 44.1321 114.173 44.1353C114.175 44.1384 114.176 44.1415 114.178 44.1446C114.18 44.1477 114.181 44.1507 114.183 44.1538C114.185 44.1569 114.186 44.16 114.188 44.163C114.19 44.1661 114.191 44.1692 114.193 44.1722C114.194 44.1752 114.196 44.1783 114.198 44.1813C114.199 44.1843 114.201 44.1874 114.203 44.1904C114.204 44.1934 114.206 44.1964 114.207 44.1994C114.209 44.2024 114.211 44.2054 114.212 44.2084C114.214 44.2113 114.215 44.2143 114.217 44.2173C114.218 44.2202 114.22 44.2232 114.222 44.2261C114.223 44.2291 114.225 44.232 114.226 44.235C114.228 44.2379 114.23 44.2408 114.231 44.2437C114.233 44.2467 114.234 44.2496 114.236 44.2525C114.237 44.2554 114.239 44.2582 114.24 44.2611C114.26 44.2982 114.293 44.3603 114.311 44.3932C114.312 44.3958 114.314 44.3984 114.315 44.401C114.317 44.4036 114.318 44.4062 114.319 44.4088C114.321 44.4114 114.322 44.414 114.323 44.4166C114.325 44.4191 114.326 44.4217 114.328 44.4243C114.329 44.4268 114.33 44.4294 114.332 44.4319C114.333 44.4344 114.334 44.437 114.336 44.4395C114.337 44.442 114.338 44.4445 114.34 44.447C114.341 44.4495 114.342 44.452 114.344 44.4545C114.354 44.4742 114.349 44.4646 114.36 44.484C114.361 44.4864 114.362 44.4888 114.363 44.4912C114.365 44.4937 114.366 44.4961 114.367 44.4984C114.368 44.5 114.374 44.5112 114.375 44.5127C114.376 44.5151 114.377 44.5174 114.379 44.5197C114.38 44.5221 114.381 44.5244 114.382 44.5267C114.384 44.5291 114.385 44.5314 114.386 44.5337C114.387 44.536 114.389 44.5383 114.39 44.5406C114.391 44.5429 114.392 44.5452 114.393 44.5475C114.395 44.5497 114.396 44.552 114.397 44.5543C114.415 44.5882 114.386 44.5339 114.404 44.5677C114.406 44.57 114.407 44.5722 114.408 44.5744C114.409 44.5766 114.41 44.5788 114.411 44.581C114.426 44.6087 114.404 44.5664 114.418 44.5941C114.431 44.6182 114.412 44.5828 114.425 44.6069C114.426 44.6091 114.428 44.6112 114.429 44.6133C114.43 44.6154 114.431 44.6175 114.432 44.6196C114.451 44.6556 114.466 44.6821 114.483 44.7139C114.483 44.7158 114.484 44.7176 114.485 44.7194C114.486 44.7212 114.487 44.723 114.488 44.7249C114.489 44.7267 114.49 44.7284 114.491 44.7302C114.492 44.732 114.493 44.7338 114.494 44.7356C114.495 44.7373 114.496 44.7391 114.497 44.7408C114.498 44.7426 114.499 44.7443 114.5 44.7461C114.501 44.7478 114.502 44.7495 114.502 44.7513C114.503 44.753 114.504 44.7547 114.505 44.7564C114.506 44.7581 114.507 44.7598 114.508 44.7615C114.509 44.7632 114.51 44.7648 114.511 44.7665C114.512 44.7682 114.512 44.7698 114.513 44.7715C114.514 44.7732 114.515 44.7748 114.516 44.7764C114.517 44.7781 114.518 44.7797 114.519 44.7813C114.519 44.783 114.52 44.7846 114.521 44.7862C114.522 44.7878 114.523 44.7894 114.524 44.791C114.525 44.7925 114.525 44.7941 114.526 44.7957C114.527 44.7973 114.528 44.7988 114.529 44.8004C114.53 44.802 114.53 44.8035 114.531 44.805C114.532 44.8066 114.533 44.8081 114.534 44.8096C114.535 44.8112 114.535 44.8127 114.536 44.8142C114.537 44.8157 114.538 44.8172 114.539 44.8187C114.539 44.8202 114.54 44.8216 114.541 44.8231C114.542 44.8246 114.542 44.8261 114.543 44.8275C114.544 44.829 114.545 44.8304 114.546 44.8319C114.546 44.8333 114.547 44.8347 114.548 44.8362C114.549 44.8376 114.549 44.839 114.55 44.8404C114.551 44.8418 114.552 44.8432 114.552 44.8446C114.553 44.846 114.554 44.8474 114.555 44.8488C114.555 44.8501 114.556 44.8515 114.557 44.8529C114.558 44.8542 114.558 44.8556 114.559 44.8569C114.56 44.8583 114.56 44.8596 114.561 44.8609C114.562 44.8623 114.563 44.8636 114.563 44.8649C114.564 44.8662 114.565 44.8675 114.565 44.8688C114.566 44.8701 114.567 44.8714 114.567 44.8726C114.568 44.8739 114.569 44.8752 114.569 44.8765C114.57 44.8777 114.571 44.879 114.571 44.8802C114.572 44.8815 114.573 44.8827 114.573 44.8839C114.574 44.8851 114.575 44.8864 114.575 44.8876C114.576 44.8888 114.577 44.89 114.577 44.8912C114.578 44.8924 114.579 44.8936 114.579 44.8948C114.58 44.8959 114.58 44.8971 114.581 44.8983C114.582 44.8994 114.582 44.9006 114.583 44.9017C114.584 44.9029 114.584 44.904 114.585 44.9051C114.585 44.9063 114.586 44.9074 114.587 44.9085C114.587 44.9096 114.588 44.9107 114.588 44.9118C114.589 44.9129 114.59 44.914 114.59 44.9151C114.591 44.9162 114.591 44.9172 114.592 44.9183C114.592 44.9194 114.593 44.9204 114.594 44.9215C114.594 44.9225 114.595 44.9236 114.595 44.9246C114.596 44.9256 114.596 44.9267 114.597 44.9277C114.61 44.9532 114.586 44.9082 114.6 44.9337C114.601 44.9347 114.601 44.9356 114.602 44.9366C114.602 44.9376 114.603 44.9385 114.603 44.9395C114.604 44.9404 114.604 44.9414 114.605 44.9423C114.605 44.9432 114.606 44.9441 114.606 44.9451C114.607 44.946 114.607 44.9469 114.608 44.9478C114.608 44.9487 114.609 44.9496 114.609 44.9505C114.609 44.9514 114.61 44.9522 114.61 44.9531C114.611 44.954 114.611 44.9548 114.612 44.9557C114.612 44.9565 114.613 44.9574 114.613 44.9582C114.614 44.959 114.614 44.9599 114.614 44.9607C114.615 44.9615 114.615 44.9623 114.616 44.9631C114.616 44.9639 114.617 44.9647 114.617 44.9655C114.617 44.9663 114.618 44.9671 114.618 44.9678C114.619 44.9686 114.619 44.9694 114.62 44.9701C114.62 44.9709 114.62 44.9716 114.621 44.9724C114.621 44.9731 114.622 44.9738 114.622 44.9745C114.622 44.9753 114.623 44.976 114.623 44.9767C114.623 44.9774 114.624 44.9781 114.624 44.9788C114.625 44.9795 114.625 44.9801 114.625 44.9808C114.626 44.9815 114.626 44.9821 114.626 44.9828C114.627 44.9835 114.627 44.9841 114.627 44.9847C114.628 44.9854 114.628 44.986 114.628 44.9866C114.629 44.9873 114.629 44.9879 114.629 44.9885C114.63 44.9891 114.63 44.9897 114.63 44.9903C114.631 44.9909 114.631 44.9914 114.631 44.992C114.632 44.9926 114.632 44.9932 114.632 44.9937C114.632 44.9943 114.633 44.9948 114.633 44.9954C114.633 44.9959 114.634 44.9964 114.634 44.997C114.634 44.9975 114.634 44.998 114.635 44.9985C114.635 44.999 114.635 44.9995 114.635 45C114.636 45.0005 114.636 45.001 114.636 45.0014C114.637 45.0019 114.637 45.0024 114.637 45.0028C114.637 45.0033 114.638 45.0038 114.638 45.0042C114.638 45.0046 114.638 45.0051 114.638 45.0055C114.639 45.0059 114.639 45.0063 114.639 45.0068C114.639 45.0072 114.64 45.0076 114.64 45.008C114.64 45.0084 114.64 45.0087 114.64 45.0091C114.641 45.0095 114.641 45.0099 114.641 45.0102C114.641 45.0106 114.641 45.0109 114.642 45.0113C114.642 45.0116 114.642 45.012 114.642 45.0123C114.659 45.0448 114.627 44.9835 114.644 45.0158C114.644 45.0161 114.644 45.0163 114.644 45.0166C114.644 45.0168 114.645 45.0171 114.645 45.0173C114.645 45.0175 114.645 45.0177 114.645 45.018C114.645 45.0182 114.645 45.0184 114.645 45.0186C114.646 45.0188 114.646 45.019 114.646 45.0191C114.646 45.0193 114.646 45.0195 114.646 45.0197C114.646 45.0198 114.646 45.02 114.646 45.0201C114.646 45.0203 114.646 45.0204 114.646 45.0205C114.664 45.0533 114.629 44.9885 114.647 45.0212C114.647 45.0213 114.647 45.0214 114.647 45.0215C114.647 45.0216 114.647 45.0217 114.647 45.0217C114.648 45.0228 114.647 45.021 114.647 45.022C114.647 45.022 114.647 45.0221 114.647 45.0221C114.647 45.0221 114.647 45.0221 115.265 44.692C115.882 44.3619 115.882 44.3619 115.882 44.3619C115.882 44.3619 115.882 44.3618 115.882 44.3618C115.882 44.3618 115.882 44.3617 115.882 44.3617C115.882 44.3616 115.882 44.3616 115.882 44.3615C115.877 44.3522 115.886 44.3699 115.881 44.3603C115.879 44.3573 115.882 44.3625 115.881 44.3594C115.864 44.3293 115.896 44.3886 115.88 44.3584C115.867 44.3342 115.892 44.3813 115.879 44.3571C115.867 44.3346 115.891 44.3782 115.879 44.3556C115.878 44.3542 115.876 44.3502 115.874 44.3477C115.874 44.3473 115.874 44.3469 115.874 44.3465C115.873 44.3461 115.873 44.3457 115.873 44.3453C115.864 44.3277 115.881 44.3603 115.872 44.3426C115.859 44.3193 115.881 44.3603 115.868 44.3367C115.854 44.3093 115.876 44.3511 115.861 44.3226C115.852 44.3062 115.865 44.331 115.856 44.3143C115.85 44.3026 115.86 44.3217 115.854 44.3099C115.854 44.3092 115.853 44.3084 115.853 44.3076C115.852 44.3069 115.852 44.3061 115.852 44.3053C115.851 44.3045 115.851 44.3037 115.85 44.3029C115.85 44.3021 115.849 44.3013 115.849 44.3005C115.847 44.2972 115.848 44.2988 115.846 44.2955C115.831 44.2673 115.856 44.3132 115.841 44.2849C115.824 44.2543 115.845 44.2929 115.828 44.2613C115.814 44.2356 115.835 44.2743 115.821 44.2483C115.816 44.2393 115.822 44.2506 115.817 44.2415C115.817 44.2404 115.816 44.2392 115.816 44.2381C115.815 44.2369 115.814 44.2357 115.814 44.2345C115.813 44.2334 115.812 44.2322 115.812 44.231C115.811 44.2298 115.811 44.2286 115.81 44.2274C115.805 44.2176 115.811 44.2299 115.806 44.22C115.805 44.2188 115.805 44.2175 115.804 44.2162C115.803 44.215 115.803 44.2137 115.802 44.2124C115.801 44.2112 115.801 44.2099 115.8 44.2086C115.799 44.2073 115.798 44.206 115.798 44.2047C115.795 44.1994 115.796 44.202 115.794 44.1967C115.793 44.1954 115.792 44.194 115.791 44.1927C115.791 44.1913 115.79 44.1899 115.789 44.1885C115.788 44.1872 115.788 44.1858 115.787 44.1844C115.786 44.183 115.785 44.1816 115.785 44.1802C115.784 44.1788 115.783 44.1774 115.782 44.1759C115.782 44.1745 115.781 44.1731 115.78 44.1716C115.779 44.1702 115.779 44.1688 115.778 44.1673C115.777 44.1658 115.776 44.1644 115.775 44.1629C115.775 44.1614 115.774 44.1599 115.773 44.1585C115.772 44.157 115.771 44.1555 115.771 44.154C115.764 44.1418 115.772 44.157 115.766 44.1448C115.765 44.1433 115.764 44.1417 115.763 44.1402C115.762 44.1386 115.762 44.1371 115.761 44.1355C115.76 44.1339 115.759 44.1323 115.758 44.1307C115.757 44.1292 115.757 44.1276 115.756 44.126C115.755 44.1243 115.754 44.1227 115.753 44.1211C115.752 44.1195 115.751 44.1179 115.75 44.1162C115.75 44.1146 115.749 44.1129 115.748 44.1113C115.747 44.1096 115.746 44.108 115.745 44.1063C115.744 44.1046 115.743 44.103 115.742 44.1013C115.742 44.0996 115.741 44.0979 115.74 44.0962C115.739 44.0945 115.738 44.0928 115.737 44.091C115.736 44.0893 115.735 44.0876 115.734 44.0859C115.733 44.0841 115.732 44.0824 115.731 44.0806C115.731 44.0789 115.73 44.0771 115.729 44.0753C115.728 44.0736 115.727 44.0718 115.726 44.07C115.725 44.0682 115.724 44.0664 115.723 44.0646C115.722 44.0628 115.721 44.061 115.72 44.0592C115.719 44.0574 115.718 44.0556 115.717 44.0537C115.716 44.0519 115.715 44.0501 115.714 44.0482C115.713 44.0464 115.712 44.0445 115.711 44.0426C115.71 44.0408 115.709 44.0389 115.708 44.037C115.707 44.0351 115.706 44.0332 115.705 44.0313C115.704 44.0294 115.703 44.0275 115.702 44.0256C115.701 44.0237 115.7 44.0218 115.699 44.0198C115.698 44.0179 115.697 44.016 115.696 44.014C115.695 44.0121 115.694 44.0101 115.693 44.0081C115.692 44.0062 115.691 44.0042 115.69 44.0022C115.688 44.0002 115.687 43.9982 115.686 43.9962C115.685 43.9942 115.684 43.9922 115.683 43.9902C115.682 43.9882 115.681 43.9862 115.68 43.9842C115.679 43.9821 115.678 43.9801 115.677 43.978C115.675 43.976 115.674 43.9739 115.673 43.9719C115.656 43.9396 115.684 43.9917 115.667 43.9594C115.665 43.9573 115.664 43.9552 115.663 43.9531C115.662 43.951 115.661 43.9488 115.66 43.9467C115.641 43.9114 115.672 43.9692 115.653 43.9338C115.635 43.9003 115.664 43.9544 115.646 43.9208C115.645 43.9186 115.644 43.9164 115.642 43.9142C115.641 43.912 115.64 43.9097 115.639 43.9075C115.619 43.8708 115.651 43.9308 115.632 43.894C115.63 43.8918 115.629 43.8895 115.628 43.8872C115.627 43.885 115.626 43.8827 115.624 43.8804C115.623 43.8781 115.622 43.8758 115.621 43.8735C115.619 43.8712 115.618 43.8689 115.617 43.8665C115.616 43.8642 115.614 43.8619 115.613 43.8595C115.612 43.8572 115.611 43.8548 115.609 43.8525C115.608 43.8501 115.607 43.8478 115.606 43.8454C115.604 43.843 115.603 43.8406 115.602 43.8382C115.601 43.8358 115.599 43.8334 115.598 43.831C115.597 43.8286 115.595 43.8262 115.594 43.8238C115.593 43.8214 115.592 43.8189 115.59 43.8165C115.589 43.814 115.588 43.8116 115.586 43.8091C115.585 43.8067 115.584 43.8042 115.582 43.8017C115.581 43.7993 115.58 43.7968 115.578 43.7943C115.577 43.7918 115.576 43.7893 115.574 43.7868C115.573 43.7843 115.572 43.7818 115.57 43.7793C115.569 43.7767 115.568 43.7742 115.566 43.7717C115.565 43.7691 115.564 43.7666 115.562 43.764C115.561 43.7615 115.559 43.7589 115.558 43.7563C115.557 43.7538 115.555 43.7512 115.554 43.7486C115.553 43.746 115.551 43.7434 115.55 43.7408C115.548 43.7382 115.547 43.7356 115.546 43.733C115.544 43.7304 115.543 43.7277 115.541 43.7251C115.54 43.7225 115.538 43.7198 115.537 43.7172C115.536 43.7145 115.534 43.7118 115.533 43.7092C115.531 43.7065 115.53 43.7038 115.529 43.7011C115.527 43.6985 115.526 43.6958 115.524 43.6931C115.523 43.6904 115.521 43.6877 115.52 43.6849C115.518 43.6822 115.517 43.6795 115.515 43.6768C115.514 43.674 115.513 43.6713 115.511 43.6685C115.51 43.6658 115.508 43.663 115.507 43.6602C115.505 43.6575 115.504 43.6547 115.502 43.6519C115.499 43.6463 115.496 43.6408 115.493 43.6351C115.481 43.6125 115.487 43.6238 115.475 43.6009C115.472 43.5952 115.469 43.5893 115.466 43.5835C115.464 43.5806 115.462 43.5777 115.461 43.5748C115.459 43.5718 115.458 43.5689 115.456 43.5659C115.455 43.563 115.453 43.56 115.451 43.5571C115.45 43.5541 115.448 43.5511 115.447 43.5481C115.444 43.5422 115.44 43.5362 115.437 43.5302C115.431 43.5181 115.424 43.5059 115.418 43.4936C115.414 43.4874 115.411 43.4813 115.408 43.475C115.406 43.4719 115.404 43.4688 115.403 43.4657C115.401 43.4625 115.399 43.4594 115.398 43.4563C115.396 43.4531 115.394 43.45 115.392 43.4468C115.391 43.4436 115.389 43.4405 115.387 43.4373C115.381 43.4246 115.384 43.4309 115.377 43.4181C115.37 43.4053 115.363 43.3924 115.356 43.3792C115.355 43.3759 115.353 43.3727 115.351 43.3694C115.349 43.3661 115.348 43.3628 115.346 43.3595C115.344 43.3562 115.342 43.3528 115.34 43.3495C115.339 43.3462 115.337 43.3429 115.335 43.3395C115.333 43.3362 115.332 43.3328 115.33 43.3295C115.328 43.3261 115.326 43.3228 115.324 43.3194C115.321 43.3126 115.317 43.3059 115.313 43.299C115.306 43.2854 115.299 43.2716 115.291 43.2578C115.288 43.2508 115.284 43.2438 115.28 43.2368C115.278 43.2333 115.276 43.2298 115.275 43.2263C115.273 43.2228 115.271 43.2192 115.269 43.2157C115.267 43.2122 115.265 43.2086 115.263 43.2051C115.261 43.2015 115.259 43.198 115.258 43.1944C115.256 43.1908 115.254 43.1872 115.252 43.1837C115.25 43.1801 115.248 43.1765 115.246 43.1729C115.238 43.1584 115.231 43.144 115.223 43.1292C115.207 43.0998 115.191 43.0701 115.175 43.0396C115.158 43.0092 115.167 43.0243 115.15 42.9936C115.148 42.9898 115.146 42.9859 115.144 42.982C115.142 42.9781 115.14 42.9742 115.138 42.9703C115.12 42.9381 115.142 42.9792 115.125 42.9469C115.109 42.9161 115.129 42.954 115.112 42.9232C115.11 42.9192 115.108 42.9152 115.106 42.9113C115.104 42.9073 115.102 42.9033 115.1 42.8993C115.098 42.8953 115.095 42.8913 115.093 42.8873C115.091 42.8833 115.089 42.8792 115.087 42.8752C115.07 42.8441 115.09 42.8821 115.074 42.8509C115.065 42.8347 115.069 42.8428 115.061 42.8265C115.059 42.8224 115.056 42.8183 115.054 42.8142C115.052 42.8101 115.05 42.8059 115.048 42.8018C115.03 42.7698 115.051 42.809 115.034 42.7769C115.032 42.7728 115.03 42.7686 115.028 42.7644C115.025 42.7603 115.023 42.7561 115.021 42.7519C115.019 42.7477 115.016 42.7435 115.014 42.7393C115.012 42.7351 115.01 42.7309 115.007 42.7266C115.005 42.7224 115.003 42.7182 115.001 42.7139C114.998 42.7097 114.996 42.7054 114.994 42.7012C114.991 42.6969 114.989 42.6927 114.987 42.6884C114.985 42.6841 114.982 42.6798 114.98 42.6755C114.978 42.6712 114.975 42.6669 114.973 42.6626C114.971 42.6583 114.969 42.654 114.966 42.6497C114.948 42.6164 114.956 42.631 114.938 42.5974C114.936 42.593 114.934 42.5886 114.931 42.5842C114.929 42.5798 114.926 42.5754 114.924 42.571C114.922 42.5666 114.919 42.5621 114.917 42.5577C114.915 42.5533 114.912 42.5488 114.91 42.5444C114.9 42.5265 114.905 42.5354 114.896 42.5175C114.893 42.513 114.891 42.5085 114.888 42.504C114.886 42.4995 114.884 42.495 114.881 42.4905C114.862 42.4553 114.871 42.4713 114.852 42.4359C114.832 42.3992 114.842 42.4173 114.822 42.3804C114.82 42.3758 114.817 42.3711 114.815 42.3665C114.812 42.3618 114.81 42.3571 114.807 42.3524C114.805 42.3478 114.802 42.3431 114.8 42.3384C114.797 42.3337 114.795 42.329 114.792 42.3242C114.773 42.2878 114.781 42.3039 114.762 42.2672C114.741 42.229 114.751 42.248 114.731 42.2095C114.72 42.1901 114.726 42.1997 114.715 42.1803C114.713 42.1754 114.71 42.1705 114.707 42.1656C114.705 42.1607 114.702 42.1558 114.699 42.1509C114.697 42.146 114.694 42.1411 114.692 42.1361C114.689 42.1312 114.686 42.1263 114.684 42.1213C114.673 42.1015 114.678 42.1114 114.668 42.0915C114.665 42.0866 114.662 42.0816 114.66 42.0766C114.657 42.0716 114.654 42.0666 114.652 42.0616C114.649 42.0566 114.646 42.0515 114.644 42.0465C114.641 42.0415 114.638 42.0364 114.636 42.0314C114.625 42.0112 114.63 42.0213 114.619 42.001C114.617 41.996 114.614 41.9909 114.611 41.9858C114.608 41.9807 114.606 41.9756 114.603 41.9705C114.6 41.9654 114.598 41.9602 114.595 41.9551C114.592 41.95 114.589 41.9449 114.587 41.9397C114.584 41.9346 114.581 41.9294 114.578 41.9243C114.576 41.9191 114.573 41.9139 114.57 41.9088C114.567 41.9036 114.564 41.8984 114.562 41.8932C114.559 41.888 114.556 41.8828 114.553 41.8776C114.551 41.8724 114.548 41.8672 114.545 41.862C114.542 41.8567 114.539 41.8515 114.537 41.8463C114.513 41.8028 114.526 41.8267 114.503 41.783C114.5 41.7777 114.497 41.7724 114.494 41.767C114.491 41.7617 114.488 41.7564 114.486 41.751C114.483 41.7457 114.48 41.7404 114.477 41.735C114.474 41.7296 114.471 41.7243 114.468 41.7189C114.466 41.7135 114.463 41.7082 114.46 41.7028C114.457 41.6974 114.454 41.692 114.451 41.6866C114.448 41.6812 114.445 41.6758 114.442 41.6703C114.44 41.6649 114.437 41.6595 114.434 41.6541C114.409 41.6086 114.423 41.6342 114.399 41.5884C114.396 41.5829 114.393 41.5774 114.39 41.5719C114.387 41.5664 114.384 41.5608 114.381 41.5553C114.378 41.5498 114.375 41.5442 114.372 41.5387C114.369 41.5331 114.366 41.5276 114.363 41.522C114.36 41.5164 114.357 41.5108 114.354 41.5053C114.351 41.4997 114.348 41.4941 114.345 41.4885C114.342 41.4829 114.339 41.4773 114.336 41.4716C114.333 41.466 114.33 41.4604 114.327 41.4548C114.302 41.4085 114.316 41.4333 114.291 41.3868C114.288 41.3811 114.285 41.3754 114.282 41.3696C114.279 41.3639 114.276 41.3582 114.272 41.3525C114.26 41.3295 114.266 41.341 114.254 41.318C114.251 41.3122 114.248 41.3064 114.245 41.3007C114.242 41.2949 114.239 41.2891 114.235 41.2833C114.232 41.2775 114.229 41.2717 114.226 41.2659C114.223 41.2601 114.22 41.2542 114.217 41.2484C114.191 41.2002 114.205 41.2265 114.179 41.1781C114.176 41.1722 114.173 41.1663 114.17 41.1603C114.167 41.1544 114.163 41.1485 114.16 41.1426C114.157 41.1367 114.154 41.1307 114.151 41.1248C114.148 41.1188 114.144 41.1129 114.141 41.1069C114.138 41.1009 114.135 41.095 114.132 41.089C114.128 41.083 114.125 41.077 114.122 41.071C114.119 41.065 114.116 41.059 114.112 41.053C114.109 41.047 114.106 41.041 114.103 41.035C114.076 40.9848 114.091 41.0127 114.064 40.9623C114.061 40.9562 114.057 40.9501 114.054 40.944C114.051 40.9378 114.047 40.9317 114.044 40.9256C114.018 40.8767 114.051 40.9378 114.024 40.8888C114.021 40.8826 114.018 40.8764 114.015 40.8703C114.011 40.8641 114.008 40.8579 114.005 40.8517C114.001 40.8455 113.998 40.8393 113.995 40.8331C113.991 40.8269 113.988 40.8207 113.985 40.8145C113.958 40.7646 113.991 40.827 113.965 40.777C113.961 40.7708 113.958 40.7645 113.955 40.7582C113.951 40.752 113.948 40.7457 113.945 40.7394C113.941 40.7331 113.938 40.7268 113.935 40.7205C113.931 40.7142 113.928 40.7079 113.924 40.7016C113.921 40.6952 113.918 40.6889 113.914 40.6826C113.911 40.6762 113.907 40.6699 113.904 40.6635C113.901 40.6572 113.897 40.6508 113.894 40.6444C113.89 40.6381 113.887 40.6317 113.884 40.6253C113.88 40.6189 113.877 40.6125 113.873 40.6061C113.87 40.5997 113.866 40.5933 113.863 40.5869C113.844 40.5517 113.861 40.5836 113.842 40.5483C113.839 40.5418 113.836 40.5353 113.832 40.5289C113.829 40.5224 113.825 40.5159 113.822 40.5094C113.818 40.503 113.815 40.4965 113.811 40.49C113.808 40.4835 113.804 40.477 113.801 40.4704C113.797 40.4639 113.794 40.4574 113.79 40.4509C113.787 40.4443 113.783 40.4378 113.78 40.4312C113.776 40.4247 113.773 40.4181 113.769 40.4116C113.766 40.405 113.762 40.3984 113.759 40.3918C113.755 40.3852 113.752 40.3786 113.748 40.372C113.745 40.3654 113.741 40.3588 113.738 40.3522C113.734 40.3456 113.73 40.339 113.727 40.3323C113.723 40.3257 113.72 40.3191 113.716 40.3124C113.713 40.3058 113.709 40.2991 113.706 40.2924C113.702 40.2858 113.698 40.2791 113.695 40.2724C113.691 40.2657 113.688 40.2591 113.684 40.2524C113.681 40.2457 113.677 40.239 113.673 40.2322C113.67 40.2255 113.666 40.2188 113.663 40.2121C113.659 40.2053 113.655 40.1986 113.652 40.1919C113.648 40.1851 113.645 40.1783 113.641 40.1716C113.637 40.1648 113.634 40.158 113.63 40.1513C113.626 40.1445 113.623 40.1377 113.619 40.1309C113.616 40.1241 113.612 40.1173 113.608 40.1105C113.605 40.1037 113.601 40.0969 113.597 40.09C113.594 40.0832 113.59 40.0764 113.586 40.0695C113.583 40.0627 113.579 40.0558 113.575 40.0489C113.572 40.0421 113.568 40.0352 113.564 40.0283C113.561 40.0215 113.557 40.0146 113.553 40.0077C113.55 40.0008 113.546 39.9939 113.542 39.987C113.539 39.9801 113.535 39.9731 113.531 39.9662C113.527 39.9593 113.524 39.9523 113.52 39.9454C113.516 39.9385 113.513 39.9315 113.509 39.9245C113.505 39.9176 113.501 39.9106 113.498 39.9036C113.494 39.8967 113.49 39.8897 113.486 39.8827C113.483 39.8757 113.479 39.8687 113.475 39.8617C113.471 39.8547 113.468 39.8476 113.464 39.8406C113.46 39.8336 113.456 39.8266 113.453 39.8195C113.449 39.8125 113.445 39.8054 113.441 39.7984C113.438 39.7913 113.434 39.7842 113.43 39.7772C113.426 39.7701 113.422 39.763 113.419 39.7559C113.415 39.7488 113.411 39.7417 113.407 39.7346C113.403 39.7275 113.4 39.7204 113.396 39.7133C113.392 39.7061 113.388 39.699 113.384 39.6919C113.381 39.6847 113.377 39.6776 113.373 39.6704C113.369 39.6633 113.365 39.6561 113.361 39.6489C113.358 39.6418 113.354 39.6346 113.35 39.6274C113.346 39.6202 113.342 39.613 113.338 39.6058C113.335 39.5986 113.331 39.5914 113.327 39.5841C113.323 39.5769 113.319 39.5697 113.315 39.5625C113.311 39.5552 113.307 39.548 113.304 39.5407C113.3 39.5335 113.296 39.5262 113.292 39.5189C113.288 39.5116 113.284 39.5044 113.28 39.4971C113.276 39.4898 113.272 39.4825 113.269 39.4752C113.265 39.4679 113.261 39.4606 113.257 39.4533C113.253 39.4459 113.249 39.4386 113.245 39.4313C113.241 39.4239 113.237 39.4166 113.233 39.4092C113.229 39.4019 113.225 39.3945 113.221 39.3871C113.218 39.3798 113.214 39.3724 113.21 39.365C113.206 39.3576 113.202 39.3502 113.198 39.3428C113.181 39.312 113.167 39.2847 113.15 39.2536C113.146 39.2461 113.142 39.2387 113.138 39.2312C113.134 39.2237 113.13 39.2162 113.126 39.2087C113.122 39.2012 113.118 39.1937 113.114 39.1862C113.11 39.1786 113.106 39.1711 113.102 39.1636C113.098 39.1561 113.094 39.1485 113.09 39.141C113.086 39.1334 113.082 39.1259 113.078 39.1183C113.074 39.1107 113.07 39.1031 113.066 39.0956C113.061 39.088 113.057 39.0804 113.053 39.0728C113.037 39.0416 113.021 39.0127 113.004 38.9812C113 38.9735 112.996 38.9659 112.992 38.9582C112.988 38.9505 112.984 38.9428 112.98 38.9351C112.976 38.9274 112.971 38.9197 112.967 38.912C112.963 38.9043 112.959 38.8966 112.955 38.8888C112.951 38.8811 112.947 38.8734 112.943 38.8656C112.938 38.8579 112.934 38.8501 112.93 38.8424C112.926 38.8346 112.922 38.8268 112.918 38.819C112.913 38.8113 112.909 38.8035 112.905 38.7957C112.888 38.7634 112.872 38.7342 112.855 38.7017C112.851 38.6939 112.847 38.686 112.842 38.6781C112.838 38.6702 112.834 38.6624 112.83 38.6545C112.825 38.6466 112.821 38.6387 112.817 38.6308C112.813 38.6229 112.808 38.6149 112.804 38.607C112.8 38.5991 112.796 38.5911 112.792 38.5832C112.787 38.5753 112.783 38.5673 112.779 38.5593C112.775 38.5514 112.77 38.5434 112.766 38.5354C112.762 38.5275 112.757 38.5195 112.753 38.5115C112.735 38.4782 112.72 38.4487 112.702 38.4152C112.697 38.4071 112.693 38.3991 112.689 38.391C112.684 38.3829 112.68 38.3748 112.676 38.3667C112.671 38.3587 112.667 38.3506 112.663 38.3424C112.658 38.3343 112.654 38.3262 112.65 38.3181C112.645 38.31 112.641 38.3018 112.637 38.2937C112.632 38.2856 112.628 38.2774 112.624 38.2693C112.619 38.2611 112.615 38.2529 112.611 38.2448C112.606 38.2366 112.602 38.2284 112.597 38.2202C112.579 38.186 112.563 38.1561 112.545 38.1216C112.54 38.1133 112.536 38.1051 112.531 38.0968C112.527 38.0885 112.523 38.0802 112.518 38.0719C112.514 38.0637 112.509 38.0554 112.505 38.0471C112.5 38.0388 112.496 38.0304 112.491 38.0221C112.487 38.0138 112.483 38.0055 112.478 37.9971C112.474 37.9888 112.469 37.9805 112.465 37.9721C112.46 37.9638 112.456 37.9554 112.451 37.947C112.447 37.9387 112.442 37.9303 112.438 37.9219L111.821 38.252ZM115.265 44.692H114.565C114.565 44.387 114.758 44.2196 114.812 44.1776C114.848 44.1501 114.878 44.1342 114.892 44.1269C114.908 44.1192 114.918 44.1156 114.919 44.1153C114.919 44.115 114.905 44.1201 114.869 44.1284C114.835 44.1364 114.789 44.1456 114.73 44.1555C114.485 44.1963 114.093 44.2366 113.538 44.2736L113.585 44.972L113.631 45.6705C114.197 45.6328 114.645 45.589 114.96 45.5365C115.112 45.5112 115.268 45.4783 115.401 45.4297C115.463 45.4069 115.565 45.3647 115.664 45.2886C115.754 45.2198 115.965 45.025 115.965 44.692H115.265ZM113.585 44.972L113.538 44.2736C112.418 44.3482 111.646 44.384 111.205 44.384V45.084V45.784C111.697 45.784 112.511 45.7451 113.631 45.6705L113.585 44.972ZM111.205 45.084V44.384C110.631 44.384 110.233 44.3536 109.987 44.3058C109.928 44.2944 109.884 44.2831 109.853 44.2734C109.821 44.2634 109.809 44.2571 109.811 44.2582C109.812 44.2587 109.84 44.2733 109.877 44.3103C109.917 44.3498 109.968 44.417 109.998 44.5141L109.329 44.72L108.66 44.9259C108.757 45.2436 109.001 45.4151 109.165 45.5003C109.337 45.5899 109.533 45.6439 109.72 45.6802C110.099 45.7537 110.603 45.784 111.205 45.784V45.084ZM109.329 44.72L109.995 44.5046L108.483 39.8286L107.817 40.044L107.151 40.2594L108.663 44.9354L109.329 44.72ZM107.817 40.044L107.157 39.809L105.421 44.681L106.081 44.916L106.74 45.151L108.476 40.279L107.817 40.044ZM106.081 44.916L105.408 44.7237C105.462 44.5313 105.586 44.4285 105.638 44.3912C105.668 44.3701 105.692 44.3573 105.706 44.3507C105.721 44.3438 105.73 44.3405 105.732 44.3399C105.735 44.3389 105.724 44.3428 105.693 44.349C105.663 44.355 105.622 44.3616 105.568 44.3682C105.346 44.3956 104.99 44.412 104.485 44.412V45.112V45.812C105.006 45.812 105.43 45.7958 105.739 45.7578C105.889 45.7393 106.048 45.7118 106.188 45.6636C106.257 45.6398 106.353 45.6003 106.449 45.5327C106.542 45.4668 106.689 45.3334 106.754 45.1083L106.081 44.916ZM104.485 45.112V44.412C103.474 44.412 102.582 44.3752 101.805 44.303L101.741 45L101.676 45.697C102.505 45.7741 103.442 45.812 104.485 45.812V45.112ZM101.741 45L101.805 44.303C101.409 44.2661 101.164 44.2279 101.039 44.1959C100.96 44.1755 101.004 44.1758 101.08 44.2296C101.119 44.2575 101.245 44.3538 101.307 44.5441C101.382 44.7746 101.315 44.9822 101.231 45.1083L100.649 44.72L100.066 44.3317C99.9634 44.4858 99.8917 44.7208 99.9756 44.9781C100.046 45.1952 100.194 45.3179 100.27 45.3714C100.418 45.4765 100.59 45.5259 100.692 45.5521C100.931 45.6134 101.269 45.6592 101.676 45.697L101.741 45ZM100.649 44.72L101.277 45.0287L104.441 38.5887L103.813 38.28L103.184 37.9713L100.02 44.4113L100.649 44.72ZM103.813 38.28L104.444 37.9783C103.343 35.673 102.517 33.9421 101.967 32.7852C101.691 32.2067 101.485 31.7724 101.348 31.4817C101.279 31.3362 101.229 31.2278 101.195 31.1557C101.178 31.1193 101.167 31.0942 101.16 31.0789C101.156 31.0707 101.155 31.0689 101.156 31.071C101.156 31.0711 101.159 31.0786 101.164 31.0895C101.165 31.0941 101.171 31.1079 101.176 31.1262C101.179 31.1351 101.185 31.153 101.19 31.1761C101.193 31.1868 101.209 31.2517 101.209 31.336H100.509H99.8086C99.8086 31.4205 99.8246 31.4855 99.8272 31.4965C99.8327 31.5199 99.8383 31.5382 99.8412 31.5475C99.8473 31.5666 99.8529 31.5816 99.8552 31.5876C99.8604 31.6013 99.8652 31.6127 99.8675 31.618C99.8726 31.6302 99.8784 31.643 99.8832 31.6539C99.8936 31.6768 99.9079 31.7079 99.9254 31.7455C99.9607 31.8216 100.013 31.9331 100.082 32.0793C100.22 32.372 100.427 32.8079 100.702 33.3868C101.253 34.5446 102.08 36.2763 103.181 38.5817L103.813 38.28ZM100.509 31.336H101.209C101.209 31.627 101.024 31.7807 100.987 31.8093C100.94 31.8451 100.917 31.8479 100.96 31.8322C101.037 31.8038 101.196 31.7632 101.464 31.7185L101.349 31.028L101.234 30.3375C100.942 30.3862 100.68 30.4436 100.478 30.5178C100.38 30.5535 100.252 30.6088 100.135 30.6982C100.028 30.7804 99.8086 30.989 99.8086 31.336H100.509ZM101.349 31.028L101.46 31.7191C101.995 31.6328 102.601 31.588 103.281 31.588V30.888V30.188C102.541 30.188 101.859 30.2366 101.237 30.3369L101.349 31.028ZM103.281 30.888V31.588C103.985 31.588 104.649 31.6241 105.273 31.6955L105.353 31L105.432 30.3045C104.75 30.2265 104.032 30.188 103.281 30.188V30.888ZM105.353 31L105.293 31.6974C105.607 31.7244 105.824 31.756 105.958 31.7871C106.027 31.8028 106.051 31.8135 106.049 31.8124C106.047 31.8114 106.026 31.8022 105.996 31.7809C105.968 31.7606 105.913 31.7165 105.862 31.6403L106.445 31.252L107.027 30.8637C106.897 30.6694 106.713 30.5759 106.62 30.5341C106.508 30.484 106.387 30.4492 106.273 30.4229C106.044 30.37 105.751 30.3316 105.412 30.3026L105.353 31ZM106.445 31.252L105.779 31.4697L107.263 36.0057L107.929 35.788L108.594 35.5703L107.11 31.0343L106.445 31.252ZM107.929 35.788L108.581 36.0406L110.401 31.3366L109.749 31.084L109.096 30.8314L107.276 35.5354L107.929 35.788ZM122.339 44.832H121.639C121.639 44.474 121.898 44.3084 121.934 44.2866C121.994 44.2503 122.031 44.2449 122.001 44.2527C121.952 44.2654 121.839 44.2848 121.634 44.3026C121.236 44.3372 120.617 44.356 119.763 44.356V45.056V45.756C120.626 45.756 121.294 45.7374 121.755 45.6974C121.98 45.6778 122.188 45.6506 122.354 45.6073C122.432 45.5871 122.549 45.5514 122.662 45.4824C122.752 45.4279 123.039 45.2274 123.039 44.832H122.339ZM119.763 45.056V44.356C118.917 44.356 118.302 44.3396 117.905 44.3091C117.701 44.2934 117.585 44.276 117.531 44.2637C117.498 44.2561 117.53 44.2595 117.586 44.2896C117.594 44.2941 117.915 44.4568 117.915 44.86H117.215H116.515C116.515 45.2958 116.861 45.4892 116.922 45.5223C117.031 45.5809 117.143 45.6109 117.216 45.6278C117.375 45.6645 117.577 45.6879 117.798 45.7049C118.25 45.7397 118.909 45.756 119.763 45.756V45.056ZM117.215 44.86H117.915V31.112H117.215H116.515V44.86H117.215ZM117.215 31.112H117.915C117.915 31.5152 117.594 31.6779 117.586 31.6824C117.53 31.7125 117.498 31.7159 117.531 31.7083C117.585 31.696 117.701 31.6786 117.905 31.6629C118.302 31.6324 118.917 31.616 119.763 31.616V30.916V30.216C118.909 30.216 118.25 30.2323 117.798 30.2671C117.577 30.2841 117.375 30.3075 117.216 30.3442C117.143 30.3611 117.031 30.3911 116.922 30.4497C116.861 30.4828 116.515 30.6762 116.515 31.112H117.215ZM119.763 30.916V31.616C120.618 31.616 121.243 31.6301 121.649 31.6565C121.856 31.67 121.981 31.6854 122.043 31.6975C122.08 31.7048 122.056 31.7037 122.008 31.6814C121.985 31.6709 121.914 31.637 121.839 31.564C121.758 31.4853 121.639 31.3227 121.639 31.084H122.339H123.039C123.039 30.8313 122.912 30.6551 122.818 30.5633C122.73 30.4772 122.639 30.4306 122.589 30.4078C122.487 30.3611 122.382 30.3372 122.312 30.3235C122.159 30.2936 121.962 30.2739 121.74 30.2595C121.287 30.2299 120.625 30.216 119.763 30.216V30.916ZM122.339 31.084H121.639V44.832H122.339H123.039V31.084H122.339ZM122.339 29.432H121.639C121.639 29.025 121.964 28.8628 121.969 28.8601C122.024 28.8307 122.055 28.8276 122.022 28.8353C121.967 28.8479 121.848 28.8653 121.641 28.881C121.24 28.9116 120.617 28.928 119.763 28.928V29.628V30.328C120.625 30.328 121.291 30.3117 121.748 30.277C121.971 30.26 122.174 30.2366 122.333 30.2002C122.407 30.1834 122.519 30.1537 122.627 30.0958C122.686 30.0645 123.039 29.8717 123.039 29.432H122.339ZM119.763 29.628V28.928C118.917 28.928 118.298 28.9139 117.898 28.8875C117.692 28.874 117.57 28.8587 117.51 28.8468C117.473 28.8396 117.498 28.8409 117.548 28.8638C117.571 28.8747 117.642 28.9091 117.717 28.9826C117.797 29.0622 117.915 29.2241 117.915 29.46H117.215H116.515C116.515 29.7099 116.639 29.8853 116.732 29.978C116.82 30.0647 116.911 30.1118 116.961 30.1349C117.064 30.1823 117.168 30.2064 117.238 30.2202C117.39 30.2503 117.586 30.27 117.805 30.2845C118.254 30.3141 118.91 30.328 119.763 30.328V29.628ZM117.215 29.46H117.915V25.428H117.215H116.515V29.46H117.215ZM117.215 25.428H117.915C117.915 25.705 117.748 25.8657 117.681 25.9172C117.617 25.9664 117.572 25.9773 117.593 25.9703C117.628 25.9587 117.729 25.9357 117.928 25.9138C118.313 25.8715 118.919 25.848 119.763 25.848V25.148V24.448C118.907 24.448 118.239 24.4712 117.775 24.5222C117.55 24.547 117.332 24.5823 117.155 24.6407C117.07 24.6687 116.945 24.7175 116.828 24.8075C116.707 24.8999 116.515 25.1043 116.515 25.428H117.215ZM119.763 25.148V25.848C120.618 25.848 121.243 25.8621 121.649 25.8885C121.856 25.902 121.981 25.9174 122.043 25.9295C122.08 25.9368 122.056 25.9357 122.008 25.9134C121.985 25.9029 121.914 25.869 121.839 25.796C121.758 25.7173 121.639 25.5547 121.639 25.316H122.339H123.039C123.039 25.0633 122.912 24.8871 122.818 24.7953C122.73 24.7092 122.639 24.6626 122.589 24.6398C122.487 24.5931 122.382 24.5692 122.312 24.5555C122.159 24.5256 121.962 24.5059 121.74 24.4915C121.287 24.4619 120.625 24.448 119.763 24.448V25.148ZM122.339 25.316H121.639V29.432H122.339H123.039V25.316H122.339ZM129.239 45.168L129.211 45.8674L129.225 45.868H129.239V45.168ZM126.439 34.892H127.139V34.192H126.439V34.892ZM124.535 31.728L123.843 31.6216L123.841 31.6346L123.839 31.6478L124.535 31.728ZM126.439 31V31.7H127.139V31H126.439ZM131.171 30.216H130.471V30.2285L130.471 30.241L131.171 30.216ZM131.199 31L130.499 31.025L130.523 31.7H131.199V31ZM131.591 34.92V34.22H130.891V34.92H131.591ZM131.591 44.832H130.891C130.891 44.6323 130.985 44.4895 131.059 44.4158C131.093 44.3818 131.123 44.3614 131.14 44.351C131.157 44.3404 131.168 44.3358 131.168 44.3356C131.169 44.3352 131.164 44.3374 131.151 44.3414C131.139 44.3453 131.121 44.3502 131.098 44.3558C131.05 44.3671 130.987 44.3792 130.904 44.391C130.563 44.4398 130.015 44.468 129.239 44.468V45.168V45.868C130.03 45.868 130.659 45.8402 131.102 45.777C131.316 45.7463 131.536 45.7011 131.72 45.6224C131.836 45.5723 132.291 45.3582 132.291 44.832H131.591ZM129.239 45.168L129.267 44.4686C128.338 44.4314 127.664 44.3833 127.229 44.3268C127.006 44.2979 126.879 44.2706 126.821 44.2526C126.787 44.2421 126.818 44.2473 126.872 44.2833C126.905 44.3056 127.139 44.4684 127.139 44.804H126.439H125.739C125.739 45.1816 126.001 45.385 126.093 45.4464C126.205 45.5215 126.324 45.5642 126.407 45.5899C126.582 45.6442 126.805 45.6835 127.049 45.7152C127.547 45.78 128.273 45.8299 129.211 45.8674L129.239 45.168ZM126.439 44.804H127.139V34.892H126.439H125.739V44.804H126.439ZM126.439 34.892V34.192H125.011V34.892V35.592H126.439V34.892ZM125.011 34.892V34.192C125.15 34.192 125.252 34.2638 125.294 34.3119C125.318 34.3394 125.296 34.3274 125.263 34.2141C125.198 33.9896 125.151 33.5869 125.151 32.96H124.451H123.751C123.751 33.6211 123.797 34.1844 123.918 34.6039C123.979 34.8126 124.074 35.0421 124.238 35.2306C124.419 35.4397 124.685 35.592 125.011 35.592V34.892ZM124.451 32.96H125.151C125.151 32.6598 125.176 32.2777 125.23 31.8082L124.535 31.728L123.839 31.6478C123.782 32.1489 123.751 32.5882 123.751 32.96H124.451ZM124.535 31.728L125.227 31.8344C125.242 31.7356 125.259 31.6612 125.274 31.6075C125.291 31.5521 125.302 31.5311 125.302 31.5318C125.302 31.5319 125.278 31.5741 125.215 31.6182C125.144 31.6683 125.052 31.7 124.955 31.7V31V30.3C124.514 30.3 124.233 30.5833 124.089 30.8322C123.955 31.065 123.885 31.3478 123.843 31.6216L124.535 31.728ZM124.955 31V31.7H126.439V31V30.3H124.955V31ZM126.439 31H127.139V28.536H126.439H125.739V31H126.439ZM126.439 28.536H127.139C127.139 28.7327 127.019 28.8414 126.993 28.8606C126.984 28.867 127.03 28.8349 127.189 28.797C127.499 28.7232 128.02 28.676 128.791 28.676V27.976V27.276C127.993 27.276 127.339 27.3222 126.865 27.435C126.632 27.4905 126.384 27.575 126.179 27.7214C125.956 27.8806 125.739 28.1526 125.739 28.536H126.439ZM128.791 27.976V28.676C129.574 28.676 130.116 28.7137 130.446 28.7759C130.618 28.8082 130.678 28.8377 130.678 28.8375C130.674 28.8356 130.627 28.809 130.576 28.7422C130.518 28.6658 130.471 28.5547 130.471 28.424H131.171H131.871C131.871 27.9801 131.56 27.7279 131.366 27.6185C131.168 27.5063 130.93 27.4424 130.705 27.4001C130.242 27.313 129.594 27.276 128.791 27.276V27.976ZM131.171 28.424H130.471V30.216H131.171H131.871V28.424H131.171ZM131.171 30.216L130.471 30.241L130.499 31.025L131.199 31L131.898 30.975L131.87 30.191L131.171 30.216ZM131.199 31V31.7H133.579V31V30.3H131.199V31ZM133.579 31V31.7C133.374 31.7 133.254 31.579 133.221 31.5347C133.203 31.5091 133.225 31.5296 133.256 31.6552C133.315 31.8984 133.355 32.3205 133.355 32.96H134.055H134.755C134.755 32.2928 134.716 31.735 134.616 31.3248C134.567 31.1237 134.49 30.8992 134.353 30.7103C134.201 30.5026 133.942 30.3 133.579 30.3V31ZM134.055 32.96H133.355C133.355 33.5995 133.315 34.0216 133.256 34.2648C133.225 34.3904 133.203 34.4109 133.221 34.3853C133.254 34.341 133.374 34.22 133.579 34.22V34.92V35.62C133.942 35.62 134.201 35.4174 134.353 35.2097C134.49 35.0208 134.567 34.7963 134.616 34.5952C134.716 34.185 134.755 33.6272 134.755 32.96H134.055ZM133.579 34.92V34.22H131.591V34.92V35.62H133.579V34.92ZM131.591 34.92H130.891V44.832H131.591H132.291V34.92H131.591Z" fill="black" mask="url(#path-6-outside-1_1073_16897)"/>
</g>
<g filter="url(#filter2_d_1073_16897)">
<path d="M54.5431 18.7073L36.874 32.9958C36.4087 33.3721 36.3758 34.07 36.8037 34.4884L52.8171 50.1451C53.269 50.587 54.0124 50.504 54.3558 49.9734L58.6562 43.3278C58.8863 42.9723 58.8675 42.5104 58.6092 42.1748L52.6097 34.3762C52.3109 33.9878 52.3376 33.44 52.6728 33.0825L59.4715 25.8306C59.7828 25.4986 59.8306 24.9982 59.5879 24.6133L56.0178 18.9515C55.6985 18.4451 55.0087 18.3309 54.5431 18.7073Z" fill="white"/>
<path d="M54.5431 18.7073L36.874 32.9958C36.4087 33.3721 36.3758 34.07 36.8037 34.4884L52.8171 50.1451C53.269 50.587 54.0124 50.504 54.3558 49.9734L58.6562 43.3278C58.8863 42.9723 58.8675 42.5104 58.6092 42.1748L52.6097 34.3762C52.3109 33.9878 52.3376 33.44 52.6728 33.0825L59.4715 25.8306C59.7828 25.4986 59.8306 24.9982 59.5879 24.6133L56.0178 18.9515C55.6985 18.4451 55.0087 18.3309 54.5431 18.7073Z" stroke="black" stroke-width="0.8"/>
</g>
<defs>
<filter id="filter0_dd_1073_16897" x="0.302734" y="0.000488281" width="201.595" height="84.4995" filterUnits="userSpaceOnUse" color-interpolation-filters="sRGB">
<feFlood flood-opacity="0" result="BackgroundImageFix"/>
<feColorMatrix in="SourceAlpha" type="matrix" values="0 0 0 0 0 0 0 0 0 0 0 0 0 0 0 0 0 0 127 0" result="hardAlpha"/>
<feOffset dx="0.2" dy="2.5"/>
<feComposite in2="hardAlpha" operator="out"/>
<feColorMatrix type="matrix" values="0 0 0 0 0 0 0 0 0 0 0 0 0 0 0 0 0 0 0.5 0"/>
<feBlend mode="normal" in2="BackgroundImageFix" result="effect1_dropShadow_1073_16897"/>
<feColorMatrix in="SourceAlpha" type="matrix" values="0 0 0 0 0 0 0 0 0 0 0 0 0 0 0 0 0 0 127 0" result="hardAlpha"/>
<feOffset dy="0.6"/>
<feComposite in2="hardAlpha" operator="out"/>
<feColorMatrix type="matrix" values="0 0 0 0 0 0 0 0 0 0 0 0 0 0 0 0 0 0 1 0"/>
<feBlend mode="normal" in2="effect1_dropShadow_1073_16897" result="effect2_dropShadow_1073_16897"/>
<feBlend mode="normal" in="SourceGraphic" in2="effect2_dropShadow_1073_16897" result="shape"/>
</filter>
<filter id="filter1_d_1073_16897" x="86.7002" y="24.4482" width="48.0547" height="23.4199" filterUnits="userSpaceOnUse" color-interpolation-filters="sRGB">
<feFlood flood-opacity="0" result="BackgroundImageFix"/>
<feColorMatrix in="SourceAlpha" type="matrix" values="0 0 0 0 0 0 0 0 0 0 0 0 0 0 0 0 0 0 127 0" result="hardAlpha"/>
<feOffset dy="2"/>
<feComposite in2="hardAlpha" operator="out"/>
<feColorMatrix type="matrix" values="0 0 0 0 0 0 0 0 0 0 0 0 0 0 0 0 0 0 1 0"/>
<feBlend mode="normal" in2="BackgroundImageFix" result="effect1_dropShadow_1073_16897"/>
<feBlend mode="normal" in="SourceGraphic" in2="effect1_dropShadow_1073_16897" result="shape"/>
</filter>
<filter id="filter2_d_1073_16897" x="36.1025" y="18.085" width="24.0391" height="33.3451" filterUnits="userSpaceOnUse" color-interpolation-filters="sRGB">
<feFlood flood-opacity="0" result="BackgroundImageFix"/>
<feColorMatrix in="SourceAlpha" type="matrix" values="0 0 0 0 0 0 0 0 0 0 0 0 0 0 0 0 0 0 127 0" result="hardAlpha"/>
<feOffset dy="0.6"/>
<feComposite in2="hardAlpha" operator="out"/>
<feColorMatrix type="matrix" values="0 0 0 0 0 0 0 0 0 0 0 0 0 0 0 0 0 0 1 0"/>
<feBlend mode="normal" in2="BackgroundImageFix" result="effect1_dropShadow_1073_16897"/>
<feBlend mode="normal" in="SourceGraphic" in2="effect1_dropShadow_1073_16897" result="shape"/>
</filter>
</defs>
</svg>
