<svg width="202" height="86" viewBox="0 0 202 86" fill="none" xmlns="http://www.w3.org/2000/svg">
<g filter="url(#filter0_dd_1073_16091)">
<path d="M6.39639 3.79083C6.50625 2.21899 7.81341 1 9.38909 1H197.783C199.522 1 200.897 2.47419 200.776 4.20917L195.604 78.2092C195.494 79.781 194.187 81 192.611 81H4.21699C2.47778 81 1.10304 79.5258 1.2243 77.7908L6.39639 3.79083Z" fill="#232E34"/>
<path d="M197.783 0.5C199.812 0.500103 201.416 2.22006 201.274 4.24414L196.103 78.2441C195.974 80.0778 194.449 81.4998 192.611 81.5H4.2168C2.18781 81.4999 0.584117 79.7799 0.725586 77.7559L5.89746 3.75586C6.02567 1.92223 7.5506 0.500214 9.38867 0.5H197.783Z" stroke="black"/>
</g>
<mask id="mask0_1073_16091" style="mask-type:alpha" maskUnits="userSpaceOnUse" x="1" y="1" width="200" height="80">
<path d="M6.39639 3.79083C6.50625 2.21899 7.81341 1 9.38909 1H197.783C199.522 1 200.897 2.47419 200.776 4.20917L195.604 78.2092C195.494 79.781 194.187 81 192.611 81H4.21699C2.47778 81 1.10304 79.5258 1.2243 77.7908L6.39639 3.79083Z" fill="#353C52"/>
</mask>
<g mask="url(#mask0_1073_16091)">
<rect x="-4.375" y="73.5186" width="207.494" height="7.4817" fill="#283238"/>
</g>
<g filter="url(#filter1_d_1073_16091)">
<path d="M107.543 25.7073L89.874 39.9958C89.4087 40.3721 89.3758 41.07 89.8037 41.4884L105.817 57.1451C106.269 57.587 107.012 57.504 107.356 56.9734L111.656 50.3278C111.886 49.9723 111.867 49.5104 111.609 49.1748L105.61 41.3762C105.311 40.9878 105.338 40.44 105.673 40.0825L112.472 32.8306C112.783 32.4986 112.831 31.9982 112.588 31.6133L109.018 25.9515C108.698 25.4451 108.009 25.3309 107.543 25.7073Z" fill="white"/>
<path d="M107.543 25.7073L89.874 39.9958C89.4087 40.3721 89.3758 41.07 89.8037 41.4884L105.817 57.1451C106.269 57.587 107.012 57.504 107.356 56.9734L111.656 50.3278C111.886 49.9723 111.867 49.5104 111.609 49.1748L105.61 41.3762C105.311 40.9878 105.338 40.44 105.673 40.0825L112.472 32.8306C112.783 32.4986 112.831 31.9982 112.588 31.6133L109.018 25.9515C108.698 25.4451 108.009 25.3309 107.543 25.7073Z" stroke="black" stroke-width="0.8"/>
</g>
<defs>
<filter id="filter0_dd_1073_16091" x="0.216797" y="0" width="201.566" height="85.5" filterUnits="userSpaceOnUse" color-interpolation-filters="sRGB">
<feFlood flood-opacity="0" result="BackgroundImageFix"/>
<feColorMatrix in="SourceAlpha" type="matrix" values="0 0 0 0 0 0 0 0 0 0 0 0 0 0 0 0 0 0 127 0" result="hardAlpha"/>
<feOffset dy="3.5"/>
<feComposite in2="hardAlpha" operator="out"/>
<feColorMatrix type="matrix" values="0 0 0 0 0 0 0 0 0 0 0 0 0 0 0 0 0 0 0.5 0"/>
<feBlend mode="normal" in2="BackgroundImageFix" result="effect1_dropShadow_1073_16091"/>
<feColorMatrix in="SourceAlpha" type="matrix" values="0 0 0 0 0 0 0 0 0 0 0 0 0 0 0 0 0 0 127 0" result="hardAlpha"/>
<feOffset dy="1.5"/>
<feComposite in2="hardAlpha" operator="out"/>
<feColorMatrix type="matrix" values="0 0 0 0 0 0 0 0 0 0 0 0 0 0 0 0 0 0 1 0"/>
<feBlend mode="normal" in2="effect1_dropShadow_1073_16091" result="effect2_dropShadow_1073_16091"/>
<feBlend mode="normal" in="SourceGraphic" in2="effect2_dropShadow_1073_16091" result="shape"/>
</filter>
<filter id="filter1_d_1073_16091" x="89.1035" y="25.085" width="24.0391" height="33.3451" filterUnits="userSpaceOnUse" color-interpolation-filters="sRGB">
<feFlood flood-opacity="0" result="BackgroundImageFix"/>
<feColorMatrix in="SourceAlpha" type="matrix" values="0 0 0 0 0 0 0 0 0 0 0 0 0 0 0 0 0 0 127 0" result="hardAlpha"/>
<feOffset dy="0.6"/>
<feComposite in2="hardAlpha" operator="out"/>
<feColorMatrix type="matrix" values="0 0 0 0 0 0 0 0 0 0 0 0 0 0 0 0 0 0 1 0"/>
<feBlend mode="normal" in2="BackgroundImageFix" result="effect1_dropShadow_1073_16091"/>
<feBlend mode="normal" in="SourceGraphic" in2="effect1_dropShadow_1073_16091" result="shape"/>
</filter>
</defs>
</svg>
