<svg width="105" height="73" viewBox="0 0 105 73" fill="none" xmlns="http://www.w3.org/2000/svg">
<g filter="url(#filter0_dd_1073_16573)">
<path d="M6.15062 2.47649C6.21513 1.64323 6.91009 1 7.74584 1H102.271C103.204 1 103.939 1.79396 103.867 2.72351L98.8494 67.5235C98.7849 68.3568 98.0899 69 97.2542 69H2.72867C1.79633 69 1.06147 68.206 1.13344 67.2765L6.15062 2.47649Z" fill="#E6311F"/>
<path d="M102.271 0.700195C103.379 0.700282 104.251 1.64328 104.166 2.74707L99.1484 67.5469C99.0717 68.5363 98.2463 69.2998 97.2539 69.2998H2.72852C1.62144 69.2997 0.748523 68.3567 0.833984 67.2529L5.85156 2.45312C5.92827 1.46373 6.75371 0.700195 7.74609 0.700195H102.271Z" stroke="black" stroke-width="0.6"/>
</g>
<mask id="mask0_1073_16573" style="mask-type:alpha" maskUnits="userSpaceOnUse" x="1" y="1" width="103" height="68">
<path d="M6.15062 2.47649C6.21513 1.64323 6.91009 1 7.74584 1H102.271C103.204 1 103.939 1.79396 103.867 2.72351L98.8494 67.5235C98.7849 68.3568 98.0899 69 97.2542 69H2.72867C1.79633 69 1.06147 68.206 1.13344 67.2765L6.15062 2.47649Z" fill="#343B50"/>
</mask>
<g mask="url(#mask0_1073_16573)">
<rect x="-2.39844" y="-13.6938" width="114.666" height="19.7785" fill="#FF7B7B"/>
<rect x="-2.33203" y="62.2812" width="114.666" height="19.7785" fill="#CD0034"/>
</g>
<path d="M48.4092 14.999C48.5262 14.9259 48.682 14.9417 48.7822 15.0439L58.501 24.9541L69.3301 16.5205C69.4605 16.4189 69.649 16.4422 69.751 16.5723L77.9365 27.0137C78.0345 27.1388 78.0177 27.3188 77.8984 27.4238L68.7734 35.4307L77.5068 44.3359C77.5654 44.3957 77.5969 44.477 77.5928 44.5605C77.5886 44.6441 77.5496 44.7227 77.4854 44.7764L65.2861 54.9756C65.1654 55.0765 64.9863 55.0674 64.877 54.9541L56.4619 46.2334L47.6035 54.0078C47.483 54.1133 47.3005 54.1057 47.1895 53.9902L36.3018 42.666C36.2429 42.6048 36.2127 42.5212 36.2188 42.4365C36.2248 42.3518 36.266 42.2729 36.333 42.2207L45.6143 34.9912L37.0684 26.1357C37.013 26.0782 36.9826 26.0008 36.9844 25.9209C36.9862 25.841 37.0202 25.765 37.0781 25.71L48.3623 15.0361L48.4092 14.999Z" fill="black" stroke="black" stroke-width="0.6" stroke-linejoin="round"/>
<path d="M35.8262 26.0045V22.9687C35.8262 22.9134 35.8709 22.8687 35.9262 22.8687H38.3538C38.409 22.8687 38.4538 22.9134 38.4538 22.9687V26.0045C38.4538 26.0597 38.409 26.1045 38.3538 26.1045H35.9262C35.8709 26.1045 35.8262 26.0597 35.8262 26.0045Z" fill="black"/>
<path d="M35.0469 42.5503V39.3451C35.0469 39.2899 35.0916 39.2451 35.1469 39.2451H37.5745C37.6297 39.2451 37.6745 39.2899 37.6745 39.3451V42.5503C37.6745 42.6055 37.6297 42.6503 37.5745 42.6503H35.1469C35.0916 42.6503 35.0469 42.6055 35.0469 42.5503Z" fill="black"/>
<path d="M76.5488 27.2646V24.0595C76.5488 24.0042 76.5936 23.9595 76.6488 23.9595H79.0764C79.1317 23.9595 79.1764 24.0042 79.1764 24.0595V27.2646C79.1764 27.3199 79.1317 27.3646 79.0764 27.3646H76.6488C76.5936 27.3646 76.5488 27.3199 76.5488 27.2646Z" fill="black"/>
<path d="M76.1309 44.6875V41.4823C76.1309 41.4271 76.1756 41.3823 76.2309 41.3823H78.6584C78.7137 41.3823 78.7584 41.4271 78.7584 41.4823V44.6875C78.7584 44.7427 78.7137 44.7875 78.6584 44.7875H76.2309C76.1756 44.7875 76.1309 44.7427 76.1309 44.6875Z" fill="black"/>
<mask id="path-11-outside-1_1073_16573" maskUnits="userSpaceOnUse" x="35.5176" y="11.2456" width="43" height="42" fill="black">
<rect fill="white" x="35.5176" y="11.2456" width="43" height="42"/>
<path d="M58.4746 22.3481L69.5146 13.7495L77.6992 24.1899L68.3369 32.4048L77.293 41.5376L65.0928 51.7378L56.4785 42.811L47.4053 50.7739L36.5176 39.4497L46.0615 32.0151L37.2842 22.9194L48.5674 12.2456L58.4746 22.3481Z"/>
</mask>
<path d="M58.4746 22.3481L69.5146 13.7495L77.6992 24.1899L68.3369 32.4048L77.293 41.5376L65.0928 51.7378L56.4785 42.811L47.4053 50.7739L36.5176 39.4497L46.0615 32.0151L37.2842 22.9194L48.5674 12.2456L58.4746 22.3481Z" fill="white"/>
<path d="M58.4746 22.3481L58.0462 22.7682C58.2598 22.986 58.6027 23.0089 58.8433 22.8215L58.4746 22.3481ZM69.5146 13.7495L69.9868 13.3793C69.7829 13.1191 69.4068 13.073 69.146 13.2761L69.5146 13.7495ZM77.6992 24.1899L78.0949 24.6409C78.3343 24.4309 78.3679 24.0704 78.1714 23.8198L77.6992 24.1899ZM68.3369 32.4048L67.9412 31.9538C67.8172 32.0625 67.7435 32.2175 67.7373 32.3823C67.7312 32.5471 67.7931 32.7071 67.9085 32.8249L68.3369 32.4048ZM77.293 41.5376L77.6778 41.9979C77.8062 41.8905 77.884 41.7344 77.8922 41.5672C77.9005 41.4 77.8386 41.237 77.7214 41.1175L77.293 41.5376ZM65.0928 51.7378L64.661 52.1544C64.8796 52.381 65.2361 52.4 65.4776 52.1981L65.0928 51.7378ZM56.4785 42.811L56.9103 42.3944C56.6878 42.1639 56.3235 42.1488 56.0827 42.3601L56.4785 42.811ZM47.4053 50.7739L46.9728 51.1898C47.1951 51.421 47.56 51.4365 47.801 51.2249L47.4053 50.7739ZM36.5176 39.4497L36.1489 38.9764C36.0148 39.0808 35.9313 39.2372 35.9191 39.4068C35.907 39.5763 35.9673 39.743 36.0851 39.8656L36.5176 39.4497ZM46.0615 32.0151L46.4302 32.4885C46.5645 32.3839 46.648 32.2273 46.66 32.0575C46.672 31.8878 46.6114 31.7209 46.4933 31.5985L46.0615 32.0151ZM37.2842 22.9194L36.8718 22.4836C36.7555 22.5936 36.688 22.7456 36.6843 22.9058C36.6807 23.0659 36.7412 23.2208 36.8524 23.3361L37.2842 22.9194ZM48.5674 12.2456L48.9958 11.8255C48.7667 11.5919 48.3927 11.5849 48.1551 11.8097L48.5674 12.2456ZM58.4746 22.3481L58.8433 22.8215L69.8833 14.2229L69.5146 13.7495L69.146 13.2761L58.1059 21.8748L58.4746 22.3481ZM69.5146 13.7495L69.0424 14.1197L77.227 24.5601L77.6992 24.1899L78.1714 23.8198L69.9868 13.3793L69.5146 13.7495ZM77.6992 24.1899L77.3035 23.7389L67.9412 31.9538L68.3369 32.4048L68.7326 32.8558L78.0949 24.6409L77.6992 24.1899ZM68.3369 32.4048L67.9085 32.8249L76.8646 41.9577L77.293 41.5376L77.7214 41.1175L68.7653 31.9847L68.3369 32.4048ZM77.293 41.5376L76.9081 41.0773L64.7079 51.2775L65.0928 51.7378L65.4776 52.1981L77.6778 41.9979L77.293 41.5376ZM65.0928 51.7378L65.5245 51.3212L56.9103 42.3944L56.4785 42.811L56.0468 43.2277L64.661 52.1544L65.0928 51.7378ZM56.4785 42.811L56.0827 42.3601L47.0095 50.323L47.4053 50.7739L47.801 51.2249L56.8743 43.262L56.4785 42.811ZM47.4053 50.7739L47.8378 50.3581L36.9501 39.0339L36.5176 39.4497L36.0851 39.8656L46.9728 51.1898L47.4053 50.7739ZM36.5176 39.4497L36.8863 39.923L46.4302 32.4885L46.0615 32.0151L45.6928 31.5418L36.1489 38.9764L36.5176 39.4497ZM46.0615 32.0151L46.4933 31.5985L37.7159 22.5028L37.2842 22.9194L36.8524 23.3361L45.6298 32.4318L46.0615 32.0151ZM37.2842 22.9194L37.6965 23.3553L48.9797 12.6815L48.5674 12.2456L48.1551 11.8097L36.8718 22.4836L37.2842 22.9194ZM48.5674 12.2456L48.139 12.6657L58.0462 22.7682L58.4746 22.3481L58.903 21.928L48.9958 11.8255L48.5674 12.2456Z" fill="black" mask="url(#path-11-outside-1_1073_16573)"/>
<defs>
<filter id="filter0_dd_1073_16573" x="0.529297" y="0.399902" width="104.141" height="71.7002" filterUnits="userSpaceOnUse" color-interpolation-filters="sRGB">
<feFlood flood-opacity="0" result="BackgroundImageFix"/>
<feColorMatrix in="SourceAlpha" type="matrix" values="0 0 0 0 0 0 0 0 0 0 0 0 0 0 0 0 0 0 127 0" result="hardAlpha"/>
<feOffset dx="0.2" dy="2.5"/>
<feComposite in2="hardAlpha" operator="out"/>
<feColorMatrix type="matrix" values="0 0 0 0 0 0 0 0 0 0 0 0 0 0 0 0 0 0 0.5 0"/>
<feBlend mode="normal" in2="BackgroundImageFix" result="effect1_dropShadow_1073_16573"/>
<feColorMatrix in="SourceAlpha" type="matrix" values="0 0 0 0 0 0 0 0 0 0 0 0 0 0 0 0 0 0 127 0" result="hardAlpha"/>
<feOffset dy="0.6"/>
<feComposite in2="hardAlpha" operator="out"/>
<feColorMatrix type="matrix" values="0 0 0 0 0 0 0 0 0 0 0 0 0 0 0 0 0 0 1 0"/>
<feBlend mode="normal" in2="effect1_dropShadow_1073_16573" result="effect2_dropShadow_1073_16573"/>
<feBlend mode="normal" in="SourceGraphic" in2="effect2_dropShadow_1073_16573" result="shape"/>
</filter>
</defs>
</svg>
