<svg width="202" height="85" viewBox="0 0 202 85" fill="none" xmlns="http://www.w3.org/2000/svg">
<g filter="url(#filter0_dd_1073_16818)">
<path d="M6.56994 4.7092C6.72258 2.61863 8.46319 1.00047 10.5593 1.00047H196.697C199.021 1.00047 200.856 2.97404 200.686 5.29174L195.43 77.2911C195.277 79.3817 193.537 80.9999 191.44 80.9999H5.30269C2.97883 80.9999 1.14409 79.0263 1.3133 76.7086L6.56994 4.7092Z" fill="#068F36"/>
<path d="M196.697 0.5C199.311 0.500104 201.376 2.7208 201.186 5.32812L195.929 77.3271C195.757 79.679 193.799 81.5 191.44 81.5H5.30273C2.68839 81.5 0.624088 79.2793 0.814453 76.6719L6.07129 4.67285C6.243 2.32096 8.20142 0.5 10.5596 0.5H196.697Z" stroke="black"/>
</g>
<mask id="mask0_1073_16818" style="mask-type:alpha" maskUnits="userSpaceOnUse" x="1" y="1" width="200" height="80">
<path d="M6.56995 4.70922C6.72258 2.61865 8.46319 1.00049 10.5593 1.00049H196.697C199.021 1.00049 200.856 2.97406 200.686 5.29175L195.43 77.2911C195.277 79.3817 193.537 80.9999 191.44 80.9999H5.30269C2.97883 80.9999 1.14409 79.0263 1.3133 76.7086L6.56995 4.70922Z" fill="#E6311F"/>
</mask>
<g mask="url(#mask0_1073_16818)">
<rect x="-5.68164" y="-14.9932" width="225.403" height="23.4222" fill="#459B03"/>
<rect x="-5.55078" y="72.23" width="225.403" height="23.9316" fill="#007328"/>
</g>
<g filter="url(#filter1_d_1073_16818)">
<mask id="path-6-outside-1_1073_16818" maskUnits="userSpaceOnUse" x="38" y="27" width="132" height="22" fill="black">
<rect fill="white" x="38" y="27" width="132" height="22"/>
<path d="M47.408 28.148C48.7707 28.148 49.9653 28.344 50.992 28.736C52.0373 29.1093 52.56 29.6227 52.56 30.276C52.56 30.9293 52.308 31.7413 51.804 32.712C51.3187 33.664 50.908 34.14 50.572 34.14C50.4787 34.14 50.3667 34.0933 50.236 34C50.124 33.888 49.844 33.776 49.396 33.664C48.9667 33.5333 48.5933 33.468 48.276 33.468C47.1933 33.468 46.316 33.8507 45.644 34.616C44.9907 35.3813 44.664 36.5573 44.664 38.144C44.664 39.712 45 40.8787 45.672 41.644C46.3627 42.4093 47.2307 42.792 48.276 42.792C48.7053 42.792 49.1813 42.736 49.704 42.624C50.2453 42.4933 50.628 42.316 50.852 42.092C50.8893 42.0547 50.964 42.036 51.076 42.036C51.188 42.036 51.3933 42.2507 51.692 42.68C52.0093 43.0907 52.2987 43.6413 52.56 44.332C52.8213 45.004 52.952 45.5267 52.952 45.9C52.952 46.628 52.392 47.2067 51.272 47.636C50.152 48.0653 48.8267 48.28 47.296 48.28C44.832 48.28 42.8067 47.412 41.22 45.676C39.6333 43.94 38.84 41.4947 38.84 38.34C38.84 35.1667 39.652 32.6747 41.276 30.864C42.9187 29.0533 44.9627 28.148 47.408 28.148ZM59.9113 47.804C59.9113 47.972 59.1273 48.056 57.5593 48.056C56.01 48.056 55.2353 47.9253 55.2353 47.664V28.484C55.2353 28.3533 55.5246 28.26 56.1033 28.204C56.682 28.148 57.1673 28.12 57.5593 28.12C59.1273 28.12 59.9113 28.288 59.9113 28.624V34.224C60.9566 33.9067 61.75 33.748 62.2913 33.748C63.71 33.748 64.83 34.1307 65.6513 34.896C66.4726 35.6427 66.8833 37.0427 66.8833 39.096V47.776C66.8833 47.944 66.1553 48.028 64.6993 48.028C63.0566 47.972 62.2353 47.8787 62.2353 47.748V39.516C62.2353 38.6013 61.9366 38.144 61.3393 38.144C60.9286 38.144 60.4526 38.34 59.9113 38.732V47.804ZM80.1267 47.244C78.9507 47.9347 77.4387 48.28 75.5907 48.28C73.7427 48.28 72.184 47.6547 70.9147 46.404C69.6453 45.1347 69.0107 43.3893 69.0107 41.168C69.0107 38.928 69.6173 37.1267 70.8307 35.764C72.0627 34.4013 73.612 33.72 75.4787 33.72C77.3453 33.72 78.7827 34.196 79.7907 35.148C80.8173 36.1 81.3307 37.2573 81.3307 38.62C81.3307 41.644 79.5947 43.156 76.1227 43.156H74.1907C74.1907 43.716 74.34 44.108 74.6387 44.332C74.956 44.5373 75.4133 44.64 76.0107 44.64C77.3173 44.64 78.5587 44.3413 79.7347 43.744C79.7533 43.7253 79.8373 43.856 79.9867 44.136C80.4347 44.9387 80.6587 45.62 80.6587 46.18C80.6587 46.7213 80.4813 47.076 80.1267 47.244ZM76.6267 39.152C76.6267 38.368 76.244 37.976 75.4787 37.976C75.124 37.976 74.816 38.088 74.5547 38.312C74.312 38.5173 74.1907 38.8253 74.1907 39.236V40.104H75.7027C76.3187 40.104 76.6267 39.7867 76.6267 39.152ZM88.0318 41.056C88.0318 42.8853 88.7225 43.8 90.1038 43.8C90.9998 43.8 91.7465 43.6227 92.3438 43.268C92.6238 43.268 92.8478 43.7533 93.0158 44.724C93.2025 45.676 93.2958 46.3293 93.2958 46.684C93.2958 47.02 93.2492 47.244 93.1558 47.356C92.1665 47.972 90.8132 48.28 89.0958 48.28C87.3785 48.28 85.9132 47.6453 84.6998 46.376C83.5052 45.088 82.9078 43.3427 82.9078 41.14C82.9078 38.9187 83.4958 37.1267 84.6718 35.764C85.8665 34.4013 87.4438 33.72 89.4038 33.72C91.3825 33.72 92.7545 34.196 93.5198 35.148C93.6878 35.3533 93.7718 35.6613 93.7718 36.072C93.7718 36.464 93.6972 36.9493 93.5478 37.528C93.2118 38.7227 92.7732 39.4133 92.2318 39.6C92.1572 39.6187 92.0452 39.628 91.8958 39.628C91.7652 39.628 91.5972 39.516 91.3918 39.292C90.6638 38.564 90.0758 38.2 89.6278 38.2C89.1985 38.2 88.8252 38.424 88.5078 38.872C88.1905 39.32 88.0318 40.048 88.0318 41.056ZM95.587 28.624C95.587 28.3253 96.4364 28.176 98.135 28.176C99.7217 28.232 100.515 28.3533 100.515 28.54V39.292L103.287 34.168C103.418 33.888 104.211 33.748 105.667 33.748C107.123 33.748 108.056 33.8413 108.467 34.028L104.827 39.964L109.027 47.832C109.064 47.9067 108.71 47.9627 107.963 48C107.235 48.056 106.628 48.084 106.143 48.084C104.351 48.084 103.39 48 103.259 47.832L100.487 41.616V47.804C100.487 48.0467 99.6657 48.168 98.023 48.168C96.399 48.168 95.587 48.056 95.587 47.832V28.624ZM131.783 47.384C131.783 47.776 130.906 47.972 129.151 47.972C127.397 47.972 126.445 47.832 126.295 47.552L121.619 38.816V47.524C121.619 47.86 120.751 48.028 119.015 48.028C117.298 48.028 116.439 47.86 116.439 47.524V28.792C116.439 28.512 117.177 28.372 118.651 28.372C119.23 28.372 119.902 28.428 120.667 28.54C121.451 28.6333 121.927 28.82 122.095 29.1L126.575 37.724V28.932C126.575 28.5773 127.443 28.4 129.179 28.4C130.915 28.4 131.783 28.5773 131.783 28.932V47.384ZM135.94 46.348C134.782 45.06 134.204 43.2773 134.204 41C134.204 38.7227 134.782 36.94 135.94 35.652C137.116 34.364 138.693 33.72 140.672 33.72C142.65 33.72 144.218 34.364 145.376 35.652C146.533 36.94 147.112 38.7227 147.112 41C147.112 43.2773 146.533 45.06 145.376 46.348C144.218 47.636 142.65 48.28 140.672 48.28C138.693 48.28 137.116 47.636 135.94 46.348ZM140.672 38.396C139.626 38.396 139.104 39.2547 139.104 40.972C139.104 42.6893 139.626 43.548 140.672 43.548C141.736 43.548 142.268 42.6893 142.268 40.972C142.268 39.2547 141.736 38.396 140.672 38.396ZM163.903 34.14C163.903 33.972 164.416 33.888 165.443 33.888C167.758 33.888 168.896 33.9627 168.859 34.112L166.115 47.72C166.059 48.0187 165.023 48.168 163.007 48.168C160.991 48.168 159.955 48.0187 159.899 47.72L158.751 41.448L157.323 47.72C157.267 48 156.194 48.14 154.103 48.14C152.031 48.14 150.967 47.972 150.911 47.636L148.419 34C148.363 33.888 149.166 33.832 150.827 33.832C152.47 33.8507 153.291 33.888 153.291 33.944L154.579 43.408L156.903 34.056C156.94 33.944 157.556 33.888 158.751 33.888C159.946 33.888 160.562 33.944 160.599 34.056L162.895 43.296L163.903 34.14Z"/>
</mask>
<path d="M47.408 28.148C48.7707 28.148 49.9653 28.344 50.992 28.736C52.0373 29.1093 52.56 29.6227 52.56 30.276C52.56 30.9293 52.308 31.7413 51.804 32.712C51.3187 33.664 50.908 34.14 50.572 34.14C50.4787 34.14 50.3667 34.0933 50.236 34C50.124 33.888 49.844 33.776 49.396 33.664C48.9667 33.5333 48.5933 33.468 48.276 33.468C47.1933 33.468 46.316 33.8507 45.644 34.616C44.9907 35.3813 44.664 36.5573 44.664 38.144C44.664 39.712 45 40.8787 45.672 41.644C46.3627 42.4093 47.2307 42.792 48.276 42.792C48.7053 42.792 49.1813 42.736 49.704 42.624C50.2453 42.4933 50.628 42.316 50.852 42.092C50.8893 42.0547 50.964 42.036 51.076 42.036C51.188 42.036 51.3933 42.2507 51.692 42.68C52.0093 43.0907 52.2987 43.6413 52.56 44.332C52.8213 45.004 52.952 45.5267 52.952 45.9C52.952 46.628 52.392 47.2067 51.272 47.636C50.152 48.0653 48.8267 48.28 47.296 48.28C44.832 48.28 42.8067 47.412 41.22 45.676C39.6333 43.94 38.84 41.4947 38.84 38.34C38.84 35.1667 39.652 32.6747 41.276 30.864C42.9187 29.0533 44.9627 28.148 47.408 28.148ZM59.9113 47.804C59.9113 47.972 59.1273 48.056 57.5593 48.056C56.01 48.056 55.2353 47.9253 55.2353 47.664V28.484C55.2353 28.3533 55.5246 28.26 56.1033 28.204C56.682 28.148 57.1673 28.12 57.5593 28.12C59.1273 28.12 59.9113 28.288 59.9113 28.624V34.224C60.9566 33.9067 61.75 33.748 62.2913 33.748C63.71 33.748 64.83 34.1307 65.6513 34.896C66.4726 35.6427 66.8833 37.0427 66.8833 39.096V47.776C66.8833 47.944 66.1553 48.028 64.6993 48.028C63.0566 47.972 62.2353 47.8787 62.2353 47.748V39.516C62.2353 38.6013 61.9366 38.144 61.3393 38.144C60.9286 38.144 60.4526 38.34 59.9113 38.732V47.804ZM80.1267 47.244C78.9507 47.9347 77.4387 48.28 75.5907 48.28C73.7427 48.28 72.184 47.6547 70.9147 46.404C69.6453 45.1347 69.0107 43.3893 69.0107 41.168C69.0107 38.928 69.6173 37.1267 70.8307 35.764C72.0627 34.4013 73.612 33.72 75.4787 33.72C77.3453 33.72 78.7827 34.196 79.7907 35.148C80.8173 36.1 81.3307 37.2573 81.3307 38.62C81.3307 41.644 79.5947 43.156 76.1227 43.156H74.1907C74.1907 43.716 74.34 44.108 74.6387 44.332C74.956 44.5373 75.4133 44.64 76.0107 44.64C77.3173 44.64 78.5587 44.3413 79.7347 43.744C79.7533 43.7253 79.8373 43.856 79.9867 44.136C80.4347 44.9387 80.6587 45.62 80.6587 46.18C80.6587 46.7213 80.4813 47.076 80.1267 47.244ZM76.6267 39.152C76.6267 38.368 76.244 37.976 75.4787 37.976C75.124 37.976 74.816 38.088 74.5547 38.312C74.312 38.5173 74.1907 38.8253 74.1907 39.236V40.104H75.7027C76.3187 40.104 76.6267 39.7867 76.6267 39.152ZM88.0318 41.056C88.0318 42.8853 88.7225 43.8 90.1038 43.8C90.9998 43.8 91.7465 43.6227 92.3438 43.268C92.6238 43.268 92.8478 43.7533 93.0158 44.724C93.2025 45.676 93.2958 46.3293 93.2958 46.684C93.2958 47.02 93.2492 47.244 93.1558 47.356C92.1665 47.972 90.8132 48.28 89.0958 48.28C87.3785 48.28 85.9132 47.6453 84.6998 46.376C83.5052 45.088 82.9078 43.3427 82.9078 41.14C82.9078 38.9187 83.4958 37.1267 84.6718 35.764C85.8665 34.4013 87.4438 33.72 89.4038 33.72C91.3825 33.72 92.7545 34.196 93.5198 35.148C93.6878 35.3533 93.7718 35.6613 93.7718 36.072C93.7718 36.464 93.6972 36.9493 93.5478 37.528C93.2118 38.7227 92.7732 39.4133 92.2318 39.6C92.1572 39.6187 92.0452 39.628 91.8958 39.628C91.7652 39.628 91.5972 39.516 91.3918 39.292C90.6638 38.564 90.0758 38.2 89.6278 38.2C89.1985 38.2 88.8252 38.424 88.5078 38.872C88.1905 39.32 88.0318 40.048 88.0318 41.056ZM95.587 28.624C95.587 28.3253 96.4364 28.176 98.135 28.176C99.7217 28.232 100.515 28.3533 100.515 28.54V39.292L103.287 34.168C103.418 33.888 104.211 33.748 105.667 33.748C107.123 33.748 108.056 33.8413 108.467 34.028L104.827 39.964L109.027 47.832C109.064 47.9067 108.71 47.9627 107.963 48C107.235 48.056 106.628 48.084 106.143 48.084C104.351 48.084 103.39 48 103.259 47.832L100.487 41.616V47.804C100.487 48.0467 99.6657 48.168 98.023 48.168C96.399 48.168 95.587 48.056 95.587 47.832V28.624ZM131.783 47.384C131.783 47.776 130.906 47.972 129.151 47.972C127.397 47.972 126.445 47.832 126.295 47.552L121.619 38.816V47.524C121.619 47.86 120.751 48.028 119.015 48.028C117.298 48.028 116.439 47.86 116.439 47.524V28.792C116.439 28.512 117.177 28.372 118.651 28.372C119.23 28.372 119.902 28.428 120.667 28.54C121.451 28.6333 121.927 28.82 122.095 29.1L126.575 37.724V28.932C126.575 28.5773 127.443 28.4 129.179 28.4C130.915 28.4 131.783 28.5773 131.783 28.932V47.384ZM135.94 46.348C134.782 45.06 134.204 43.2773 134.204 41C134.204 38.7227 134.782 36.94 135.94 35.652C137.116 34.364 138.693 33.72 140.672 33.72C142.65 33.72 144.218 34.364 145.376 35.652C146.533 36.94 147.112 38.7227 147.112 41C147.112 43.2773 146.533 45.06 145.376 46.348C144.218 47.636 142.65 48.28 140.672 48.28C138.693 48.28 137.116 47.636 135.94 46.348ZM140.672 38.396C139.626 38.396 139.104 39.2547 139.104 40.972C139.104 42.6893 139.626 43.548 140.672 43.548C141.736 43.548 142.268 42.6893 142.268 40.972C142.268 39.2547 141.736 38.396 140.672 38.396ZM163.903 34.14C163.903 33.972 164.416 33.888 165.443 33.888C167.758 33.888 168.896 33.9627 168.859 34.112L166.115 47.72C166.059 48.0187 165.023 48.168 163.007 48.168C160.991 48.168 159.955 48.0187 159.899 47.72L158.751 41.448L157.323 47.72C157.267 48 156.194 48.14 154.103 48.14C152.031 48.14 150.967 47.972 150.911 47.636L148.419 34C148.363 33.888 149.166 33.832 150.827 33.832C152.47 33.8507 153.291 33.888 153.291 33.944L154.579 43.408L156.903 34.056C156.94 33.944 157.556 33.888 158.751 33.888C159.946 33.888 160.562 33.944 160.599 34.056L162.895 43.296L163.903 34.14Z" fill="white"/>
<path d="M50.992 28.736L50.7423 29.39L50.7494 29.3927L50.7566 29.3952L50.992 28.736ZM51.804 32.712L51.1827 32.3894L51.1804 32.3941L51.804 32.712ZM50.236 34L49.741 34.495L49.782 34.5359L49.8291 34.5696L50.236 34ZM49.396 33.664L49.1922 34.3337L49.2091 34.3388L49.2262 34.3431L49.396 33.664ZM45.644 34.616L45.1179 34.1541L45.1116 34.1615L45.644 34.616ZM45.672 41.644L45.1459 42.1059L45.1523 42.113L45.672 41.644ZM49.704 42.624L49.8507 43.3085L49.8595 43.3066L49.8682 43.3045L49.704 42.624ZM50.852 42.092L50.357 41.597L50.852 42.092ZM51.692 42.68L51.1174 43.0797L51.1274 43.0941L51.1381 43.108L51.692 42.68ZM52.56 44.332L51.9053 44.5797L51.9076 44.5857L52.56 44.332ZM51.272 47.636L51.5226 48.2896L51.272 47.636ZM41.22 45.676L40.7033 46.1483H40.7033L41.22 45.676ZM41.276 30.864L40.7576 30.3937L40.7549 30.3966L41.276 30.864ZM47.408 28.148V28.848C48.7051 28.848 49.8119 29.0347 50.7423 29.39L50.992 28.736L51.2417 28.082C50.1187 27.6533 48.8363 27.448 47.408 27.448V28.148ZM50.992 28.736L50.7566 29.3952C51.7412 29.7469 51.86 30.0972 51.86 30.276H52.56H53.26C53.26 29.1482 52.3335 28.4718 51.2274 28.0768L50.992 28.736ZM52.56 30.276H51.86C51.86 30.7655 51.6656 31.4594 51.1828 32.3894L51.804 32.712L52.4252 33.0346C52.9504 32.0232 53.26 31.0932 53.26 30.276H52.56ZM51.804 32.712L51.1804 32.3941C50.9481 32.8496 50.7539 33.1496 50.602 33.3257C50.4234 33.5327 50.4165 33.44 50.572 33.44V34.14V34.84C51.0635 34.84 51.4299 34.5093 51.662 34.2403C51.9208 33.9404 52.1746 33.5264 52.4276 33.0299L51.804 32.712ZM50.572 34.14V33.44C50.641 33.44 50.6823 33.4568 50.6872 33.4588C50.6926 33.4611 50.6782 33.4556 50.6429 33.4304L50.236 34L49.8291 34.5696C50.0022 34.6932 50.2608 34.84 50.572 34.84V34.14ZM50.236 34L50.731 33.505C50.5717 33.3457 50.3648 33.2472 50.202 33.1821C50.0215 33.1099 49.8062 33.045 49.5658 32.9849L49.396 33.664L49.2262 34.3431C49.4338 34.395 49.5825 34.4421 49.682 34.4819C49.7313 34.5016 49.7598 34.5161 49.7732 34.5238C49.7891 34.5328 49.7713 34.5252 49.741 34.495L50.236 34ZM49.396 33.664L49.5998 32.9943C49.1294 32.8512 48.6844 32.768 48.276 32.768V33.468V34.168C48.5023 34.168 48.8039 34.2155 49.1922 34.3337L49.396 33.664ZM48.276 33.468V32.768C47.0063 32.768 45.9321 33.227 45.118 34.1541L45.644 34.616L46.17 35.0779C46.6999 34.4744 47.3804 34.168 48.276 34.168V33.468ZM45.644 34.616L45.1116 34.1615C44.3029 35.1089 43.964 36.4817 43.964 38.144H44.664H45.364C45.364 36.633 45.6784 35.6538 46.1764 35.0705L45.644 34.616ZM44.664 38.144H43.964C43.964 39.794 44.3149 41.1594 45.146 42.1059L45.672 41.644L46.198 41.1821C45.6851 40.598 45.364 39.63 45.364 38.144H44.664ZM45.672 41.644L45.1523 42.113C45.9778 43.0277 47.0357 43.492 48.276 43.492V42.792V42.092C47.4256 42.092 46.7475 41.7909 46.1917 41.175L45.672 41.644ZM48.276 42.792V43.492C48.7649 43.492 49.291 43.4284 49.8507 43.3085L49.704 42.624L49.5573 41.9395C49.0717 42.0436 48.6458 42.092 48.276 42.092V42.792ZM49.704 42.624L49.8682 43.3045C50.4522 43.1635 50.9863 42.9477 51.347 42.587L50.852 42.092L50.357 41.597C50.2697 41.6843 50.0385 41.8232 49.5398 41.9435L49.704 42.624ZM50.852 42.092L51.347 42.587C51.2439 42.69 51.1386 42.7209 51.1058 42.7291C51.0687 42.7384 51.0538 42.736 51.076 42.736V42.036V41.336C50.9862 41.336 50.878 41.343 50.7662 41.3709C50.6587 41.3978 50.4974 41.4566 50.357 41.597L50.852 42.092ZM51.076 42.036V42.736C50.9795 42.736 50.9061 42.7133 50.8643 42.6968C50.822 42.68 50.7951 42.6627 50.7853 42.656C50.7678 42.6442 50.7746 42.6458 50.8082 42.6809C50.8738 42.7495 50.9757 42.8761 51.1174 43.0797L51.692 42.68L52.2666 42.2803C52.1096 42.0546 51.9596 41.8592 51.8198 41.7131C51.7507 41.6409 51.6666 41.562 51.5697 41.4965C51.4875 41.4408 51.3117 41.336 51.076 41.336V42.036ZM51.692 42.68L51.1381 43.108C51.3994 43.4462 51.659 43.9288 51.9053 44.5797L52.56 44.332L53.2147 44.0843C52.9383 43.3538 52.6193 42.7352 52.2459 42.252L51.692 42.68ZM52.56 44.332L51.9076 44.5857C52.1612 45.2378 52.252 45.661 52.252 45.9H52.952H53.652C53.652 45.3923 53.4815 44.7702 53.2124 44.0783L52.56 44.332ZM52.952 45.9H52.252C52.252 46.173 52.0675 46.5814 51.0214 46.9824L51.272 47.636L51.5226 48.2896C52.7165 47.8319 53.652 47.083 53.652 45.9H52.952ZM51.272 47.636L51.0214 46.9824C50.0001 47.3739 48.7636 47.58 47.296 47.58V48.28V48.98C48.8897 48.98 50.3039 48.7568 51.5226 48.2896L51.272 47.636ZM47.296 48.28V47.58C45.018 47.58 43.1838 46.787 41.7367 45.2037L41.22 45.676L40.7033 46.1483C42.4296 48.037 44.646 48.98 47.296 48.98V48.28ZM41.22 45.676L41.7367 45.2037C40.3033 43.6355 39.54 41.3806 39.54 38.34H38.84H38.14C38.14 41.6088 38.9633 44.2445 40.7033 46.1483L41.22 45.676ZM38.84 38.34H39.54C39.54 35.2853 40.3198 32.9785 41.7971 31.3314L41.276 30.864L40.7549 30.3966C38.9842 32.3708 38.14 35.048 38.14 38.34H38.84ZM41.276 30.864L41.7944 31.3343C43.3044 29.67 45.1601 28.848 47.408 28.848V28.148V27.448C44.7652 27.448 42.5329 28.4367 40.7576 30.3937L41.276 30.864ZM56.1033 28.204L56.1707 28.9007H56.1707L56.1033 28.204ZM59.9113 34.224H59.2113V35.168L60.1146 34.8938L59.9113 34.224ZM65.6513 34.896L65.1741 35.4082L65.1804 35.414L65.6513 34.896ZM64.6993 48.028L64.6755 48.7276L64.6874 48.728H64.6993V48.028ZM59.9113 38.732L59.5008 38.165L59.2113 38.3746V38.732H59.9113ZM59.9113 47.804H59.2113C59.2113 47.5168 59.3875 47.3534 59.4546 47.3031C59.5204 47.2537 59.5683 47.242 59.5501 47.2478C59.5217 47.257 59.432 47.2773 59.2487 47.297C58.8952 47.3349 58.3376 47.356 57.5593 47.356V48.056V48.756C58.349 48.756 58.9674 48.7351 59.3979 48.689C59.6066 48.6667 59.8109 48.6346 59.9785 48.5807C60.0583 48.555 60.1797 48.5092 60.2946 48.4231C60.4106 48.336 60.6113 48.1332 60.6113 47.804H59.9113ZM57.5593 48.056V47.356C56.7938 47.356 56.2605 47.323 55.9327 47.2677C55.8536 47.2544 55.7943 47.241 55.7516 47.229C55.7071 47.2165 55.6923 47.2087 55.6966 47.2109C55.6973 47.2113 55.7488 47.2362 55.8058 47.3035C55.872 47.3817 55.9353 47.507 55.9353 47.664H55.2353H54.5353C54.5353 48.1382 54.898 48.3758 55.0645 48.4601C55.2557 48.5568 55.4833 48.6117 55.6999 48.6483C56.1468 48.7236 56.7755 48.756 57.5593 48.756V48.056ZM55.2353 47.664H55.9353V28.484H55.2353H54.5353V47.664H55.2353ZM55.2353 28.484H55.9353C55.9353 28.7456 55.7806 28.8981 55.7181 28.9465C55.6616 28.9903 55.628 28.9949 55.6672 28.9822C55.7384 28.9592 55.8949 28.9274 56.1707 28.9007L56.1033 28.204L56.0359 27.5073C55.733 27.5366 55.4555 27.5794 55.2374 27.6498C55.132 27.6838 54.9899 27.7397 54.861 27.8395C54.7262 27.9439 54.5353 28.1571 54.5353 28.484H55.2353ZM56.1033 28.204L56.1707 28.9007C56.7366 28.846 57.1978 28.82 57.5593 28.82V28.12V27.42C57.1369 27.42 56.6274 27.45 56.0359 27.5073L56.1033 28.204ZM57.5593 28.12V28.82C58.3313 28.82 58.8592 28.8624 59.1766 28.9305C59.3408 28.9656 59.392 28.9963 59.3858 28.9923C59.3687 28.9813 59.2113 28.8643 59.2113 28.624H59.9113H60.6113C60.6113 28.2157 60.356 27.9517 60.1428 27.8147C59.9406 27.6847 59.6978 27.6104 59.47 27.5615C59.0034 27.4616 58.3553 27.42 57.5593 27.42V28.12ZM59.9113 28.624H59.2113V34.224H59.9113H60.6113V28.624H59.9113ZM59.9113 34.224L60.1146 34.8938C61.1468 34.5805 61.8581 34.448 62.2913 34.448V33.748V33.048C61.6419 33.048 60.7665 33.2329 59.708 33.5542L59.9113 34.224ZM62.2913 33.748V34.448C63.5815 34.448 64.514 34.793 65.1741 35.4081L65.6513 34.896L66.1285 34.3839C65.146 33.4683 63.8385 33.048 62.2913 33.048V33.748ZM65.6513 34.896L65.1804 35.414C65.7717 35.9515 66.1833 37.0866 66.1833 39.096H66.8833H67.5833C67.5833 36.9987 67.1736 35.3338 66.1222 34.378L65.6513 34.896ZM66.8833 39.096H66.1833V47.776H66.8833H67.5833V39.096H66.8833ZM66.8833 47.776H66.1833C66.1833 47.5113 66.3356 47.3501 66.4094 47.2905C66.4772 47.2357 66.5297 47.2207 66.5178 47.2248C66.5006 47.2307 66.4251 47.2502 66.2571 47.2696C65.9344 47.3068 65.4212 47.328 64.6993 47.328V48.028V48.728C65.4334 48.728 66.0122 48.7072 66.4175 48.6604C66.6135 48.6378 66.8111 48.6048 66.9758 48.5477C67.0549 48.5203 67.1757 48.4712 67.289 48.3796C67.4083 48.2833 67.5833 48.0827 67.5833 47.776H66.8833ZM64.6993 48.028L64.7232 47.3284C63.906 47.3006 63.3125 47.2639 62.9303 47.2205C62.734 47.1982 62.6231 47.1772 62.5735 47.1637C62.5432 47.1554 62.5754 47.1604 62.6299 47.1926C62.6432 47.2005 62.9353 47.3657 62.9353 47.748H62.2353H61.5353C61.5353 48.1629 61.8531 48.3597 61.9177 48.3979C62.0236 48.4605 62.1328 48.4946 62.2051 48.5143C62.3609 48.5568 62.5579 48.5872 62.7723 48.6115C63.2114 48.6614 63.8499 48.6994 64.6755 48.7276L64.6993 48.028ZM62.2353 47.748H62.9353V39.516H62.2353H61.5353V47.748H62.2353ZM62.2353 39.516H62.9353C62.9353 39.0048 62.8559 38.5001 62.5974 38.1042C62.3051 37.6566 61.8481 37.444 61.3393 37.444V38.144V38.844C61.3986 38.844 61.4165 38.855 61.4131 38.8532C61.4071 38.8502 61.4114 38.8486 61.4252 38.8698C61.4654 38.9313 61.5353 39.1125 61.5353 39.516H62.2353ZM61.3393 38.144V37.444C60.7145 37.444 60.0929 37.7363 59.5008 38.165L59.9113 38.732L60.3219 39.299C60.8124 38.9437 61.1428 38.844 61.3393 38.844V38.144ZM59.9113 38.732H59.2113V47.804H59.9113H60.6113V38.732H59.9113ZM80.1267 47.244L79.827 46.6114L79.7989 46.6247L79.7722 46.6404L80.1267 47.244ZM70.9147 46.404L70.4197 46.899L70.4234 46.9026L70.9147 46.404ZM70.8307 35.764L70.3114 35.2945L70.3079 35.2985L70.8307 35.764ZM79.7907 35.148L79.31 35.6569L79.3147 35.6613L79.7907 35.148ZM74.1907 43.156V42.456H73.4907V43.156H74.1907ZM74.6387 44.332L74.2187 44.892L74.238 44.9065L74.2584 44.9197L74.6387 44.332ZM79.7347 43.744L80.0517 44.3681L80.1509 44.3177L80.2296 44.239L79.7347 43.744ZM79.9867 44.136L79.3689 44.4655L79.3754 44.4772L79.9867 44.136ZM74.5547 38.312L75.0068 38.8464L75.0102 38.8435L74.5547 38.312ZM74.1907 40.104H73.4907V40.804H74.1907V40.104ZM80.1267 47.244L79.7722 46.6404C78.7352 47.2494 77.3566 47.58 75.5907 47.58V48.28V48.98C77.5207 48.98 79.1661 48.6199 80.4812 47.8476L80.1267 47.244ZM75.5907 48.28V47.58C73.9189 47.58 72.539 47.0218 71.406 45.9054L70.9147 46.404L70.4234 46.9026C71.829 48.2876 73.5664 48.98 75.5907 48.98V48.28ZM70.9147 46.404L71.4096 45.909C70.3013 44.8007 69.7107 43.2504 69.7107 41.168H69.0107H68.3107C68.3107 43.5283 68.9894 45.4687 70.4197 46.899L70.9147 46.404ZM69.0107 41.168H69.7107C69.7107 39.0588 70.2788 37.4365 71.3534 36.2295L70.8307 35.764L70.3079 35.2985C68.9559 36.8169 68.3107 38.7972 68.3107 41.168H69.0107ZM70.8307 35.764L71.3499 36.2335C72.4468 35.0203 73.8062 34.42 75.4787 34.42V33.72V33.02C73.4177 33.02 71.6785 33.7824 70.3114 35.2945L70.8307 35.764ZM75.4787 33.72V34.42C77.2298 34.42 78.4716 34.8651 79.31 35.6569L79.7907 35.148L80.2713 34.6391C79.0937 33.5269 77.4609 33.02 75.4787 33.02V33.72ZM79.7907 35.148L79.3147 35.6613C80.203 36.4849 80.6307 37.4581 80.6307 38.62H81.3307H82.0307C82.0307 37.0565 81.4317 35.7151 80.2666 34.6347L79.7907 35.148ZM81.3307 38.62H80.6307C80.6307 39.997 80.2399 40.9097 79.5689 41.4941C78.8795 42.0946 77.7727 42.456 76.1227 42.456V43.156V43.856C77.9446 43.856 79.4419 43.4614 80.4884 42.5499C81.5534 41.6223 82.0307 40.267 82.0307 38.62H81.3307ZM76.1227 43.156V42.456H74.1907V43.156V43.856H76.1227V43.156ZM74.1907 43.156H73.4907C73.4907 43.8221 73.6689 44.4797 74.2187 44.892L74.6387 44.332L75.0587 43.772C75.011 43.7363 74.8907 43.6099 74.8907 43.156H74.1907ZM74.6387 44.332L74.2584 44.9197C74.7371 45.2294 75.3501 45.34 76.0107 45.34V44.64V43.94C75.4765 43.94 75.1749 43.8452 75.0189 43.7443L74.6387 44.332ZM76.0107 44.64V45.34C77.4286 45.34 78.7784 45.0148 80.0517 44.3681L79.7347 43.744L79.4176 43.1199C78.3389 43.6678 77.2061 43.94 76.0107 43.94V44.64ZM79.7347 43.744L80.2296 44.239C80.0971 44.3715 79.9195 44.4422 79.7389 44.4422C79.5838 44.4422 79.4697 44.3906 79.4153 44.3616C79.312 44.3065 79.2523 44.2391 79.2449 44.231C79.2154 44.1989 79.206 44.1803 79.2228 44.2065C79.2487 44.2468 79.2961 44.3287 79.369 44.4654L79.9867 44.136L80.6043 43.8066C80.5279 43.6633 80.4586 43.5399 80.4005 43.4495C80.3753 43.4104 80.332 43.3451 80.2769 43.285C80.2566 43.2629 80.1862 43.1861 80.0741 43.1264C80.0154 43.095 79.8974 43.0422 79.7389 43.0422C79.555 43.0422 79.3745 43.1142 79.2397 43.249L79.7347 43.744ZM79.9867 44.136L79.3754 44.4772C79.7984 45.2351 79.9587 45.7929 79.9587 46.18H80.6587H81.3587C81.3587 45.4471 81.0709 44.6423 80.5979 43.7948L79.9867 44.136ZM80.6587 46.18H79.9587C79.9587 46.3796 79.9252 46.4876 79.8996 46.5389C79.8801 46.5778 79.8613 46.5952 79.827 46.6114L80.1267 47.244L80.4263 47.8766C81.1177 47.5491 81.3587 46.8721 81.3587 46.18H80.6587ZM76.6267 39.152H77.3267C77.3267 38.6563 77.2057 38.1551 76.8406 37.781C76.4723 37.4038 75.9736 37.276 75.4787 37.276V37.976V38.676C75.7491 38.676 75.8243 38.7442 75.8388 38.759C75.8562 38.7769 75.9267 38.8637 75.9267 39.152H76.6267ZM75.4787 37.976V37.276C74.9624 37.276 74.4915 37.4442 74.0991 37.7805L74.5547 38.312L75.0102 38.8435C75.1405 38.7318 75.2855 38.676 75.4787 38.676V37.976ZM74.5547 38.312L74.1025 37.7776C73.6593 38.1527 73.4907 38.684 73.4907 39.236H74.1907H74.8907C74.8907 38.9667 74.9647 38.882 75.0068 38.8464L74.5547 38.312ZM74.1907 39.236H73.4907V40.104H74.1907H74.8907V39.236H74.1907ZM74.1907 40.104V40.804H75.7027V40.104V39.404H74.1907V40.104ZM75.7027 40.104V40.804C76.124 40.804 76.5672 40.6943 76.898 40.3535C77.2249 40.0167 77.3267 39.5721 77.3267 39.152H76.6267H75.9267C75.9267 39.3666 75.8744 39.398 75.8933 39.3785C75.9161 39.3551 75.8974 39.404 75.7027 39.404V40.104ZM92.3438 43.268V42.568H92.1517L91.9865 42.6661L92.3438 43.268ZM93.0158 44.724L92.3261 44.8434L92.3274 44.851L92.3289 44.8587L93.0158 44.724ZM93.1558 47.356L93.5258 47.9502L93.6215 47.8907L93.6936 47.8041L93.1558 47.356ZM84.6998 46.376L84.1866 46.8521L84.1938 46.8597L84.6998 46.376ZM84.6718 35.764L84.1455 35.3025L84.1419 35.3067L84.6718 35.764ZM93.5198 35.148L92.9743 35.5866L92.9781 35.5913L93.5198 35.148ZM93.5478 37.528L94.2217 37.7175L94.2237 37.7102L94.2256 37.7029L93.5478 37.528ZM92.2318 39.6L92.4016 40.2791L92.4312 40.2717L92.46 40.2618L92.2318 39.6ZM91.3918 39.292L91.9079 38.819L91.8976 38.8078L91.8868 38.797L91.3918 39.292ZM88.5078 38.872L89.0791 39.2766L88.5078 38.872ZM88.0318 41.056H87.3318C87.3318 42.0387 87.5138 42.9036 87.9912 43.5358C88.4966 44.2051 89.2442 44.5 90.1038 44.5V43.8V43.1C89.5822 43.1 89.2938 42.9376 89.1085 42.6922C88.8952 42.4097 88.7318 41.9026 88.7318 41.056H88.0318ZM90.1038 43.8V44.5C91.0899 44.5 91.9687 44.3048 92.7012 43.8699L92.3438 43.268L91.9865 42.6661C91.5243 42.9405 90.9098 43.1 90.1038 43.1V43.8ZM92.3438 43.268V43.968C92.1903 43.968 92.0911 43.8953 92.0578 43.8632C92.0341 43.8404 92.0495 43.8456 92.0863 43.9253C92.1596 44.0843 92.2453 44.3767 92.3261 44.8434L93.0158 44.724L93.7056 44.6046C93.6184 44.1006 93.508 43.665 93.3574 43.3387C93.2361 43.0758 92.9405 42.568 92.3438 42.568V43.268ZM93.0158 44.724L92.3289 44.8587C92.5169 45.8174 92.5958 46.407 92.5958 46.684H93.2958H93.9958C93.9958 46.2517 93.8881 45.5346 93.7028 44.5893L93.0158 44.724ZM93.2958 46.684H92.5958C92.5958 46.8241 92.5857 46.9124 92.5756 46.9612C92.5707 46.9844 92.5677 46.9894 92.5709 46.9818C92.574 46.9744 92.587 46.9452 92.6181 46.9079L93.1558 47.356L93.6936 47.8041C93.844 47.6237 93.9114 47.4133 93.9461 47.2468C93.9826 47.0716 93.9958 46.8799 93.9958 46.684H93.2958ZM93.1558 47.356L92.7859 46.7618C91.9483 47.2833 90.7405 47.58 89.0958 47.58V48.28V48.98C90.8858 48.98 92.3848 48.6607 93.5258 47.9502L93.1558 47.356ZM89.0958 48.28V47.58C87.5744 47.58 86.2905 47.027 85.2059 45.8923L84.6998 46.376L84.1938 46.8597C85.5359 48.2637 87.1826 48.98 89.0958 48.98V48.28ZM84.6998 46.376L85.2131 45.9C84.1669 44.772 83.6078 43.2129 83.6078 41.14H82.9078H82.2078C82.2078 43.4725 82.8435 45.404 84.1866 46.852L84.6998 46.376ZM82.9078 41.14H83.6078C83.6078 39.0458 84.1595 37.4291 85.2018 36.2213L84.6718 35.764L84.1419 35.3067C82.8322 36.8243 82.2078 38.7916 82.2078 41.14H82.9078ZM84.6718 35.764L85.1982 36.2255C86.2482 35.0278 87.6269 34.42 89.4038 34.42V33.72V33.02C87.2608 33.02 85.4848 33.7749 84.1455 35.3025L84.6718 35.764ZM89.4038 33.72V34.42C91.3008 34.42 92.4062 34.88 92.9743 35.5866L93.5198 35.148L94.0654 34.7094C93.1028 33.512 91.4642 33.02 89.4038 33.02V33.72ZM93.5198 35.148L92.9781 35.5913C93.0009 35.6191 93.0718 35.7389 93.0718 36.072H93.7718H94.4718C94.4718 35.5837 94.3748 35.0875 94.0616 34.7047L93.5198 35.148ZM93.7718 36.072H93.0718C93.0718 36.3828 93.0115 36.805 92.87 37.3531L93.5478 37.528L94.2256 37.7029C94.3829 37.0936 94.4718 36.5452 94.4718 36.072H93.7718ZM93.5478 37.528L92.874 37.3385C92.716 37.9004 92.545 38.3005 92.376 38.5667C92.206 38.8342 92.0719 38.9147 92.0037 38.9382L92.2318 39.6L92.46 40.2618C92.9331 40.0986 93.289 39.7404 93.5577 39.3173C93.8273 38.8929 94.0437 38.3503 94.2217 37.7175L93.5478 37.528ZM92.2318 39.6L92.0621 38.9209C92.0739 38.9179 92.0675 38.9206 92.0337 38.9234C92.0021 38.9261 91.957 38.928 91.8958 38.928V39.628V40.328C92.0595 40.328 92.2413 40.3192 92.4016 40.2791L92.2318 39.6ZM91.8958 39.628V38.928C91.9633 38.928 92.0122 38.9424 92.0366 38.9516C92.0606 38.9606 92.0688 38.9673 92.0601 38.9616C92.0521 38.9562 92.0344 38.9433 92.0071 38.9187C91.9801 38.8944 91.9471 38.8618 91.9079 38.819L91.3918 39.292L90.8758 39.765C90.9995 39.8999 91.1356 40.0278 91.2836 40.1264C91.4244 40.2203 91.6359 40.328 91.8958 40.328V39.628ZM91.3918 39.292L91.8868 38.797C91.5013 38.4115 91.1296 38.0984 90.7733 37.8778C90.424 37.6616 90.0346 37.5 89.6278 37.5V38.2V38.9C89.6691 38.9 89.7977 38.9204 90.0364 39.0682C90.2681 39.2116 90.5544 39.4445 90.8969 39.787L91.3918 39.292ZM89.6278 38.2V37.5C88.9092 37.5 88.3445 37.8916 87.9366 38.4674L88.5078 38.872L89.0791 39.2766C89.3058 38.9564 89.4878 38.9 89.6278 38.9V38.2ZM88.5078 38.872L87.9366 38.4674C87.4904 39.0974 87.3318 40.008 87.3318 41.056H88.0318H88.7318C88.7318 40.088 88.8906 39.5426 89.0791 39.2766L88.5078 38.872ZM98.135 28.176L98.1597 27.4764L98.1474 27.476H98.135V28.176ZM100.515 39.292H99.815L101.131 39.6251L100.515 39.292ZM103.287 34.168L103.903 34.5011L103.913 34.4828L103.921 34.464L103.287 34.168ZM108.467 34.028L109.064 34.3939L109.478 33.7186L108.757 33.3907L108.467 34.028ZM104.827 39.964L104.23 39.5981L104.021 39.9399L104.21 40.2936L104.827 39.964ZM109.027 47.832L109.653 47.519L109.649 47.5106L109.645 47.5024L109.027 47.832ZM107.963 48L107.928 47.3009L107.919 47.3013L107.909 47.3021L107.963 48ZM103.259 47.832L102.62 48.1171L102.654 48.1947L102.706 48.2618L103.259 47.832ZM100.487 41.616L101.126 41.3309L99.787 41.616H100.487ZM95.587 28.624H96.287C96.287 28.7679 96.2313 28.8851 96.1701 28.9604C96.1426 28.9943 96.117 29.0162 96.1008 29.0286C96.0846 29.0409 96.074 29.0465 96.0729 29.0471C96.0723 29.0475 96.0918 29.0375 96.1422 29.0228C96.1909 29.0085 96.2575 28.9929 96.3452 28.9774C96.7079 28.9137 97.2953 28.876 98.135 28.876V28.176V27.476C97.2761 27.476 96.5895 27.513 96.1028 27.5986C95.8662 27.6402 95.6222 27.702 95.4197 27.8089C95.2336 27.907 94.887 28.1556 94.887 28.624H95.587ZM98.135 28.176L98.1103 28.8756C98.8973 28.9033 99.4592 28.9467 99.8142 29.001C99.9981 29.0291 100.086 29.0545 100.113 29.0648C100.129 29.071 100.083 29.0567 100.022 29.0041C99.9562 28.9478 99.815 28.7927 99.815 28.54H100.515H101.215C101.215 28.2406 101.049 28.0409 100.934 27.942C100.823 27.8468 100.703 27.792 100.62 27.7597C100.448 27.693 100.239 27.6496 100.026 27.617C99.5875 27.55 98.9594 27.5047 98.1597 27.4764L98.135 28.176ZM100.515 28.54H99.815V39.292H100.515H101.215V28.54H100.515ZM100.515 39.292L101.131 39.6251L103.903 34.5011L103.287 34.168L102.671 33.8349L99.8993 38.9589L100.515 39.292ZM103.287 34.168L103.921 34.464C103.85 34.616 103.744 34.6463 103.799 34.6215C103.839 34.6033 103.932 34.5724 104.102 34.5423C104.438 34.4829 104.953 34.448 105.667 34.448V33.748V33.048C104.925 33.048 104.315 33.0831 103.858 33.1637C103.632 33.2036 103.411 33.2602 103.22 33.347C103.043 33.4272 102.789 33.5799 102.653 33.872L103.287 34.168ZM105.667 33.748V34.448C106.383 34.448 106.955 34.4711 107.389 34.5145C107.844 34.56 108.083 34.6222 108.177 34.6653L108.467 34.028L108.757 33.3907C108.441 33.2471 108.008 33.1694 107.529 33.1215C107.03 33.0716 106.407 33.048 105.667 33.048V33.748ZM108.467 34.028L107.87 33.6621L104.23 39.5981L104.827 39.964L105.424 40.3299L109.064 34.3939L108.467 34.028ZM104.827 39.964L104.21 40.2936L108.41 48.1616L109.027 47.832L109.645 47.5024L105.445 39.6344L104.827 39.964ZM109.027 47.832L108.401 48.145C108.347 48.0375 108.313 47.8943 108.338 47.7343C108.363 47.5804 108.435 47.4689 108.494 47.4007C108.595 47.2832 108.706 47.241 108.715 47.2372C108.756 47.2205 108.76 47.2259 108.68 47.2386C108.541 47.2604 108.297 47.2824 107.928 47.3009L107.963 48L107.998 48.6991C108.376 48.6802 108.682 48.6556 108.898 48.6214C108.996 48.6061 109.128 48.5811 109.248 48.5318C109.297 48.5117 109.435 48.4525 109.552 48.3176C109.618 48.2406 109.694 48.1202 109.721 47.9572C109.748 47.7883 109.712 47.6358 109.653 47.519L109.027 47.832ZM107.963 48L107.909 47.3021C107.191 47.3573 106.604 47.384 106.143 47.384V48.084V48.784C106.653 48.784 107.279 48.7547 108.017 48.6979L107.963 48ZM106.143 48.084V47.384C105.253 47.384 104.589 47.363 104.139 47.3237C103.912 47.3038 103.76 47.281 103.67 47.2602C103.625 47.2496 103.614 47.244 103.626 47.249C103.633 47.2519 103.654 47.2617 103.684 47.2814C103.712 47.3003 103.762 47.3383 103.812 47.4022L103.259 47.832L102.706 48.2618C102.83 48.4203 102.987 48.4977 103.068 48.5331C103.164 48.5748 103.265 48.6034 103.355 48.6243C103.538 48.6665 103.764 48.6962 104.017 48.7183C104.528 48.763 105.241 48.784 106.143 48.784V48.084ZM103.259 47.832L103.898 47.5469L101.126 41.3309L100.487 41.616L99.8477 41.9011L102.62 48.1171L103.259 47.832ZM100.487 41.616H99.787V47.804H100.487H101.187V41.616H100.487ZM100.487 47.804H99.787C99.787 47.6148 99.8738 47.4766 99.9453 47.4027C99.978 47.3689 100.007 47.3485 100.023 47.3382C100.032 47.3327 100.038 47.3289 100.042 47.3267C100.047 47.3245 100.049 47.3234 100.049 47.3233C100.05 47.3232 100.044 47.3258 100.03 47.3302C100.017 47.3346 99.9979 47.34 99.9732 47.3461C99.923 47.3585 99.8558 47.3717 99.7687 47.3845C99.4106 47.4374 98.8364 47.468 98.023 47.468V48.168V48.868C98.8523 48.868 99.5101 48.8379 99.9733 48.7695C100.198 48.7363 100.427 48.6875 100.617 48.6032C100.75 48.5443 101.187 48.3225 101.187 47.804H100.487ZM98.023 48.168V47.468C97.2184 47.468 96.6485 47.4398 96.2917 47.3906C96.2048 47.3786 96.1372 47.3662 96.0864 47.3545C96.0613 47.3488 96.0422 47.3436 96.0282 47.3393C96.0213 47.3373 96.0161 47.3355 96.0124 47.3342C96.0106 47.3336 96.0093 47.3331 96.0083 47.3327C96.0079 47.3326 96.0075 47.3324 96.0073 47.3323C96.007 47.3322 96.0069 47.3322 96.0069 47.3322C96.0069 47.3322 96.0071 47.3322 96.0073 47.3323C96.0075 47.3325 96.0079 47.3326 96.0084 47.3328C96.0094 47.3333 96.0109 47.334 96.0129 47.335C96.0169 47.3369 96.0234 47.3403 96.0318 47.3453C96.0475 47.3547 96.0771 47.3742 96.1113 47.4072C96.185 47.4783 96.287 47.6235 96.287 47.832H95.587H94.887C94.887 48.0965 95.0145 48.2942 95.1389 48.4143C95.2527 48.5242 95.3799 48.5879 95.4716 48.6258C95.6568 48.7024 95.8799 48.747 96.1004 48.7774C96.5556 48.8402 97.2036 48.868 98.023 48.868V48.168ZM95.587 47.832H96.287V28.624H95.587H94.887V47.832H95.587ZM126.295 47.552L126.913 47.2226L126.913 47.2217L126.295 47.552ZM121.619 38.816L122.237 38.4857L120.919 38.816H121.619ZM120.667 28.54L120.566 29.2326L120.575 29.234L120.585 29.2351L120.667 28.54ZM122.095 29.1L122.717 28.7773L122.707 28.7583L122.696 28.7399L122.095 29.1ZM126.575 37.724L125.954 38.0467L127.275 37.724H126.575ZM131.783 47.384H131.083C131.083 47.1715 131.219 47.0665 131.229 47.0598C131.232 47.058 131.216 47.0689 131.169 47.0863C131.124 47.1032 131.059 47.1225 130.973 47.1418C130.612 47.2225 130.016 47.272 129.151 47.272V47.972V48.672C130.041 48.672 130.762 48.6235 131.278 48.5082C131.531 48.4516 131.793 48.3669 132.009 48.2227C132.238 48.069 132.483 47.7925 132.483 47.384H131.783ZM129.151 47.972V47.272C128.285 47.272 127.649 47.237 127.223 47.1744C127.008 47.1428 126.877 47.1083 126.807 47.0817C126.708 47.0438 126.826 47.06 126.913 47.2226L126.295 47.552L125.678 47.8814C125.839 48.184 126.132 48.3227 126.308 48.3898C126.514 48.4682 126.758 48.5212 127.02 48.5596C127.546 48.637 128.263 48.672 129.151 48.672V47.972ZM126.295 47.552L126.913 47.2217L122.237 38.4857L121.619 38.816L121.002 39.1463L125.678 47.8823L126.295 47.552ZM121.619 38.816H120.919V47.524H121.619H122.319V38.816H121.619ZM121.619 47.524H120.919C120.919 47.4031 120.962 47.2989 121.015 47.2264C121.04 47.1937 121.063 47.1719 121.078 47.1589C121.093 47.1461 121.104 47.14 121.105 47.1391C121.106 47.1384 121.088 47.1489 121.038 47.1649C120.99 47.1804 120.924 47.1977 120.835 47.2148C120.469 47.2856 119.873 47.328 119.015 47.328V48.028V48.728C119.894 48.728 120.6 48.6864 121.101 48.5892C121.346 48.5419 121.599 48.4713 121.808 48.3499C122.017 48.2289 122.319 47.9674 122.319 47.524H121.619ZM119.015 48.028V47.328C118.168 47.328 117.579 47.2856 117.218 47.215C117.131 47.198 117.066 47.1809 117.019 47.1656C116.97 47.1498 116.953 47.1396 116.955 47.1408C116.955 47.1411 116.999 47.1658 117.045 47.2293C117.098 47.3019 117.139 47.405 117.139 47.524H116.439H115.739C115.739 47.9636 116.037 48.2255 116.246 48.3482C116.454 48.4705 116.706 48.5415 116.949 48.589C117.447 48.6864 118.146 48.728 119.015 48.728V48.028ZM116.439 47.524H117.139V28.792H116.439H115.739V47.524H116.439ZM116.439 28.792H117.139C117.139 29.0882 116.928 29.2141 116.924 29.2165C116.916 29.2208 116.966 29.1946 117.123 29.1647C117.425 29.1074 117.924 29.072 118.651 29.072V28.372V27.672C117.904 27.672 117.297 27.7066 116.862 27.7893C116.651 27.8294 116.423 27.8907 116.231 28C116.043 28.1074 115.739 28.3558 115.739 28.792H116.439ZM118.651 28.372V29.072C119.187 29.072 119.824 29.124 120.566 29.2326L120.667 28.54L120.769 27.8474C119.98 27.732 119.273 27.672 118.651 27.672V28.372ZM120.667 28.54L120.585 29.2351C120.946 29.2781 121.196 29.3385 121.357 29.4017C121.527 29.4685 121.524 29.5091 121.495 29.4601L122.095 29.1L122.696 28.7399C122.498 28.4109 122.174 28.2182 121.868 28.0983C121.553 27.9748 121.173 27.8952 120.75 27.8449L120.667 28.54ZM122.095 29.1L121.474 29.4227L125.954 38.0467L126.575 37.724L127.197 37.4013L122.717 28.7773L122.095 29.1ZM126.575 37.724H127.275V28.932H126.575H125.875V37.724H126.575ZM126.575 28.932H127.275C127.275 29.1839 127.104 29.2959 127.104 29.2961C127.102 29.2974 127.119 29.2869 127.167 29.2705C127.214 29.2545 127.279 29.2367 127.366 29.2188C127.729 29.1447 128.323 29.1 129.179 29.1V28.4V27.7C128.3 27.7 127.592 27.7439 127.086 27.8472C126.839 27.8976 126.583 27.973 126.372 28.1024C126.155 28.2356 125.875 28.5028 125.875 28.932H126.575ZM129.179 28.4V29.1C130.036 29.1 130.63 29.1447 130.992 29.2188C131.08 29.2367 131.145 29.2545 131.192 29.2705C131.24 29.2869 131.257 29.2974 131.255 29.2961C131.255 29.2959 131.083 29.1839 131.083 28.932H131.783H132.483C132.483 28.5028 132.204 28.2356 131.986 28.1024C131.775 27.973 131.519 27.8976 131.272 27.8472C130.767 27.7439 130.059 27.7 129.179 27.7V28.4ZM131.783 28.932H131.083V47.384H131.783H132.483V28.932H131.783ZM135.94 46.348L135.419 46.8159L135.423 46.82L135.94 46.348ZM135.94 35.652L135.423 35.18L135.419 35.1841L135.94 35.652ZM145.376 35.652L144.855 36.1199L145.376 35.652ZM145.376 46.348L144.855 45.8801L145.376 46.348ZM135.94 46.348L136.46 45.8801C135.451 44.7567 134.904 43.1602 134.904 41H134.204H133.504C133.504 43.3944 134.114 45.3633 135.419 46.8159L135.94 46.348ZM134.204 41H134.904C134.904 38.8398 135.451 37.2433 136.46 36.1199L135.94 35.652L135.419 35.1841C134.114 36.6367 133.504 38.6056 133.504 41H134.204ZM135.94 35.652L136.457 36.124C137.481 35.0015 138.86 34.42 140.672 34.42V33.72V33.02C138.525 33.02 136.75 33.7265 135.423 35.18L135.94 35.652ZM140.672 33.72V34.42C142.483 34.42 143.85 35.0014 144.855 36.1199L145.376 35.652L145.896 35.1841C144.587 33.7266 142.818 33.02 140.672 33.02V33.72ZM145.376 35.652L144.855 36.1199C145.864 37.2433 146.412 38.8398 146.412 41H147.112H147.812C147.812 38.6056 147.202 36.6367 145.896 35.1841L145.376 35.652ZM147.112 41H146.412C146.412 43.1602 145.864 44.7567 144.855 45.8801L145.376 46.348L145.896 46.8159C147.202 45.3633 147.812 43.3944 147.812 41H147.112ZM145.376 46.348L144.855 45.8801C143.85 46.9986 142.483 47.58 140.672 47.58V48.28V48.98C142.818 48.98 144.587 48.2734 145.896 46.8159L145.376 46.348ZM140.672 48.28V47.58C138.86 47.58 137.481 46.9985 136.457 45.876L135.94 46.348L135.423 46.82C136.75 48.2735 138.525 48.98 140.672 48.98V48.28ZM140.672 38.396V37.696C139.917 37.696 139.292 38.0281 138.898 38.676C138.538 39.2677 138.404 40.0651 138.404 40.972H139.104H139.804C139.804 40.1616 139.931 39.671 140.094 39.404C140.222 39.1933 140.381 39.096 140.672 39.096V38.396ZM139.104 40.972H138.404C138.404 41.8789 138.538 42.6763 138.898 43.268C139.292 43.9159 139.917 44.248 140.672 44.248V43.548V42.848C140.381 42.848 140.222 42.7507 140.094 42.54C139.931 42.273 139.804 41.7824 139.804 40.972H139.104ZM140.672 43.548V44.248C141.43 44.248 142.062 43.921 142.464 43.2727C142.831 42.6797 142.968 41.8802 142.968 40.972H142.268H141.568C141.568 41.7811 141.438 42.2696 141.274 42.5353C141.143 42.7457 140.977 42.848 140.672 42.848V43.548ZM142.268 40.972H142.968C142.968 40.0638 142.831 39.2643 142.464 38.6713C142.062 38.023 141.43 37.696 140.672 37.696V38.396V39.096C140.977 39.096 141.143 39.1983 141.274 39.4087C141.438 39.6744 141.568 40.1629 141.568 40.972H142.268ZM163.903 34.14L164.599 34.2166L164.603 34.1784V34.14H163.903ZM168.859 34.112L168.18 33.9422L168.176 33.9578L168.173 33.9736L168.859 34.112ZM166.115 47.72L165.429 47.5816L165.427 47.591L166.115 47.72ZM159.899 47.72L159.211 47.846L159.211 47.849L159.899 47.72ZM158.751 41.448L159.44 41.322L158.069 41.2926L158.751 41.448ZM157.323 47.72L156.641 47.5646L156.639 47.5736L156.637 47.5827L157.323 47.72ZM150.911 47.636L151.602 47.5209L151.6 47.5102L150.911 47.636ZM148.419 34L149.108 33.8742L149.09 33.7761L149.045 33.687L148.419 34ZM150.827 33.832L150.835 33.132H150.827V33.832ZM153.291 33.944H152.591V33.9914L152.597 34.0384L153.291 33.944ZM154.579 43.408L153.885 43.5024L155.258 43.5768L154.579 43.408ZM156.903 34.056L156.239 33.8346L156.23 33.8606L156.224 33.8872L156.903 34.056ZM160.599 34.056L161.278 33.8872L161.272 33.8606L161.263 33.8346L160.599 34.056ZM162.895 43.296L162.216 43.4648L163.591 43.3726L162.895 43.296ZM163.903 34.14H164.603C164.603 34.3152 164.531 34.454 164.454 34.5413C164.388 34.6175 164.324 34.6503 164.308 34.6581C164.279 34.6722 164.295 34.6592 164.401 34.6418C164.6 34.6093 164.939 34.588 165.443 34.588V33.888V33.188C164.921 33.188 164.49 33.2087 164.175 33.2602C164.025 33.2848 163.848 33.3243 163.691 33.4014C163.565 33.4631 163.203 33.678 163.203 34.14H163.903ZM165.443 33.888V34.588C166.597 34.588 167.442 34.6067 167.987 34.6425C168.266 34.6607 168.438 34.6818 168.527 34.7C168.581 34.7109 168.555 34.7113 168.5 34.6833C168.475 34.6705 168.384 34.6228 168.301 34.5165C168.198 34.3851 168.121 34.1766 168.18 33.9422L168.859 34.112L169.538 34.2818C169.601 34.0287 169.52 33.8021 169.403 33.6532C169.306 33.5295 169.193 33.4648 169.136 33.4357C169.016 33.375 168.89 33.3451 168.806 33.328C168.62 33.2902 168.37 33.2646 168.079 33.2455C167.486 33.2066 166.604 33.188 165.443 33.188V33.888ZM168.859 34.112L168.173 33.9736L165.429 47.5816L166.115 47.72L166.801 47.8584L169.545 34.2504L168.859 34.112ZM166.115 47.72L165.427 47.591C165.485 47.2817 165.736 47.2223 165.624 47.2684C165.566 47.292 165.435 47.3288 165.196 47.3632C164.729 47.4305 164.006 47.468 163.007 47.468V48.168V48.868C164.024 48.868 164.827 48.8308 165.396 48.7488C165.675 48.7086 165.94 48.652 166.155 48.5636C166.316 48.4977 166.717 48.3076 166.803 47.849L166.115 47.72ZM163.007 48.168V47.468C162.008 47.468 161.285 47.4305 160.818 47.3632C160.579 47.3288 160.448 47.292 160.391 47.2684C160.278 47.2223 160.529 47.2817 160.587 47.591L159.899 47.72L159.211 47.849C159.297 48.3076 159.698 48.4977 159.859 48.5636C160.075 48.652 160.339 48.7086 160.618 48.7488C161.187 48.8308 161.99 48.868 163.007 48.868V48.168ZM159.899 47.72L160.588 47.594L159.44 41.322L158.751 41.448L158.063 41.574L159.211 47.846L159.899 47.72ZM158.751 41.448L158.069 41.2926L156.641 47.5646L157.323 47.72L158.006 47.8754L159.434 41.6034L158.751 41.448ZM157.323 47.72L156.637 47.5827C156.673 47.4016 156.779 47.302 156.821 47.269C156.861 47.2373 156.88 47.235 156.846 47.2477C156.779 47.2726 156.636 47.3082 156.386 47.3409C155.895 47.4049 155.141 47.44 154.103 47.44V48.14V48.84C155.156 48.84 155.984 48.8051 156.567 48.7291C156.853 48.6918 157.119 48.6399 157.334 48.5598C157.441 48.52 157.57 48.4608 157.688 48.3679C157.807 48.2737 157.959 48.1084 158.009 47.8573L157.323 47.72ZM154.103 48.14V47.44C153.077 47.44 152.337 47.3978 151.86 47.3226C151.617 47.2842 151.485 47.2434 151.429 47.2182C151.336 47.176 151.554 47.2384 151.602 47.5209L150.911 47.636L150.221 47.7511C150.296 48.2016 150.668 48.411 150.855 48.4948C151.079 48.5956 151.353 48.6598 151.642 48.7054C152.229 48.7982 153.057 48.84 154.103 48.84V48.14ZM150.911 47.636L151.6 47.5102L149.108 33.8742L148.419 34L147.73 34.1258L150.222 47.7618L150.911 47.636ZM148.419 34L149.045 33.687C149.131 33.8589 149.148 34.082 149.048 34.2871C148.968 34.4504 148.848 34.5305 148.806 34.5562C148.722 34.6085 148.658 34.6169 148.692 34.6094C148.73 34.6008 148.833 34.5859 149.028 34.5723C149.404 34.5461 149.999 34.532 150.827 34.532V33.832V33.132C149.993 33.132 149.357 33.1459 148.93 33.1757C148.724 33.1901 148.533 33.2102 148.384 33.2436C148.324 33.2571 148.195 33.2883 148.07 33.3651C148.009 33.403 147.876 33.4957 147.79 33.6722C147.683 33.8904 147.7 34.1271 147.793 34.313L148.419 34ZM150.827 33.832L150.819 34.532C151.639 34.5413 152.245 34.5552 152.643 34.5733C152.845 34.5824 152.98 34.5921 153.058 34.601C153.102 34.606 153.103 34.6081 153.083 34.603C153.078 34.6019 153.024 34.5893 152.957 34.5541C152.924 34.5369 152.851 34.4953 152.778 34.4172C152.7 34.3344 152.591 34.1734 152.591 33.944H153.291H153.991C153.991 33.7111 153.88 33.5466 153.8 33.4604C153.723 33.3788 153.645 33.3339 153.606 33.3134C153.526 33.2715 153.453 33.2523 153.422 33.2448C153.351 33.2268 153.275 33.2167 153.216 33.21C153.089 33.1955 152.916 33.1842 152.707 33.1747C152.284 33.1555 151.658 33.1414 150.835 33.132L150.827 33.832ZM153.291 33.944L152.597 34.0384L153.885 43.5024L154.579 43.408L155.273 43.3136L153.985 33.8496L153.291 33.944ZM154.579 43.408L155.258 43.5768L157.582 34.2248L156.903 34.056L156.224 33.8872L153.9 43.2392L154.579 43.408ZM156.903 34.056L157.567 34.2774C157.486 34.5211 157.302 34.6189 157.276 34.633C157.228 34.659 157.198 34.6645 157.214 34.6604C157.241 34.6535 157.315 34.64 157.456 34.6271C157.732 34.6021 158.159 34.588 158.751 34.588V33.888V33.188C158.148 33.188 157.67 33.2019 157.33 33.2329C157.164 33.248 157.002 33.2695 156.865 33.3046C156.799 33.3215 156.706 33.3498 156.612 33.4003C156.541 33.4389 156.33 33.5629 156.239 33.8346L156.903 34.056ZM158.751 33.888V34.588C159.343 34.588 159.77 34.6021 160.046 34.6271C160.188 34.64 160.261 34.6535 160.288 34.6604C160.304 34.6645 160.274 34.659 160.226 34.633C160.2 34.6189 160.016 34.5211 159.935 34.2774L160.599 34.056L161.263 33.8346C161.173 33.5629 160.961 33.4389 160.89 33.4003C160.796 33.3498 160.703 33.3215 160.637 33.3046C160.5 33.2695 160.339 33.248 160.172 33.2329C159.832 33.2019 159.354 33.188 158.751 33.188V33.888ZM160.599 34.056L159.92 34.2248L162.216 43.4648L162.895 43.296L163.574 43.1272L161.278 33.8872L160.599 34.056ZM162.895 43.296L163.591 43.3726L164.599 34.2166L163.903 34.14L163.207 34.0634L162.199 43.2194L162.895 43.296Z" fill="black" mask="url(#path-6-outside-1_1073_16818)"/>
</g>
<defs>
<filter id="filter0_dd_1073_16818" x="0.302734" y="0.000488281" width="201.595" height="84.4995" filterUnits="userSpaceOnUse" color-interpolation-filters="sRGB">
<feFlood flood-opacity="0" result="BackgroundImageFix"/>
<feColorMatrix in="SourceAlpha" type="matrix" values="0 0 0 0 0 0 0 0 0 0 0 0 0 0 0 0 0 0 127 0" result="hardAlpha"/>
<feOffset dx="0.2" dy="2.5"/>
<feComposite in2="hardAlpha" operator="out"/>
<feColorMatrix type="matrix" values="0 0 0 0 0 0 0 0 0 0 0 0 0 0 0 0 0 0 0.5 0"/>
<feBlend mode="normal" in2="BackgroundImageFix" result="effect1_dropShadow_1073_16818"/>
<feColorMatrix in="SourceAlpha" type="matrix" values="0 0 0 0 0 0 0 0 0 0 0 0 0 0 0 0 0 0 127 0" result="hardAlpha"/>
<feOffset dy="0.6"/>
<feComposite in2="hardAlpha" operator="out"/>
<feColorMatrix type="matrix" values="0 0 0 0 0 0 0 0 0 0 0 0 0 0 0 0 0 0 1 0"/>
<feBlend mode="normal" in2="effect1_dropShadow_1073_16818" result="effect2_dropShadow_1073_16818"/>
<feBlend mode="normal" in="SourceGraphic" in2="effect2_dropShadow_1073_16818" result="shape"/>
</filter>
<filter id="filter1_d_1073_16818" x="38.1406" y="27.4199" width="131.42" height="23.5601" filterUnits="userSpaceOnUse" color-interpolation-filters="sRGB">
<feFlood flood-opacity="0" result="BackgroundImageFix"/>
<feColorMatrix in="SourceAlpha" type="matrix" values="0 0 0 0 0 0 0 0 0 0 0 0 0 0 0 0 0 0 127 0" result="hardAlpha"/>
<feOffset dy="2"/>
<feComposite in2="hardAlpha" operator="out"/>
<feColorMatrix type="matrix" values="0 0 0 0 0 0 0 0 0 0 0 0 0 0 0 0 0 0 1 0"/>
<feBlend mode="normal" in2="BackgroundImageFix" result="effect1_dropShadow_1073_16818"/>
<feBlend mode="normal" in="SourceGraphic" in2="effect1_dropShadow_1073_16818" result="shape"/>
</filter>
</defs>
</svg>
