<svg width="30" height="29" viewBox="0 0 30 29" fill="none" xmlns="http://www.w3.org/2000/svg">
<path d="M24.5109 16.9402C23.1292 21.9193 17.9592 24.9078 12.9635 23.6154C7.96785 22.323 5.03819 17.239 6.41996 12.2599C7.80173 7.28092 12.9717 4.29235 17.9674 5.58478C22.9631 6.87722 25.8927 11.9612 24.5109 16.9402Z" fill="#A56402"/>
<path fill-rule="evenodd" clip-rule="evenodd" d="M25.096 17.0908C23.6325 22.364 18.1439 25.5587 12.8086 24.1784C7.47328 22.7981 4.37439 17.3818 5.83781 12.1085C7.30122 6.83534 12.7899 3.64062 18.1252 5.02092C23.4605 6.40122 26.5594 11.8176 25.096 17.0908ZM12.965 23.615C17.9607 24.9074 23.1306 21.9189 24.5124 16.9398C25.8941 11.9608 22.9645 6.87681 17.9688 5.58438C12.9731 4.29194 7.80316 7.28051 6.42139 12.2595C5.03962 17.2385 7.96928 22.3226 12.965 23.615Z" fill="#5B3303"/>
<path d="M23.9074 16.3568C22.5257 21.3358 17.3557 24.3243 12.36 23.0319C7.36433 21.7395 4.43467 16.6555 5.81644 11.6764C7.19821 6.69742 12.3682 3.70886 17.3639 5.00129C22.3595 6.29372 25.2892 11.3777 23.9074 16.3568Z" fill="#FFB423"/>
<path fill-rule="evenodd" clip-rule="evenodd" d="M24.4905 16.5078C23.0271 21.781 17.5384 24.9757 12.2031 23.5954C6.86781 22.2151 3.76892 16.7988 5.23234 11.5255C6.69575 6.25233 12.1844 3.05761 17.5197 4.43791C22.855 5.81821 25.9539 11.2346 24.4905 16.5078ZM12.3595 23.032C17.3552 24.3244 22.5251 21.3358 23.9069 16.3568C25.2887 11.3778 22.359 6.2938 17.3633 5.00137C12.3676 3.70894 7.19769 6.6975 5.81592 11.6765C4.43415 16.6555 7.36381 21.7395 12.3595 23.032Z" fill="#5B3303"/>
<path d="M22.1563 15.9036C21.0336 19.949 16.8575 22.3836 12.8287 21.3413C8.79997 20.299 6.44411 16.1746 7.5668 12.1291C8.68949 8.08369 12.8656 5.64914 16.8944 6.69142C20.9231 7.73371 23.279 11.8581 22.1563 15.9036Z" fill="#FFCF23"/>
<path fill-rule="evenodd" clip-rule="evenodd" d="M22.7394 16.0546C21.5361 20.3902 17.0443 23.036 12.6719 21.9048C8.29941 20.7736 5.77948 16.3138 6.9827 11.9782C8.18591 7.64263 12.6778 4.99685 17.0502 6.12804C21.4227 7.25924 23.9426 11.719 22.7394 16.0546ZM12.8282 21.3414C16.857 22.3837 21.0331 19.9491 22.1558 15.9037C23.2785 11.8582 20.9226 7.73378 16.8938 6.6915C12.8651 5.64922 8.68897 8.08376 7.56628 12.1292C6.44359 16.1747 8.79944 20.2991 12.8282 21.3414Z" fill="#DF8D12"/>
<path fill-rule="evenodd" clip-rule="evenodd" d="M20.4696 8.8231C19.6396 8.10894 18.6358 7.56923 17.4987 7.27506C13.4699 6.23277 9.29383 8.66732 8.17114 12.7128C7.44668 15.3233 8.1707 17.9667 9.85803 19.7936C7.7474 17.9774 6.76116 15.0331 7.56698 12.1294C8.68967 8.08399 12.8658 5.64944 16.8945 6.69172C18.3236 7.06142 19.5421 7.81891 20.4696 8.8231Z" fill="#FFDD65"/>
<path d="M20.1735 17.2635C20.2718 17.4717 20.1767 17.7173 19.9612 17.8123C19.7456 17.9072 19.4912 17.8154 19.3929 17.6073C19.2945 17.3992 19.3896 17.1535 19.6051 17.0586C19.8207 16.9637 20.0751 17.0554 20.1735 17.2635Z" fill="#EEBE14"/>
<path d="M21.902 15.5921C22.0003 15.8003 21.9053 16.0459 21.6897 16.1409C21.4741 16.2358 21.2197 16.144 21.1214 15.9359C21.0231 15.7278 21.1181 15.4821 21.3337 15.3872C21.5492 15.2923 21.8037 15.384 21.902 15.5921Z" fill="#EEBE14"/>
<path d="M19.8102 15.4242C19.9085 15.6323 19.8135 15.878 19.5979 15.9729C19.3824 16.0678 19.1279 15.9761 19.0296 15.768C18.9313 15.5598 19.0263 15.3142 19.2419 15.2192C19.4574 15.1243 19.7119 15.2161 19.8102 15.4242Z" fill="#EEBE14"/>
<path d="M20.6871 16.0372C20.7556 16.1821 20.6894 16.3532 20.5393 16.4193C20.3892 16.4854 20.212 16.4215 20.1435 16.2766C20.075 16.1317 20.1412 15.9606 20.2913 15.8945C20.4415 15.8283 20.6187 15.8922 20.6871 16.0372Z" fill="#EEBE14"/>
<path d="M20.5719 14.7716C20.6404 14.9165 20.5742 15.0876 20.4241 15.1537C20.274 15.2198 20.0968 15.1559 20.0283 15.011C19.9598 14.866 20.026 14.6949 20.1761 14.6288C20.3262 14.5627 20.5034 14.6266 20.5719 14.7716Z" fill="#EEBE14"/>
<path d="M21.9371 14.4879C22.0056 14.6328 21.9394 14.8039 21.7893 14.87C21.6392 14.9361 21.462 14.8722 21.3935 14.7273C21.325 14.5823 21.3912 14.4112 21.5413 14.3451C21.6915 14.279 21.8687 14.3429 21.9371 14.4879Z" fill="#EEBE14"/>
<path d="M22.1129 12.6866C22.1814 12.8315 22.1152 13.0026 21.9651 13.0688C21.815 13.1349 21.6378 13.071 21.5693 12.926C21.5008 12.7811 21.567 12.61 21.7171 12.5439C21.8672 12.4778 22.0444 12.5417 22.1129 12.6866Z" fill="#EEBE14"/>
<path d="M21.1871 13.8663C21.2556 14.0112 21.1894 14.1823 21.0393 14.2484C20.8892 14.3145 20.712 14.2506 20.6435 14.1057C20.575 13.9608 20.6412 13.7897 20.7913 13.7236C20.9415 13.6574 21.1187 13.7213 21.1871 13.8663Z" fill="#EEBE14"/>
<path d="M21.4313 16.8072C21.4998 16.9522 21.4336 17.1232 21.2834 17.1894C21.1333 17.2555 20.9561 17.1916 20.8877 17.0466C20.8192 16.9017 20.8854 16.7306 21.0355 16.6645C21.1856 16.5984 21.3628 16.6623 21.4313 16.8072Z" fill="#EEBE14"/>
<path d="M20.074 18.5096C20.1373 18.6435 20.0761 18.8016 19.9374 18.8627C19.7987 18.9238 19.6349 18.8648 19.5716 18.7308C19.5083 18.5969 19.5695 18.4387 19.7082 18.3776C19.847 18.3165 20.0107 18.3756 20.074 18.5096Z" fill="#EEBE14"/>
<path d="M20.7232 17.7855C20.7619 17.8674 20.7245 17.9642 20.6396 18.0016C20.5547 18.039 20.4545 18.0028 20.4158 17.9209C20.3771 17.8389 20.4145 17.7422 20.4994 17.7048C20.5843 17.6674 20.6845 17.7035 20.7232 17.7855Z" fill="#EEBE14"/>
<path d="M19.5292 16.4503C19.5818 16.5618 19.5309 16.6934 19.4155 16.7443C19.3 16.7951 19.1637 16.746 19.111 16.6345C19.0583 16.523 19.1092 16.3914 19.2247 16.3405C19.3402 16.2897 19.4765 16.3388 19.5292 16.4503Z" fill="#EEBE14"/>
<path d="M21.2772 12.9494C21.3299 13.0608 21.279 13.1925 21.1635 13.2433C21.048 13.2942 20.9117 13.245 20.859 13.1335C20.8064 13.022 20.8573 12.8904 20.9728 12.8396C21.0882 12.7887 21.2245 12.8379 21.2772 12.9494Z" fill="#EEBE14"/>
<path d="M21.9667 13.7672C22.0193 13.8787 21.9684 14.0103 21.853 14.0612C21.7375 14.112 21.6012 14.0629 21.5485 13.9514C21.4958 13.8399 21.5467 13.7083 21.6622 13.6574C21.7777 13.6066 21.914 13.6557 21.9667 13.7672Z" fill="#EEBE14"/>
<path d="M19.2342 18.0187C19.2869 18.1302 19.236 18.2618 19.1205 18.3127C19.0051 18.3635 18.8687 18.3143 18.8161 18.2029C18.7634 18.0914 18.8143 17.9598 18.9298 17.9089C19.0453 17.858 19.1816 17.9072 19.2342 18.0187Z" fill="#EEBE14"/>
<path d="M19.1053 19.3117C19.158 19.4232 19.1071 19.5548 18.9916 19.6056C18.8761 19.6565 18.7398 19.6073 18.6872 19.4958C18.6345 19.3843 18.6854 19.2527 18.8009 19.2019C18.9164 19.151 19.0527 19.2002 19.1053 19.3117Z" fill="#EEBE14"/>
<path fill-rule="evenodd" clip-rule="evenodd" d="M13.5924 9.36113C14.4211 9.07101 15.3268 9.1221 16.0714 9.2759C16.7946 9.42529 17.4068 9.64247 17.9326 9.98337C18.4672 10.3299 18.8372 10.7554 19.1423 11.2104C19.5051 11.7512 19.345 12.4736 18.7848 12.8238C18.2247 13.174 17.4765 13.0195 17.1138 12.4786C16.9255 12.1979 16.7685 12.0392 16.5856 11.9206C16.3939 11.7964 16.0981 11.6675 15.5658 11.5576C15.055 11.4521 14.6549 11.4711 14.4161 11.5547C14.3109 11.5915 14.2524 11.635 14.2151 11.6756C14.1791 11.7148 14.1233 11.7939 14.0864 11.9604C14.0496 12.1269 14.0669 12.2211 14.0831 12.2711C14.1 12.3229 14.135 12.3857 14.2154 12.4608C14.3978 12.6314 14.7548 12.8068 15.2656 12.9124C16.0102 13.0662 16.8583 13.3773 17.4916 13.9694C18.1871 14.6198 18.544 15.544 18.3025 16.6342C18.0609 17.7243 17.3436 18.4266 16.4334 18.7453C15.6046 19.0354 14.6989 18.9843 13.9543 18.8305C12.4018 18.5099 11.354 17.7013 10.8466 16.8374C10.5174 16.277 10.7211 15.5649 11.3016 15.2471C11.8821 14.9292 12.6195 15.1259 12.9487 15.6864C13.0768 15.9045 13.5015 16.3509 14.4599 16.5488C14.9707 16.6544 15.3708 16.6353 15.6096 16.5517C15.7148 16.5149 15.7733 16.4715 15.8107 16.4308C15.8466 16.3916 15.9024 16.3125 15.9393 16.146C15.9762 15.9796 15.9588 15.8853 15.9426 15.8354C15.9257 15.7835 15.8908 15.7208 15.8104 15.6456C15.6279 15.475 15.2709 15.2996 14.7601 15.1941C14.0155 15.0403 13.1674 14.7291 12.5341 14.137C11.8386 13.4866 11.4817 12.5624 11.7233 11.4723C11.9648 10.3821 12.6821 9.67979 13.5924 9.36113Z" fill="#C37808"/>
<path fill-rule="evenodd" clip-rule="evenodd" d="M16.4746 7.45745C17.1271 7.59224 17.543 8.21229 17.4034 8.84237L17.0242 10.5536C16.8846 11.1837 16.2424 11.5852 15.5898 11.4504C14.9372 11.3156 14.5214 10.6956 14.661 10.0655L15.0402 8.35423C15.1798 7.72416 15.822 7.32265 16.4746 7.45745Z" fill="#C37808"/>
<path fill-rule="evenodd" clip-rule="evenodd" d="M14.4609 16.5488C15.1135 16.6836 15.5293 17.3036 15.3897 17.9337L15.0105 19.645C14.8709 20.275 14.2287 20.6765 13.5761 20.5417C12.9236 20.4069 12.5077 19.7869 12.6473 19.1568L13.0265 17.4455C13.1661 16.8155 13.8083 16.414 14.4609 16.5488Z" fill="#C37808"/>
<path fill-rule="evenodd" clip-rule="evenodd" d="M13.8513 10.0463C14.4957 9.8207 15.2434 9.84988 15.9149 9.98859C16.5785 10.1257 17.0918 10.3152 17.5132 10.5884C17.9379 10.8637 18.2413 11.2058 18.5099 11.6064C18.646 11.8092 18.5859 12.0801 18.3759 12.2114C18.1658 12.3427 17.8853 12.2848 17.7492 12.082C17.5244 11.7468 17.3009 11.5047 17.008 11.3149C16.712 11.1229 16.3173 10.9665 15.7253 10.8442C15.1414 10.7236 14.5833 10.7208 14.1602 10.8689C13.7677 11.0063 13.4666 11.2788 13.3495 11.8075C13.2323 12.3362 13.3915 12.7038 13.6915 12.9843C14.0148 13.2866 14.5253 13.5044 15.1092 13.6251C15.7807 13.7638 16.4753 14.0325 16.9677 14.4929C17.4834 14.9751 17.7505 15.6463 17.5655 16.4813C17.3805 17.3162 16.8524 17.8232 16.1774 18.0595C15.5331 18.285 14.7854 18.2559 14.1138 18.1172C12.747 17.8348 11.8939 17.1395 11.505 16.4774C11.3816 16.2672 11.458 16.0002 11.6756 15.881C11.8933 15.7618 12.1699 15.8356 12.2933 16.0458C12.54 16.4657 13.1594 17.0252 14.3034 17.2615C14.8873 17.3821 15.4454 17.385 15.8685 17.2369C16.2611 17.0994 16.5621 16.8269 16.6793 16.2982C16.7964 15.7695 16.6372 15.4019 16.3373 15.1215C16.0139 14.8192 15.5035 14.6013 14.9196 14.4807C14.248 14.342 13.5534 14.0732 13.061 13.6128C12.5453 13.1306 12.2783 12.4594 12.4633 11.6245C12.6483 10.7895 13.1764 10.2826 13.8513 10.0463Z" fill="#FFB423"/>
<path fill-rule="evenodd" clip-rule="evenodd" d="M16.3181 8.17063C16.5628 8.22118 16.7188 8.45369 16.6664 8.68997L16.2872 10.4012C16.2349 10.6375 15.994 10.7881 15.7493 10.7375C15.5046 10.687 15.3487 10.4545 15.401 10.2182L15.7802 8.50692C15.8326 8.27064 16.0734 8.12008 16.3181 8.17063Z" fill="#FFB423"/>
<path fill-rule="evenodd" clip-rule="evenodd" d="M14.3025 17.2614C14.5472 17.312 14.7031 17.5445 14.6508 17.7808L14.2716 19.4921C14.2192 19.7283 13.9784 19.8789 13.7337 19.8284C13.489 19.7778 13.333 19.5453 13.3854 19.309L13.7646 17.5977C13.8169 17.3615 14.0578 17.2109 14.3025 17.2614Z" fill="#FFB423"/>
<path fill-rule="evenodd" clip-rule="evenodd" d="M6.56568 11.2271C6.4094 11.1707 6.33005 11.0027 6.38845 10.8518C7.43115 8.15762 9.76623 6.07257 12.6663 5.29976C12.8271 5.2569 12.9935 5.34804 13.0379 5.50331C13.0823 5.65859 12.9879 5.81921 12.827 5.86207C10.1151 6.58475 7.92981 8.53566 6.95439 11.056C6.89599 11.2068 6.72196 11.2835 6.56568 11.2271Z" fill="#FFCF72"/>
<path fill-rule="evenodd" clip-rule="evenodd" d="M22.3891 18.4367C22.5302 18.5227 22.5723 18.7029 22.4832 18.8391C21.7766 19.9191 20.8396 20.8446 19.7389 21.5512C19.6 21.6404 19.4125 21.6039 19.3201 21.4698C19.2277 21.3357 19.2655 21.1546 19.4044 21.0654C20.4344 20.4042 21.3112 19.5381 21.9724 18.5275C22.0615 18.3914 22.2481 18.3507 22.3891 18.4367Z" fill="#FFCF72"/>
<path fill-rule="evenodd" clip-rule="evenodd" d="M9.89416 7.25937C9.8941 7.25941 9.89422 7.25933 9.89416 7.25937L9.72659 7.01669C9.89416 7.25937 9.89412 7.2594 9.89416 7.25937L9.89308 7.26008L9.88695 7.26411C9.88123 7.26789 9.8723 7.27384 9.86046 7.2819C9.83676 7.29802 9.80144 7.32252 9.7568 7.35484C9.66745 7.41955 9.54132 7.5152 9.39687 7.63724C9.1063 7.88272 8.74966 8.2282 8.46753 8.63681C8.37498 8.77084 8.18743 8.80706 8.04861 8.71771C7.9098 8.62835 7.87229 8.44727 7.96483 8.31324C8.28686 7.84685 8.68543 7.46317 8.99903 7.19823C9.15666 7.06506 9.29485 6.96019 9.3943 6.88818C9.44407 6.85214 9.48426 6.82423 9.51249 6.80503C9.5266 6.79543 9.53774 6.788 9.54559 6.78281L9.55488 6.77671L9.55761 6.77493L9.55848 6.77436L9.5588 6.77416C9.55885 6.77413 9.55903 6.77401 9.72659 7.01669L9.5588 6.77416C9.69761 6.68481 9.8854 6.72088 9.97794 6.85491C10.0704 6.98888 10.0328 7.16998 9.89416 7.25937Z" fill="#FFE9AF"/>
<path fill-rule="evenodd" clip-rule="evenodd" d="M11.1031 8.71738C11.1031 8.71742 11.1032 8.71734 11.1031 8.71738L10.9356 8.4747C11.1031 8.71738 11.1031 8.71741 11.1031 8.71738L11.1021 8.71809L11.0959 8.72212C11.0902 8.7259 11.0813 8.73185 11.0694 8.73991C11.0457 8.75603 11.0104 8.78053 10.9658 8.81285C10.8764 8.87756 10.7503 8.97321 10.6059 9.09524C10.3153 9.34073 9.95865 9.68621 9.67651 10.0948C9.58397 10.2289 9.39641 10.2651 9.2576 10.1757C9.11878 10.0864 9.08127 9.90528 9.17381 9.77125C9.49585 9.30486 9.89442 8.92117 10.208 8.65624C10.3656 8.52306 10.5038 8.4182 10.6033 8.34619C10.6531 8.31015 10.6932 8.28224 10.7215 8.26304C10.7356 8.25344 10.7467 8.24601 10.7546 8.24082L10.7639 8.23471L10.7666 8.23294L10.7675 8.23237L10.7678 8.23217C10.7678 8.23213 10.768 8.23202 10.9356 8.4747L10.7678 8.23217C10.9066 8.14282 11.0944 8.17888 11.1869 8.31291C11.2794 8.44688 11.2418 8.62799 11.1031 8.71738Z" fill="white"/>
</svg>
