<svg width="24" height="24" viewBox="0 0 24 24" fill="none" xmlns="http://www.w3.org/2000/svg">
<g clip-path="url(#clip0_1389_11338)">
<path fill-rule="evenodd" clip-rule="evenodd" d="M8.0817 2.54561C8.0817 1.20161 9.17199 0.111328 10.516 0.111328H21.5457C22.191 0.111783 22.8097 0.368452 23.2659 0.82492C23.722 1.28139 23.9783 1.9003 23.9783 2.54561V21.4542C23.9783 22.0998 23.7218 22.719 23.2653 23.1755C22.8088 23.632 22.1896 23.8885 21.544 23.8885H13.144C13.276 23.5216 13.3497 23.1256 13.3497 22.7142V19.5976C13.3497 19.4559 13.344 19.3148 13.3326 19.1742C13.632 19.2279 13.9354 19.2548 14.2428 19.2548H16.5948C17.4202 19.2548 18.2178 18.9571 18.8412 18.4163C19.4647 17.8756 19.8722 17.1281 19.989 16.3111C20.1057 15.494 19.9238 14.6623 19.4766 13.9687C19.0295 13.275 18.3471 12.7658 17.5548 12.5348C18.1071 12.019 18.5336 11.3833 18.8015 10.6767C19.0694 9.97004 19.1714 9.21137 19.0999 8.45908C19.0283 7.70679 18.7851 6.98097 18.3888 6.33753C17.9925 5.69409 17.4538 5.1502 16.8142 4.74776C16.1746 4.34532 15.4511 4.09508 14.6996 4.01631C13.948 3.93754 13.1884 4.03235 12.4792 4.29343C11.7701 4.5545 11.1303 4.97488 10.6092 5.52218C10.0882 6.06947 9.69968 6.72908 9.4737 7.45019C9.03054 7.26179 8.56312 7.13657 8.08513 7.07819L8.0817 2.54561ZM11.3903 8.92618C11.3903 8.18509 11.6847 7.47436 12.2087 6.95033C12.7327 6.4263 13.4435 6.1319 14.1846 6.1319C14.9256 6.1319 15.6364 6.4263 16.1604 6.95033C16.6844 7.47436 16.9788 8.18509 16.9788 8.92618C16.9788 9.66727 16.6844 10.378 16.1604 10.902C15.6364 11.4261 14.9256 11.7205 14.1846 11.7205C13.4435 11.7205 12.7327 11.4261 12.2087 10.902C11.6847 10.378 11.3903 9.66727 11.3903 8.92618ZM11.5326 11.7033L11.536 11.7085L14.0903 14.2628C14.1311 14.3027 14.1857 14.3254 14.2428 14.3262H16.5931C16.991 14.3262 17.3725 14.4842 17.6538 14.7655C17.9351 15.0468 18.0931 15.4284 18.0931 15.8262C18.0931 16.224 17.9351 16.6055 17.6538 16.8868C17.3725 17.1681 16.991 17.3262 16.5931 17.3262H14.2428C13.3908 17.3262 12.5731 16.9885 11.9697 16.385L10.4714 14.8868L9.25427 16.1039L10.4783 17.3245C11.08 17.9279 11.4194 18.7456 11.4194 19.5976V22.2856C11.4194 22.6834 11.2614 23.065 10.9801 23.3463C10.6988 23.6276 10.3172 23.7856 9.91941 23.7856C9.52159 23.7856 9.14006 23.6276 8.85876 23.3463C8.57745 23.065 8.41941 22.6834 8.41941 22.2856V19.5976C8.41817 19.5411 8.3955 19.4872 8.35599 19.4468L7.11313 18.2039C6.55353 18.6275 5.87096 18.8568 5.16913 18.857H1.71484C1.31702 18.857 0.935488 18.699 0.654184 18.4177C0.372879 18.1364 0.214844 17.7549 0.214844 17.357C0.214844 16.9592 0.372879 16.5777 0.654184 16.2964C0.935488 16.0151 1.31702 15.857 1.71484 15.857H5.16913C5.22624 15.8562 5.28085 15.8335 5.3217 15.7936L8.34913 12.7645L7.61542 12.0325C7.57499 11.993 7.52107 11.9703 7.46456 11.969H4.34799C3.95016 11.969 3.56863 11.811 3.28733 11.5297C3.00602 11.2484 2.84799 10.8669 2.84799 10.469C2.84799 10.0712 3.00602 9.68969 3.28733 9.40838C3.56863 9.12708 3.95016 8.96904 4.34799 8.96904H7.46627C8.31827 8.96904 9.13599 9.30847 9.7377 9.9119L11.5274 11.6999L11.5326 11.7033Z" fill="#E6311F"/>
</g>
<defs>
<clipPath id="clip0_1389_11338">
<rect width="24" height="24" fill="white"/>
</clipPath>
</defs>
</svg>
