<svg width="196" height="85" viewBox="0 0 196 85" fill="none" xmlns="http://www.w3.org/2000/svg">
<g filter="url(#filter0_dd_1243_12250)">
<path d="M6.40224 4.7179C6.55055 2.62365 8.29276 1.00047 10.3922 1.00047H190.707C193.027 1.00047 194.861 2.96843 194.697 5.28304L189.598 77.2824C189.449 79.3767 187.707 80.9999 185.608 80.9999H5.29329C2.97288 80.9999 1.13937 79.0319 1.30329 76.7173L6.40224 4.7179Z" fill="#FFB931"/>
<path d="M190.707 0.5C193.317 0.500181 195.38 2.71453 195.195 5.31836L190.097 77.3174C189.93 79.6734 187.969 81.5 185.607 81.5H5.29297C2.68266 81.4998 0.620286 79.2855 0.804688 76.6816L5.90332 4.68262C6.07017 2.32659 8.03065 0.5 10.3926 0.5H190.707Z" stroke="black"/>
</g>
<mask id="mask0_1243_12250" style="mask-type:alpha" maskUnits="userSpaceOnUse" x="1" y="1" width="194" height="80">
<path d="M6.40224 4.71743C6.55055 2.62318 8.29276 1 10.3922 1H190.707C193.027 1 194.861 2.96796 194.697 5.28257L189.598 77.282C189.449 79.3762 187.707 80.9994 185.608 80.9994H5.29329C2.97288 80.9994 1.13937 79.0314 1.30329 76.7168L6.40224 4.71743Z" fill="#E6311F"/>
</mask>
<g mask="url(#mask0_1243_12250)">
<rect x="-5.48047" y="-14.9922" width="218.641" height="23.4222" fill="#FFD02A"/>
<rect x="-5.35352" y="72.2305" width="218.641" height="23.9316" fill="#E19F00"/>
</g>
<g filter="url(#filter1_d_1243_12250)">
<mask id="path-6-outside-1_1243_12250" maskUnits="userSpaceOnUse" x="38" y="27" width="114" height="22" fill="black">
<rect fill="white" x="38" y="27" width="114" height="22"/>
<path d="M49.872 28.4C50.1893 28.4 50.348 29.2307 50.348 30.892C50.348 32.5347 50.1893 33.356 49.872 33.356H44.748V36.548H48.164C48.4813 36.548 48.64 37.276 48.64 38.732C48.64 40.1693 48.4907 40.888 48.192 40.888H44.748V47.636C44.748 47.8973 44.3933 48.0653 43.684 48.14C42.9933 48.2333 42.4147 48.28 41.948 48.28L40.632 48.224C39.7173 48.112 39.26 47.9253 39.26 47.664V29.128C39.26 28.8293 39.316 28.6333 39.428 28.54C39.5587 28.4467 39.7453 28.4 39.988 28.4H49.872ZM62.3467 47.244C61.1707 47.9347 59.6587 48.28 57.8107 48.28C55.9627 48.28 54.404 47.6547 53.1347 46.404C51.8653 45.1347 51.2307 43.3893 51.2307 41.168C51.2307 38.928 51.8373 37.1267 53.0507 35.764C54.2827 34.4013 55.832 33.72 57.6987 33.72C59.5653 33.72 61.0027 34.196 62.0107 35.148C63.0373 36.1 63.5507 37.2573 63.5507 38.62C63.5507 41.644 61.8147 43.156 58.3427 43.156H56.4107C56.4107 43.716 56.56 44.108 56.8587 44.332C57.176 44.5373 57.6333 44.64 58.2307 44.64C59.5373 44.64 60.7787 44.3413 61.9547 43.744C61.9733 43.7253 62.0573 43.856 62.2067 44.136C62.6547 44.9387 62.8787 45.62 62.8787 46.18C62.8787 46.7213 62.7013 47.076 62.3467 47.244ZM58.8467 39.152C58.8467 38.368 58.464 37.976 57.6987 37.976C57.344 37.976 57.036 38.088 56.7747 38.312C56.532 38.5173 56.4107 38.8253 56.4107 39.236V40.104H57.9227C58.5387 40.104 58.8467 39.7867 58.8467 39.152ZM76.2438 47.244C75.0678 47.9347 73.5558 48.28 71.7078 48.28C69.8598 48.28 68.3012 47.6547 67.0318 46.404C65.7625 45.1347 65.1278 43.3893 65.1278 41.168C65.1278 38.928 65.7345 37.1267 66.9478 35.764C68.1798 34.4013 69.7292 33.72 71.5958 33.72C73.4625 33.72 74.8998 34.196 75.9078 35.148C76.9345 36.1 77.4478 37.2573 77.4478 38.62C77.4478 41.644 75.7118 43.156 72.2398 43.156H70.3078C70.3078 43.716 70.4572 44.108 70.7558 44.332C71.0732 44.5373 71.5305 44.64 72.1278 44.64C73.4345 44.64 74.6758 44.3413 75.8518 43.744C75.8705 43.7253 75.9545 43.856 76.1038 44.136C76.5518 44.9387 76.7758 45.62 76.7758 46.18C76.7758 46.7213 76.5985 47.076 76.2438 47.244ZM72.7438 39.152C72.7438 38.368 72.3612 37.976 71.5958 37.976C71.2412 37.976 70.9332 38.088 70.6718 38.312C70.4292 38.5173 70.3078 38.8253 70.3078 39.236V40.104H71.8198C72.4358 40.104 72.7438 39.7867 72.7438 39.152ZM86.641 28.568C86.641 28.288 87.3784 28.148 88.853 28.148C89.357 28.148 89.9357 28.1853 90.589 28.26C91.261 28.316 91.597 28.4 91.597 28.512V43.268H92.577C93.0437 43.268 93.3517 43.688 93.501 44.528C93.5384 44.7707 93.557 45.1067 93.557 45.536C93.557 45.9467 93.4264 46.4507 93.165 47.048C92.7917 47.8693 92.1944 48.28 91.373 48.28C90.757 48.28 90.2064 48.1587 89.721 47.916C89.2544 47.6733 88.937 47.4213 88.769 47.16L88.517 46.796C87.4904 47.7853 86.2024 48.28 84.653 48.28C83.1037 48.28 81.7784 47.636 80.677 46.348C79.5757 45.06 79.025 43.268 79.025 40.972C79.025 38.6573 79.6037 36.8747 80.761 35.624C81.9184 34.3547 83.365 33.72 85.101 33.72C85.605 33.72 86.1184 33.776 86.641 33.888V28.568ZM85.717 38.2C84.6717 38.2 84.149 39.1427 84.149 41.028C84.149 41.98 84.2984 42.6707 84.597 43.1C84.8957 43.5107 85.2224 43.716 85.577 43.716C85.9504 43.716 86.305 43.5573 86.641 43.24V38.48C86.3237 38.2933 86.0157 38.2 85.717 38.2ZM95.8091 28.484C95.8091 28.26 96.6117 28.148 98.2171 28.148C99.8411 28.148 100.653 28.2693 100.653 28.512V33.944C101.456 33.7947 102.025 33.72 102.361 33.72C106.281 33.72 108.241 35.9693 108.241 40.468C108.241 42.9693 107.634 44.9013 106.421 46.264C105.226 47.608 103.518 48.28 101.297 48.28C99.0944 48.28 97.2651 47.7853 95.8091 46.796V28.484ZM101.577 38.088C101.26 38.088 100.952 38.1907 100.653 38.396V43.744C100.914 43.856 101.185 43.912 101.465 43.912C101.764 43.912 102.062 43.8 102.361 43.576C102.884 43.2027 103.145 42.3347 103.145 40.972C103.145 39.0493 102.622 38.088 101.577 38.088ZM112.26 37.836C111.737 36.9027 111.476 36.1467 111.476 35.568C111.476 34.9707 111.635 34.588 111.952 34.42C113.016 33.9533 114.472 33.72 116.32 33.72C118.187 33.72 119.503 34.1587 120.268 35.036C121.033 35.8947 121.416 37.1733 121.416 38.872V43.296H122.368C122.685 43.296 122.928 43.4827 123.096 43.856C123.283 44.2293 123.376 44.7427 123.376 45.396C123.376 46.0493 123.208 46.6933 122.872 47.328C122.555 47.9627 122.116 48.28 121.556 48.28C120.548 48.28 119.736 48.0093 119.12 47.468C118.84 47.244 118.625 46.9733 118.476 46.656C117.617 47.7387 116.283 48.28 114.472 48.28C113.109 48.28 111.961 47.7947 111.028 46.824C110.095 45.8533 109.628 44.7053 109.628 43.38C109.628 40.3373 111.448 38.816 115.088 38.816H116.628V38.536C116.628 38.0507 116.544 37.7427 116.376 37.612C116.227 37.4627 115.863 37.388 115.284 37.388C114.575 37.388 113.567 37.5373 112.26 37.836ZM114.5 42.988C114.5 43.3987 114.612 43.716 114.836 43.94C115.06 44.1453 115.34 44.248 115.676 44.248C116.031 44.248 116.348 44.108 116.628 43.828V41.672H115.844C114.948 41.672 114.5 42.1107 114.5 42.988ZM129.833 41.056C129.833 42.8853 130.523 43.8 131.905 43.8C132.801 43.8 133.547 43.6227 134.145 43.268C134.425 43.268 134.649 43.7533 134.817 44.724C135.003 45.676 135.097 46.3293 135.097 46.684C135.097 47.02 135.05 47.244 134.957 47.356C133.967 47.972 132.614 48.28 130.897 48.28C129.179 48.28 127.714 47.6453 126.501 46.376C125.306 45.088 124.709 43.3427 124.709 41.14C124.709 38.9187 125.297 37.1267 126.473 35.764C127.667 34.4013 129.245 33.72 131.205 33.72C133.183 33.72 134.555 34.196 135.321 35.148C135.489 35.3533 135.573 35.6613 135.573 36.072C135.573 36.464 135.498 36.9493 135.349 37.528C135.013 38.7227 134.574 39.4133 134.033 39.6C133.958 39.6187 133.846 39.628 133.697 39.628C133.566 39.628 133.398 39.516 133.193 39.292C132.465 38.564 131.877 38.2 131.429 38.2C130.999 38.2 130.626 38.424 130.309 38.872C129.991 39.32 129.833 40.048 129.833 41.056ZM137.388 28.624C137.388 28.3253 138.237 28.176 139.936 28.176C141.523 28.232 142.316 28.3533 142.316 28.54V39.292L145.088 34.168C145.219 33.888 146.012 33.748 147.468 33.748C148.924 33.748 149.857 33.8413 150.268 34.028L146.628 39.964L150.828 47.832C150.865 47.9067 150.511 47.9627 149.764 48C149.036 48.056 148.429 48.084 147.944 48.084C146.152 48.084 145.191 48 145.06 47.832L142.288 41.616V47.804C142.288 48.0467 141.467 48.168 139.824 48.168C138.2 48.168 137.388 48.056 137.388 47.832V28.624Z"/>
</mask>
<path d="M49.872 28.4C50.1893 28.4 50.348 29.2307 50.348 30.892C50.348 32.5347 50.1893 33.356 49.872 33.356H44.748V36.548H48.164C48.4813 36.548 48.64 37.276 48.64 38.732C48.64 40.1693 48.4907 40.888 48.192 40.888H44.748V47.636C44.748 47.8973 44.3933 48.0653 43.684 48.14C42.9933 48.2333 42.4147 48.28 41.948 48.28L40.632 48.224C39.7173 48.112 39.26 47.9253 39.26 47.664V29.128C39.26 28.8293 39.316 28.6333 39.428 28.54C39.5587 28.4467 39.7453 28.4 39.988 28.4H49.872ZM62.3467 47.244C61.1707 47.9347 59.6587 48.28 57.8107 48.28C55.9627 48.28 54.404 47.6547 53.1347 46.404C51.8653 45.1347 51.2307 43.3893 51.2307 41.168C51.2307 38.928 51.8373 37.1267 53.0507 35.764C54.2827 34.4013 55.832 33.72 57.6987 33.72C59.5653 33.72 61.0027 34.196 62.0107 35.148C63.0373 36.1 63.5507 37.2573 63.5507 38.62C63.5507 41.644 61.8147 43.156 58.3427 43.156H56.4107C56.4107 43.716 56.56 44.108 56.8587 44.332C57.176 44.5373 57.6333 44.64 58.2307 44.64C59.5373 44.64 60.7787 44.3413 61.9547 43.744C61.9733 43.7253 62.0573 43.856 62.2067 44.136C62.6547 44.9387 62.8787 45.62 62.8787 46.18C62.8787 46.7213 62.7013 47.076 62.3467 47.244ZM58.8467 39.152C58.8467 38.368 58.464 37.976 57.6987 37.976C57.344 37.976 57.036 38.088 56.7747 38.312C56.532 38.5173 56.4107 38.8253 56.4107 39.236V40.104H57.9227C58.5387 40.104 58.8467 39.7867 58.8467 39.152ZM76.2438 47.244C75.0678 47.9347 73.5558 48.28 71.7078 48.28C69.8598 48.28 68.3012 47.6547 67.0318 46.404C65.7625 45.1347 65.1278 43.3893 65.1278 41.168C65.1278 38.928 65.7345 37.1267 66.9478 35.764C68.1798 34.4013 69.7292 33.72 71.5958 33.72C73.4625 33.72 74.8998 34.196 75.9078 35.148C76.9345 36.1 77.4478 37.2573 77.4478 38.62C77.4478 41.644 75.7118 43.156 72.2398 43.156H70.3078C70.3078 43.716 70.4572 44.108 70.7558 44.332C71.0732 44.5373 71.5305 44.64 72.1278 44.64C73.4345 44.64 74.6758 44.3413 75.8518 43.744C75.8705 43.7253 75.9545 43.856 76.1038 44.136C76.5518 44.9387 76.7758 45.62 76.7758 46.18C76.7758 46.7213 76.5985 47.076 76.2438 47.244ZM72.7438 39.152C72.7438 38.368 72.3612 37.976 71.5958 37.976C71.2412 37.976 70.9332 38.088 70.6718 38.312C70.4292 38.5173 70.3078 38.8253 70.3078 39.236V40.104H71.8198C72.4358 40.104 72.7438 39.7867 72.7438 39.152ZM86.641 28.568C86.641 28.288 87.3784 28.148 88.853 28.148C89.357 28.148 89.9357 28.1853 90.589 28.26C91.261 28.316 91.597 28.4 91.597 28.512V43.268H92.577C93.0437 43.268 93.3517 43.688 93.501 44.528C93.5384 44.7707 93.557 45.1067 93.557 45.536C93.557 45.9467 93.4264 46.4507 93.165 47.048C92.7917 47.8693 92.1944 48.28 91.373 48.28C90.757 48.28 90.2064 48.1587 89.721 47.916C89.2544 47.6733 88.937 47.4213 88.769 47.16L88.517 46.796C87.4904 47.7853 86.2024 48.28 84.653 48.28C83.1037 48.28 81.7784 47.636 80.677 46.348C79.5757 45.06 79.025 43.268 79.025 40.972C79.025 38.6573 79.6037 36.8747 80.761 35.624C81.9184 34.3547 83.365 33.72 85.101 33.72C85.605 33.72 86.1184 33.776 86.641 33.888V28.568ZM85.717 38.2C84.6717 38.2 84.149 39.1427 84.149 41.028C84.149 41.98 84.2984 42.6707 84.597 43.1C84.8957 43.5107 85.2224 43.716 85.577 43.716C85.9504 43.716 86.305 43.5573 86.641 43.24V38.48C86.3237 38.2933 86.0157 38.2 85.717 38.2ZM95.8091 28.484C95.8091 28.26 96.6117 28.148 98.2171 28.148C99.8411 28.148 100.653 28.2693 100.653 28.512V33.944C101.456 33.7947 102.025 33.72 102.361 33.72C106.281 33.72 108.241 35.9693 108.241 40.468C108.241 42.9693 107.634 44.9013 106.421 46.264C105.226 47.608 103.518 48.28 101.297 48.28C99.0944 48.28 97.2651 47.7853 95.8091 46.796V28.484ZM101.577 38.088C101.26 38.088 100.952 38.1907 100.653 38.396V43.744C100.914 43.856 101.185 43.912 101.465 43.912C101.764 43.912 102.062 43.8 102.361 43.576C102.884 43.2027 103.145 42.3347 103.145 40.972C103.145 39.0493 102.622 38.088 101.577 38.088ZM112.26 37.836C111.737 36.9027 111.476 36.1467 111.476 35.568C111.476 34.9707 111.635 34.588 111.952 34.42C113.016 33.9533 114.472 33.72 116.32 33.72C118.187 33.72 119.503 34.1587 120.268 35.036C121.033 35.8947 121.416 37.1733 121.416 38.872V43.296H122.368C122.685 43.296 122.928 43.4827 123.096 43.856C123.283 44.2293 123.376 44.7427 123.376 45.396C123.376 46.0493 123.208 46.6933 122.872 47.328C122.555 47.9627 122.116 48.28 121.556 48.28C120.548 48.28 119.736 48.0093 119.12 47.468C118.84 47.244 118.625 46.9733 118.476 46.656C117.617 47.7387 116.283 48.28 114.472 48.28C113.109 48.28 111.961 47.7947 111.028 46.824C110.095 45.8533 109.628 44.7053 109.628 43.38C109.628 40.3373 111.448 38.816 115.088 38.816H116.628V38.536C116.628 38.0507 116.544 37.7427 116.376 37.612C116.227 37.4627 115.863 37.388 115.284 37.388C114.575 37.388 113.567 37.5373 112.26 37.836ZM114.5 42.988C114.5 43.3987 114.612 43.716 114.836 43.94C115.06 44.1453 115.34 44.248 115.676 44.248C116.031 44.248 116.348 44.108 116.628 43.828V41.672H115.844C114.948 41.672 114.5 42.1107 114.5 42.988ZM129.833 41.056C129.833 42.8853 130.523 43.8 131.905 43.8C132.801 43.8 133.547 43.6227 134.145 43.268C134.425 43.268 134.649 43.7533 134.817 44.724C135.003 45.676 135.097 46.3293 135.097 46.684C135.097 47.02 135.05 47.244 134.957 47.356C133.967 47.972 132.614 48.28 130.897 48.28C129.179 48.28 127.714 47.6453 126.501 46.376C125.306 45.088 124.709 43.3427 124.709 41.14C124.709 38.9187 125.297 37.1267 126.473 35.764C127.667 34.4013 129.245 33.72 131.205 33.72C133.183 33.72 134.555 34.196 135.321 35.148C135.489 35.3533 135.573 35.6613 135.573 36.072C135.573 36.464 135.498 36.9493 135.349 37.528C135.013 38.7227 134.574 39.4133 134.033 39.6C133.958 39.6187 133.846 39.628 133.697 39.628C133.566 39.628 133.398 39.516 133.193 39.292C132.465 38.564 131.877 38.2 131.429 38.2C130.999 38.2 130.626 38.424 130.309 38.872C129.991 39.32 129.833 40.048 129.833 41.056ZM137.388 28.624C137.388 28.3253 138.237 28.176 139.936 28.176C141.523 28.232 142.316 28.3533 142.316 28.54V39.292L145.088 34.168C145.219 33.888 146.012 33.748 147.468 33.748C148.924 33.748 149.857 33.8413 150.268 34.028L146.628 39.964L150.828 47.832C150.865 47.9067 150.511 47.9627 149.764 48C149.036 48.056 148.429 48.084 147.944 48.084C146.152 48.084 145.191 48 145.06 47.832L142.288 41.616V47.804C142.288 48.0467 141.467 48.168 139.824 48.168C138.2 48.168 137.388 48.056 137.388 47.832V28.624Z" fill="white"/>
<path d="M44.748 33.356V32.656H44.048V33.356H44.748ZM44.748 36.548H44.048V37.248H44.748V36.548ZM44.748 40.888V40.188H44.048V40.888H44.748ZM43.684 48.14L43.6107 47.4438L43.6005 47.4449L43.5903 47.4463L43.684 48.14ZM41.948 48.28L41.9182 48.9794L41.9331 48.98H41.948V48.28ZM40.632 48.224L40.5469 48.9188L40.5745 48.9222L40.6022 48.9234L40.632 48.224ZM39.428 28.54L39.0211 27.9704L38.9999 27.9855L38.9799 28.0022L39.428 28.54ZM49.872 28.4V29.1C49.7464 29.1 49.6388 29.0552 49.5643 28.9995C49.4992 28.9508 49.4738 28.9053 49.4729 28.9038C49.4709 28.9003 49.4802 28.9163 49.495 28.9628C49.5093 29.0077 49.5254 29.0704 49.5414 29.1543C49.608 29.5026 49.648 30.0719 49.648 30.892H50.348H51.048C51.048 30.0508 51.0087 29.374 50.9166 28.8917C50.8717 28.6568 50.8044 28.4116 50.6876 28.2077C50.5723 28.0064 50.3154 27.7 49.872 27.7V28.4ZM50.348 30.892H49.648C49.648 31.7027 49.608 32.2643 49.5417 32.6072C49.5258 32.6898 49.5098 32.7512 49.4957 32.795C49.4811 32.8403 49.4722 32.8552 49.4746 32.851C49.476 32.8486 49.502 32.803 49.5674 32.7547C49.6419 32.6996 49.7484 32.656 49.872 32.656V33.356V34.056C50.3114 34.056 50.5687 33.7552 50.6859 33.553C50.8036 33.3498 50.8713 33.1057 50.9163 32.8728C51.0087 32.3944 51.048 31.724 51.048 30.892H50.348ZM49.872 33.356V32.656H44.748V33.356V34.056H49.872V33.356ZM44.748 33.356H44.048V36.548H44.748H45.448V33.356H44.748ZM44.748 36.548V37.248H48.164V36.548V35.848H44.748V36.548ZM48.164 36.548V37.248C47.9247 37.248 47.8034 37.0937 47.7864 37.0676C47.7774 37.0538 47.8045 37.0936 47.8371 37.2431C47.8999 37.5314 47.94 38.0162 47.94 38.732H48.64H49.34C49.34 37.9918 49.3008 37.3846 49.2049 36.9449C49.1582 36.7304 49.0861 36.4972 48.9581 36.3014C48.8221 36.0933 48.562 35.848 48.164 35.848V36.548ZM48.64 38.732H47.94C47.94 39.4391 47.9022 39.9197 47.8426 40.2066C47.8116 40.3558 47.7856 40.3964 47.794 40.3829C47.8072 40.3616 47.9319 40.188 48.192 40.188V40.888V41.588C48.6014 41.588 48.8568 41.3245 48.982 41.1236C49.1024 40.9305 49.1697 40.7016 49.2134 40.4914C49.3031 40.0596 49.34 39.4622 49.34 38.732H48.64ZM48.192 40.888V40.188H44.748V40.888V41.588H48.192V40.888ZM44.748 40.888H44.048V47.636H44.748H45.448V40.888H44.748ZM44.748 47.636H44.048C44.048 47.5275 44.0898 47.4316 44.1418 47.3687C44.1839 47.3178 44.2137 47.3105 44.1823 47.3254C44.1537 47.339 44.0949 47.361 43.9938 47.384C43.8948 47.4066 43.7682 47.4273 43.6107 47.4438L43.684 48.14L43.7573 48.8362C44.1372 48.7962 44.4969 48.7255 44.7817 48.5906C45.0652 48.4563 45.448 48.1624 45.448 47.636H44.748ZM43.684 48.14L43.5903 47.4463C42.9171 47.5373 42.3721 47.58 41.948 47.58V48.28V48.98C42.4572 48.98 43.0696 48.9294 43.7777 48.8337L43.684 48.14ZM41.948 48.28L41.9778 47.5806L40.6618 47.5246L40.632 48.224L40.6022 48.9234L41.9182 48.9794L41.948 48.28ZM40.632 48.224L40.7171 47.5292C40.278 47.4754 40.0089 47.4096 39.8675 47.3519C39.7964 47.3229 39.8025 47.3136 39.8356 47.3459C39.8806 47.39 39.96 47.5004 39.96 47.664H39.26H38.56C38.56 48.2723 39.0896 48.5465 39.3385 48.6481C39.6545 48.7771 40.0713 48.8606 40.5469 48.9188L40.632 48.224ZM39.26 47.664H39.96V29.128H39.26H38.56V47.664H39.26ZM39.26 29.128H39.96C39.96 29.0746 39.9625 29.0331 39.9661 29.002C39.9696 28.9705 39.9737 28.9541 39.9751 28.9493C39.9765 28.9443 39.9734 28.9574 39.9599 28.9807C39.9457 29.0051 39.9196 29.0416 39.8761 29.0778L39.428 28.54L38.9799 28.0022C38.7808 28.1682 38.6807 28.3835 38.6289 28.5647C38.5769 28.7469 38.56 28.9409 38.56 29.128H39.26ZM39.428 28.54L39.8349 29.1096C39.8161 29.123 39.8111 29.1203 39.8358 29.1141C39.8614 29.1077 39.9098 29.1 39.988 29.1V28.4V27.7C39.6697 27.7 39.3172 27.7589 39.0211 27.9704L39.428 28.54ZM39.988 28.4V29.1H49.872V28.4V27.7H39.988V28.4ZM62.3467 47.244L62.047 46.6114L62.0189 46.6247L61.9922 46.6404L62.3467 47.244ZM53.1347 46.404L52.6397 46.899L52.6434 46.9026L53.1347 46.404ZM53.0507 35.764L52.5314 35.2945L52.5279 35.2985L53.0507 35.764ZM62.0107 35.148L61.53 35.6569L61.5347 35.6613L62.0107 35.148ZM56.4107 43.156V42.456H55.7107V43.156H56.4107ZM56.8587 44.332L56.4387 44.892L56.458 44.9065L56.4784 44.9197L56.8587 44.332ZM61.9547 43.744L62.2717 44.3681L62.3709 44.3177L62.4496 44.239L61.9547 43.744ZM62.2067 44.136L61.5889 44.4655L61.5954 44.4772L62.2067 44.136ZM56.7747 38.312L57.2268 38.8464L57.2302 38.8435L56.7747 38.312ZM56.4107 40.104H55.7107V40.804H56.4107V40.104ZM62.3467 47.244L61.9922 46.6404C60.9552 47.2494 59.5766 47.58 57.8107 47.58V48.28V48.98C59.7407 48.98 61.3861 48.6199 62.7012 47.8476L62.3467 47.244ZM57.8107 48.28V47.58C56.1389 47.58 54.759 47.0218 53.626 45.9054L53.1347 46.404L52.6434 46.9026C54.049 48.2876 55.7864 48.98 57.8107 48.98V48.28ZM53.1347 46.404L53.6296 45.909C52.5213 44.8007 51.9307 43.2504 51.9307 41.168H51.2307H50.5307C50.5307 43.5283 51.2094 45.4687 52.6397 46.899L53.1347 46.404ZM51.2307 41.168H51.9307C51.9307 39.0588 52.4988 37.4365 53.5734 36.2295L53.0507 35.764L52.5279 35.2985C51.1759 36.8169 50.5307 38.7972 50.5307 41.168H51.2307ZM53.0507 35.764L53.5699 36.2335C54.6668 35.0203 56.0262 34.42 57.6987 34.42V33.72V33.02C55.6377 33.02 53.8985 33.7824 52.5314 35.2945L53.0507 35.764ZM57.6987 33.72V34.42C59.4498 34.42 60.6916 34.8651 61.53 35.6569L62.0107 35.148L62.4913 34.6391C61.3137 33.5269 59.6809 33.02 57.6987 33.02V33.72ZM62.0107 35.148L61.5347 35.6613C62.423 36.4849 62.8507 37.4581 62.8507 38.62H63.5507H64.2507C64.2507 37.0565 63.6517 35.7151 62.4866 34.6347L62.0107 35.148ZM63.5507 38.62H62.8507C62.8507 39.997 62.4599 40.9097 61.7889 41.4941C61.0995 42.0946 59.9927 42.456 58.3427 42.456V43.156V43.856C60.1646 43.856 61.6619 43.4614 62.7084 42.5499C63.7734 41.6223 64.2507 40.267 64.2507 38.62H63.5507ZM58.3427 43.156V42.456H56.4107V43.156V43.856H58.3427V43.156ZM56.4107 43.156H55.7107C55.7107 43.8221 55.8889 44.4797 56.4387 44.892L56.8587 44.332L57.2787 43.772C57.231 43.7363 57.1107 43.6099 57.1107 43.156H56.4107ZM56.8587 44.332L56.4784 44.9197C56.9571 45.2294 57.5701 45.34 58.2307 45.34V44.64V43.94C57.6965 43.94 57.3949 43.8452 57.2389 43.7443L56.8587 44.332ZM58.2307 44.64V45.34C59.6486 45.34 60.9984 45.0148 62.2717 44.3681L61.9547 43.744L61.6376 43.1199C60.5589 43.6678 59.4261 43.94 58.2307 43.94V44.64ZM61.9547 43.744L62.4496 44.239C62.3171 44.3715 62.1395 44.4422 61.9589 44.4422C61.8038 44.4422 61.6897 44.3906 61.6353 44.3616C61.532 44.3065 61.4723 44.2391 61.4649 44.231C61.4354 44.1989 61.426 44.1803 61.4428 44.2065C61.4687 44.2468 61.5161 44.3287 61.589 44.4654L62.2067 44.136L62.8243 43.8066C62.7479 43.6633 62.6786 43.5399 62.6205 43.4495C62.5953 43.4104 62.552 43.3451 62.4969 43.285C62.4766 43.2629 62.4062 43.1861 62.2941 43.1264C62.2354 43.095 62.1174 43.0422 61.9589 43.0422C61.775 43.0422 61.5945 43.1142 61.4597 43.249L61.9547 43.744ZM62.2067 44.136L61.5954 44.4772C62.0184 45.2351 62.1787 45.7929 62.1787 46.18H62.8787H63.5787C63.5787 45.4471 63.2909 44.6423 62.8179 43.7948L62.2067 44.136ZM62.8787 46.18H62.1787C62.1787 46.3796 62.1452 46.4876 62.1196 46.5389C62.1001 46.5778 62.0813 46.5952 62.047 46.6114L62.3467 47.244L62.6463 47.8766C63.3377 47.5491 63.5787 46.8721 63.5787 46.18H62.8787ZM58.8467 39.152H59.5467C59.5467 38.6563 59.4257 38.1551 59.0606 37.781C58.6923 37.4038 58.1936 37.276 57.6987 37.276V37.976V38.676C57.9691 38.676 58.0443 38.7442 58.0588 38.759C58.0762 38.7769 58.1467 38.8637 58.1467 39.152H58.8467ZM57.6987 37.976V37.276C57.1824 37.276 56.7115 37.4442 56.3191 37.7805L56.7747 38.312L57.2302 38.8435C57.3605 38.7318 57.5055 38.676 57.6987 38.676V37.976ZM56.7747 38.312L56.3225 37.7776C55.8793 38.1527 55.7107 38.684 55.7107 39.236H56.4107H57.1107C57.1107 38.9667 57.1847 38.882 57.2268 38.8464L56.7747 38.312ZM56.4107 39.236H55.7107V40.104H56.4107H57.1107V39.236H56.4107ZM56.4107 40.104V40.804H57.9227V40.104V39.404H56.4107V40.104ZM57.9227 40.104V40.804C58.344 40.804 58.7872 40.6943 59.118 40.3535C59.4449 40.0167 59.5467 39.5721 59.5467 39.152H58.8467H58.1467C58.1467 39.3666 58.0944 39.398 58.1133 39.3785C58.1361 39.3551 58.1174 39.404 57.9227 39.404V40.104ZM76.2438 47.244L75.9442 46.6114L75.9161 46.6247L75.8893 46.6404L76.2438 47.244ZM67.0318 46.404L66.5369 46.899L66.5405 46.9026L67.0318 46.404ZM66.9478 35.764L66.4286 35.2945L66.4251 35.2985L66.9478 35.764ZM75.9078 35.148L75.4272 35.6569L75.4319 35.6613L75.9078 35.148ZM70.3078 43.156V42.456H69.6078V43.156H70.3078ZM70.7558 44.332L70.3358 44.892L70.3552 44.9065L70.3756 44.9197L70.7558 44.332ZM75.8518 43.744L76.1688 44.3681L76.2681 44.3177L76.3468 44.239L75.8518 43.744ZM76.1038 44.136L75.4861 44.4655L75.4926 44.4772L76.1038 44.136ZM70.6718 38.312L71.124 38.8464L71.1274 38.8435L70.6718 38.312ZM70.3078 40.104H69.6078V40.804H70.3078V40.104ZM76.2438 47.244L75.8893 46.6404C74.8524 47.2494 73.4738 47.58 71.7078 47.58V48.28V48.98C73.6379 48.98 75.2833 48.6199 76.5983 47.8476L76.2438 47.244ZM71.7078 48.28V47.58C70.0361 47.58 68.6562 47.0218 67.5231 45.9054L67.0318 46.404L66.5405 46.9026C67.9462 48.2876 69.6836 48.98 71.7078 48.98V48.28ZM67.0318 46.404L67.5268 45.909C66.4185 44.8007 65.8278 43.2504 65.8278 41.168H65.1278H64.4278C64.4278 43.5283 65.1066 45.4687 66.5369 46.899L67.0318 46.404ZM65.1278 41.168H65.8278C65.8278 39.0588 66.3959 37.4365 67.4706 36.2295L66.9478 35.764L66.4251 35.2985C65.0731 36.8169 64.4278 38.7972 64.4278 41.168H65.1278ZM66.9478 35.764L67.4671 36.2335C68.564 35.0203 69.9234 34.42 71.5958 34.42V33.72V33.02C69.5349 33.02 67.7957 33.7824 66.4286 35.2945L66.9478 35.764ZM71.5958 33.72V34.42C73.347 34.42 74.5888 34.8651 75.4272 35.6569L75.9078 35.148L76.3885 34.6391C75.2109 33.5269 73.5781 33.02 71.5958 33.02V33.72ZM75.9078 35.148L75.4319 35.6613C76.3201 36.4849 76.7478 37.4581 76.7478 38.62H77.4478H78.1478C78.1478 37.0565 77.5489 35.7151 76.3838 34.6347L75.9078 35.148ZM77.4478 38.62H76.7478C76.7478 39.997 76.3571 40.9097 75.6861 41.4941C74.9966 42.0946 73.8899 42.456 72.2398 42.456V43.156V43.856C74.0618 43.856 75.559 43.4614 76.6056 42.5499C77.6706 41.6223 78.1478 40.267 78.1478 38.62H77.4478ZM72.2398 43.156V42.456H70.3078V43.156V43.856H72.2398V43.156ZM70.3078 43.156H69.6078C69.6078 43.8221 69.7861 44.4797 70.3358 44.892L70.7558 44.332L71.1758 43.772C71.1282 43.7363 71.0078 43.6099 71.0078 43.156H70.3078ZM70.7558 44.332L70.3756 44.9197C70.8543 45.2294 71.4673 45.34 72.1278 45.34V44.64V43.94C71.5937 43.94 71.2921 43.8452 71.1361 43.7443L70.7558 44.332ZM72.1278 44.64V45.34C73.5458 45.34 74.8956 45.0148 76.1688 44.3681L75.8518 43.744L75.5348 43.1199C74.4561 43.6678 73.3233 43.94 72.1278 43.94V44.64ZM75.8518 43.744L76.3468 44.239C76.2143 44.3715 76.0367 44.4422 75.8561 44.4422C75.701 44.4422 75.5868 44.3906 75.5325 44.3616C75.4291 44.3065 75.3695 44.2391 75.3621 44.231C75.3326 44.1989 75.3232 44.1803 75.34 44.2065C75.3659 44.2468 75.4133 44.3287 75.4862 44.4654L76.1038 44.136L76.7215 43.8066C76.6451 43.6633 76.5758 43.5399 76.5177 43.4495C76.4925 43.4104 76.4492 43.3451 76.3941 43.285C76.3738 43.2629 76.3034 43.1861 76.1913 43.1264C76.1326 43.095 76.0146 43.0422 75.8561 43.0422C75.6722 43.0422 75.4917 43.1142 75.3569 43.249L75.8518 43.744ZM76.1038 44.136L75.4926 44.4772C75.9156 45.2351 76.0758 45.7929 76.0758 46.18H76.7758H77.4758C77.4758 45.4471 77.1881 44.6423 76.7151 43.7948L76.1038 44.136ZM76.7758 46.18H76.0758C76.0758 46.3796 76.0424 46.4876 76.0167 46.5389C75.9973 46.5778 75.9784 46.5952 75.9442 46.6114L76.2438 47.244L76.5435 47.8766C77.2349 47.5491 77.4758 46.8721 77.4758 46.18H76.7758ZM72.7438 39.152H73.4438C73.4438 38.6563 73.3229 38.1551 72.9577 37.781C72.5895 37.4038 72.0907 37.276 71.5958 37.276V37.976V38.676C71.8663 38.676 71.9415 38.7442 71.9559 38.759C71.9734 38.7769 72.0438 38.8637 72.0438 39.152H72.7438ZM71.5958 37.976V37.276C71.0796 37.276 70.6087 37.4442 70.2163 37.7805L70.6718 38.312L71.1274 38.8435C71.2577 38.7318 71.4027 38.676 71.5958 38.676V37.976ZM70.6718 38.312L70.2197 37.7776C69.7765 38.1527 69.6078 38.684 69.6078 39.236H70.3078H71.0078C71.0078 38.9667 71.0819 38.882 71.124 38.8464L70.6718 38.312ZM70.3078 39.236H69.6078V40.104H70.3078H71.0078V39.236H70.3078ZM70.3078 40.104V40.804H71.8198V40.104V39.404H70.3078V40.104ZM71.8198 40.104V40.804C72.2411 40.804 72.6844 40.6943 73.0152 40.3535C73.3421 40.0167 73.4438 39.5721 73.4438 39.152H72.7438H72.0438C72.0438 39.3666 71.9916 39.398 72.0105 39.3785C72.0333 39.3551 72.0145 39.404 71.8198 39.404V40.104ZM90.589 28.26L90.5095 28.9555L90.5202 28.9567L90.5309 28.9576L90.589 28.26ZM91.597 43.268H90.897V43.968H91.597V43.268ZM93.501 44.528L94.1929 44.4216L94.1917 44.4135L94.1902 44.4055L93.501 44.528ZM93.165 47.048L93.8024 47.3377L93.8063 47.3286L93.165 47.048ZM89.721 47.916L89.398 48.5371L89.408 48.5421L89.721 47.916ZM88.769 47.16L89.3579 46.7815L89.3514 46.7714L89.3446 46.7616L88.769 47.16ZM88.517 46.796L89.0926 46.3976L88.624 45.7208L88.0313 46.2919L88.517 46.796ZM80.677 46.348L80.145 46.8029L80.677 46.348ZM80.761 35.624L81.2748 36.0994L81.2783 36.0956L80.761 35.624ZM86.641 33.888L86.4944 34.5725L87.341 34.7539V33.888H86.641ZM84.597 43.1L84.0224 43.4997L84.0266 43.5058L84.0309 43.5117L84.597 43.1ZM86.641 43.24L87.1217 43.7489L87.341 43.5417V43.24H86.641ZM86.641 38.48H87.341V38.0796L86.9959 37.8766L86.641 38.48ZM86.641 28.568H87.341C87.341 28.8642 87.1299 28.9901 87.1258 28.9925C87.1181 28.9968 87.1672 28.9706 87.3246 28.9407C87.6266 28.8834 88.1262 28.848 88.853 28.848V28.148V27.448C88.1052 27.448 87.4988 27.4826 87.0635 27.5653C86.8522 27.6054 86.6248 27.6667 86.4328 27.776C86.2443 27.8834 85.941 28.1318 85.941 28.568H86.641ZM88.853 28.148V28.848C89.3239 28.848 89.8751 28.883 90.5095 28.9555L90.589 28.26L90.6685 27.5645C89.9963 27.4877 89.3902 27.448 88.853 27.448V28.148ZM90.589 28.26L90.5309 28.9576C90.8575 28.9848 91.0638 29.0162 91.1753 29.0441C91.2368 29.0595 91.2245 29.0631 91.1813 29.0379C91.1583 29.0245 91.0963 28.9856 91.0347 28.9086C90.9665 28.8234 90.897 28.6871 90.897 28.512H91.597H92.297C92.297 28.0926 91.9827 27.8846 91.8867 27.8286C91.7596 27.7544 91.6213 27.7125 91.5148 27.6859C91.2903 27.6298 90.9926 27.5912 90.6472 27.5624L90.589 28.26ZM91.597 28.512H90.897V43.268H91.597H92.297V28.512H91.597ZM91.597 43.268V43.968H92.577V43.268V42.568H91.597V43.268ZM92.577 43.268V43.968C92.5843 43.968 92.5753 43.9685 92.5636 43.9621C92.5545 43.9572 92.5667 43.9603 92.5935 43.997C92.6563 44.0825 92.7454 44.2766 92.8118 44.6505L93.501 44.528L94.1902 44.4055C94.1074 43.9394 93.9678 43.5035 93.7225 43.169C93.4543 42.8033 93.0616 42.568 92.577 42.568V43.268ZM93.501 44.528L92.8092 44.6344C92.8385 44.8252 92.857 45.1202 92.857 45.536H93.557H94.257C94.257 45.0932 94.2382 44.7161 94.1929 44.4216L93.501 44.528ZM93.557 45.536H92.857C92.857 45.81 92.7665 46.2124 92.5237 46.7674L93.165 47.048L93.8063 47.3286C94.0862 46.6889 94.257 46.0833 94.257 45.536H93.557ZM93.165 47.048L92.5278 46.7583C92.381 47.0813 92.2115 47.2776 92.0405 47.3952C91.8736 47.5099 91.6616 47.58 91.373 47.58V48.28V48.98C91.9058 48.98 92.4031 48.8448 92.8336 48.5488C93.2599 48.2557 93.5758 47.836 93.8023 47.3377L93.165 47.048ZM91.373 48.28V47.58C90.8509 47.58 90.4098 47.4778 90.0341 47.2899L89.721 47.916L89.408 48.5421C90.0029 48.8396 90.6632 48.98 91.373 48.98V48.28ZM89.721 47.916L90.044 47.2949C89.6195 47.0742 89.4288 46.8918 89.3579 46.7815L88.769 47.16L88.1802 47.5385C88.4453 47.9508 88.8892 48.2724 89.3981 48.5371L89.721 47.916ZM88.769 47.16L89.3446 46.7616L89.0926 46.3976L88.517 46.796L87.9415 47.1944L88.1935 47.5584L88.769 47.16ZM88.517 46.796L88.0313 46.2919C87.147 47.1441 86.0384 47.58 84.653 47.58V48.28V48.98C86.3663 48.98 87.8338 48.4266 89.0028 47.3001L88.517 46.796ZM84.653 48.28V47.58C83.3291 47.58 82.1915 47.042 81.2091 45.8931L80.677 46.348L80.145 46.8029C81.3652 48.23 82.8783 48.98 84.653 48.98V48.28ZM80.677 46.348L81.2091 45.8931C80.2493 44.7707 79.725 43.1606 79.725 40.972H79.025H78.325C78.325 43.3754 78.9021 45.3493 80.145 46.8029L80.677 46.348ZM79.025 40.972H79.725C79.725 38.7695 80.2746 37.1803 81.2748 36.0994L80.761 35.624L80.2473 35.1486C78.9328 36.569 78.325 38.5451 78.325 40.972H79.025ZM80.761 35.624L81.2783 36.0956C82.3014 34.9735 83.5595 34.42 85.101 34.42V33.72V33.02C83.1706 33.02 81.5353 33.7358 80.2438 35.1524L80.761 35.624ZM85.101 33.72V34.42C85.5528 34.42 86.017 34.4702 86.4944 34.5725L86.641 33.888L86.7877 33.2035C86.2197 33.0818 85.6572 33.02 85.101 33.02V33.72ZM86.641 33.888H87.341V28.568H86.641H85.941V33.888H86.641ZM85.717 38.2V37.5C85.3471 37.5 84.9901 37.5846 84.6704 37.7768C84.3517 37.9684 84.1084 38.2438 83.9288 38.5676C83.5815 39.194 83.449 40.0436 83.449 41.028H84.149H84.849C84.849 40.1271 84.9779 39.5627 85.1532 39.2464C85.235 39.0989 85.3183 39.0208 85.3917 38.9767C85.464 38.9332 85.5643 38.9 85.717 38.9V38.2ZM84.149 41.028H83.449C83.449 42.0212 83.5987 42.8907 84.0224 43.4997L84.597 43.1L85.1717 42.7003C84.998 42.4506 84.849 41.9388 84.849 41.028H84.149ZM84.597 43.1L84.0309 43.5117C84.4009 44.0205 84.9125 44.416 85.577 44.416V43.716V43.016C85.5323 43.016 85.3905 43.0009 85.1631 42.6883L84.597 43.1ZM85.577 43.716V44.416C86.1693 44.416 86.6882 44.1583 87.1217 43.7489L86.641 43.24L86.1604 42.7311C85.9219 42.9564 85.7315 43.016 85.577 43.016V43.716ZM86.641 43.24H87.341V38.48H86.641H85.941V43.24H86.641ZM86.641 38.48L86.9959 37.8766C86.5959 37.6413 86.1665 37.5 85.717 37.5V38.2V38.9C85.8649 38.9 86.0515 38.9453 86.2861 39.0834L86.641 38.48ZM100.653 33.944H99.9531V34.7862L100.781 34.6322L100.653 33.944ZM106.421 46.264L105.898 45.7985L105.898 45.7989L106.421 46.264ZM95.8091 46.796H95.1091V47.1667L95.4156 47.375L95.8091 46.796ZM100.653 38.396L100.256 37.8192L99.9531 38.0278V38.396H100.653ZM100.653 43.744H99.9531V44.2056L100.377 44.3874L100.653 43.744ZM102.361 43.576L101.954 43.0064L101.948 43.0111L101.941 43.016L102.361 43.576ZM95.8091 28.484H96.5091C96.5091 28.6895 96.4095 28.834 96.3358 28.906C96.3017 28.9393 96.272 28.9591 96.2559 28.9688C96.2473 28.974 96.2406 28.9775 96.2365 28.9796C96.2323 28.9817 96.23 28.9827 96.2299 28.9827C96.2297 28.9828 96.2312 28.9821 96.2346 28.9809C96.2381 28.9797 96.243 28.978 96.2496 28.976C96.2631 28.9719 96.2817 28.9668 96.3062 28.9611C96.3559 28.9495 96.4223 28.9372 96.5078 28.9253C96.8594 28.8762 97.4219 28.848 98.2171 28.848V28.148V27.448C97.4069 27.448 96.7654 27.4758 96.3143 27.5387C96.0959 27.5692 95.8739 27.614 95.6893 27.6913C95.5977 27.7296 95.4708 27.7939 95.3576 27.9045C95.2337 28.0255 95.1091 28.2225 95.1091 28.484H95.8091ZM98.2171 28.148V28.848C99.021 28.848 99.5877 28.8786 99.9406 28.9313C100.026 28.9441 100.092 28.9572 100.141 28.9694C100.166 28.9755 100.184 28.9808 100.197 28.985C100.21 28.9893 100.215 28.9918 100.214 28.9915C100.214 28.9914 100.204 28.9868 100.187 28.9759C100.17 28.9652 100.142 28.9445 100.109 28.9104C100.038 28.8358 99.9531 28.6984 99.9531 28.512H100.653H101.353C101.353 27.9978 100.923 27.7748 100.787 27.714C100.598 27.629 100.37 27.5799 100.148 27.5467C99.6884 27.4781 99.0371 27.448 98.2171 27.448V28.148ZM100.653 28.512H99.9531V33.944H100.653H101.353V28.512H100.653ZM100.653 33.944L100.781 34.6322C101.584 34.4828 102.097 34.42 102.361 34.42V33.72V33.02C101.954 33.02 101.327 33.1066 100.525 33.2558L100.653 33.944ZM102.361 33.72V34.42C104.186 34.42 105.435 34.9392 106.243 35.8669C107.068 36.813 107.541 38.3047 107.541 40.468H108.241H108.941C108.941 38.1326 108.434 36.2503 107.299 34.9471C106.147 33.6255 104.456 33.02 102.361 33.02V33.72ZM108.241 40.468H107.541C107.541 42.8617 106.961 44.6049 105.898 45.7985L106.421 46.264L106.944 46.7295C108.308 45.1978 108.941 43.077 108.941 40.468H108.241ZM106.421 46.264L105.898 45.7989C104.866 46.9593 103.369 47.58 101.297 47.58V48.28V48.98C103.667 48.98 105.586 48.2567 106.944 46.7291L106.421 46.264ZM101.297 48.28V47.58C99.1993 47.58 97.5163 47.1097 96.2025 46.217L95.8091 46.796L95.4156 47.375C97.0139 48.461 98.9895 48.98 101.297 48.98V48.28ZM95.8091 46.796H96.5091V28.484H95.8091H95.1091V46.796H95.8091ZM101.577 38.088V37.388C101.099 37.388 100.655 37.5454 100.256 37.8192L100.653 38.396L101.05 38.9728C101.249 38.8359 101.421 38.788 101.577 38.788V38.088ZM100.653 38.396H99.9531V43.744H100.653H101.353V38.396H100.653ZM100.653 43.744L100.377 44.3874C100.724 44.5362 101.089 44.612 101.465 44.612V43.912V43.212C101.281 43.212 101.104 43.1758 100.929 43.1006L100.653 43.744ZM101.465 43.912V44.612C101.95 44.612 102.392 44.4278 102.781 44.136L102.361 43.576L101.941 43.016C101.733 43.1722 101.578 43.212 101.465 43.212V43.912ZM102.361 43.576L102.768 44.1456C103.198 43.8384 103.462 43.3696 103.619 42.8468C103.777 42.3233 103.845 41.691 103.845 40.972H103.145H102.445C102.445 41.6157 102.382 42.0987 102.279 42.4432C102.175 42.7884 102.047 42.9403 101.954 43.0064L102.361 43.576ZM103.145 40.972H103.845C103.845 39.9701 103.713 39.1088 103.368 38.4746C103.19 38.1471 102.948 37.867 102.629 37.6715C102.308 37.475 101.949 37.388 101.577 37.388V38.088V38.788C101.727 38.788 101.826 38.8212 101.897 38.865C101.97 38.9099 102.055 38.9903 102.138 39.1434C102.316 39.4706 102.445 40.0512 102.445 40.972H103.145ZM112.26 37.836L111.649 38.178L111.905 38.6351L112.416 38.5184L112.26 37.836ZM111.952 34.42L111.671 33.7789L111.647 33.7893L111.624 33.8013L111.952 34.42ZM120.268 35.036L119.74 35.4962L119.745 35.5018L120.268 35.036ZM121.416 43.296H120.716V43.996H121.416V43.296ZM123.096 43.856L122.458 44.1433L122.463 44.1563L122.47 44.169L123.096 43.856ZM122.872 47.328L122.253 47.0005L122.249 47.0077L122.246 47.0149L122.872 47.328ZM119.12 47.468L119.582 46.9422L119.57 46.9315L119.557 46.9214L119.12 47.468ZM118.476 46.656L119.109 46.3579L118.629 45.3368L117.927 46.221L118.476 46.656ZM111.028 46.824L111.533 46.3388L111.028 46.824ZM116.628 38.816V39.516H117.328V38.816H116.628ZM116.376 37.612L115.881 38.107L115.912 38.1378L115.946 38.1645L116.376 37.612ZM114.836 43.94L114.341 44.435L114.352 44.4457L114.363 44.456L114.836 43.94ZM116.628 43.828L117.123 44.323L117.328 44.1179V43.828H116.628ZM116.628 41.672H117.328V40.972H116.628V41.672ZM112.26 37.836L112.871 37.494C112.365 36.5902 112.176 35.9633 112.176 35.568H111.476H110.776C110.776 36.3301 111.11 37.2151 111.649 38.178L112.26 37.836ZM111.476 35.568H112.176C112.176 35.324 112.209 35.1787 112.242 35.1011C112.256 35.0651 112.269 35.0491 112.273 35.044C112.277 35.04 112.278 35.0395 112.279 35.0387L111.952 34.42L111.624 33.8013C110.953 34.1569 110.776 34.893 110.776 35.568H111.476ZM111.952 34.42L112.233 35.0611C113.172 34.6495 114.518 34.42 116.32 34.42V33.72V33.02C114.426 33.02 112.86 33.2572 111.671 33.7789L111.952 34.42ZM116.32 33.72V34.42C118.104 34.42 119.171 34.8428 119.74 35.4962L120.268 35.036L120.795 34.5758C119.835 33.4745 118.269 33.02 116.32 33.02V33.72ZM120.268 35.036L119.745 35.5018C120.352 36.1829 120.716 37.265 120.716 38.872H121.416H122.116C122.116 37.0816 121.714 35.6064 120.79 34.5702L120.268 35.036ZM121.416 38.872H120.716V43.296H121.416H122.116V38.872H121.416ZM121.416 43.296V43.996H122.368V43.296V42.596H121.416V43.296ZM122.368 43.296V43.996C122.378 43.996 122.377 43.9973 122.371 43.9951C122.364 43.9928 122.36 43.99 122.361 43.9908C122.365 43.9941 122.406 44.0278 122.458 44.1433L123.096 43.856L123.734 43.5687C123.618 43.3109 123.453 43.0646 123.215 42.8812C122.966 42.6901 122.675 42.596 122.368 42.596V43.296ZM123.096 43.856L122.47 44.169C122.588 44.4055 122.676 44.796 122.676 45.396H123.376H124.076C124.076 44.6893 123.977 44.0531 123.722 43.543L123.096 43.856ZM123.376 45.396H122.676C122.676 45.9241 122.541 46.4565 122.253 47.0005L122.872 47.328L123.491 47.6555C123.875 46.9302 124.076 46.1745 124.076 45.396H123.376ZM122.872 47.328L122.246 47.0149C122.009 47.4879 121.776 47.58 121.556 47.58V48.28V48.98C122.456 48.98 123.1 48.4374 123.498 47.641L122.872 47.328ZM121.556 48.28V47.58C120.677 47.58 120.043 47.3471 119.582 46.9422L119.12 47.468L118.658 47.9938C119.429 48.6716 120.418 48.98 121.556 48.98V48.28ZM119.12 47.468L119.557 46.9214C119.359 46.7626 119.212 46.5763 119.109 46.3579L118.476 46.656L117.843 46.9541C118.038 47.3703 118.321 47.7254 118.683 48.0146L119.12 47.468ZM118.476 46.656L117.927 46.221C117.241 47.0872 116.141 47.58 114.472 47.58V48.28V48.98C116.425 48.98 117.994 48.3901 119.024 47.091L118.476 46.656ZM114.472 48.28V47.58C113.297 47.58 112.332 47.1704 111.533 46.3388L111.028 46.824L110.523 47.3092C111.59 48.4189 112.921 48.98 114.472 48.98V48.28ZM111.028 46.824L111.533 46.3388C110.722 45.4962 110.328 44.5212 110.328 43.38H109.628H108.928C108.928 44.8894 109.467 46.2104 110.523 47.3092L111.028 46.824ZM109.628 43.38H110.328C110.328 42.0028 110.734 41.0859 111.442 40.4941C112.174 39.8821 113.348 39.516 115.088 39.516V38.816V38.116C113.188 38.116 111.632 38.5105 110.544 39.4199C109.432 40.3494 108.928 41.7145 108.928 43.38H109.628ZM115.088 38.816V39.516H116.628V38.816V38.116H115.088V38.816ZM116.628 38.816H117.328V38.536H116.628H115.928V38.816H116.628ZM116.628 38.536H117.328C117.328 38.2598 117.305 37.9934 117.24 37.7568C117.177 37.5261 117.056 37.2539 116.806 37.0595L116.376 37.612L115.946 38.1645C115.864 38.1007 115.869 38.0479 115.89 38.1252C115.909 38.1966 115.928 38.3268 115.928 38.536H116.628ZM116.376 37.612L116.871 37.117C116.65 36.8965 116.358 36.8048 116.132 36.7583C115.885 36.7077 115.598 36.688 115.284 36.688V37.388V38.088C115.549 38.088 115.733 38.1056 115.85 38.1297C115.908 38.1415 115.936 38.1523 115.944 38.1556C115.952 38.1594 115.922 38.1481 115.881 38.107L116.376 37.612ZM115.284 37.388V36.688C114.495 36.688 113.425 36.8516 112.104 37.1536L112.26 37.836L112.416 38.5184C113.708 38.223 114.655 38.088 115.284 38.088V37.388ZM114.5 42.988H113.8C113.8 43.5269 113.95 44.044 114.341 44.435L114.836 43.94L115.331 43.445C115.274 43.388 115.2 43.2704 115.2 42.988H114.5ZM114.836 43.94L114.363 44.456C114.73 44.7926 115.185 44.948 115.676 44.948V44.248V43.548C115.495 43.548 115.39 43.4981 115.309 43.424L114.836 43.94ZM115.676 44.248V44.948C116.239 44.948 116.728 44.7175 117.123 44.323L116.628 43.828L116.133 43.333C115.968 43.4985 115.823 43.548 115.676 43.548V44.248ZM116.628 43.828H117.328V41.672H116.628H115.928V43.828H116.628ZM116.628 41.672V40.972H115.844V41.672V42.372H116.628V41.672ZM115.844 41.672V40.972C115.292 40.972 114.748 41.1072 114.346 41.5008C113.941 41.8972 113.8 42.4377 113.8 42.988H114.5H115.2C115.2 42.661 115.282 42.5435 115.326 42.5012C115.372 42.4562 115.5 42.372 115.844 42.372V41.672ZM134.145 43.268V42.568H133.953L133.787 42.6661L134.145 43.268ZM134.817 44.724L134.127 44.8434L134.128 44.851L134.13 44.8587L134.817 44.724ZM134.957 47.356L135.327 47.9502L135.422 47.8907L135.495 47.8041L134.957 47.356ZM126.501 46.376L125.988 46.8521L125.995 46.8597L126.501 46.376ZM126.473 35.764L125.946 35.3025L125.943 35.3067L126.473 35.764ZM135.321 35.148L134.775 35.5866L134.779 35.5913L135.321 35.148ZM135.349 37.528L136.023 37.7175L136.025 37.7102L136.027 37.7029L135.349 37.528ZM134.033 39.6L134.203 40.2791L134.232 40.2717L134.261 40.2618L134.033 39.6ZM133.193 39.292L133.709 38.819L133.699 38.8078L133.688 38.797L133.193 39.292ZM130.309 38.872L130.88 39.2766L130.309 38.872ZM129.833 41.056H129.133C129.133 42.0387 129.315 42.9036 129.792 43.5358C130.298 44.2051 131.045 44.5 131.905 44.5V43.8V43.1C131.383 43.1 131.095 42.9376 130.909 42.6922C130.696 42.4097 130.533 41.9026 130.533 41.056H129.833ZM131.905 43.8V44.5C132.891 44.5 133.77 44.3048 134.502 43.8699L134.145 43.268L133.787 42.6661C133.325 42.9405 132.711 43.1 131.905 43.1V43.8ZM134.145 43.268V43.968C133.991 43.968 133.892 43.8953 133.859 43.8632C133.835 43.8404 133.85 43.8456 133.887 43.9253C133.961 44.0843 134.046 44.3767 134.127 44.8434L134.817 44.724L135.507 44.6046C135.419 44.1006 135.309 43.665 135.158 43.3387C135.037 43.0758 134.741 42.568 134.145 42.568V43.268ZM134.817 44.724L134.13 44.8587C134.318 45.8174 134.397 46.407 134.397 46.684H135.097H135.797C135.797 46.2517 135.689 45.5346 135.504 44.5893L134.817 44.724ZM135.097 46.684H134.397C134.397 46.8241 134.387 46.9124 134.376 46.9612C134.372 46.9844 134.369 46.9894 134.372 46.9818C134.375 46.9744 134.388 46.9452 134.419 46.9079L134.957 47.356L135.495 47.8041C135.645 47.6237 135.712 47.4133 135.747 47.2468C135.784 47.0716 135.797 46.8799 135.797 46.684H135.097ZM134.957 47.356L134.587 46.7618C133.749 47.2833 132.541 47.58 130.897 47.58V48.28V48.98C132.687 48.98 134.186 48.6607 135.327 47.9502L134.957 47.356ZM130.897 48.28V47.58C129.375 47.58 128.091 47.027 127.007 45.8923L126.501 46.376L125.995 46.8597C127.337 48.2637 128.984 48.98 130.897 48.98V48.28ZM126.501 46.376L127.014 45.9C125.968 44.772 125.409 43.2129 125.409 41.14H124.709H124.009C124.009 43.4725 124.644 45.404 125.988 46.852L126.501 46.376ZM124.709 41.14H125.409C125.409 39.0458 125.96 37.4291 127.003 36.2213L126.473 35.764L125.943 35.3067C124.633 36.8243 124.009 38.7916 124.009 41.14H124.709ZM126.473 35.764L126.999 36.2255C128.049 35.0278 129.428 34.42 131.205 34.42V33.72V33.02C129.062 33.02 127.286 33.7749 125.946 35.3025L126.473 35.764ZM131.205 33.72V34.42C133.102 34.42 134.207 34.88 134.775 35.5866L135.321 35.148L135.866 34.7094C134.904 33.512 133.265 33.02 131.205 33.02V33.72ZM135.321 35.148L134.779 35.5913C134.802 35.6191 134.873 35.7389 134.873 36.072H135.573H136.273C136.273 35.5837 136.176 35.0875 135.863 34.7047L135.321 35.148ZM135.573 36.072H134.873C134.873 36.3828 134.812 36.805 134.671 37.3531L135.349 37.528L136.027 37.7029C136.184 37.0936 136.273 36.5452 136.273 36.072H135.573ZM135.349 37.528L134.675 37.3385C134.517 37.9004 134.346 38.3005 134.177 38.5667C134.007 38.8342 133.873 38.9147 133.805 38.9382L134.033 39.6L134.261 40.2618C134.734 40.0986 135.09 39.7404 135.359 39.3173C135.628 38.8929 135.845 38.3503 136.023 37.7175L135.349 37.528ZM134.033 39.6L133.863 38.9209C133.875 38.9179 133.868 38.9206 133.835 38.9234C133.803 38.9261 133.758 38.928 133.697 38.928V39.628V40.328C133.86 40.328 134.042 40.3192 134.203 40.2791L134.033 39.6ZM133.697 39.628V38.928C133.764 38.928 133.813 38.9424 133.838 38.9516C133.862 38.9606 133.87 38.9673 133.861 38.9616C133.853 38.9562 133.835 38.9433 133.808 38.9187C133.781 38.8944 133.748 38.8618 133.709 38.819L133.193 39.292L132.677 39.765C132.8 39.8999 132.937 40.0278 133.084 40.1264C133.225 40.2203 133.437 40.328 133.697 40.328V39.628ZM133.193 39.292L133.688 38.797C133.302 38.4115 132.931 38.0984 132.574 37.8778C132.225 37.6616 131.836 37.5 131.429 37.5V38.2V38.9C131.47 38.9 131.599 38.9204 131.837 39.0682C132.069 39.2116 132.355 39.4445 132.698 39.787L133.193 39.292ZM131.429 38.2V37.5C130.71 37.5 130.145 37.8916 129.738 38.4674L130.309 38.872L130.88 39.2766C131.107 38.9564 131.289 38.9 131.429 38.9V38.2ZM130.309 38.872L129.738 38.4674C129.291 39.0974 129.133 40.008 129.133 41.056H129.833H130.533C130.533 40.088 130.692 39.5426 130.88 39.2766L130.309 38.872ZM139.936 28.176L139.961 27.4764L139.948 27.476H139.936V28.176ZM142.316 39.292H141.616L142.932 39.6251L142.316 39.292ZM145.088 34.168L145.704 34.5011L145.714 34.4828L145.722 34.464L145.088 34.168ZM150.268 34.028L150.865 34.3939L151.279 33.7186L150.558 33.3907L150.268 34.028ZM146.628 39.964L146.031 39.5981L145.822 39.9399L146.01 40.2936L146.628 39.964ZM150.828 47.832L151.454 47.519L151.45 47.5106L151.445 47.5024L150.828 47.832ZM149.764 48L149.729 47.3009L149.72 47.3013L149.71 47.3021L149.764 48ZM145.06 47.832L144.421 48.1171L144.455 48.1947L144.507 48.2618L145.06 47.832ZM142.288 41.616L142.927 41.3309L141.588 41.616H142.288ZM137.388 28.624H138.088C138.088 28.7679 138.032 28.8851 137.971 28.9604C137.944 28.9943 137.918 29.0162 137.902 29.0286C137.886 29.0409 137.875 29.0465 137.874 29.0471C137.873 29.0475 137.893 29.0375 137.943 29.0228C137.992 29.0085 138.058 28.9929 138.146 28.9774C138.509 28.9137 139.096 28.876 139.936 28.876V28.176V27.476C139.077 27.476 138.39 27.513 137.904 27.5986C137.667 27.6402 137.423 27.702 137.221 27.8089C137.035 27.907 136.688 28.1556 136.688 28.624H137.388ZM139.936 28.176L139.911 28.8756C140.698 28.9033 141.26 28.9467 141.615 29.001C141.799 29.0291 141.887 29.0545 141.914 29.0648C141.93 29.071 141.884 29.0567 141.823 29.0041C141.757 28.9478 141.616 28.7927 141.616 28.54H142.316H143.016C143.016 28.2406 142.85 28.0409 142.735 27.942C142.624 27.8468 142.504 27.792 142.421 27.7597C142.249 27.693 142.04 27.6496 141.827 27.617C141.388 27.55 140.76 27.5047 139.961 27.4764L139.936 28.176ZM142.316 28.54H141.616V39.292H142.316H143.016V28.54H142.316ZM142.316 39.292L142.932 39.6251L145.704 34.5011L145.088 34.168L144.472 33.8349L141.7 38.9589L142.316 39.292ZM145.088 34.168L145.722 34.464C145.651 34.616 145.545 34.6463 145.6 34.6215C145.64 34.6033 145.733 34.5724 145.903 34.5423C146.239 34.4829 146.754 34.448 147.468 34.448V33.748V33.048C146.726 33.048 146.116 33.0831 145.659 33.1637C145.433 33.2036 145.211 33.2602 145.021 33.347C144.844 33.4272 144.59 33.5799 144.454 33.872L145.088 34.168ZM147.468 33.748V34.448C148.184 34.448 148.756 34.4711 149.19 34.5145C149.645 34.56 149.884 34.6222 149.978 34.6653L150.268 34.028L150.558 33.3907C150.242 33.2471 149.809 33.1694 149.33 33.1215C148.831 33.0716 148.208 33.048 147.468 33.048V33.748ZM150.268 34.028L149.671 33.6621L146.031 39.5981L146.628 39.964L147.225 40.3299L150.865 34.3939L150.268 34.028ZM146.628 39.964L146.01 40.2936L150.21 48.1616L150.828 47.832L151.445 47.5024L147.245 39.6344L146.628 39.964ZM150.828 47.832L150.202 48.145C150.148 48.0375 150.114 47.8943 150.139 47.7343C150.164 47.5804 150.235 47.4689 150.295 47.4007C150.396 47.2832 150.507 47.241 150.516 47.2372C150.557 47.2205 150.561 47.2259 150.481 47.2386C150.342 47.2604 150.098 47.2824 149.729 47.3009L149.764 48L149.799 48.6991C150.177 48.6802 150.483 48.6556 150.699 48.6214C150.796 48.6061 150.929 48.5811 151.049 48.5318C151.098 48.5117 151.236 48.4525 151.353 48.3176C151.419 48.2406 151.495 48.1202 151.521 47.9572C151.549 47.7883 151.512 47.6358 151.454 47.519L150.828 47.832ZM149.764 48L149.71 47.3021C148.992 47.3573 148.405 47.384 147.944 47.384V48.084V48.784C148.454 48.784 149.08 48.7547 149.818 48.6979L149.764 48ZM147.944 48.084V47.384C147.054 47.384 146.39 47.363 145.94 47.3237C145.712 47.3038 145.561 47.281 145.471 47.2602C145.425 47.2496 145.415 47.244 145.427 47.249C145.434 47.2519 145.455 47.2617 145.484 47.2814C145.513 47.3003 145.563 47.3383 145.613 47.4022L145.06 47.832L144.507 48.2618C144.631 48.4203 144.788 48.4977 144.869 48.5331C144.965 48.5748 145.065 48.6034 145.156 48.6243C145.339 48.6665 145.565 48.6962 145.818 48.7183C146.329 48.763 147.042 48.784 147.944 48.784V48.084ZM145.06 47.832L145.699 47.5469L142.927 41.3309L142.288 41.616L141.649 41.9011L144.421 48.1171L145.06 47.832ZM142.288 41.616H141.588V47.804H142.288H142.988V41.616H142.288ZM142.288 47.804H141.588C141.588 47.6148 141.675 47.4766 141.746 47.4027C141.779 47.3689 141.808 47.3485 141.824 47.3382C141.833 47.3327 141.839 47.3289 141.843 47.3267C141.848 47.3245 141.85 47.3234 141.85 47.3233C141.85 47.3232 141.845 47.3258 141.831 47.3302C141.818 47.3346 141.799 47.34 141.774 47.3461C141.724 47.3585 141.657 47.3717 141.57 47.3845C141.212 47.4374 140.637 47.468 139.824 47.468V48.168V48.868C140.653 48.868 141.311 48.8379 141.774 48.7695C141.999 48.7363 142.227 48.6875 142.418 48.6032C142.551 48.5443 142.988 48.3225 142.988 47.804H142.288ZM139.824 48.168V47.468C139.019 47.468 138.449 47.4398 138.093 47.3906C138.006 47.3786 137.938 47.3662 137.887 47.3545C137.862 47.3488 137.843 47.3436 137.829 47.3393C137.822 47.3373 137.817 47.3355 137.813 47.3342C137.812 47.3336 137.81 47.3331 137.809 47.3327C137.809 47.3326 137.808 47.3324 137.808 47.3323C137.808 47.3322 137.808 47.3322 137.808 47.3322C137.808 47.3322 137.808 47.3322 137.808 47.3323C137.808 47.3325 137.809 47.3326 137.809 47.3328C137.81 47.3333 137.812 47.334 137.814 47.335C137.818 47.3369 137.824 47.3403 137.833 47.3453C137.848 47.3547 137.878 47.3742 137.912 47.4072C137.986 47.4783 138.088 47.6235 138.088 47.832H137.388H136.688C136.688 48.0965 136.815 48.2942 136.94 48.4143C137.054 48.5242 137.181 48.5879 137.273 48.6258C137.458 48.7024 137.681 48.747 137.901 48.7774C138.357 48.8402 139.005 48.868 139.824 48.868V48.168ZM137.388 47.832H138.088V28.624H137.388H136.688V47.832H137.388Z" fill="black" mask="url(#path-6-outside-1_1243_12250)"/>
</g>
<defs>
<filter id="filter0_dd_1243_12250" x="0.292969" y="0.000488281" width="195.614" height="84.4995" filterUnits="userSpaceOnUse" color-interpolation-filters="sRGB">
<feFlood flood-opacity="0" result="BackgroundImageFix"/>
<feColorMatrix in="SourceAlpha" type="matrix" values="0 0 0 0 0 0 0 0 0 0 0 0 0 0 0 0 0 0 127 0" result="hardAlpha"/>
<feOffset dx="0.2" dy="2.5"/>
<feComposite in2="hardAlpha" operator="out"/>
<feColorMatrix type="matrix" values="0 0 0 0 0 0 0 0 0 0 0 0 0 0 0 0 0 0 0.5 0"/>
<feBlend mode="normal" in2="BackgroundImageFix" result="effect1_dropShadow_1243_12250"/>
<feColorMatrix in="SourceAlpha" type="matrix" values="0 0 0 0 0 0 0 0 0 0 0 0 0 0 0 0 0 0 127 0" result="hardAlpha"/>
<feOffset dy="0.6"/>
<feComposite in2="hardAlpha" operator="out"/>
<feColorMatrix type="matrix" values="0 0 0 0 0 0 0 0 0 0 0 0 0 0 0 0 0 0 1 0"/>
<feBlend mode="normal" in2="effect1_dropShadow_1243_12250" result="effect2_dropShadow_1243_12250"/>
<feBlend mode="normal" in="SourceGraphic" in2="effect2_dropShadow_1243_12250" result="shape"/>
</filter>
<filter id="filter1_d_1243_12250" x="38.5605" y="27.4482" width="112.971" height="23.5317" filterUnits="userSpaceOnUse" color-interpolation-filters="sRGB">
<feFlood flood-opacity="0" result="BackgroundImageFix"/>
<feColorMatrix in="SourceAlpha" type="matrix" values="0 0 0 0 0 0 0 0 0 0 0 0 0 0 0 0 0 0 127 0" result="hardAlpha"/>
<feOffset dy="2"/>
<feComposite in2="hardAlpha" operator="out"/>
<feColorMatrix type="matrix" values="0 0 0 0 0 0 0 0 0 0 0 0 0 0 0 0 0 0 1 0"/>
<feBlend mode="normal" in2="BackgroundImageFix" result="effect1_dropShadow_1243_12250"/>
<feBlend mode="normal" in="SourceGraphic" in2="effect1_dropShadow_1243_12250" result="shape"/>
</filter>
</defs>
</svg>
