<svg width="46" height="44" viewBox="0 0 46 44" fill="none" xmlns="http://www.w3.org/2000/svg">
<path d="M5.4082 17.8496C5.4082 21.0908 7.12068 23.9566 9.74323 25.6948L20.9279 35.0561C22.2566 36.1683 24.2418 36.1534 25.5524 35.0216L36.8008 25.3069C39.1126 23.5469 40.5902 20.8601 40.5902 17.8496C40.5902 12.5482 36.0084 8.25049 30.3565 8.25049C27.4685 8.25049 24.8598 9.37266 22.9991 11.1775C21.1385 9.37266 18.5298 8.25049 15.6418 8.25049C9.98994 8.25049 5.4082 12.5482 5.4082 17.8496Z" fill="#FF4B4B"/>
<path opacity="0.3" fill-rule="evenodd" clip-rule="evenodd" d="M15.2276 21.9873C17.487 21.9873 19.3185 20.1784 19.3185 17.947C19.3185 15.7156 17.487 13.9067 15.2276 13.9067C12.9683 13.9067 11.1367 15.7156 11.1367 17.947C11.1367 20.1784 12.9683 21.9873 15.2276 21.9873Z" fill="white"/>
</svg>
