<svg width="157" height="80" viewBox="0 0 157 80" fill="none" xmlns="http://www.w3.org/2000/svg">
<rect x="16.5" y="12.5" width="139.2" height="54.2" rx="11.5" fill="#131F24"/>
<rect x="16.5" y="12.5" width="139.2" height="54.2" rx="11.5" stroke="#37464F"/>
<path d="M41.8793 37.6604C41.756 37.2733 41.59 36.9266 41.3816 36.6203C41.1774 36.3098 40.9328 36.046 40.6478 35.8291C40.3628 35.6079 40.0373 35.4398 39.6715 35.325C39.3099 35.2101 38.9122 35.1527 38.4783 35.1527C37.7423 35.1527 37.0787 35.342 36.4874 35.7206C35.8961 36.0992 35.4282 36.6543 35.0836 37.386C34.7433 38.1134 34.5731 39.0046 34.5731 40.0596C34.5731 41.1189 34.7454 42.0143 35.09 42.746C35.4346 43.4777 35.9067 44.0328 36.5066 44.4114C37.1064 44.79 37.7891 44.9793 38.5548 44.9793C39.2653 44.9793 39.8842 44.8347 40.4117 44.5454C40.9434 44.2562 41.354 43.8478 41.6432 43.3203C41.9367 42.7885 42.0835 42.1632 42.0835 41.4443L42.594 41.54H38.8547V39.9129H43.9914V41.3996C43.9914 42.4971 43.7574 43.45 43.2895 44.2583C42.8258 45.0623 42.1835 45.6834 41.3625 46.1215C40.5457 46.5597 39.6098 46.7788 38.5548 46.7788C37.3722 46.7788 36.3343 46.5065 35.4409 45.962C34.5519 45.4175 33.8585 44.6454 33.3608 43.6457C32.863 42.6418 32.6142 41.4507 32.6142 40.0724C32.6142 39.0302 32.7588 38.0943 33.0481 37.2648C33.3374 36.4352 33.7436 35.7312 34.2668 35.1527C34.7943 34.5699 35.4133 34.1253 36.1237 33.8191C36.8384 33.5085 37.619 33.3532 38.4655 33.3532C39.1717 33.3532 39.8289 33.4575 40.4372 33.6659C41.0498 33.8744 41.5943 34.17 42.0707 34.5529C42.5514 34.9357 42.9492 35.3909 43.264 35.9184C43.5788 36.4416 43.7915 37.0223 43.9021 37.6604H41.8793ZM46.3412 46.6001V36.799H48.1853V38.3559H48.2874C48.4661 37.8284 48.7808 37.4137 49.2318 37.1116C49.6869 36.8053 50.2017 36.6522 50.776 36.6522C50.8951 36.6522 51.0354 36.6565 51.1971 36.665C51.363 36.6735 51.4927 36.6841 51.5863 36.6969V38.5218C51.5098 38.5005 51.3736 38.4772 51.178 38.4516C50.9823 38.4218 50.7866 38.407 50.5909 38.407C50.14 38.407 49.738 38.5027 49.3849 38.6941C49.0361 38.8813 48.7596 39.1429 48.5554 39.479C48.3512 39.8108 48.2491 40.1894 48.2491 40.6148V46.6001H46.3412ZM57.1106 46.7979C56.145 46.7979 55.3133 46.5916 54.6157 46.179C53.9223 45.7621 53.3863 45.1771 53.0077 44.4242C52.6333 43.667 52.4462 42.78 52.4462 41.7633C52.4462 40.7594 52.6333 39.8746 53.0077 39.1089C53.3863 38.3432 53.9138 37.7455 54.5902 37.3158C55.2708 36.8862 56.0663 36.6713 56.9766 36.6713C57.5297 36.6713 58.0657 36.7628 58.5846 36.9457C59.1036 37.1286 59.5694 37.4158 59.9821 37.8072C60.3947 38.1985 60.7201 38.7069 60.9584 39.3322C61.1966 39.9533 61.3157 40.7084 61.3157 41.5974V42.2738H53.5245V40.8445H59.4461C59.4461 40.3425 59.344 39.898 59.1398 39.5109C58.9356 39.1195 58.6484 38.8111 58.2784 38.5856C57.9125 38.3602 57.4829 38.2474 56.9894 38.2474C56.4534 38.2474 55.9855 38.3793 55.5856 38.6431C55.19 38.9025 54.8837 39.2429 54.6667 39.664C54.454 40.0809 54.3477 40.5339 54.3477 41.0231V42.1398C54.3477 42.7949 54.4625 43.3522 54.6923 43.8116C54.9262 44.2711 55.2517 44.622 55.6685 44.8645C56.0854 45.1027 56.5725 45.2218 57.1298 45.2218C57.4914 45.2218 57.8211 45.1708 58.1188 45.0687C58.4166 44.9623 58.674 44.8049 58.8909 44.5965C59.1079 44.388 59.2738 44.1307 59.3886 43.8244L61.1944 44.1498C61.0498 44.6816 60.7903 45.1474 60.416 45.5472C60.0459 45.9429 59.5801 46.2513 59.0185 46.4725C58.4613 46.6894 57.8253 46.7979 57.1106 46.7979ZM66.2848 46.817C65.6638 46.817 65.1022 46.7022 64.6003 46.4725C64.0983 46.2385 63.7006 45.9003 63.407 45.4579C63.1178 45.0155 62.9731 44.4731 62.9731 43.8308C62.9731 43.2778 63.0795 42.8226 63.2922 42.4652C63.5049 42.1079 63.792 41.825 64.1536 41.6166C64.5152 41.4081 64.9193 41.2507 65.366 41.1444C65.8127 41.038 66.2678 40.9572 66.7315 40.9019C67.3186 40.8338 67.795 40.7785 68.1608 40.736C68.5267 40.6892 68.7926 40.6148 68.9585 40.5127C69.1244 40.4106 69.2073 40.2447 69.2073 40.015V39.9703C69.2073 39.413 69.0499 38.9812 68.7351 38.675C68.4246 38.3687 67.9609 38.2155 67.3441 38.2155C66.7017 38.2155 66.1955 38.358 65.8254 38.6431C65.4596 38.9238 65.2065 39.2365 65.0661 39.5811L63.273 39.1727C63.4857 38.5771 63.7963 38.0964 64.2047 37.7306C64.6173 37.3605 65.0916 37.0925 65.6276 36.9266C66.1636 36.7564 66.7273 36.6713 67.3186 36.6713C67.7099 36.6713 68.1247 36.7181 68.5628 36.8117C69.0053 36.9011 69.4179 37.067 69.8008 37.3094C70.1879 37.5519 70.5048 37.8986 70.7515 38.3495C70.9982 38.7962 71.1216 39.3769 71.1216 40.0915V46.6001H69.2584V45.2601H69.1818C69.0584 45.5068 68.8734 45.7493 68.6267 45.9875C68.3799 46.2257 68.063 46.4236 67.6759 46.581C67.2888 46.7384 66.8251 46.817 66.2848 46.817ZM66.6996 45.2856C67.2271 45.2856 67.678 45.1814 68.0524 44.973C68.431 44.7645 68.7181 44.4923 68.9138 44.1562C69.1137 43.8159 69.2137 43.4522 69.2137 43.0651V41.8016C69.1456 41.8697 69.0138 41.9335 68.8181 41.9931C68.6267 42.0484 68.4076 42.0973 68.1608 42.1398C67.9141 42.1781 67.6738 42.2143 67.4398 42.2483C67.2058 42.2781 67.0101 42.3036 66.8528 42.3249C66.4827 42.3717 66.1445 42.4504 65.8382 42.561C65.5362 42.6716 65.2937 42.8311 65.1108 43.0395C64.9321 43.2437 64.8428 43.516 64.8428 43.8563C64.8428 44.3285 65.0172 44.6858 65.366 44.9283C65.7148 45.1665 66.1594 45.2856 66.6996 45.2856ZM78.238 36.799V38.3304H72.8843V36.799H78.238ZM74.3201 34.4508H76.228V43.7223C76.228 44.0924 76.2833 44.371 76.3939 44.5582C76.5045 44.7411 76.647 44.8666 76.8214 44.9347C77.0001 44.9985 77.1936 45.0304 77.4021 45.0304C77.5552 45.0304 77.6892 45.0197 77.8041 44.9985C77.9189 44.9772 78.0082 44.9602 78.0721 44.9474L78.4166 46.5235C78.306 46.5661 78.1486 46.6086 77.9444 46.6511C77.7402 46.6979 77.485 46.7235 77.1787 46.7277C76.6768 46.7362 76.2088 46.6469 75.7749 46.4597C75.341 46.2725 74.9901 45.9833 74.7221 45.5919C74.4541 45.2005 74.3201 44.7092 74.3201 44.1179V34.4508ZM94.101 37.6604C93.9776 37.2733 93.8117 36.9266 93.6033 36.6203C93.3991 36.3098 93.1545 36.046 92.8695 35.8291C92.5845 35.6079 92.259 35.4398 91.8932 35.325C91.5316 35.2101 91.1339 35.1527 90.7 35.1527C89.964 35.1527 89.3004 35.342 88.7091 35.7206C88.1178 36.0992 87.6499 36.6543 87.3053 37.386C86.965 38.1134 86.7948 39.0046 86.7948 40.0596C86.7948 41.1189 86.9671 42.0143 87.3117 42.746C87.6562 43.4777 88.1284 44.0328 88.7282 44.4114C89.328 44.79 90.0108 44.9793 90.7765 44.9793C91.4869 44.9793 92.1059 44.8347 92.6334 44.5454C93.1651 44.2562 93.5756 43.8478 93.8649 43.3203C94.1584 42.7885 94.3052 42.1632 94.3052 41.4443L94.8157 41.54H91.0764V39.9129H96.2131V41.3996C96.2131 42.4971 95.9791 43.45 95.5112 44.2583C95.0475 45.0623 94.4052 45.6834 93.5841 46.1215C92.7674 46.5597 91.8315 46.7788 90.7765 46.7788C89.5939 46.7788 88.556 46.5065 87.6626 45.962C86.7735 45.4175 86.0801 44.6454 85.5824 43.6457C85.0847 42.6418 84.8359 41.4507 84.8359 40.0724C84.8359 39.0302 84.9805 38.0943 85.2698 37.2648C85.559 36.4352 85.9653 35.7312 86.4885 35.1527C87.016 34.5699 87.635 34.1253 88.3454 33.8191C89.06 33.5085 89.8407 33.3532 90.6872 33.3532C91.3933 33.3532 92.0506 33.4575 92.6589 33.6659C93.2715 33.8744 93.816 34.17 94.2924 34.5529C94.7731 34.9357 95.1709 35.3909 95.4857 35.9184C95.8005 36.4416 96.0132 37.0223 96.1238 37.6604H94.101ZM102.691 46.7979C101.772 46.7979 100.971 46.5873 100.286 46.1662C99.6008 45.7451 99.0691 45.1559 98.6905 44.3987C98.3119 43.6415 98.1226 42.7566 98.1226 41.7442C98.1226 40.7275 98.3119 39.8384 98.6905 39.077C99.0691 38.3155 99.6008 37.7242 100.286 37.3031C100.971 36.8819 101.772 36.6713 102.691 36.6713C103.61 36.6713 104.412 36.8819 105.097 37.3031C105.782 37.7242 106.314 38.3155 106.692 39.077C107.071 39.8384 107.26 40.7275 107.26 41.7442C107.26 42.7566 107.071 43.6415 106.692 44.3987C106.314 45.1559 105.782 45.7451 105.097 46.1662C104.412 46.5873 103.61 46.7979 102.691 46.7979ZM102.698 45.1963C103.293 45.1963 103.787 45.0389 104.178 44.7241C104.569 44.4093 104.859 43.9903 105.046 43.4671C105.237 42.9438 105.333 42.3674 105.333 41.7378C105.333 41.1125 105.237 40.5382 105.046 40.015C104.859 39.4875 104.569 39.0642 104.178 38.7452C103.787 38.4261 103.293 38.2666 102.698 38.2666C102.098 38.2666 101.6 38.4261 101.205 38.7452C100.813 39.0642 100.522 39.4875 100.33 40.015C100.143 40.5382 100.05 41.1125 100.05 41.7378C100.05 42.3674 100.143 42.9438 100.33 43.4671C100.522 43.9903 100.813 44.4093 101.205 44.7241C101.6 45.0389 102.098 45.1963 102.698 45.1963ZM109.39 46.6001V36.799H111.298V46.6001H109.39ZM110.353 35.2867C110.021 35.2867 109.736 35.1761 109.498 34.9549C109.264 34.7294 109.147 34.4614 109.147 34.1509C109.147 33.8361 109.264 33.5681 109.498 33.3469C109.736 33.1214 110.021 33.0087 110.353 33.0087C110.685 33.0087 110.968 33.1214 111.202 33.3469C111.44 33.5681 111.559 33.8361 111.559 34.1509C111.559 34.4614 111.44 34.7294 111.202 34.9549C110.968 35.1761 110.685 35.2867 110.353 35.2867ZM115.772 40.7807V46.6001H113.864V36.799H115.696V38.3942H115.817C116.042 37.8752 116.395 37.4583 116.876 37.1435C117.361 36.8287 117.972 36.6713 118.708 36.6713C119.375 36.6713 119.96 36.8117 120.462 37.0925C120.964 37.369 121.353 37.7816 121.63 38.3304C121.907 38.8792 122.045 39.5577 122.045 40.3659V46.6001H120.137V40.5956C120.137 39.8852 119.952 39.3301 119.582 38.9302C119.212 38.5261 118.703 38.324 118.057 38.324C117.614 38.324 117.221 38.4197 116.876 38.6112C116.536 38.8026 116.266 39.0833 116.066 39.4534C115.87 39.8193 115.772 40.2617 115.772 40.7807ZM128.713 50.4797C127.934 50.4797 127.264 50.3776 126.703 50.1734C126.146 49.9692 125.69 49.6991 125.337 49.363C124.984 49.027 124.721 48.659 124.546 48.2591L126.186 47.5828C126.301 47.7699 126.454 47.9677 126.645 48.1762C126.841 48.3889 127.105 48.5697 127.437 48.7186C127.773 48.8675 128.205 48.9419 128.732 48.9419C129.455 48.9419 130.053 48.7654 130.525 48.4123C130.997 48.0635 131.233 47.5062 131.233 46.7405V44.8134H131.112C130.997 45.0219 130.831 45.2537 130.614 45.509C130.402 45.7642 130.108 45.9854 129.734 46.1726C129.359 46.3597 128.872 46.4533 128.273 46.4533C127.498 46.4533 126.801 46.2725 126.18 45.911C125.563 45.5451 125.074 45.007 124.712 44.2966C124.355 43.5819 124.176 42.7035 124.176 41.6612C124.176 40.619 124.353 39.7257 124.706 38.9812C125.063 38.2368 125.552 37.6668 126.173 37.2712C126.794 36.8713 127.498 36.6713 128.285 36.6713C128.894 36.6713 129.385 36.7734 129.759 36.9776C130.134 37.1776 130.425 37.4115 130.634 37.6795C130.846 37.9475 131.01 38.1836 131.125 38.3878H131.265V36.799H133.135V46.817C133.135 47.6593 132.939 48.3506 132.548 48.8909C132.156 49.4311 131.627 49.831 130.959 50.0905C130.295 50.35 129.547 50.4797 128.713 50.4797ZM128.694 44.8709C129.242 44.8709 129.706 44.7432 130.085 44.488C130.468 44.2285 130.757 43.8584 130.953 43.3777C131.153 42.8928 131.252 42.3121 131.252 41.6357C131.252 40.9764 131.155 40.3957 130.959 39.8937C130.763 39.3918 130.476 39.0004 130.098 38.7196C129.719 38.4346 129.251 38.2921 128.694 38.2921C128.119 38.2921 127.641 38.441 127.258 38.7388C126.875 39.0323 126.586 39.4322 126.39 39.9384C126.199 40.4446 126.103 41.0104 126.103 41.6357C126.103 42.2781 126.201 42.8417 126.397 43.3267C126.592 43.8116 126.882 44.1902 127.264 44.4625C127.651 44.7347 128.128 44.8709 128.694 44.8709ZM138.099 33.5319L137.933 42.8417H136.166L136 33.5319H138.099ZM137.053 46.7213C136.7 46.7213 136.398 46.598 136.147 46.3512C135.896 46.1003 135.772 45.7982 135.777 45.4451C135.772 45.0963 135.896 44.7985 136.147 44.5518C136.398 44.3008 136.7 44.1753 137.053 44.1753C137.397 44.1753 137.695 44.3008 137.946 44.5518C138.197 44.7985 138.325 45.0963 138.329 45.4451C138.325 45.6791 138.263 45.8939 138.144 46.0896C138.029 46.2811 137.876 46.4342 137.684 46.5491C137.493 46.6639 137.282 46.7213 137.053 46.7213Z" fill="#F1F7FB"/>
<path d="M2.00358 54.2902H18V36.1084L0.624575 51.1554C-0.682507 52.2873 0.198558 54.2902 2.00358 54.2902Z" fill="#131F24"/>
<path fill-rule="evenodd" clip-rule="evenodd" d="M18 37.6886V35.1992L0.83037 50.8247C-0.943477 52.439 0.312833 55.1992 2.82143 55.1992H18V53.4908H16.1228H2.82143C1.98523 53.4908 1.56646 52.5708 2.15774 52.0327L16.1228 39.3236L18 37.6886Z" fill="#37464F"/>
</svg>
