<svg width="202" height="86" viewBox="0 0 202 86" fill="none" xmlns="http://www.w3.org/2000/svg">
<g filter="url(#filter0_dd_1073_16597)">
<path d="M6.39639 3.79083C6.50625 2.21899 7.81341 1 9.38909 1H197.783C199.522 1 200.897 2.47419 200.776 4.20917L195.604 78.2092C195.494 79.781 194.187 81 192.611 81H4.21699C2.47778 81 1.10304 79.5258 1.2243 77.7908L6.39639 3.79083Z" fill="#232E34"/>
<path d="M197.783 0.5C199.812 0.500103 201.416 2.22006 201.274 4.24414L196.103 78.2441C195.974 80.0778 194.449 81.4998 192.611 81.5H4.2168C2.18781 81.4999 0.584117 79.7799 0.725586 77.7559L5.89746 3.75586C6.02567 1.92223 7.5506 0.500214 9.38867 0.5H197.783Z" stroke="black"/>
</g>
<defs>
<filter id="filter0_dd_1073_16597" x="0.216797" y="0" width="201.566" height="85.5" filterUnits="userSpaceOnUse" color-interpolation-filters="sRGB">
<feFlood flood-opacity="0" result="BackgroundImageFix"/>
<feColorMatrix in="SourceAlpha" type="matrix" values="0 0 0 0 0 0 0 0 0 0 0 0 0 0 0 0 0 0 127 0" result="hardAlpha"/>
<feOffset dy="3.5"/>
<feComposite in2="hardAlpha" operator="out"/>
<feColorMatrix type="matrix" values="0 0 0 0 0 0 0 0 0 0 0 0 0 0 0 0 0 0 0.5 0"/>
<feBlend mode="normal" in2="BackgroundImageFix" result="effect1_dropShadow_1073_16597"/>
<feColorMatrix in="SourceAlpha" type="matrix" values="0 0 0 0 0 0 0 0 0 0 0 0 0 0 0 0 0 0 127 0" result="hardAlpha"/>
<feOffset dy="1.5"/>
<feComposite in2="hardAlpha" operator="out"/>
<feColorMatrix type="matrix" values="0 0 0 0 0 0 0 0 0 0 0 0 0 0 0 0 0 0 1 0"/>
<feBlend mode="normal" in2="effect1_dropShadow_1073_16597" result="effect2_dropShadow_1073_16597"/>
<feBlend mode="normal" in="SourceGraphic" in2="effect2_dropShadow_1073_16597" result="shape"/>
</filter>
</defs>
</svg>
