<svg width="173" height="86" viewBox="0 0 173 86" fill="none" xmlns="http://www.w3.org/2000/svg">
<g filter="url(#filter0_dd_1243_12258)">
<path d="M5.75968 5.25127C5.89129 3.143 7.63954 1.50047 9.75191 1.50047H167.743C170.05 1.50047 171.878 3.447 171.735 5.74968L167.24 77.7491C167.109 79.8573 165.36 81.4999 163.248 81.4999H5.25747C2.9503 81.4999 1.12151 79.5533 1.26525 77.2506L5.75968 5.25127Z" fill="#068F36"/>
<path d="M167.742 1C170.338 1 172.395 3.19073 172.233 5.78125L167.739 77.7803C167.591 80.152 165.624 82 163.248 82H5.25781C2.66232 82 0.605019 79.8102 0.766602 77.2197L5.26074 5.21973C5.40899 2.84811 7.37567 1 9.75195 1H167.742Z" stroke="black"/>
</g>
<mask id="mask0_1243_12258" style="mask-type:alpha" maskUnits="userSpaceOnUse" x="1" y="1" width="171" height="81">
<path d="M5.75968 5.2508C5.89129 3.14253 7.63954 1.5 9.75191 1.5H167.743C170.05 1.5 171.878 3.44653 171.735 5.74921L167.24 77.7486C167.109 79.8568 165.36 81.4994 163.248 81.4994H5.25747C2.9503 81.4994 1.12151 79.5529 1.26525 77.2502L5.75968 5.2508Z" fill="#E6311F"/>
</mask>
<g mask="url(#mask0_1243_12258)">
<rect x="-4.71289" y="-14.4922" width="192.72" height="23.4222" fill="#459B03"/>
<rect x="-4.60156" y="72.7305" width="192.72" height="23.9316" fill="#007328"/>
</g>
<g filter="url(#filter1_dd_1243_12258)">
<path d="M5.75968 5.25127C5.89129 3.143 7.63954 1.50047 9.75191 1.50047H167.743C170.05 1.50047 171.878 3.447 171.735 5.74968L167.24 77.7491C167.109 79.8573 165.36 81.4999 163.248 81.4999H5.25747C2.9503 81.4999 1.12151 79.5533 1.26525 77.2506L5.75968 5.25127Z" fill="#E6311F"/>
<path d="M167.742 1C170.338 1 172.395 3.19073 172.233 5.78125L167.739 77.7803C167.591 80.152 165.624 82 163.248 82H5.25781C2.66232 82 0.605019 79.8102 0.766602 77.2197L5.26074 5.21973C5.40899 2.84811 7.37567 1 9.75195 1H167.742Z" stroke="black"/>
</g>
<mask id="mask1_1243_12258" style="mask-type:alpha" maskUnits="userSpaceOnUse" x="1" y="1" width="171" height="81">
<path d="M5.75968 5.2508C5.89129 3.14253 7.63954 1.5 9.75191 1.5H167.743C170.05 1.5 171.878 3.44653 171.735 5.74921L167.24 77.7486C167.109 79.8568 165.36 81.4994 163.248 81.4994H5.25747C2.9503 81.4994 1.12151 79.5529 1.26525 77.2502L5.75968 5.2508Z" fill="#E6311F"/>
</mask>
<g mask="url(#mask1_1243_12258)">
<rect x="-4.71289" y="-14.4922" width="192.72" height="23.4222" fill="#F44F44"/>
<rect x="-4.60156" y="72.7305" width="192.72" height="23.9316" fill="#B40B00"/>
</g>
<g filter="url(#filter2_d_1243_12258)">
<mask id="path-11-outside-1_1243_12258" maskUnits="userSpaceOnUse" x="37" y="27" width="69" height="27" fill="black">
<rect fill="white" x="37" y="27" width="69" height="27"/>
<path d="M43.748 47.608C43.748 47.9067 42.8613 48.056 41.088 48.056C39.296 48.056 38.4 47.916 38.4 47.636V29.38C38.4 28.7267 38.7453 28.4 39.436 28.4H44.784C49.6933 28.4 52.148 30.3133 52.148 34.14C52.148 35.2973 51.924 36.352 51.476 37.304C51.028 38.2373 50.3933 38.984 49.572 39.544L53.1 45.424C52.9507 45.872 52.4653 46.3853 51.644 46.964C50.524 47.7667 49.6 48.168 48.872 48.168C48.144 48.168 47.6027 47.9067 47.248 47.384L44.616 41.252H43.748V47.608ZM43.748 33.356V37.556H43.888C45.6613 37.556 46.548 36.8187 46.548 35.344C46.548 34.672 46.3707 34.1773 46.016 33.86C45.68 33.524 45.12 33.356 44.336 33.356H43.748ZM65.6396 47.244C64.4636 47.9347 62.9516 48.28 61.1036 48.28C59.2556 48.28 57.697 47.6547 56.4276 46.404C55.1583 45.1347 54.5236 43.3893 54.5236 41.168C54.5236 38.928 55.1303 37.1267 56.3436 35.764C57.5756 34.4013 59.125 33.72 60.9916 33.72C62.8583 33.72 64.2956 34.196 65.3036 35.148C66.3303 36.1 66.8436 37.2573 66.8436 38.62C66.8436 41.644 65.1076 43.156 61.6356 43.156H59.7036C59.7036 43.716 59.853 44.108 60.1516 44.332C60.469 44.5373 60.9263 44.64 61.5236 44.64C62.8303 44.64 64.0716 44.3413 65.2476 43.744C65.2663 43.7253 65.3503 43.856 65.4996 44.136C65.9476 44.9387 66.1716 45.62 66.1716 46.18C66.1716 46.7213 65.9943 47.076 65.6396 47.244ZM62.1396 39.152C62.1396 38.368 61.757 37.976 60.9916 37.976C60.637 37.976 60.329 38.088 60.0676 38.312C59.825 38.5173 59.7036 38.8253 59.7036 39.236V40.104H61.2156C61.8316 40.104 62.1396 39.7867 62.1396 39.152ZM75.3928 47.832C75.3928 48.056 74.6088 48.168 73.0408 48.168C71.1741 48.0933 70.2408 47.972 70.2408 47.804V37.892H68.8128C68.4395 37.892 68.2528 37.248 68.2528 35.96C68.2528 35.624 68.2808 35.2133 68.3368 34.728C68.4115 34.2427 68.5515 34 68.7568 34H70.2408V31.536C70.2408 31.1627 71.0248 30.976 72.5928 30.976C74.1795 30.976 74.9728 31.1253 74.9728 31.424V33.216L75.0008 34H77.3808C77.6981 34 77.8568 34.6533 77.8568 35.96C77.8568 37.2667 77.6981 37.92 77.3808 37.92H75.3928V47.832ZM85.6734 47.972C85.6734 48.1027 84.8241 48.168 83.1254 48.168C81.4267 48.1307 80.5774 48.056 80.5774 47.944V38.648H79.8214C79.5227 38.648 79.2801 38.4707 79.0934 38.116C78.9254 37.7427 78.8414 37.2853 78.8414 36.744C78.8414 34.728 79.4387 33.72 80.6334 33.72C81.4734 33.72 82.1734 33.9813 82.7334 34.504C83.2934 35.008 83.5734 35.5867 83.5734 36.24C83.9654 35.4747 84.4881 34.868 85.1414 34.42C85.8134 33.9533 86.4947 33.72 87.1854 33.72C88.2681 33.72 88.9214 34 89.1454 34.56C89.2014 34.7093 89.2294 34.9333 89.2294 35.232C89.2294 35.512 89.1361 36.0253 88.9494 36.772C88.7814 37.5187 88.6041 38.06 88.4174 38.396C88.2307 38.732 88.1187 38.9 88.0814 38.9C88.0441 38.9 87.8667 38.8347 87.5494 38.704C87.2507 38.5547 86.9801 38.48 86.7374 38.48C86.0281 38.48 85.6734 39.04 85.6734 40.16V47.972ZM89.943 34.14C89.943 33.9347 90.7923 33.832 92.491 33.832C94.2083 33.832 95.095 33.9253 95.151 34.112L97.167 40.72L99.099 34.056C99.1736 33.9067 99.7523 33.832 100.835 33.832C103.318 33.832 104.503 33.9533 104.391 34.196L97.811 52.928C97.7923 53.04 97.279 53.096 96.271 53.096C95.2816 53.096 94.3576 53.0587 93.499 52.984C92.6403 52.928 92.2296 52.8533 92.267 52.76L94.703 46.88L89.943 34.14Z"/>
</mask>
<path d="M43.748 47.608C43.748 47.9067 42.8613 48.056 41.088 48.056C39.296 48.056 38.4 47.916 38.4 47.636V29.38C38.4 28.7267 38.7453 28.4 39.436 28.4H44.784C49.6933 28.4 52.148 30.3133 52.148 34.14C52.148 35.2973 51.924 36.352 51.476 37.304C51.028 38.2373 50.3933 38.984 49.572 39.544L53.1 45.424C52.9507 45.872 52.4653 46.3853 51.644 46.964C50.524 47.7667 49.6 48.168 48.872 48.168C48.144 48.168 47.6027 47.9067 47.248 47.384L44.616 41.252H43.748V47.608ZM43.748 33.356V37.556H43.888C45.6613 37.556 46.548 36.8187 46.548 35.344C46.548 34.672 46.3707 34.1773 46.016 33.86C45.68 33.524 45.12 33.356 44.336 33.356H43.748ZM65.6396 47.244C64.4636 47.9347 62.9516 48.28 61.1036 48.28C59.2556 48.28 57.697 47.6547 56.4276 46.404C55.1583 45.1347 54.5236 43.3893 54.5236 41.168C54.5236 38.928 55.1303 37.1267 56.3436 35.764C57.5756 34.4013 59.125 33.72 60.9916 33.72C62.8583 33.72 64.2956 34.196 65.3036 35.148C66.3303 36.1 66.8436 37.2573 66.8436 38.62C66.8436 41.644 65.1076 43.156 61.6356 43.156H59.7036C59.7036 43.716 59.853 44.108 60.1516 44.332C60.469 44.5373 60.9263 44.64 61.5236 44.64C62.8303 44.64 64.0716 44.3413 65.2476 43.744C65.2663 43.7253 65.3503 43.856 65.4996 44.136C65.9476 44.9387 66.1716 45.62 66.1716 46.18C66.1716 46.7213 65.9943 47.076 65.6396 47.244ZM62.1396 39.152C62.1396 38.368 61.757 37.976 60.9916 37.976C60.637 37.976 60.329 38.088 60.0676 38.312C59.825 38.5173 59.7036 38.8253 59.7036 39.236V40.104H61.2156C61.8316 40.104 62.1396 39.7867 62.1396 39.152ZM75.3928 47.832C75.3928 48.056 74.6088 48.168 73.0408 48.168C71.1741 48.0933 70.2408 47.972 70.2408 47.804V37.892H68.8128C68.4395 37.892 68.2528 37.248 68.2528 35.96C68.2528 35.624 68.2808 35.2133 68.3368 34.728C68.4115 34.2427 68.5515 34 68.7568 34H70.2408V31.536C70.2408 31.1627 71.0248 30.976 72.5928 30.976C74.1795 30.976 74.9728 31.1253 74.9728 31.424V33.216L75.0008 34H77.3808C77.6981 34 77.8568 34.6533 77.8568 35.96C77.8568 37.2667 77.6981 37.92 77.3808 37.92H75.3928V47.832ZM85.6734 47.972C85.6734 48.1027 84.8241 48.168 83.1254 48.168C81.4267 48.1307 80.5774 48.056 80.5774 47.944V38.648H79.8214C79.5227 38.648 79.2801 38.4707 79.0934 38.116C78.9254 37.7427 78.8414 37.2853 78.8414 36.744C78.8414 34.728 79.4387 33.72 80.6334 33.72C81.4734 33.72 82.1734 33.9813 82.7334 34.504C83.2934 35.008 83.5734 35.5867 83.5734 36.24C83.9654 35.4747 84.4881 34.868 85.1414 34.42C85.8134 33.9533 86.4947 33.72 87.1854 33.72C88.2681 33.72 88.9214 34 89.1454 34.56C89.2014 34.7093 89.2294 34.9333 89.2294 35.232C89.2294 35.512 89.1361 36.0253 88.9494 36.772C88.7814 37.5187 88.6041 38.06 88.4174 38.396C88.2307 38.732 88.1187 38.9 88.0814 38.9C88.0441 38.9 87.8667 38.8347 87.5494 38.704C87.2507 38.5547 86.9801 38.48 86.7374 38.48C86.0281 38.48 85.6734 39.04 85.6734 40.16V47.972ZM89.943 34.14C89.943 33.9347 90.7923 33.832 92.491 33.832C94.2083 33.832 95.095 33.9253 95.151 34.112L97.167 40.72L99.099 34.056C99.1736 33.9067 99.7523 33.832 100.835 33.832C103.318 33.832 104.503 33.9533 104.391 34.196L97.811 52.928C97.7923 53.04 97.279 53.096 96.271 53.096C95.2816 53.096 94.3576 53.0587 93.499 52.984C92.6403 52.928 92.2296 52.8533 92.267 52.76L94.703 46.88L89.943 34.14Z" fill="white"/>
<path d="M51.476 37.304L52.1071 37.6069L52.1094 37.6021L51.476 37.304ZM49.572 39.544L49.1777 38.9656L48.6319 39.3377L48.9718 39.9041L49.572 39.544ZM53.1 45.424L53.7641 45.6454L53.8659 45.3399L53.7002 45.0639L53.1 45.424ZM51.644 46.964L51.2408 46.3917L51.2362 46.395L51.644 46.964ZM47.248 47.384L46.6048 47.6601L46.6312 47.7216L46.6688 47.7771L47.248 47.384ZM44.616 41.252L45.2592 40.9759L45.0773 40.552H44.616V41.252ZM43.748 41.252V40.552H43.048V41.252H43.748ZM43.748 33.356V32.656H43.048V33.356H43.748ZM43.748 37.556H43.048V38.256H43.748V37.556ZM46.016 33.86L45.521 34.355L45.5348 34.3687L45.5492 34.3817L46.016 33.86ZM43.748 47.608H43.048C43.048 47.4553 43.1098 47.3343 43.1726 47.2602C43.2009 47.2269 43.2265 47.206 43.2418 47.1948C43.2498 47.189 43.256 47.1851 43.2599 47.1827C43.2639 47.1803 43.266 47.1792 43.2661 47.1792C43.2661 47.1792 43.2645 47.18 43.2608 47.1816C43.2572 47.1831 43.252 47.1853 43.245 47.1879C43.2308 47.1931 43.211 47.1997 43.1848 47.207C43.1315 47.222 43.0599 47.238 42.9667 47.2537C42.5829 47.3184 41.9655 47.356 41.088 47.356V48.056V48.756C41.9838 48.756 42.6964 48.719 43.1993 48.6343C43.4438 48.5931 43.6923 48.5324 43.8974 48.4288C44.0776 48.3378 44.448 48.0921 44.448 47.608H43.748ZM41.088 48.056V47.356C40.2004 47.356 39.5726 47.3207 39.1801 47.2594C38.9767 47.2276 38.8866 47.196 38.8651 47.1859C38.8013 47.156 39.1 47.2689 39.1 47.636H38.4H37.7C37.7 48.1431 38.1107 48.3785 38.2709 48.4536C38.4734 48.5485 38.7193 48.6044 38.9639 48.6426C39.4674 48.7213 40.1836 48.756 41.088 48.756V48.056ZM38.4 47.636H39.1V29.38H38.4H37.7V47.636H38.4ZM38.4 29.38H39.1C39.1 29.2764 39.1139 29.2152 39.125 29.1839C39.1303 29.1689 39.1348 29.1609 39.1368 29.1577C39.1387 29.1548 39.1397 29.1539 39.14 29.1535C39.1405 29.1531 39.1431 29.1506 39.1502 29.1466C39.1576 29.1424 39.1711 29.1358 39.1933 29.1288C39.2391 29.1144 39.3163 29.1 39.436 29.1V28.4V27.7C38.9922 27.7 38.5292 27.8042 38.178 28.1365C37.8195 28.4756 37.7 28.9352 37.7 29.38H38.4ZM39.436 28.4V29.1H44.784V28.4V27.7H39.436V28.4ZM44.784 28.4V29.1C47.167 29.1 48.8254 29.5676 49.8767 30.3871C50.8948 31.1807 51.448 32.3876 51.448 34.14H52.148H52.848C52.848 32.0658 52.1739 30.4026 50.7373 29.2829C49.334 28.189 47.3103 27.7 44.784 27.7V28.4ZM52.148 34.14H51.448C51.448 35.2047 51.2425 36.1562 50.8426 37.0059L51.476 37.304L52.1094 37.6021C52.6055 36.5478 52.848 35.39 52.848 34.14H52.148ZM51.476 37.304L50.8449 37.0011C50.4479 37.8282 49.8929 38.478 49.1777 38.9656L49.572 39.544L49.9663 40.1224C50.8938 39.49 51.6081 38.6465 52.1071 37.6069L51.476 37.304ZM49.572 39.544L48.9718 39.9041L52.4998 45.7841L53.1 45.424L53.7002 45.0639L50.1722 39.1839L49.572 39.544ZM53.1 45.424L52.4359 45.2026C52.3639 45.4188 52.0515 45.8206 51.2408 46.3918L51.644 46.964L52.0472 47.5362C52.8792 46.95 53.5375 46.3252 53.7641 45.6454L53.1 45.424ZM51.644 46.964L51.2362 46.395C50.1444 47.1775 49.3719 47.468 48.872 47.468V48.168V48.868C49.8281 48.868 50.9036 48.3558 52.0518 47.533L51.644 46.964ZM48.872 48.168V47.468C48.335 47.468 48.0302 47.29 47.8272 46.9909L47.248 47.384L46.6688 47.7771C47.1752 48.5233 47.953 48.868 48.872 48.868V48.168ZM47.248 47.384L47.8913 47.1079L45.2592 40.9759L44.616 41.252L43.9728 41.5281L46.6048 47.6601L47.248 47.384ZM44.616 41.252V40.552H43.748V41.252V41.952H44.616V41.252ZM43.748 41.252H43.048V47.608H43.748H44.448V41.252H43.748ZM43.748 33.356H43.048V37.556H43.748H44.448V33.356H43.748ZM43.748 37.556V38.256H43.888V37.556V36.856H43.748V37.556ZM43.888 37.556V38.256C44.8544 38.256 45.7094 38.0578 46.3306 37.5412C46.9765 37.0041 47.248 36.2267 47.248 35.344H46.548H45.848C45.848 35.936 45.6762 36.2646 45.4354 36.4648C45.1699 36.6856 44.695 36.856 43.888 36.856V37.556ZM46.548 35.344H47.248C47.248 34.5573 47.0389 33.8359 46.4828 33.3383L46.016 33.86L45.5492 34.3817C45.7024 34.5187 45.848 34.7866 45.848 35.344H46.548ZM46.016 33.86L46.511 33.365C45.9803 32.8344 45.1911 32.656 44.336 32.656V33.356V34.056C45.0489 34.056 45.3797 34.2136 45.521 34.355L46.016 33.86ZM44.336 33.356V32.656H43.748V33.356V34.056H44.336V33.356ZM65.6396 47.244L65.34 46.6114L65.3119 46.6247L65.2851 46.6404L65.6396 47.244ZM56.4276 46.404L55.9326 46.899L55.9363 46.9026L56.4276 46.404ZM56.3436 35.764L55.8244 35.2945L55.8208 35.2985L56.3436 35.764ZM65.3036 35.148L64.823 35.6569L64.8277 35.6613L65.3036 35.148ZM59.7036 43.156V42.456H59.0036V43.156H59.7036ZM60.1516 44.332L59.7316 44.892L59.751 44.9065L59.7714 44.9197L60.1516 44.332ZM65.2476 43.744L65.5646 44.3681L65.6639 44.3177L65.7426 44.239L65.2476 43.744ZM65.4996 44.136L64.8819 44.4655L64.8884 44.4772L65.4996 44.136ZM60.0676 38.312L60.5198 38.8464L60.5232 38.8435L60.0676 38.312ZM59.7036 40.104H59.0036V40.804H59.7036V40.104ZM65.6396 47.244L65.2851 46.6404C64.2482 47.2494 62.8696 47.58 61.1036 47.58V48.28V48.98C63.0337 48.98 64.6791 48.6199 65.9941 47.8476L65.6396 47.244ZM61.1036 48.28V47.58C59.4319 47.58 58.052 47.0218 56.9189 45.9054L56.4276 46.404L55.9363 46.9026C57.3419 48.2876 59.0794 48.98 61.1036 48.98V48.28ZM56.4276 46.404L56.9226 45.909C55.8142 44.8007 55.2236 43.2504 55.2236 41.168H54.5236H53.8236C53.8236 43.5283 54.5023 45.4687 55.9327 46.899L56.4276 46.404ZM54.5236 41.168H55.2236C55.2236 39.0588 55.7917 37.4365 56.8664 36.2295L56.3436 35.764L55.8208 35.2985C54.4689 36.8169 53.8236 38.7972 53.8236 41.168H54.5236ZM56.3436 35.764L56.8629 36.2335C57.9597 35.0203 59.3192 34.42 60.9916 34.42V33.72V33.02C58.9307 33.02 57.1915 33.7824 55.8244 35.2945L56.3436 35.764ZM60.9916 33.72V34.42C62.7427 34.42 63.9846 34.8651 64.823 35.6569L65.3036 35.148L65.7843 34.6391C64.6067 33.5269 62.9738 33.02 60.9916 33.02V33.72ZM65.3036 35.148L64.8277 35.6613C65.7159 36.4849 66.1436 37.4581 66.1436 38.62H66.8436H67.5436C67.5436 37.0565 66.9447 35.7151 65.7796 34.6347L65.3036 35.148ZM66.8436 38.62H66.1436C66.1436 39.997 65.7529 40.9097 65.0819 41.4941C64.3924 42.0946 63.2856 42.456 61.6356 42.456V43.156V43.856C63.4576 43.856 64.9548 43.4614 66.0014 42.5499C67.0664 41.6223 67.5436 40.267 67.5436 38.62H66.8436ZM61.6356 43.156V42.456H59.7036V43.156V43.856H61.6356V43.156ZM59.7036 43.156H59.0036C59.0036 43.8221 59.1819 44.4797 59.7316 44.892L60.1516 44.332L60.5716 43.772C60.524 43.7363 60.4036 43.6099 60.4036 43.156H59.7036ZM60.1516 44.332L59.7714 44.9197C60.25 45.2294 60.8631 45.34 61.5236 45.34V44.64V43.94C60.9895 43.94 60.6879 43.8452 60.5319 43.7443L60.1516 44.332ZM61.5236 44.64V45.34C62.9415 45.34 64.2914 45.0148 65.5646 44.3681L65.2476 43.744L64.9306 43.1199C63.8519 43.6678 62.719 43.94 61.5236 43.94V44.64ZM65.2476 43.744L65.7426 44.239C65.6101 44.3715 65.4324 44.4422 65.2519 44.4422C65.0968 44.4422 64.9826 44.3906 64.9283 44.3616C64.8249 44.3065 64.7653 44.2391 64.7579 44.231C64.7284 44.1989 64.7189 44.1803 64.7358 44.2065C64.7617 44.2468 64.8091 44.3287 64.882 44.4654L65.4996 44.136L66.1173 43.8066C66.0409 43.6633 65.9716 43.5399 65.9135 43.4495C65.8883 43.4104 65.845 43.3451 65.7899 43.285C65.7696 43.2629 65.6992 43.1861 65.5871 43.1264C65.5284 43.095 65.4104 43.0422 65.2519 43.0422C65.068 43.0422 64.8875 43.1142 64.7527 43.249L65.2476 43.744ZM65.4996 44.136L64.8884 44.4772C65.3114 45.2351 65.4716 45.7929 65.4716 46.18H66.1716H66.8716C66.8716 45.4471 66.5838 44.6423 66.1109 43.7948L65.4996 44.136ZM66.1716 46.18H65.4716C65.4716 46.3796 65.4382 46.4876 65.4125 46.5389C65.3931 46.5778 65.3742 46.5952 65.34 46.6114L65.6396 47.244L65.9393 47.8766C66.6307 47.5491 66.8716 46.8721 66.8716 46.18H66.1716ZM62.1396 39.152H62.8396C62.8396 38.6563 62.7187 38.1551 62.3535 37.781C61.9853 37.4038 61.4865 37.276 60.9916 37.276V37.976V38.676C61.2621 38.676 61.3373 38.7442 61.3517 38.759C61.3692 38.7769 61.4396 38.8637 61.4396 39.152H62.1396ZM60.9916 37.976V37.276C60.4754 37.276 60.0044 37.4442 59.6121 37.7805L60.0676 38.312L60.5232 38.8435C60.6535 38.7318 60.7985 38.676 60.9916 38.676V37.976ZM60.0676 38.312L59.6155 37.7776C59.1723 38.1527 59.0036 38.684 59.0036 39.236H59.7036H60.4036C60.4036 38.9667 60.4777 38.882 60.5198 38.8464L60.0676 38.312ZM59.7036 39.236H59.0036V40.104H59.7036H60.4036V39.236H59.7036ZM59.7036 40.104V40.804H61.2156V40.104V39.404H59.7036V40.104ZM61.2156 40.104V40.804C61.6369 40.804 62.0802 40.6943 62.4109 40.3535C62.7379 40.0167 62.8396 39.5721 62.8396 39.152H62.1396H61.4396C61.4396 39.3666 61.3874 39.398 61.4063 39.3785C61.429 39.3551 61.4103 39.404 61.2156 39.404V40.104ZM73.0408 48.168L73.0128 48.8674L73.0268 48.868H73.0408V48.168ZM70.2408 37.892H70.9408V37.192H70.2408V37.892ZM68.3368 34.728L67.645 34.6216L67.6429 34.6346L67.6414 34.6478L68.3368 34.728ZM70.2408 34V34.7H70.9408V34H70.2408ZM74.9728 33.216H74.2728V33.2285L74.2733 33.241L74.9728 33.216ZM75.0008 34L74.3013 34.025L74.3254 34.7H75.0008V34ZM75.3928 37.92V37.22H74.6928V37.92H75.3928ZM75.3928 47.832H74.6928C74.6928 47.6323 74.7873 47.4895 74.8611 47.4158C74.895 47.3818 74.9249 47.3614 74.9417 47.351C74.9589 47.3404 74.9696 47.3358 74.9701 47.3356C74.9709 47.3352 74.9659 47.3374 74.9532 47.3414C74.9408 47.3453 74.9233 47.3502 74.8999 47.3558C74.8525 47.3671 74.7887 47.3792 74.7058 47.391C74.3647 47.4398 73.8171 47.468 73.0408 47.468V48.168V48.868C73.8325 48.868 74.4609 48.8402 74.9038 48.777C75.1182 48.7463 75.3379 48.7011 75.5216 48.6224C75.6385 48.5723 76.0928 48.3582 76.0928 47.832H75.3928ZM73.0408 48.168L73.0688 47.4686C72.1402 47.4314 71.4657 47.3833 71.0311 47.3268C70.8081 47.2979 70.6811 47.2706 70.6231 47.2526C70.5892 47.2421 70.6204 47.2473 70.6742 47.2833C70.7075 47.3056 70.9408 47.4684 70.9408 47.804H70.2408H69.5408C69.5408 48.1816 69.8033 48.385 69.8949 48.4464C70.007 48.5215 70.1258 48.5642 70.2085 48.5899C70.3839 48.6442 70.6068 48.6835 70.8506 48.7152C71.3493 48.78 72.0747 48.8299 73.0128 48.8674L73.0408 48.168ZM70.2408 47.804H70.9408V37.892H70.2408H69.5408V47.804H70.2408ZM70.2408 37.892V37.192H68.8128V37.892V38.592H70.2408V37.892ZM68.8128 37.892V37.192C68.9522 37.192 69.0542 37.2638 69.096 37.3119C69.1199 37.3394 69.098 37.3274 69.0651 37.2141C69 36.9896 68.9528 36.5869 68.9528 35.96H68.2528H67.5528C67.5528 36.6211 67.5989 37.1844 67.7205 37.6039C67.781 37.8126 67.8757 38.0421 68.0396 38.2306C68.2214 38.4397 68.4867 38.592 68.8128 38.592V37.892ZM68.2528 35.96H68.9528C68.9528 35.6598 68.978 35.2777 69.0322 34.8082L68.3368 34.728L67.6414 34.6478C67.5836 35.1489 67.5528 35.5882 67.5528 35.96H68.2528ZM68.3368 34.728L69.0287 34.8344C69.0439 34.7356 69.0606 34.6612 69.0765 34.6075C69.0928 34.5521 69.1045 34.5311 69.1041 34.5318C69.1041 34.5319 69.0803 34.5741 69.0175 34.6182C68.9463 34.6683 68.8537 34.7 68.7568 34.7V34V33.3C68.3158 33.3 68.0351 33.5833 67.8915 33.8322C67.7572 34.065 67.6871 34.3478 67.645 34.6216L68.3368 34.728ZM68.7568 34V34.7H70.2408V34V33.3H68.7568V34ZM70.2408 34H70.9408V31.536H70.2408H69.5408V34H70.2408ZM70.2408 31.536H70.9408C70.9408 31.7327 70.8215 31.8414 70.7947 31.8606C70.7858 31.867 70.8317 31.8349 70.9909 31.797C71.3009 31.7232 71.8223 31.676 72.5928 31.676V30.976V30.276C71.7953 30.276 71.1407 30.3222 70.6667 30.435C70.4339 30.4905 70.1859 30.575 69.9809 30.7214C69.7581 30.8806 69.5408 31.1526 69.5408 31.536H70.2408ZM72.5928 30.976V31.676C73.3758 31.676 73.9178 31.7137 74.2483 31.7759C74.42 31.8082 74.4801 31.8377 74.4799 31.8375C74.4765 31.8356 74.4287 31.809 74.378 31.7422C74.32 31.6658 74.2728 31.5547 74.2728 31.424H74.9728H75.6728C75.6728 30.9801 75.3621 30.7279 75.1683 30.6185C74.9697 30.5063 74.7323 30.4424 74.5073 30.4001C74.0445 30.313 73.3965 30.276 72.5928 30.276V30.976ZM74.9728 31.424H74.2728V33.216H74.9728H75.6728V31.424H74.9728ZM74.9728 33.216L74.2733 33.241L74.3013 34.025L75.0008 34L75.7004 33.975L75.6724 33.191L74.9728 33.216ZM75.0008 34V34.7H77.3808V34V33.3H75.0008V34ZM77.3808 34V34.7C77.1763 34.7 77.0556 34.579 77.0233 34.5347C77.0047 34.5091 77.0271 34.5296 77.0576 34.6552C77.1166 34.8984 77.1568 35.3205 77.1568 35.96H77.8568H78.5568C78.5568 35.2928 78.5177 34.735 78.418 34.3248C78.3692 34.1237 78.2925 33.8992 78.1548 33.7103C78.0035 33.5026 77.744 33.3 77.3808 33.3V34ZM77.8568 35.96H77.1568C77.1568 36.5995 77.1166 37.0216 77.0576 37.2648C77.0271 37.3904 77.0047 37.4109 77.0233 37.3853C77.0556 37.341 77.1763 37.22 77.3808 37.22V37.92V38.62C77.744 38.62 78.0035 38.4174 78.1548 38.2097C78.2925 38.0208 78.3692 37.7963 78.418 37.5952C78.5177 37.185 78.5568 36.6272 78.5568 35.96H77.8568ZM77.3808 37.92V37.22H75.3928V37.92V38.62H77.3808V37.92ZM75.3928 37.92H74.6928V47.832H75.3928H76.0928V37.92H75.3928ZM83.1254 48.168L83.11 48.8678L83.1177 48.868H83.1254V48.168ZM80.5774 38.648H81.2774V37.948H80.5774V38.648ZM79.0934 38.116L78.4551 38.4033L78.4639 38.4229L78.474 38.442L79.0934 38.116ZM82.7334 34.504L82.2557 35.0158L82.2651 35.0243L82.7334 34.504ZM83.5734 36.24H82.8734L84.1964 36.5591L83.5734 36.24ZM85.1414 34.42L85.5373 34.9973L85.5407 34.995L85.1414 34.42ZM89.1454 34.56L89.8008 34.3142L89.7982 34.3071L89.7953 34.3L89.1454 34.56ZM88.9494 36.772L88.2703 36.6022L88.2683 36.6103L88.2665 36.6183L88.9494 36.772ZM87.5494 38.704L87.2364 39.3301L87.2592 39.3415L87.2829 39.3513L87.5494 38.704ZM85.6734 47.972H84.9734C84.9734 47.5688 85.2935 47.4061 85.3017 47.4016C85.3576 47.3715 85.3895 47.3681 85.3568 47.3757C85.3033 47.388 85.1864 47.4054 84.9827 47.4211C84.5858 47.4516 83.9707 47.468 83.1254 47.468V48.168V48.868C83.9788 48.868 84.6377 48.8517 85.0901 48.8169C85.311 48.7999 85.5127 48.7765 85.6716 48.7398C85.7449 48.7229 85.8565 48.6929 85.9655 48.6343C86.0268 48.6012 86.3734 48.4078 86.3734 47.972H85.6734ZM83.1254 48.168L83.1408 47.4682C82.2949 47.4496 81.6766 47.4219 81.2757 47.3867C81.0707 47.3687 80.9478 47.3507 80.8869 47.3373C80.8505 47.3293 80.8741 47.3309 80.9219 47.3541C80.9447 47.3651 81.0133 47.3998 81.085 47.4723C81.1617 47.5498 81.2774 47.7099 81.2774 47.944H80.5774H79.8774C79.8774 48.1921 79.9998 48.3659 80.0897 48.4568C80.1747 48.5428 80.2632 48.5906 80.3125 48.6144C80.4134 48.6632 80.5166 48.6894 80.5864 48.7047C80.7379 48.738 80.9335 48.762 81.1531 48.7813C81.6015 48.8207 82.2572 48.8491 83.11 48.8678L83.1254 48.168ZM80.5774 47.944H81.2774V38.648H80.5774H79.8774V47.944H80.5774ZM80.5774 38.648V37.948H79.8214V38.648V39.348H80.5774V38.648ZM79.8214 38.648V37.948C79.8171 37.948 79.8198 37.9476 79.8258 37.9495C79.8318 37.9515 79.833 37.9532 79.8284 37.9498C79.817 37.9415 79.7723 37.903 79.7128 37.79L79.0934 38.116L78.474 38.442C78.7338 38.9358 79.1741 39.348 79.8214 39.348V38.648ZM79.0934 38.116L79.7318 37.8287C79.6152 37.5698 79.5414 37.2167 79.5414 36.744H78.8414H78.1414C78.1414 37.354 78.2356 37.9155 78.4551 38.4033L79.0934 38.116ZM78.8414 36.744H79.5414C79.5414 35.7822 79.688 35.1765 79.8916 34.8329C80.0612 34.5467 80.2774 34.42 80.6334 34.42V33.72V33.02C79.7948 33.02 79.1149 33.3973 78.6872 34.1191C78.2935 34.7835 78.1414 35.6898 78.1414 36.744H78.8414ZM80.6334 33.72V34.42C81.3147 34.42 81.8384 34.6262 82.2558 35.0157L82.7334 34.504L83.211 33.9923C82.5084 33.3365 81.6321 33.02 80.6334 33.02V33.72ZM82.7334 34.504L82.2651 35.0243C82.7025 35.418 82.8734 35.8163 82.8734 36.24H83.5734H84.2734C84.2734 35.357 83.8843 34.598 83.2017 33.9837L82.7334 34.504ZM83.5734 36.24L84.1964 36.5591C84.54 35.8883 84.988 35.3739 85.5373 34.9973L85.1414 34.42L84.7455 33.8427C83.9881 34.3621 83.3908 35.061 82.9504 35.9209L83.5734 36.24ZM85.1414 34.42L85.5407 34.995C86.1176 34.5943 86.6622 34.42 87.1854 34.42V33.72V33.02C86.3272 33.02 85.5092 33.3123 84.7421 33.845L85.1414 34.42ZM87.1854 33.72V34.42C88.225 34.42 88.4458 34.6957 88.4955 34.82L89.1454 34.56L89.7953 34.3C89.397 33.3043 88.3111 33.02 87.1854 33.02V33.72ZM89.1454 34.56L88.49 34.8058C88.501 34.8351 88.5294 34.9572 88.5294 35.232H89.2294H89.9294C89.9294 34.9095 89.9018 34.5836 89.8008 34.3142L89.1454 34.56ZM89.2294 35.232H88.5294C88.5294 35.4134 88.4592 35.8466 88.2703 36.6022L88.9494 36.772L89.6285 36.9418C89.8129 36.2041 89.9294 35.6106 89.9294 35.232H89.2294ZM88.9494 36.772L88.2665 36.6183C88.1017 37.3509 87.9415 37.8112 87.8055 38.056L88.4174 38.396L89.0293 38.7359C89.2666 38.3088 89.4612 37.6864 89.6323 36.9257L88.9494 36.772ZM88.4174 38.396L87.8055 38.056C87.7147 38.2194 87.651 38.3257 87.611 38.3857C87.5892 38.4184 87.5868 38.4185 87.6002 38.4034C87.6057 38.3972 87.6329 38.3666 87.6789 38.3321C87.7027 38.3143 87.7444 38.2856 87.802 38.2597C87.8579 38.2345 87.9552 38.2 88.0814 38.2V38.9V39.6C88.3218 39.6 88.4822 39.4796 88.5189 39.4521C88.5789 39.4071 88.6224 39.3608 88.6466 39.3336C88.6973 39.2765 88.7416 39.2136 88.7758 39.1623C88.8478 39.0543 88.9334 38.9086 89.0293 38.7359L88.4174 38.396ZM88.0814 38.9V38.2C88.1258 38.2 88.1599 38.2045 88.1759 38.2069C88.1942 38.2096 88.2079 38.2125 88.215 38.2141C88.2288 38.2172 88.2354 38.2194 88.231 38.2181C88.2227 38.2156 88.2014 38.2085 88.1624 38.1942C88.0861 38.166 87.9719 38.1209 87.8159 38.0567L87.5494 38.704L87.2829 39.3513C87.4443 39.4177 87.5774 39.4706 87.6784 39.5078C87.7281 39.5261 87.7779 39.5436 87.8233 39.5574C87.8324 39.5602 87.9504 39.6 88.0814 39.6V38.9ZM87.5494 38.704L87.8625 38.0779C87.5011 37.8972 87.1217 37.78 86.7374 37.78V38.48V39.18C86.8384 39.18 87.0003 39.2121 87.2364 39.3301L87.5494 38.704ZM86.7374 38.48V37.78C86.1631 37.78 85.6642 38.0263 85.348 38.5255C85.0661 38.9706 84.9734 39.5487 84.9734 40.16H85.6734H86.3734C86.3734 39.6513 86.458 39.3894 86.5308 39.2745C86.5608 39.2271 86.5841 39.2117 86.5979 39.2044C86.6138 39.1961 86.6533 39.18 86.7374 39.18V38.48ZM85.6734 40.16H84.9734V47.972H85.6734H86.3734V40.16H85.6734ZM89.943 34.14H89.243V34.2665L89.2872 34.385L89.943 34.14ZM95.151 34.112L94.4805 34.3131L94.4814 34.3163L95.151 34.112ZM97.167 40.72L96.4974 40.9243L97.1841 43.1749L97.8393 40.9149L97.167 40.72ZM99.099 34.056L98.4729 33.7429L98.4444 33.7999L98.4267 33.8611L99.099 34.056ZM104.391 34.196L103.755 33.9027L103.742 33.9327L103.731 33.964L104.391 34.196ZM97.811 52.928L97.1505 52.696L97.1305 52.7532L97.1205 52.8129L97.811 52.928ZM93.499 52.984L93.5596 52.2866L93.5521 52.286L93.5445 52.2855L93.499 52.984ZM92.267 52.76L91.6202 52.4921L91.617 52.5L92.267 52.76ZM94.703 46.88L95.3497 47.1479L95.4552 46.8932L95.3587 46.635L94.703 46.88ZM89.943 34.14H90.643C90.643 34.3865 90.5067 34.5414 90.4349 34.6022C90.3711 34.6562 90.3233 34.6697 90.3409 34.6633C90.3707 34.6525 90.4664 34.6278 90.664 34.6039C91.0454 34.5578 91.6481 34.532 92.491 34.532V33.832V33.132C91.6352 33.132 90.9639 33.1575 90.496 33.2141C90.2688 33.2415 90.0461 33.281 89.8636 33.3472C89.775 33.3793 89.6476 33.4345 89.5306 33.5334C89.4057 33.6391 89.243 33.8421 89.243 34.14H89.943ZM92.491 33.832V34.532C93.3431 34.532 93.9647 34.5554 94.3707 34.5982C94.5781 34.62 94.6977 34.6438 94.7539 34.6605C94.7837 34.6694 94.7637 34.6671 94.7224 34.6414C94.6915 34.6223 94.5445 34.5266 94.4805 34.3131L95.151 34.112L95.8214 33.9109C95.7434 33.6507 95.5565 33.5113 95.4597 33.4513C95.3524 33.3849 95.2406 33.3446 95.1525 33.3185C94.9731 33.2652 94.7532 33.2307 94.5172 33.2058C94.0366 33.1552 93.3561 33.132 92.491 33.132V33.832ZM95.151 34.112L94.4814 34.3163L96.4974 40.9243L97.167 40.72L97.8365 40.5157L95.8205 33.9077L95.151 34.112ZM97.167 40.72L97.8393 40.9149L99.7713 34.2509L99.099 34.056L98.4267 33.8611L96.4947 40.5251L97.167 40.72ZM99.099 34.056L99.7251 34.369C99.6597 34.4997 99.569 34.5663 99.5326 34.5901C99.4932 34.6157 99.4684 34.6229 99.4765 34.6202C99.4935 34.6143 99.5534 34.5984 99.6785 34.5822C99.923 34.5507 100.303 34.532 100.835 34.532V33.832V33.132C100.284 33.132 99.8336 33.1506 99.4994 33.1938C99.3352 33.2149 99.1688 33.2457 99.0224 33.2958C98.9488 33.3211 98.8581 33.3586 98.7686 33.4169C98.682 33.4733 98.5569 33.5749 98.4729 33.7429L99.099 34.056ZM100.835 33.832V34.532C102.072 34.532 102.959 34.5625 103.515 34.6194C103.803 34.6489 103.952 34.681 104.007 34.6997C104.047 34.7133 103.968 34.6961 103.877 34.6057C103.823 34.5515 103.746 34.4516 103.713 34.3027C103.679 34.1461 103.708 34.005 103.755 33.9027L104.391 34.196L105.027 34.4893C105.088 34.3567 105.121 34.1861 105.08 34.0012C105.041 33.8238 104.948 33.6965 104.867 33.6157C104.724 33.4722 104.55 33.4057 104.457 33.3738C104.243 33.3015 103.962 33.2578 103.657 33.2266C103.027 33.1621 102.08 33.132 100.835 33.132V33.832ZM104.391 34.196L103.731 33.964L97.1505 52.696L97.811 52.928L98.4714 53.16L105.051 34.428L104.391 34.196ZM97.811 52.928L97.1205 52.8129C97.1624 52.5612 97.3258 52.4307 97.3838 52.3908C97.4188 52.3668 97.4476 52.3527 97.4633 52.3457C97.4798 52.3384 97.4907 52.3349 97.4934 52.334C97.4978 52.3326 97.4879 52.3359 97.4575 52.3414C97.4286 52.3466 97.3887 52.3524 97.3361 52.3581C97.1183 52.3819 96.7686 52.396 96.271 52.396V53.096V53.796C96.7813 53.796 97.1923 53.7821 97.4879 53.7499C97.6304 53.7343 97.7821 53.711 97.915 53.669C97.9792 53.6488 98.0787 53.6122 98.1778 53.5439C98.2713 53.4795 98.4548 53.3228 98.5014 53.0431L97.811 52.928ZM96.271 53.096V52.396C95.299 52.396 94.3954 52.3593 93.5596 52.2866L93.499 52.984L93.4383 53.6814C94.3198 53.758 95.2643 53.796 96.271 53.796V53.096ZM93.499 52.984L93.5445 52.2855C93.1201 52.2578 92.836 52.2271 92.6722 52.1973C92.5802 52.1806 92.5755 52.1725 92.6102 52.1882C92.6201 52.1926 92.7177 52.2343 92.8094 52.3432C92.8616 52.4052 92.9235 52.503 92.9509 52.6366C92.9796 52.7762 92.9611 52.9096 92.9169 53.02L92.267 52.76L91.617 52.5C91.4998 52.7931 91.5937 53.073 91.7385 53.245C91.8489 53.3761 91.9792 53.4394 92.0357 53.4648C92.1638 53.5225 92.3084 53.5541 92.4217 53.5747C92.6686 53.6196 93.0191 53.6542 93.4534 53.6825L93.499 52.984ZM92.267 52.76L92.9137 53.0279L95.3497 47.1479L94.703 46.88L94.0563 46.6121L91.6203 52.4921L92.267 52.76ZM94.703 46.88L95.3587 46.635L90.5987 33.895L89.943 34.14L89.2872 34.385L94.0472 47.125L94.703 46.88Z" fill="black" mask="url(#path-11-outside-1_1243_12258)"/>
</g>
<path d="M122.777 40.6538V40.6548L134.152 44.5298C134.183 44.5401 134.21 44.5589 134.23 44.5835C134.251 44.6082 134.265 44.6386 134.27 44.6704C134.274 44.7021 134.27 44.7346 134.258 44.7642C134.246 44.7933 134.226 44.8187 134.2 44.8374L131.541 46.7427L131.094 47.064L130.554 47.4517L131.076 47.8628C132.752 49.1818 134.859 49.9819 137.158 49.9819C140.857 49.9819 144.081 47.9356 145.771 44.9224L145.782 44.9009C145.823 44.8332 145.876 44.7733 145.938 44.7251C146.005 44.674 146.081 44.6364 146.162 44.6147C146.243 44.5931 146.327 44.5872 146.41 44.5981C146.493 44.6091 146.574 44.6363 146.646 44.6782V44.6792L150.284 46.7788C150.421 46.8585 150.524 46.9868 150.571 47.1382C150.619 47.2896 150.607 47.4534 150.54 47.5972L150.488 47.7065C147.842 52.329 142.866 55.4506 137.173 55.4507C132.958 55.4507 129.152 53.7219 126.377 50.9526L126.077 50.6528L125.732 50.8999L125.523 51.0503L122.867 52.9546C122.841 52.9734 122.81 52.9844 122.777 52.9868C122.745 52.9891 122.713 52.9829 122.685 52.9683C122.656 52.9535 122.631 52.9313 122.614 52.9038C122.606 52.8901 122.599 52.8752 122.595 52.8599L122.588 52.812L122.547 40.8198C122.547 40.7924 122.554 40.7651 122.566 40.7407C122.579 40.7161 122.598 40.6944 122.62 40.6782C122.643 40.6621 122.669 40.652 122.696 40.6479C122.723 40.6439 122.751 40.6452 122.777 40.6538ZM137.16 26.5493C141.375 26.5493 145.18 28.2783 147.955 31.0474L148.256 31.3472L148.601 31.1001L148.809 30.9487L151.465 29.0454C151.491 29.0267 151.522 29.0156 151.555 29.0132C151.587 29.0108 151.62 29.017 151.648 29.0317C151.677 29.0465 151.702 29.0687 151.719 29.0962C151.727 29.1099 151.734 29.1248 151.738 29.1401L151.745 29.188L151.785 41.1802C151.785 41.2076 151.779 41.2348 151.767 41.2593C151.754 41.284 151.735 41.3055 151.713 41.3218C151.69 41.3379 151.664 41.3479 151.637 41.3521C151.609 41.3561 151.581 41.354 151.555 41.3452H151.556L140.18 37.4702C140.149 37.4598 140.122 37.4412 140.102 37.4165C140.081 37.3918 140.067 37.3614 140.062 37.3296C140.058 37.2979 140.062 37.2654 140.074 37.2358C140.087 37.2062 140.108 37.1805 140.134 37.1616L140.133 37.1606L142.791 35.2573L143.239 34.936L143.778 34.5483L143.257 34.1372C141.581 32.8182 139.473 32.0181 137.174 32.0181C133.475 32.0181 130.251 34.0644 128.562 37.0776L128.55 37.0991C128.509 37.1668 128.456 37.2267 128.394 37.2749C128.327 37.3258 128.252 37.3635 128.171 37.3853C128.09 37.4069 128.005 37.4128 127.922 37.4019C127.839 37.3909 127.758 37.3638 127.686 37.3218V37.3208L124.048 35.2212C123.911 35.1416 123.809 35.0137 123.762 34.8628C123.714 34.7113 123.725 34.5467 123.792 34.4028L123.839 34.3003C126.484 29.6736 131.464 26.5493 137.16 26.5493Z" fill="white" stroke="black"/>
<defs>
<filter id="filter0_dd_1243_12258" x="0.257812" y="0.500488" width="172.684" height="84.4995" filterUnits="userSpaceOnUse" color-interpolation-filters="sRGB">
<feFlood flood-opacity="0" result="BackgroundImageFix"/>
<feColorMatrix in="SourceAlpha" type="matrix" values="0 0 0 0 0 0 0 0 0 0 0 0 0 0 0 0 0 0 127 0" result="hardAlpha"/>
<feOffset dx="0.2" dy="2.5"/>
<feComposite in2="hardAlpha" operator="out"/>
<feColorMatrix type="matrix" values="0 0 0 0 0 0 0 0 0 0 0 0 0 0 0 0 0 0 0.5 0"/>
<feBlend mode="normal" in2="BackgroundImageFix" result="effect1_dropShadow_1243_12258"/>
<feColorMatrix in="SourceAlpha" type="matrix" values="0 0 0 0 0 0 0 0 0 0 0 0 0 0 0 0 0 0 127 0" result="hardAlpha"/>
<feOffset dy="0.6"/>
<feComposite in2="hardAlpha" operator="out"/>
<feColorMatrix type="matrix" values="0 0 0 0 0 0 0 0 0 0 0 0 0 0 0 0 0 0 1 0"/>
<feBlend mode="normal" in2="effect1_dropShadow_1243_12258" result="effect2_dropShadow_1243_12258"/>
<feBlend mode="normal" in="SourceGraphic" in2="effect2_dropShadow_1243_12258" result="shape"/>
</filter>
<filter id="filter1_dd_1243_12258" x="0.257812" y="0.500488" width="172.684" height="84.4995" filterUnits="userSpaceOnUse" color-interpolation-filters="sRGB">
<feFlood flood-opacity="0" result="BackgroundImageFix"/>
<feColorMatrix in="SourceAlpha" type="matrix" values="0 0 0 0 0 0 0 0 0 0 0 0 0 0 0 0 0 0 127 0" result="hardAlpha"/>
<feOffset dx="0.2" dy="2.5"/>
<feComposite in2="hardAlpha" operator="out"/>
<feColorMatrix type="matrix" values="0 0 0 0 0 0 0 0 0 0 0 0 0 0 0 0 0 0 0.5 0"/>
<feBlend mode="normal" in2="BackgroundImageFix" result="effect1_dropShadow_1243_12258"/>
<feColorMatrix in="SourceAlpha" type="matrix" values="0 0 0 0 0 0 0 0 0 0 0 0 0 0 0 0 0 0 127 0" result="hardAlpha"/>
<feOffset dy="0.6"/>
<feComposite in2="hardAlpha" operator="out"/>
<feColorMatrix type="matrix" values="0 0 0 0 0 0 0 0 0 0 0 0 0 0 0 0 0 0 1 0"/>
<feBlend mode="normal" in2="effect1_dropShadow_1243_12258" result="effect2_dropShadow_1243_12258"/>
<feBlend mode="normal" in="SourceGraphic" in2="effect2_dropShadow_1243_12258" result="shape"/>
</filter>
<filter id="filter2_d_1243_12258" x="37.6992" y="27.7002" width="67.3984" height="28.0957" filterUnits="userSpaceOnUse" color-interpolation-filters="sRGB">
<feFlood flood-opacity="0" result="BackgroundImageFix"/>
<feColorMatrix in="SourceAlpha" type="matrix" values="0 0 0 0 0 0 0 0 0 0 0 0 0 0 0 0 0 0 127 0" result="hardAlpha"/>
<feOffset dy="2"/>
<feComposite in2="hardAlpha" operator="out"/>
<feColorMatrix type="matrix" values="0 0 0 0 0 0 0 0 0 0 0 0 0 0 0 0 0 0 1 0"/>
<feBlend mode="normal" in2="BackgroundImageFix" result="effect1_dropShadow_1243_12258"/>
<feBlend mode="normal" in="SourceGraphic" in2="effect1_dropShadow_1243_12258" result="shape"/>
</filter>
</defs>
</svg>
